<svg width="752" height="423" viewBox="0 0 752 423" fill="none" xmlns="http://www.w3.org/2000/svg">
<rect width="752" height="423" fill="#0A0B0D"/>
<path d="M72.9773 43.2727V52H71.9545L67.1989 45.1477H67.1136V52H66.0568V43.2727H67.0795L71.8523 50.142H71.9375V43.2727H72.9773ZM77.6147 52.1364C77.0238 52.1364 76.5053 51.9957 76.0593 51.7145C75.6161 51.4332 75.2695 51.0398 75.0195 50.5341C74.7724 50.0284 74.6488 49.4375 74.6488 48.7614C74.6488 48.0795 74.7724 47.4844 75.0195 46.9759C75.2695 46.4673 75.6161 46.0724 76.0593 45.7912C76.5053 45.5099 77.0238 45.3693 77.6147 45.3693C78.2056 45.3693 78.7227 45.5099 79.1658 45.7912C79.6119 46.0724 79.9585 46.4673 80.2056 46.9759C80.4556 47.4844 80.5806 48.0795 80.5806 48.7614C80.5806 49.4375 80.4556 50.0284 80.2056 50.5341C79.9585 51.0398 79.6119 51.4332 79.1658 51.7145C78.7227 51.9957 78.2056 52.1364 77.6147 52.1364ZM77.6147 51.233C78.0636 51.233 78.4329 51.1179 78.7227 50.8878C79.0124 50.6577 79.2269 50.3551 79.3661 49.9801C79.5053 49.6051 79.5749 49.1989 79.5749 48.7614C79.5749 48.3239 79.5053 47.9162 79.3661 47.5384C79.2269 47.1605 79.0124 46.8551 78.7227 46.6222C78.4329 46.3892 78.0636 46.2727 77.6147 46.2727C77.1658 46.2727 76.7965 46.3892 76.5067 46.6222C76.217 46.8551 76.0025 47.1605 75.8633 47.5384C75.7241 47.9162 75.6545 48.3239 75.6545 48.7614C75.6545 49.1989 75.7241 49.6051 75.8633 49.9801C76.0025 50.3551 76.217 50.6577 76.5067 50.8878C76.7965 51.1179 77.1658 51.233 77.6147 51.233ZM82.1158 52V45.4545H83.0874V46.4432H83.1555C83.2749 46.1193 83.4908 45.8565 83.8033 45.6548C84.1158 45.4531 84.468 45.3523 84.8601 45.3523C84.9339 45.3523 85.0263 45.3537 85.1371 45.3565C85.2479 45.3594 85.3317 45.3636 85.3885 45.3693V46.392C85.3544 46.3835 85.2763 46.3707 85.1541 46.3537C85.0348 46.3338 84.9084 46.3239 84.7749 46.3239C84.4567 46.3239 84.1726 46.3906 83.9226 46.5241C83.6754 46.6548 83.4794 46.8366 83.3345 47.0696C83.1925 47.2997 83.1214 47.5625 83.1214 47.858V52H82.1158ZM89.8374 45.4545V46.3068H86.4453V45.4545H89.8374ZM87.4339 43.8864H88.4396V50.125C88.4396 50.4091 88.4808 50.6222 88.5632 50.7642C88.6484 50.9034 88.7564 50.9972 88.8871 51.0455C89.0206 51.0909 89.1612 51.1136 89.3089 51.1136C89.4197 51.1136 89.5107 51.108 89.5817 51.0966C89.6527 51.0824 89.7095 51.071 89.7521 51.0625L89.9567 51.9659C89.8885 51.9915 89.7933 52.017 89.6712 52.0426C89.549 52.071 89.3942 52.0852 89.2067 52.0852C88.9226 52.0852 88.6442 52.0241 88.3714 51.902C88.1016 51.7798 87.8771 51.5938 87.6982 51.3438C87.522 51.0938 87.4339 50.7784 87.4339 50.3977V43.8864ZM92.4964 48.0625V52H91.4908V43.2727H92.4964V46.4773H92.5817C92.7351 46.1392 92.9652 45.8707 93.272 45.6719C93.5817 45.4702 93.9936 45.3693 94.5078 45.3693C94.9538 45.3693 95.3445 45.4588 95.6797 45.6378C96.0149 45.8139 96.2749 46.0852 96.4595 46.4517C96.647 46.8153 96.7408 47.2784 96.7408 47.8409V52H95.7351V47.9091C95.7351 47.3892 95.6001 46.9872 95.3303 46.7031C95.0632 46.4162 94.6925 46.2727 94.218 46.2727C93.8885 46.2727 93.593 46.3423 93.3317 46.4815C93.0732 46.6207 92.8686 46.8239 92.718 47.0909C92.5703 47.358 92.4964 47.6818 92.4964 48.0625ZM103.217 46.9205L102.314 47.1761C102.257 47.0256 102.173 46.8793 102.062 46.7372C101.954 46.5923 101.806 46.473 101.619 46.3793C101.431 46.2855 101.191 46.2386 100.899 46.2386C100.498 46.2386 100.164 46.331 99.8974 46.5156C99.6332 46.6974 99.5011 46.929 99.5011 47.2102C99.5011 47.4602 99.592 47.6577 99.7738 47.8026C99.9556 47.9474 100.24 48.0682 100.626 48.1648L101.598 48.4034C102.183 48.5455 102.619 48.7628 102.906 49.0554C103.193 49.3452 103.336 49.7187 103.336 50.1761C103.336 50.5511 103.228 50.8864 103.012 51.1818C102.799 51.4773 102.501 51.7102 102.118 51.8807C101.734 52.0511 101.288 52.1364 100.779 52.1364C100.112 52.1364 99.5593 51.9915 99.1218 51.7017C98.6843 51.4119 98.4073 50.9886 98.2908 50.4318L99.2454 50.1932C99.3363 50.5455 99.5082 50.8097 99.761 50.9858C100.017 51.1619 100.35 51.25 100.762 51.25C101.231 51.25 101.603 51.1506 101.879 50.9517C102.157 50.75 102.297 50.5085 102.297 50.2273C102.297 50 102.217 49.8097 102.058 49.6562C101.899 49.5 101.654 49.3835 101.325 49.3068L100.234 49.0511C99.6346 48.9091 99.1942 48.6889 98.913 48.3906C98.6346 48.0895 98.4954 47.7131 98.4954 47.2614C98.4954 46.892 98.5991 46.5653 98.8065 46.2812C99.0167 45.9972 99.3022 45.7741 99.663 45.6122C100.027 45.4503 100.439 45.3693 100.899 45.3693C101.547 45.3693 102.055 45.5114 102.424 45.7955C102.797 46.0795 103.061 46.4545 103.217 46.9205ZM107.697 45.4545V46.3068H104.305V45.4545H107.697ZM105.293 43.8864H106.299V50.125C106.299 50.4091 106.34 50.6222 106.423 50.7642C106.508 50.9034 106.616 50.9972 106.746 51.0455C106.88 51.0909 107.021 51.1136 107.168 51.1136C107.279 51.1136 107.37 51.108 107.441 51.0966C107.512 51.0824 107.569 51.071 107.612 51.0625L107.816 51.9659C107.748 51.9915 107.653 52.017 107.531 52.0426C107.408 52.071 107.254 52.0852 107.066 52.0852C106.782 52.0852 106.504 52.0241 106.231 51.902C105.961 51.7798 105.737 51.5938 105.558 51.3438C105.381 51.0938 105.293 50.7784 105.293 50.3977V43.8864ZM111.136 52.1534C110.721 52.1534 110.344 52.0753 110.006 51.919C109.668 51.7599 109.4 51.5312 109.201 51.233C109.002 50.9318 108.903 50.5682 108.903 50.142C108.903 49.767 108.977 49.4631 109.124 49.2301C109.272 48.9943 109.469 48.8097 109.717 48.6761C109.964 48.5426 110.237 48.4432 110.535 48.3778C110.836 48.3097 111.138 48.2557 111.442 48.2159C111.84 48.1648 112.163 48.1264 112.41 48.1009C112.66 48.0724 112.842 48.0256 112.955 47.9602C113.072 47.8949 113.13 47.7812 113.13 47.6193V47.5852C113.13 47.1648 113.015 46.8381 112.785 46.6051C112.558 46.3722 112.212 46.2557 111.749 46.2557C111.269 46.2557 110.893 46.3608 110.62 46.571C110.347 46.7812 110.156 47.0057 110.045 47.2443L109.09 46.9034C109.261 46.5057 109.488 46.196 109.772 45.9744C110.059 45.75 110.371 45.5937 110.71 45.5057C111.05 45.4148 111.386 45.3693 111.715 45.3693C111.925 45.3693 112.167 45.3949 112.44 45.446C112.715 45.4943 112.981 45.5952 113.237 45.7486C113.495 45.902 113.71 46.1335 113.88 46.4432C114.05 46.7528 114.136 47.1676 114.136 47.6875V52H113.13V51.1136H113.079C113.011 51.2557 112.897 51.4077 112.738 51.5696C112.579 51.7315 112.367 51.8693 112.103 51.983C111.839 52.0966 111.516 52.1534 111.136 52.1534ZM111.289 51.25C111.687 51.25 112.022 51.1719 112.295 51.0156C112.57 50.8594 112.778 50.6577 112.917 50.4105C113.059 50.1634 113.13 49.9034 113.13 49.6307V48.7102C113.087 48.7614 112.994 48.8082 112.849 48.8509C112.707 48.8906 112.542 48.9261 112.354 48.9574C112.17 48.9858 111.989 49.0114 111.813 49.0341C111.64 49.054 111.499 49.071 111.391 49.0852C111.13 49.1193 110.886 49.1747 110.658 49.2514C110.434 49.3253 110.252 49.4375 110.113 49.5881C109.977 49.7358 109.908 49.9375 109.908 50.1932C109.908 50.5426 110.038 50.8068 110.296 50.9858C110.558 51.1619 110.888 51.25 111.289 51.25ZM115.971 52V45.4545H116.943V46.4432H117.011C117.13 46.1193 117.346 45.8565 117.659 45.6548C117.971 45.4531 118.324 45.3523 118.716 45.3523C118.789 45.3523 118.882 45.3537 118.993 45.3565C119.103 45.3594 119.187 45.3636 119.244 45.3693V46.392C119.21 46.3835 119.132 46.3707 119.01 46.3537C118.89 46.3338 118.764 46.3239 118.63 46.3239C118.312 46.3239 118.028 46.3906 117.778 46.5241C117.531 46.6548 117.335 46.8366 117.19 47.0696C117.048 47.2997 116.977 47.5625 116.977 47.858V52H115.971Z" fill="white"/>
<path d="M69.087 90.056V133H74.882V113.297H97.391V133H103.186V90.056H97.391V108.234H74.882V90.056H69.087ZM124.497 133.854C134.257 133.854 139.808 126.534 139.808 117.201C139.808 107.868 134.135 100.609 124.497 100.609C114.92 100.609 109.186 107.868 109.186 117.201C109.186 126.534 114.737 133.854 124.497 133.854ZM134.196 118.36C134.196 125.192 129.804 129.157 124.497 129.157C119.19 129.157 114.859 124.948 114.859 118.36V116.042C114.859 109.393 119.19 105.306 124.497 105.306C129.804 105.306 134.196 109.271 134.196 116.042V118.36ZM141.023 101.463L151.332 133.061H156.944L164.63 108.295H164.691L172.438 133.061H178.172L188.115 101.463H182.686L175.366 125.863H175.305L167.619 101.402H162.007L154.504 125.985H154.443L146.94 101.463H141.023ZM206.357 116.042C206.357 109.393 210.566 105.306 215.934 105.306C220.57 105.306 223.132 108.051 223.925 111.284H229.476C228.378 104.879 223.437 100.609 215.934 100.609C206.296 100.609 200.745 107.685 200.745 117.201C200.745 126.656 206.174 133.854 215.934 133.854C223.376 133.854 228.256 129.523 229.537 122.996H223.986C223.132 126.412 220.448 129.157 215.934 129.157C210.566 129.157 206.357 125.009 206.357 118.421V116.042ZM234.007 110.247H239.558C239.863 106.892 242.303 104.879 246.817 104.879C251.819 104.879 253.527 107.441 253.527 109.942C253.527 112.382 251.88 113.419 248.647 113.968L243.889 114.761C237.24 115.798 232.848 118.726 232.848 124.521C232.848 130.438 237.423 133.854 243.645 133.854C248.952 133.854 252.856 131.17 254.381 127.266H254.442V127.876C254.381 131.231 255.967 133 259.932 133H263.531V128.486H261.579C260.054 128.486 259.261 127.998 259.261 126.046V111.101C259.261 103.964 254.137 100.609 246.939 100.609C239.009 100.609 234.556 104.574 234.007 110.247ZM253.71 119.885C253.71 125.619 249.989 129.462 244.682 129.462C240.9 129.462 238.338 127.632 238.338 124.338V123.972C238.338 120.922 240.839 119.275 244.865 118.604L249.501 117.811C251.697 117.445 253.1 116.591 253.71 115.737V119.885ZM272.637 114.517C272.637 108.295 276.663 105.367 281.055 105.367C285.264 105.367 288.863 108.112 288.863 113.785V133H294.475V113.297C294.475 105.001 289.29 100.609 282.702 100.609C278.066 100.609 274.223 102.622 272.393 106.831H272.332V101.463H267.025V133H272.637V114.517ZM308.356 101.463L318.665 133.061H324.277L331.963 108.295H332.024L339.771 133.061H345.505L355.448 101.463H350.019L342.699 125.863H342.638L334.952 101.402H329.34L321.837 125.985H321.776L314.273 101.463H308.356ZM371.773 133.854C379.337 133.854 384.461 129.706 385.62 123.85H379.947C379.459 126.595 376.714 129.462 371.834 129.462C366.283 129.462 362.135 125.314 362.135 118.665V118.482H386.23V116.225C386.23 107.38 380.984 100.609 371.712 100.609C362.135 100.609 356.462 107.807 356.462 117.201C356.462 126.534 361.83 133.854 371.773 133.854ZM371.712 104.94C376.775 104.94 380.435 108.417 380.557 114.456H362.196C362.684 108.478 366.71 104.94 371.712 104.94ZM74.089 182.517C74.089 176.295 78.115 173.367 82.507 173.367C86.716 173.367 90.315 176.112 90.315 181.785V201H95.927V181.297C95.927 173.001 90.742 168.609 84.154 168.609C79.64 168.609 75.858 170.561 74.028 174.526H73.967V155.738H68.477V201H74.089V182.517ZM116.276 201.854C123.84 201.854 128.964 197.706 130.123 191.85H124.45C123.962 194.595 121.217 197.462 116.337 197.462C110.786 197.462 106.638 193.314 106.638 186.665V186.482H130.733V184.225C130.733 175.38 125.487 168.609 116.215 168.609C106.638 168.609 100.965 175.807 100.965 185.201C100.965 194.534 106.333 201.854 116.276 201.854ZM116.215 172.94C121.278 172.94 124.938 176.417 125.06 182.456H106.699C107.187 176.478 111.213 172.94 116.215 172.94ZM136.089 193.497C136.089 198.499 138.468 201 143.836 201H150.729V196.303H145.117C142.677 196.303 141.701 195.266 141.701 192.826V155.738H136.089V193.497ZM154.735 169.463V212.712H160.347V195.388H160.408C162.36 199.414 166.02 201.854 171.083 201.854C179.806 201.854 185.052 194.595 185.052 185.201C185.052 175.868 179.928 168.609 171.083 168.609C165.776 168.609 162.055 171.171 160.164 175.441H160.103V169.463H154.735ZM179.379 184.042V186.36C179.379 193.131 175.109 197.157 169.863 197.157C164.617 197.157 160.347 193.009 160.347 186.36V184.042C160.347 177.393 164.617 173.245 169.863 173.245C175.109 173.245 179.379 177.21 179.379 184.042ZM200.664 169.463V212.712H206.276V195.388H206.337C208.289 199.414 211.949 201.854 217.012 201.854C225.735 201.854 230.981 194.595 230.981 185.201C230.981 175.868 225.857 168.609 217.012 168.609C211.705 168.609 207.984 171.171 206.093 175.441H206.032V169.463H200.664ZM225.308 184.042V186.36C225.308 193.131 221.038 197.157 215.792 197.157C210.546 197.157 206.276 193.009 206.276 186.36V184.042C206.276 177.393 210.546 173.245 215.792 173.245C221.038 173.245 225.308 177.21 225.308 184.042ZM250.071 201.854C257.635 201.854 262.759 197.706 263.918 191.85H258.245C257.757 194.595 255.012 197.462 250.132 197.462C244.581 197.462 240.433 193.314 240.433 186.665V186.482H264.528V184.225C264.528 175.38 259.282 168.609 250.01 168.609C240.433 168.609 234.76 175.807 234.76 185.201C234.76 194.534 240.128 201.854 250.071 201.854ZM250.01 172.94C255.073 172.94 258.733 176.417 258.855 182.456H240.494C240.982 176.478 245.008 172.94 250.01 172.94ZM283.609 201.854C293.369 201.854 298.92 194.534 298.92 185.201C298.92 175.868 293.247 168.609 283.609 168.609C274.032 168.609 268.298 175.868 268.298 185.201C268.298 194.534 273.849 201.854 283.609 201.854ZM293.308 186.36C293.308 193.192 288.916 197.157 283.609 197.157C278.302 197.157 273.971 192.948 273.971 186.36V184.042C273.971 177.393 278.302 173.306 283.609 173.306C288.916 173.306 293.308 177.271 293.308 184.042V186.36ZM304.316 169.463V212.712H309.928V195.388H309.989C311.941 199.414 315.601 201.854 320.664 201.854C329.387 201.854 334.633 194.595 334.633 185.201C334.633 175.868 329.509 168.609 320.664 168.609C315.357 168.609 311.636 171.171 309.745 175.441H309.684V169.463H304.316ZM328.96 184.042V186.36C328.96 193.131 324.69 197.157 319.444 197.157C314.198 197.157 309.928 193.009 309.928 186.36V184.042C309.928 177.393 314.198 173.245 319.444 173.245C324.69 173.245 328.96 177.21 328.96 184.042ZM339.998 193.497C339.998 198.499 342.377 201 347.745 201H354.638V196.303H349.026C346.586 196.303 345.61 195.266 345.61 192.826V155.738H339.998V193.497ZM371.237 201.854C378.801 201.854 383.925 197.706 385.084 191.85H379.411C378.923 194.595 376.178 197.462 371.298 197.462C365.747 197.462 361.599 193.314 361.599 186.665V186.482H385.694V184.225C385.694 175.38 380.448 168.609 371.176 168.609C361.599 168.609 355.926 175.807 355.926 185.201C355.926 194.534 361.294 201.854 371.237 201.854ZM371.176 172.94C376.239 172.94 379.899 176.417 380.021 182.456H361.66C362.148 176.478 366.174 172.94 371.176 172.94ZM66.159 259.789C66.342 265.889 71.527 269.915 79.762 269.915C87.509 269.915 92.999 266.194 92.999 260.033C92.999 254.665 89.156 251.737 82.995 250.883L78.176 250.212C74.577 249.663 72.747 248.321 72.747 245.637C72.747 242.77 75.37 240.757 79.64 240.757C84.032 240.757 86.472 242.831 86.655 246.003H92.328C92.084 240.879 87.692 236.487 79.701 236.487C72.381 236.487 67.135 240.208 67.135 246.064C67.135 251.493 70.856 254.177 76.346 254.97L81.165 255.641C85.008 256.19 87.387 257.471 87.387 260.46C87.387 263.693 84.398 265.645 79.945 265.645C75.309 265.645 72.076 263.754 71.893 259.789H66.159ZM111.689 269.854C119.253 269.854 124.377 265.706 125.536 259.85H119.863C119.375 262.595 116.63 265.462 111.75 265.462C106.199 265.462 102.051 261.314 102.051 254.665V254.482H126.146V252.225C126.146 243.38 120.9 236.609 111.628 236.609C102.051 236.609 96.3783 243.807 96.3783 253.201C96.3783 262.534 101.746 269.854 111.689 269.854ZM111.628 240.94C116.691 240.94 120.351 244.417 120.473 250.456H102.112C102.6 244.478 106.626 240.94 111.628 240.94ZM137.114 250.517C137.114 244.295 141.14 241.367 145.532 241.367C149.741 241.367 153.34 244.112 153.34 249.785V269H158.952V249.297C158.952 241.001 153.767 236.609 147.179 236.609C142.543 236.609 138.7 238.622 136.87 242.831H136.809V237.463H131.502V269H137.114V250.517ZM194.308 269V223.738H188.696V243.075H188.635C186.683 239.049 183.023 236.609 177.899 236.609C169.237 236.609 163.991 243.868 163.991 253.201C163.991 262.595 169.115 269.854 177.899 269.854C183.267 269.854 186.988 267.231 188.879 263.022H188.94V269H194.308ZM169.664 254.421V252.103C169.664 245.271 173.934 241.306 179.18 241.306C184.365 241.306 188.696 245.393 188.696 252.103V254.421C188.696 261.009 184.365 265.157 179.18 265.157C173.934 265.157 169.664 261.253 169.664 254.421ZM210.834 246.247H216.385C216.69 242.892 219.13 240.879 223.644 240.879C228.646 240.879 230.354 243.441 230.354 245.942C230.354 248.382 228.707 249.419 225.474 249.968L220.716 250.761C214.067 251.798 209.675 254.726 209.675 260.521C209.675 266.438 214.25 269.854 220.472 269.854C225.779 269.854 229.683 267.17 231.208 263.266H231.269V263.876C231.208 267.231 232.794 269 236.759 269H240.358V264.486H238.406C236.881 264.486 236.088 263.998 236.088 262.046V247.101C236.088 239.964 230.964 236.609 223.766 236.609C215.836 236.609 211.383 240.574 210.834 246.247ZM230.537 255.885C230.537 261.619 226.816 265.462 221.509 265.462C217.727 265.462 215.165 263.632 215.165 260.338V259.972C215.165 256.922 217.666 255.275 221.692 254.604L226.328 253.811C228.524 253.445 229.927 252.591 230.537 251.737V255.885ZM249.464 250.517C249.464 244.295 253.49 241.367 257.882 241.367C262.091 241.367 265.69 244.112 265.69 249.785V269H271.302V249.297C271.302 241.001 266.117 236.609 259.529 236.609C254.893 236.609 251.05 238.622 249.22 242.831H249.159V237.463H243.852V269H249.464V250.517ZM306.657 269V223.738H301.045V243.075H300.984C299.032 239.049 295.372 236.609 290.248 236.609C281.586 236.609 276.34 243.868 276.34 253.201C276.34 262.595 281.464 269.854 290.248 269.854C295.616 269.854 299.337 267.231 301.228 263.022H301.289V269H306.657ZM282.013 254.421V252.103C282.013 245.271 286.283 241.306 291.529 241.306C296.714 241.306 301.045 245.393 301.045 252.103V254.421C301.045 261.009 296.714 265.157 291.529 265.157C286.283 265.157 282.013 261.253 282.013 254.421ZM321.537 259.789C321.72 265.889 326.905 269.915 335.14 269.915C342.887 269.915 348.377 266.194 348.377 260.033C348.377 254.665 344.534 251.737 338.373 250.883L333.554 250.212C329.955 249.663 328.125 248.321 328.125 245.637C328.125 242.77 330.748 240.757 335.018 240.757C339.41 240.757 341.85 242.831 342.033 246.003H347.706C347.462 240.879 343.07 236.487 335.079 236.487C327.759 236.487 322.513 240.208 322.513 246.064C322.513 251.493 326.234 254.177 331.724 254.97L336.543 255.641C340.386 256.19 342.765 257.471 342.765 260.46C342.765 263.693 339.776 265.645 335.323 265.645C330.687 265.645 327.454 263.754 327.271 259.789H321.537ZM353.283 237.463V280.712H358.895V263.388H358.956C360.908 267.414 364.568 269.854 369.631 269.854C378.354 269.854 383.6 262.595 383.6 253.201C383.6 243.868 378.476 236.609 369.631 236.609C364.324 236.609 360.603 239.171 358.712 243.441H358.651V237.463H353.283ZM377.927 252.042V254.36C377.927 261.131 373.657 265.157 368.411 265.157C363.165 265.157 358.895 261.009 358.895 254.36V252.042C358.895 245.393 363.165 241.245 368.411 241.245C373.657 241.245 377.927 245.21 377.927 252.042ZM402.69 269.854C410.254 269.854 415.378 265.706 416.537 259.85H410.864C410.376 262.595 407.631 265.462 402.751 265.462C397.2 265.462 393.052 261.314 393.052 254.665V254.482H417.147V252.225C417.147 243.38 411.901 236.609 402.629 236.609C393.052 236.609 387.379 243.807 387.379 253.201C387.379 262.534 392.747 269.854 402.69 269.854ZM402.629 240.94C407.692 240.94 411.352 244.417 411.474 250.456H393.113C393.601 244.478 397.627 240.94 402.629 240.94ZM428.115 250.517C428.115 244.295 432.141 241.367 436.533 241.367C440.742 241.367 444.341 244.112 444.341 249.785V269H449.953V249.297C449.953 241.001 444.768 236.609 438.18 236.609C433.544 236.609 429.701 238.622 427.871 242.831H427.81V237.463H422.503V269H428.115V250.517ZM485.309 269V223.738H479.697V243.075H479.636C477.684 239.049 474.024 236.609 468.9 236.609C460.238 236.609 454.992 243.868 454.992 253.201C454.992 262.595 460.116 269.854 468.9 269.854C474.268 269.854 477.989 267.231 479.88 263.022H479.941V269H485.309ZM460.665 254.421V252.103C460.665 245.271 464.935 241.306 470.181 241.306C475.366 241.306 479.697 245.393 479.697 252.103V254.421C479.697 261.009 475.366 265.157 470.181 265.157C464.935 265.157 460.665 261.253 460.665 254.421ZM65.732 305.463V310.099H72.991V329.497C72.991 334.499 75.37 337 80.738 337H88.973V332.364H81.775C79.518 332.364 78.603 331.388 78.603 329.131V310.099H88.912V305.463H78.603V296.008H72.991V305.463H65.732ZM99.5851 318.517C99.5851 312.295 103.611 309.367 108.003 309.367C112.212 309.367 115.811 312.112 115.811 317.785V337H121.423V317.297C121.423 309.001 116.238 304.609 109.65 304.609C105.136 304.609 101.354 306.561 99.5241 310.526H99.4631V291.738H93.9731V337H99.5851V318.517ZM141.772 337.854C149.336 337.854 154.46 333.706 155.619 327.85H149.946C149.458 330.595 146.713 333.462 141.833 333.462C136.282 333.462 132.134 329.314 132.134 322.665V322.482H156.229V320.225C156.229 311.38 150.983 304.609 141.711 304.609C132.134 304.609 126.461 311.807 126.461 321.201C126.461 330.534 131.829 337.854 141.772 337.854ZM141.711 308.94C146.774 308.94 150.434 312.417 150.556 318.456H132.195C132.683 312.478 136.709 308.94 141.711 308.94ZM167.075 300.095C169.271 300.095 170.918 298.387 170.918 296.313C170.918 294.117 169.271 292.531 167.075 292.531H166.77C164.574 292.531 162.927 294.117 162.927 296.313C162.927 298.387 164.574 300.095 166.77 300.095H167.075ZM159.084 310.038H164.086V337H169.698V305.463H159.084V310.038ZM176.657 337H182.269V318.7C182.269 314.064 183.977 310.465 189.955 310.465H195.262V305.28H190.992C185.624 305.28 183.062 307.964 182.086 310.77H182.025V305.463H176.657V337ZM213.685 320.042C213.685 313.393 217.894 309.306 223.262 309.306C227.898 309.306 230.46 312.051 231.253 315.284H236.804C235.706 308.879 230.765 304.609 223.262 304.609C213.624 304.609 208.073 311.685 208.073 321.201C208.073 330.656 213.502 337.854 223.262 337.854C230.704 337.854 235.584 333.523 236.865 326.996H231.314C230.46 330.412 227.776 333.157 223.262 333.157C217.894 333.157 213.685 329.009 213.685 322.421V320.042ZM242.065 337H247.677V318.7C247.677 314.064 249.385 310.465 255.363 310.465H260.67V305.28H256.4C251.032 305.28 248.47 307.964 247.494 310.77H247.433V305.463H242.065V337ZM279.079 340.538L292.743 305.463H287.009L277.92 329.68H277.859L268.526 305.463H262.365L274.87 336.146L273.467 339.745C272.064 343.283 271.088 344.015 267.794 344.015H262.548V348.712H267.977C274.26 348.712 276.822 346.394 279.079 340.538ZM296.572 305.463V348.712H302.184V331.388H302.245C304.197 335.414 307.857 337.854 312.92 337.854C321.643 337.854 326.889 330.595 326.889 321.201C326.889 311.868 321.765 304.609 312.92 304.609C307.613 304.609 303.892 307.171 302.001 311.441H301.94V305.463H296.572ZM321.216 320.042V322.36C321.216 329.131 316.946 333.157 311.7 333.157C306.454 333.157 302.184 329.009 302.184 322.36V320.042C302.184 313.393 306.454 309.245 311.7 309.245C316.946 309.245 321.216 313.21 321.216 320.042ZM328.318 305.463V310.099H335.577V329.497C335.577 334.499 337.956 337 343.324 337H351.559V332.364H344.361C342.104 332.364 341.189 331.388 341.189 329.131V310.099H351.498V305.463H341.189V296.008H335.577V305.463H328.318ZM369.45 337.854C379.21 337.854 384.761 330.534 384.761 321.201C384.761 311.868 379.088 304.609 369.45 304.609C359.873 304.609 354.139 311.868 354.139 321.201C354.139 330.534 359.69 337.854 369.45 337.854ZM379.149 322.36C379.149 329.192 374.757 333.157 369.45 333.157C364.143 333.157 359.812 328.948 359.812 322.36V320.042C359.812 313.393 364.143 309.306 369.45 309.306C374.757 309.306 379.149 313.271 379.149 320.042V322.36ZM402.514 323.092C402.514 313.82 414.348 315.101 414.348 304.548C414.348 298.143 409.529 293.141 400.867 293.141C392.571 293.141 387.264 298.143 387.142 305.219H392.693C392.937 301.132 395.499 297.838 400.867 297.838C406.113 297.838 408.614 300.949 408.614 304.67C408.614 312.417 397.207 311.685 397.329 323.092H402.514ZM400.013 337.549C402.331 337.549 404.1 335.78 404.1 333.462C404.1 331.205 402.331 329.436 400.013 329.436C397.756 329.436 395.987 331.205 395.987 333.462C395.987 335.78 397.756 337.549 400.013 337.549Z" fill="white"/>
</svg>
