<svg width="752" height="423" viewBox="0 0 752 423" fill="none" xmlns="http://www.w3.org/2000/svg">
<rect width="752" height="423" fill="white"/>
<path d="M67.1136 43.2727V52H66.0568V43.2727H67.1136ZM69.0962 52V45.4545H70.0678V46.4773H70.1531C70.2894 46.1278 70.5096 45.8565 70.8136 45.6634C71.1175 45.4673 71.4826 45.3693 71.9087 45.3693C72.3406 45.3693 72.6999 45.4673 72.9869 45.6634C73.2766 45.8565 73.5025 46.1278 73.6644 46.4773H73.7326C73.9002 46.1392 74.1516 45.8707 74.4869 45.6719C74.8221 45.4702 75.2241 45.3693 75.6928 45.3693C76.2781 45.3693 76.7567 45.5526 77.1289 45.919C77.5011 46.2827 77.6871 46.8494 77.6871 47.6193V52H76.6815V47.6193C76.6815 47.1364 76.5494 46.7912 76.2852 46.5838C76.021 46.3764 75.7099 46.2727 75.3519 46.2727C74.8917 46.2727 74.5352 46.4119 74.2823 46.6903C74.0295 46.9659 73.9031 47.3153 73.9031 47.7386V52H72.8803V47.517C72.8803 47.1449 72.7596 46.8452 72.5181 46.6179C72.2766 46.3878 71.9656 46.2727 71.5849 46.2727C71.3235 46.2727 71.0792 46.3423 70.8519 46.4815C70.6275 46.6207 70.4457 46.8139 70.3065 47.0611C70.1701 47.3054 70.1019 47.5881 70.1019 47.9091V52H69.0962ZM79.5259 54.4545V45.4545H80.4975V46.4943H80.6168C80.6907 46.3807 80.793 46.2358 80.9237 46.0597C81.0572 45.8807 81.2475 45.7216 81.4947 45.5824C81.7447 45.4403 82.0827 45.3693 82.5089 45.3693C83.06 45.3693 83.5458 45.5071 83.9663 45.7827C84.3867 46.0582 84.7148 46.4489 84.9506 46.9545C85.1864 47.4602 85.3043 48.0568 85.3043 48.7443C85.3043 49.4375 85.1864 50.0384 84.9506 50.5469C84.7148 51.0526 84.3881 51.4446 83.9705 51.723C83.5529 51.9986 83.0714 52.1364 82.5259 52.1364C82.1055 52.1364 81.7688 52.0668 81.516 51.9276C81.2631 51.7855 81.0685 51.625 80.9322 51.446C80.7958 51.2642 80.6907 51.1136 80.6168 50.9943H80.5316V54.4545H79.5259ZM80.5146 48.7273C80.5146 49.2216 80.587 49.6577 80.7319 50.0355C80.8768 50.4105 81.0884 50.7045 81.3668 50.9176C81.6452 51.1278 81.9862 51.233 82.3896 51.233C82.81 51.233 83.1609 51.1222 83.4421 50.9006C83.7262 50.6761 83.9393 50.375 84.0813 49.9972C84.2262 49.6165 84.2987 49.1932 84.2987 48.7273C84.2987 48.267 84.2276 47.8523 84.0856 47.483C83.9464 47.1108 83.7347 46.8168 83.4506 46.6009C83.1694 46.3821 82.8157 46.2727 82.3896 46.2727C81.9805 46.2727 81.6367 46.3764 81.3583 46.5838C81.0799 46.7884 80.8697 47.0753 80.7276 47.4446C80.5856 47.8111 80.5146 48.2386 80.5146 48.7273ZM88.7646 52.1534C88.3498 52.1534 87.9734 52.0753 87.6353 51.919C87.2972 51.7599 87.0288 51.5312 86.8299 51.233C86.631 50.9318 86.5316 50.5682 86.5316 50.142C86.5316 49.767 86.6055 49.4631 86.7532 49.2301C86.9009 48.9943 87.0984 48.8097 87.3455 48.6761C87.5927 48.5426 87.8654 48.4432 88.1637 48.3778C88.4648 48.3097 88.7674 48.2557 89.0714 48.2159C89.4691 48.1648 89.7915 48.1264 90.0387 48.1009C90.2887 48.0724 90.4705 48.0256 90.5842 47.9602C90.7006 47.8949 90.7589 47.7812 90.7589 47.6193V47.5852C90.7589 47.1648 90.6438 46.8381 90.4137 46.6051C90.1864 46.3722 89.8413 46.2557 89.3782 46.2557C88.8981 46.2557 88.5217 46.3608 88.2489 46.571C87.9762 46.7812 87.7844 47.0057 87.6737 47.2443L86.7191 46.9034C86.8896 46.5057 87.1168 46.196 87.4009 45.9744C87.6879 45.75 88.0004 45.5937 88.3384 45.5057C88.6793 45.4148 89.0146 45.3693 89.3441 45.3693C89.5543 45.3693 89.7958 45.3949 90.0685 45.446C90.3441 45.4943 90.6097 45.5952 90.8654 45.7486C91.1239 45.902 91.3384 46.1335 91.5089 46.4432C91.6793 46.7528 91.7646 47.1676 91.7646 47.6875V52H90.7589V51.1136H90.7077C90.6396 51.2557 90.5259 51.4077 90.3668 51.5696C90.2077 51.7315 89.9961 51.8693 89.7319 51.983C89.4677 52.0966 89.1452 52.1534 88.7646 52.1534ZM88.918 51.25C89.3157 51.25 89.6509 51.1719 89.9237 51.0156C90.1992 50.8594 90.4066 50.6577 90.5458 50.4105C90.6879 50.1634 90.7589 49.9034 90.7589 49.6307V48.7102C90.7163 48.7614 90.6225 48.8082 90.4776 48.8509C90.3356 48.8906 90.1708 48.9261 89.9833 48.9574C89.7987 48.9858 89.6183 49.0114 89.4421 49.0341C89.2688 49.054 89.1282 49.071 89.0202 49.0852C88.7589 49.1193 88.5146 49.1747 88.2873 49.2514C88.0629 49.3253 87.881 49.4375 87.7418 49.5881C87.6055 49.7358 87.5373 49.9375 87.5373 50.1932C87.5373 50.5426 87.6665 50.8068 87.9251 50.9858C88.1864 51.1619 88.5174 51.25 88.918 51.25ZM96.2592 52.1364C95.6456 52.1364 95.1172 51.9915 94.674 51.7017C94.2308 51.4119 93.8899 51.0128 93.6513 50.5043C93.4126 49.9957 93.2933 49.4148 93.2933 48.7614C93.2933 48.0966 93.4155 47.5099 93.6598 47.0014C93.907 46.4901 94.2507 46.0909 94.6911 45.804C95.1342 45.5142 95.6513 45.3693 96.2422 45.3693C96.7024 45.3693 97.1172 45.4545 97.4865 45.625C97.8558 45.7955 98.1584 46.0341 98.3942 46.3409C98.63 46.6477 98.7763 47.0057 98.8331 47.4148H97.8274C97.7507 47.1165 97.5803 46.8523 97.3161 46.6222C97.0547 46.3892 96.7024 46.2727 96.2592 46.2727C95.8672 46.2727 95.5234 46.375 95.228 46.5795C94.9354 46.7812 94.7067 47.0668 94.5419 47.4361C94.38 47.8026 94.299 48.233 94.299 48.7273C94.299 49.233 94.3786 49.6733 94.5376 50.0483C94.6996 50.4233 94.9268 50.7145 95.2195 50.9219C95.5149 51.1293 95.8615 51.233 96.2592 51.233C96.5206 51.233 96.7578 51.1875 96.9709 51.0966C97.1839 51.0057 97.3643 50.875 97.5121 50.7045C97.6598 50.5341 97.7649 50.3295 97.8274 50.0909H98.8331C98.7763 50.4773 98.6357 50.8253 98.4112 51.1349C98.1896 51.4418 97.8956 51.6861 97.5291 51.8679C97.1655 52.0469 96.7422 52.1364 96.2592 52.1364ZM103.15 45.4545V46.3068H99.7578V45.4545H103.15ZM100.746 43.8864H101.752V50.125C101.752 50.4091 101.793 50.6222 101.876 50.7642C101.961 50.9034 102.069 50.9972 102.2 51.0455C102.333 51.0909 102.474 51.1136 102.621 51.1136C102.732 51.1136 102.823 51.108 102.894 51.0966C102.965 51.0824 103.022 51.071 103.065 51.0625L103.269 51.9659C103.201 51.9915 103.106 52.017 102.984 52.0426C102.862 52.071 102.707 52.0852 102.519 52.0852C102.235 52.0852 101.957 52.0241 101.684 51.902C101.414 51.7798 101.19 51.5938 101.011 51.3438C100.835 51.0938 100.746 50.7784 100.746 50.3977V43.8864Z" fill="black"/>
<path d="M76.137 104.518C82.205 104.518 86.238 101.41 86.238 96.674C86.238 92.16 83.093 90.162 78.579 89.422L74.879 88.867C71.919 88.386 69.995 87.313 69.995 84.723C69.995 82.207 72.067 80.246 76.1 80.246C80.096 80.246 82.094 82.133 82.279 84.76H85.868C85.683 80.838 82.501 77.397 76.137 77.397C69.921 77.397 66.443 80.764 66.443 84.945C66.443 89.422 69.588 91.457 73.954 92.123L77.654 92.715C80.91 93.233 82.686 94.306 82.686 96.896C82.686 99.745 80.207 101.669 76.174 101.669C72.067 101.669 69.514 99.856 69.329 96.6H65.777C65.925 101.188 69.736 104.518 76.137 104.518ZM97.8363 104.518C102.424 104.518 105.532 102.002 106.235 98.45H102.794C102.498 100.115 100.833 101.854 97.8733 101.854C94.5063 101.854 91.9903 99.338 91.9903 95.305V95.194H106.605V93.825C106.605 88.46 103.423 84.353 97.7993 84.353C91.9903 84.353 88.5493 88.719 88.5493 94.417C88.5493 100.078 91.8053 104.518 97.8363 104.518ZM97.7993 86.98C100.87 86.98 103.09 89.089 103.164 92.752H92.0273C92.3233 89.126 94.7653 86.98 97.7993 86.98ZM113.258 92.789C113.258 89.015 115.7 87.239 118.364 87.239C120.917 87.239 123.1 88.904 123.1 92.345V104H126.504V92.049C126.504 87.017 123.359 84.353 119.363 84.353C116.551 84.353 114.22 85.574 113.11 88.127H113.073V84.871H109.854V104H113.258V92.789ZM147.949 104V76.546H144.545V88.275H144.508C143.324 85.833 141.104 84.353 137.996 84.353C132.742 84.353 129.56 88.756 129.56 94.417C129.56 100.115 132.668 104.518 137.996 104.518C141.252 104.518 143.509 102.927 144.656 100.374H144.693V104H147.949ZM133.001 95.157V93.751C133.001 89.607 135.591 87.202 138.773 87.202C141.918 87.202 144.545 89.681 144.545 93.751V95.157C144.545 99.153 141.918 101.669 138.773 101.669C135.591 101.669 133.001 99.301 133.001 95.157ZM69.551 137.714C69.551 133.681 72.104 131.202 75.36 131.202C78.172 131.202 79.726 132.867 80.207 134.828H83.574C82.908 130.943 79.911 128.353 75.36 128.353C69.514 128.353 66.147 132.645 66.147 138.417C66.147 144.152 69.44 148.518 75.36 148.518C79.874 148.518 82.834 145.891 83.611 141.932H80.244C79.726 144.004 78.098 145.669 75.36 145.669C72.104 145.669 69.551 143.153 69.551 139.157V137.714ZM95.0903 148.518C101.01 148.518 104.377 144.078 104.377 138.417C104.377 132.756 100.936 128.353 95.0903 128.353C89.2812 128.353 85.8033 132.756 85.8033 138.417C85.8033 144.078 89.1703 148.518 95.0903 148.518ZM100.973 139.12C100.973 143.264 98.3093 145.669 95.0903 145.669C91.8713 145.669 89.2443 143.116 89.2443 139.12V137.714C89.2443 133.681 91.8713 131.202 95.0903 131.202C98.3093 131.202 100.973 133.607 100.973 137.714V139.12ZM111.054 136.789C111.054 133.015 113.496 131.239 116.16 131.239C118.713 131.239 120.896 132.904 120.896 136.345V148H124.3V136.049C124.3 131.017 121.155 128.353 117.159 128.353C114.347 128.353 112.016 129.574 110.906 132.127H110.869V128.871H107.65V148H111.054V136.789ZM144.28 128.871H140.802L135.215 144.041H135.178L129.554 128.871H125.817L133.365 148.037H136.917L144.28 128.871ZM154.023 148.518C158.611 148.518 161.719 146.002 162.422 142.45H158.981C158.685 144.115 157.02 145.854 154.06 145.854C150.693 145.854 148.177 143.338 148.177 139.305V139.194H162.792V137.825C162.792 132.46 159.61 128.353 153.986 128.353C148.177 128.353 144.736 132.719 144.736 138.417C144.736 144.078 147.992 148.518 154.023 148.518ZM153.986 130.98C157.057 130.98 159.277 133.089 159.351 136.752H148.214C148.51 133.126 150.952 130.98 153.986 130.98ZM166.041 148H169.445V136.9C169.445 134.088 170.481 131.905 174.107 131.905H177.326V128.76H174.736C171.48 128.76 169.926 130.388 169.334 132.09H169.297V128.871H166.041V148ZM178.184 142.413C178.295 146.113 181.44 148.555 186.435 148.555C191.134 148.555 194.464 146.298 194.464 142.561C194.464 139.305 192.133 137.529 188.396 137.011L185.473 136.604C183.29 136.271 182.18 135.457 182.18 133.829C182.18 132.09 183.771 130.869 186.361 130.869C189.025 130.869 190.505 132.127 190.616 134.051H194.057C193.909 130.943 191.245 128.279 186.398 128.279C181.958 128.279 178.776 130.536 178.776 134.088C178.776 137.381 181.033 139.009 184.363 139.49L187.286 139.897C189.617 140.23 191.06 141.007 191.06 142.82C191.06 144.781 189.247 145.965 186.546 145.965C183.734 145.965 181.773 144.818 181.662 142.413H178.184ZM200.77 125.615C202.102 125.615 203.101 124.579 203.101 123.321C203.101 121.989 202.102 121.027 200.77 121.027H200.585C199.253 121.027 198.254 121.989 198.254 123.321C198.254 124.579 199.253 125.615 200.585 125.615H200.77ZM195.923 131.646H198.957V148H202.361V128.871H195.923V131.646ZM214.907 148.518C220.827 148.518 224.194 144.078 224.194 138.417C224.194 132.756 220.753 128.353 214.907 128.353C209.098 128.353 205.62 132.756 205.62 138.417C205.62 144.078 208.987 148.518 214.907 148.518ZM220.79 139.12C220.79 143.264 218.126 145.669 214.907 145.669C211.688 145.669 209.061 143.116 209.061 139.12V137.714C209.061 133.681 211.688 131.202 214.907 131.202C218.126 131.202 220.79 133.607 220.79 137.714V139.12ZM230.87 136.789C230.87 133.015 233.312 131.239 235.976 131.239C238.529 131.239 240.712 132.904 240.712 136.345V148H244.116V136.049C244.116 131.017 240.971 128.353 236.975 128.353C234.163 128.353 231.832 129.574 230.722 132.127H230.685V128.871H227.466V148H230.87V136.789ZM70.439 169.615C71.771 169.615 72.77 168.579 72.77 167.321C72.77 165.989 71.771 165.027 70.439 165.027H70.254C68.922 165.027 67.923 165.989 67.923 167.321C67.923 168.579 68.922 169.615 70.254 169.615H70.439ZM65.592 175.646H68.626V192H72.03V172.871H65.592V175.646ZM76.2506 192H79.6546V180.308C79.6546 176.867 81.8376 175.239 84.2796 175.239C86.5736 175.239 88.5716 176.756 88.5716 179.864V192H91.9756V180.308C91.9756 176.867 94.1586 175.239 96.6006 175.239C98.8946 175.239 100.893 176.756 100.893 179.864V192H104.297V179.568C104.297 174.906 101.337 172.353 97.5626 172.353C94.8246 172.353 92.4566 173.648 91.3836 176.312H91.3466C90.3476 173.685 88.0536 172.353 85.2416 172.353C82.6516 172.353 80.5056 173.5 79.5066 175.794H79.4696V172.871H76.2506V192ZM108.3 172.871V199.104H111.704V188.596H111.741C112.925 191.038 115.145 192.518 118.216 192.518C123.507 192.518 126.689 188.115 126.689 182.417C126.689 176.756 123.581 172.353 118.216 172.353C114.997 172.353 112.74 173.907 111.593 176.497H111.556V172.871H108.3ZM123.248 181.714V183.12C123.248 187.227 120.658 189.669 117.476 189.669C114.294 189.669 111.704 187.153 111.704 183.12V181.714C111.704 177.681 114.294 175.165 117.476 175.165C120.658 175.165 123.248 177.57 123.248 181.714ZM129.944 192H133.348V180.9C133.348 178.088 134.384 175.905 138.01 175.905H141.229V172.76H138.639C135.383 172.76 133.829 174.388 133.237 176.09H133.2V172.871H129.944V192ZM151.277 192.518C157.197 192.518 160.564 188.078 160.564 182.417C160.564 176.756 157.123 172.353 151.277 172.353C145.468 172.353 141.99 176.756 141.99 182.417C141.99 188.078 145.357 192.518 151.277 192.518ZM157.16 183.12C157.16 187.264 154.496 189.669 151.277 189.669C148.058 189.669 145.431 187.116 145.431 183.12V181.714C145.431 177.681 148.058 175.202 151.277 175.202C154.496 175.202 157.16 177.607 157.16 181.714V183.12ZM179.509 172.871H176.031L170.444 188.041H170.407L164.783 172.871H161.046L168.594 192.037H172.146L179.509 172.871ZM189.252 192.518C193.84 192.518 196.948 190.002 197.651 186.45H194.21C193.914 188.115 192.249 189.854 189.289 189.854C185.922 189.854 183.406 187.338 183.406 183.305V183.194H198.021V181.825C198.021 176.46 194.839 172.353 189.215 172.353C183.406 172.353 179.965 176.719 179.965 182.417C179.965 188.078 183.221 192.518 189.252 192.518ZM189.215 174.98C192.286 174.98 194.506 177.089 194.58 180.752H183.443C183.739 177.126 186.181 174.98 189.215 174.98ZM218.697 192V164.546H215.293V176.275H215.256C214.072 173.833 211.852 172.353 208.744 172.353C203.49 172.353 200.308 176.756 200.308 182.417C200.308 188.115 203.416 192.518 208.744 192.518C212 192.518 214.257 190.927 215.404 188.374H215.441V192H218.697ZM203.749 183.157V181.751C203.749 177.607 206.339 175.202 209.521 175.202C212.666 175.202 215.293 177.681 215.293 181.751V183.157C215.293 187.153 212.666 189.669 209.521 189.669C206.339 189.669 203.749 187.301 203.749 183.157ZM229.129 192H232.385V188.374H232.422C233.569 190.927 235.826 192.518 239.045 192.518C244.41 192.518 247.518 188.115 247.518 182.417C247.518 176.756 244.336 172.353 239.045 172.353C235.974 172.353 233.754 173.833 232.57 176.275H232.533V164.546H229.129V192ZM244.077 183.157C244.077 187.301 241.487 189.669 238.305 189.669C235.123 189.669 232.533 187.153 232.533 183.157V181.751C232.533 177.681 235.123 175.202 238.305 175.202C241.487 175.202 244.077 177.607 244.077 181.751V183.157ZM258.3 194.146L266.588 172.871H263.11L257.597 187.56H257.56L251.899 172.871H248.162L255.747 191.482L254.896 193.665C254.045 195.811 253.453 196.255 251.455 196.255H248.273V199.104H251.566C255.377 199.104 256.931 197.698 258.3 194.146ZM67.294 236H70.994L83.019 212.838V209.952H65.592V212.912H79.356L67.294 236ZM85.3087 225.603H93.6707V233.743H96.5197V225.603H104.882V222.717H96.5197V214.577H93.6707V222.717H85.3087V225.603ZM114.472 224.234C118.616 224.234 121.317 221.311 121.317 216.945C121.317 212.542 118.727 209.471 114.583 209.471C110.402 209.471 107.849 212.542 107.849 216.945C107.849 221.311 110.291 224.234 114.472 224.234ZM112.548 236H115.878L125.128 223.013L134.526 209.952H131.196L121.909 223.013L112.548 236ZM114.472 221.681C111.993 221.681 110.698 219.757 110.698 216.945C110.698 214.096 112.104 212.061 114.583 212.061C117.062 212.061 118.468 214.096 118.468 216.945C118.468 219.757 116.951 221.681 114.472 221.681ZM132.417 236.555C136.561 236.555 139.151 233.484 139.151 229.118C139.151 224.752 136.561 221.681 132.417 221.681C128.273 221.681 125.683 224.752 125.683 229.118C125.683 233.484 128.273 236.555 132.417 236.555ZM132.417 233.965C129.938 233.965 128.569 231.967 128.569 229.118C128.569 226.269 129.938 224.234 132.417 224.234C134.896 224.234 136.302 226.269 136.302 229.118C136.302 231.967 134.896 233.965 132.417 233.965Z" fill="black"/>
<path d="M66.288 282H67.604V273.866H67.618L72.616 282H74.17V272.144H72.882V280.124H72.868L67.912 272.144H66.288V282ZM79.6307 282.196C81.8707 282.196 83.1447 280.516 83.1447 278.374C83.1447 276.232 81.8287 274.566 79.6307 274.566C77.4187 274.566 76.1167 276.232 76.1167 278.374C76.1167 280.516 77.3907 282.196 79.6307 282.196ZM81.8427 278.64C81.8427 280.208 80.8487 281.118 79.6307 281.118C78.4127 281.118 77.4047 280.152 77.4047 278.64V278.108C77.4047 276.582 78.4127 275.644 79.6307 275.644C80.8487 275.644 81.8427 276.554 81.8427 278.108V278.64ZM83.7777 274.762V275.826H85.4297V280.278C85.4297 281.426 85.9757 282 87.2077 282H89.0977V280.936H87.4457C86.9277 280.936 86.7177 280.712 86.7177 280.194V275.826H89.0837V274.762H86.7177V272.592H85.4297V274.762H83.7777ZM96.8846 282.196C99.1246 282.196 100.399 280.516 100.399 278.374C100.399 276.232 99.0826 274.566 96.8846 274.566C94.6726 274.566 93.3706 276.232 93.3706 278.374C93.3706 280.516 94.6446 282.196 96.8846 282.196ZM99.0966 278.64C99.0966 280.208 98.1026 281.118 96.8846 281.118C95.6666 281.118 94.6586 280.152 94.6586 278.64V278.108C94.6586 276.582 95.6666 275.644 96.8846 275.644C98.1026 275.644 99.0966 276.554 99.0966 278.108V278.64ZM103.405 277.758C103.405 276.33 104.329 275.658 105.337 275.658C106.303 275.658 107.129 276.288 107.129 277.59V282H108.417V277.478C108.417 275.574 107.227 274.566 105.715 274.566C104.651 274.566 103.769 275.028 103.349 275.994H103.335V274.762H102.117V282H103.405V277.758ZM110.428 280.278C110.428 281.426 110.988 282 112.206 282H113.788V280.922H112.514C111.954 280.922 111.716 280.684 111.716 280.124V271.612H110.428V280.278ZM117.526 282.812L120.662 274.762H119.346L117.26 280.32H117.246L115.104 274.762H113.69L116.56 281.804L116.238 282.63C115.916 283.442 115.692 283.61 114.936 283.61H113.732V284.688H114.978C116.42 284.688 117.008 284.156 117.526 282.812ZM131.569 282V271.612H130.281V276.05H130.267C129.819 275.126 128.979 274.566 127.803 274.566C125.815 274.566 124.611 276.232 124.611 278.374C124.611 280.53 125.787 282.196 127.803 282.196C129.035 282.196 129.889 281.594 130.323 280.628H130.337V282H131.569ZM125.899 278.654V278.122C125.899 276.554 126.893 275.644 128.083 275.644C129.287 275.644 130.281 276.582 130.281 278.122V278.654C130.281 280.166 129.287 281.118 128.083 281.118C126.893 281.118 125.899 280.222 125.899 278.654ZM134.861 273.53C135.365 273.53 135.743 273.138 135.743 272.662C135.743 272.158 135.365 271.794 134.861 271.794H134.791C134.273 271.794 133.895 272.158 133.895 272.662C133.895 273.138 134.273 273.53 134.791 273.53H134.861ZM133.013 275.812H134.175V282H135.463V274.762H133.013V275.812ZM144.147 282V271.612H142.859V276.05H142.845C142.397 275.126 141.557 274.566 140.381 274.566C138.393 274.566 137.189 276.232 137.189 278.374C137.189 280.53 138.365 282.196 140.381 282.196C141.613 282.196 142.467 281.594 142.901 280.628H142.915V282H144.147ZM138.477 278.654V278.122C138.477 276.554 139.471 275.644 140.661 275.644C141.865 275.644 142.859 276.582 142.859 278.122V278.654C142.859 280.166 141.865 281.118 140.661 281.118C139.471 281.118 138.477 280.222 138.477 278.654ZM148.581 274.762L150.947 282.014H152.249L153.999 276.33H154.013L155.791 282.014H157.121L159.389 274.762H158.143L156.477 280.362H156.463L154.699 274.748H153.397L151.675 280.39H151.661L149.939 274.762H148.581ZM163.562 282.196C165.312 282.196 166.488 281.244 166.754 279.9H165.452C165.34 280.53 164.71 281.188 163.59 281.188C162.302 281.188 161.35 280.236 161.35 278.71V278.668H166.894V278.206C166.894 276.148 165.69 274.566 163.52 274.566C161.364 274.566 160.062 276.218 160.062 278.374C160.062 280.516 161.294 282.196 163.562 282.196ZM163.52 275.56C164.696 275.56 165.536 276.344 165.592 277.744H161.364C161.476 276.372 162.4 275.56 163.52 275.56ZM171.188 279.886C171.23 281.286 172.42 282.21 174.31 282.21C176.102 282.21 177.362 281.356 177.362 279.942C177.362 278.71 176.48 278.038 175.052 277.842L173.946 277.688C173.12 277.562 172.7 277.254 172.7 276.638C172.7 275.98 173.302 275.518 174.282 275.518C175.29 275.518 175.85 275.994 175.892 276.722H177.194C177.138 275.546 176.144 274.538 174.31 274.538C172.616 274.538 171.412 275.392 171.412 276.736C171.412 277.982 172.266 278.598 173.526 278.78L174.632 278.934C175.514 279.06 176.06 279.354 176.06 280.04C176.06 280.782 175.374 281.23 174.352 281.23C173.302 281.23 172.546 280.796 172.518 279.886H171.188ZM182.06 282.196C183.81 282.196 184.986 281.244 185.252 279.9H183.95C183.838 280.53 183.208 281.188 182.088 281.188C180.8 281.188 179.848 280.236 179.848 278.71V278.668H185.392V278.206C185.392 276.148 184.188 274.566 182.018 274.566C179.862 274.566 178.56 276.218 178.56 278.374C178.56 280.516 179.792 282.196 182.06 282.196ZM182.018 275.56C183.194 275.56 184.034 276.344 184.09 277.744H179.862C179.974 276.372 180.898 275.56 182.018 275.56ZM190.167 282.196C191.917 282.196 193.093 281.244 193.359 279.9H192.057C191.945 280.53 191.315 281.188 190.195 281.188C188.907 281.188 187.955 280.236 187.955 278.71V278.668H193.499V278.206C193.499 276.148 192.295 274.566 190.125 274.566C187.969 274.566 186.667 276.218 186.667 278.374C186.667 280.516 187.899 282.196 190.167 282.196ZM190.125 275.56C191.301 275.56 192.141 276.344 192.197 277.744H187.969C188.081 276.372 189.005 275.56 190.125 275.56ZM198.129 276.778H199.403C199.487 276.008 200.033 275.546 201.069 275.546C202.217 275.546 202.609 276.134 202.609 276.708C202.609 277.268 202.231 277.506 201.489 277.632L200.397 277.814C198.871 278.052 197.863 278.724 197.863 280.054C197.863 281.412 198.913 282.196 200.341 282.196C201.559 282.196 202.455 281.58 202.805 280.684H202.819V280.824C202.805 281.594 203.169 282 204.079 282H204.905V280.964H204.457C204.107 280.964 203.925 280.852 203.925 280.404V276.974C203.925 275.336 202.749 274.566 201.097 274.566C199.277 274.566 198.255 275.476 198.129 276.778ZM202.651 278.99C202.651 280.306 201.797 281.188 200.579 281.188C199.711 281.188 199.123 280.768 199.123 280.012V279.928C199.123 279.228 199.697 278.85 200.621 278.696L201.685 278.514C202.189 278.43 202.511 278.234 202.651 278.038V278.99ZM207.434 277.758C207.434 276.33 208.358 275.658 209.366 275.658C210.332 275.658 211.158 276.288 211.158 277.59V282H212.446V277.478C212.446 275.574 211.256 274.566 209.744 274.566C208.68 274.566 207.798 275.028 207.378 275.994H207.364V274.762H206.146V282H207.434V277.758ZM218.82 273.53C219.324 273.53 219.702 273.138 219.702 272.662C219.702 272.158 219.324 271.794 218.82 271.794H218.75C218.232 271.794 217.854 272.158 217.854 272.662C217.854 273.138 218.232 273.53 218.75 273.53H218.82ZM216.972 275.812H218.134V282H219.422V274.762H216.972V275.812ZM222.87 277.758C222.87 276.33 223.794 275.658 224.802 275.658C225.768 275.658 226.594 276.288 226.594 277.59V282H227.882V277.478C227.882 275.574 226.692 274.566 225.18 274.566C224.116 274.566 223.234 275.028 222.814 275.994H222.8V274.762H221.582V282H222.87V277.758ZM230.817 278.108C230.817 276.582 231.783 275.644 233.001 275.644C234.065 275.644 234.653 276.274 234.849 277.016H236.123C235.857 275.546 234.723 274.566 233.015 274.566C230.803 274.566 229.529 276.19 229.529 278.374C229.529 280.544 230.775 282.196 233.015 282.196C234.723 282.196 235.843 281.202 236.123 279.704H234.863C234.653 280.488 234.037 281.118 233.001 281.118C231.783 281.118 230.817 280.166 230.817 278.654V278.108ZM237.769 282H239.057V277.8C239.057 276.736 239.449 275.91 240.821 275.91H242.025V274.72H241.059C239.827 274.72 239.239 275.336 239.015 275.98H239.001V274.762H237.769V282ZM246.167 282.196C247.917 282.196 249.093 281.244 249.359 279.9H248.057C247.945 280.53 247.315 281.188 246.195 281.188C244.907 281.188 243.955 280.236 243.955 278.71V278.668H249.499V278.206C249.499 276.148 248.295 274.566 246.125 274.566C243.969 274.566 242.667 276.218 242.667 278.374C242.667 280.516 243.899 282.196 246.167 282.196ZM246.125 275.56C247.301 275.56 248.141 276.344 248.197 277.744H243.969C244.081 276.372 245.005 275.56 246.125 275.56ZM251.012 276.778H252.286C252.37 276.008 252.916 275.546 253.952 275.546C255.1 275.546 255.492 276.134 255.492 276.708C255.492 277.268 255.114 277.506 254.372 277.632L253.28 277.814C251.754 278.052 250.746 278.724 250.746 280.054C250.746 281.412 251.796 282.196 253.224 282.196C254.442 282.196 255.338 281.58 255.688 280.684H255.702V280.824C255.688 281.594 256.052 282 256.962 282H257.788V280.964H257.34C256.99 280.964 256.808 280.852 256.808 280.404V276.974C256.808 275.336 255.632 274.566 253.98 274.566C252.16 274.566 251.138 275.476 251.012 276.778ZM255.534 278.99C255.534 280.306 254.68 281.188 253.462 281.188C252.594 281.188 252.006 280.768 252.006 280.012V279.928C252.006 279.228 252.58 278.85 253.504 278.696L254.568 278.514C255.072 278.43 255.394 278.234 255.534 278.038V278.99ZM258.524 279.886C258.566 281.286 259.756 282.21 261.646 282.21C263.438 282.21 264.698 281.356 264.698 279.942C264.698 278.71 263.816 278.038 262.388 277.842L261.282 277.688C260.456 277.562 260.036 277.254 260.036 276.638C260.036 275.98 260.638 275.518 261.618 275.518C262.626 275.518 263.186 275.994 263.228 276.722H264.53C264.474 275.546 263.48 274.538 261.646 274.538C259.952 274.538 258.748 275.392 258.748 276.736C258.748 277.982 259.602 278.598 260.862 278.78L261.968 278.934C262.85 279.06 263.396 279.354 263.396 280.04C263.396 280.782 262.71 281.23 261.688 281.23C260.638 281.23 259.882 280.796 259.854 279.886H258.524ZM269.396 282.196C271.146 282.196 272.322 281.244 272.588 279.9H271.286C271.174 280.53 270.544 281.188 269.424 281.188C268.136 281.188 267.184 280.236 267.184 278.71V278.668H272.728V278.206C272.728 276.148 271.524 274.566 269.354 274.566C267.198 274.566 265.896 276.218 265.896 278.374C265.896 280.516 267.128 282.196 269.396 282.196ZM269.354 275.56C270.53 275.56 271.37 276.344 271.426 277.744H267.198C267.31 276.372 268.234 275.56 269.354 275.56ZM67.226 293.53C67.73 293.53 68.108 293.138 68.108 292.662C68.108 292.158 67.73 291.794 67.226 291.794H67.156C66.638 291.794 66.26 292.158 66.26 292.662C66.26 293.138 66.638 293.53 67.156 293.53H67.226ZM65.378 295.812H66.54V302H67.828V294.762H65.378V295.812ZM71.2762 297.758C71.2762 296.33 72.2002 295.658 73.2082 295.658C74.1742 295.658 75.0002 296.288 75.0002 297.59V302H76.2882V297.478C76.2882 295.574 75.0982 294.566 73.5862 294.566C72.5222 294.566 71.6402 295.028 71.2202 295.994H71.2062V294.762H69.9882V302H71.2762V297.758ZM82.3675 298.108C82.3675 296.582 83.3335 295.644 84.5515 295.644C85.6155 295.644 86.2035 296.274 86.3995 297.016H87.6735C87.4075 295.546 86.2735 294.566 84.5655 294.566C82.3535 294.566 81.0795 296.19 81.0795 298.374C81.0795 300.544 82.3255 302.196 84.5655 302.196C86.2735 302.196 87.3935 301.202 87.6735 299.704H86.4135C86.2035 300.488 85.5875 301.118 84.5515 301.118C83.3335 301.118 82.3675 300.166 82.3675 298.654V298.108ZM92.4002 302.196C94.6402 302.196 95.9142 300.516 95.9142 298.374C95.9142 296.232 94.5982 294.566 92.4002 294.566C90.1882 294.566 88.8862 296.232 88.8862 298.374C88.8862 300.516 90.1602 302.196 92.4002 302.196ZM94.6122 298.64C94.6122 300.208 93.6182 301.118 92.4002 301.118C91.1822 301.118 90.1742 300.152 90.1742 298.64V298.108C90.1742 296.582 91.1822 295.644 92.4002 295.644C93.6182 295.644 94.6122 296.554 94.6122 298.108V298.64ZM98.9207 297.758C98.9207 296.33 99.8447 295.658 100.853 295.658C101.819 295.658 102.645 296.288 102.645 297.59V302H103.933V297.478C103.933 295.574 102.743 294.566 101.231 294.566C100.167 294.566 99.2847 295.028 98.8647 295.994H98.8507V294.762H97.6327V302H98.9207V297.758ZM111.926 294.762H110.61L108.496 300.502H108.482L106.354 294.762H104.94L107.782 302.014H109.14L111.926 294.762ZM116.039 302.196C117.789 302.196 118.965 301.244 119.231 299.9H117.929C117.817 300.53 117.187 301.188 116.067 301.188C114.779 301.188 113.827 300.236 113.827 298.71V298.668H119.371V298.206C119.371 296.148 118.167 294.566 115.997 294.566C113.841 294.566 112.539 296.218 112.539 298.374C112.539 300.516 113.771 302.196 116.039 302.196ZM115.997 295.56C117.173 295.56 118.013 296.344 118.069 297.744H113.841C113.953 296.372 114.877 295.56 115.997 295.56ZM121.08 302H122.368V297.8C122.368 296.736 122.76 295.91 124.132 295.91H125.336V294.72H124.37C123.138 294.72 122.55 295.336 122.326 295.98H122.312V294.762H121.08V302ZM126.057 299.886C126.099 301.286 127.289 302.21 129.179 302.21C130.971 302.21 132.231 301.356 132.231 299.942C132.231 298.71 131.349 298.038 129.921 297.842L128.815 297.688C127.989 297.562 127.569 297.254 127.569 296.638C127.569 295.98 128.171 295.518 129.151 295.518C130.159 295.518 130.719 295.994 130.761 296.722H132.063C132.007 295.546 131.013 294.538 129.179 294.538C127.485 294.538 126.281 295.392 126.281 296.736C126.281 297.982 127.135 298.598 128.395 298.78L129.501 298.934C130.383 299.06 130.929 299.354 130.929 300.04C130.929 300.782 130.243 301.23 129.221 301.23C128.171 301.23 127.415 300.796 127.387 299.886H126.057ZM134.997 293.53C135.501 293.53 135.879 293.138 135.879 292.662C135.879 292.158 135.501 291.794 134.997 291.794H134.927C134.409 291.794 134.031 292.158 134.031 292.662C134.031 293.138 134.409 293.53 134.927 293.53H134.997ZM133.149 295.812H134.311V302H135.599V294.762H133.149V295.812ZM140.84 302.196C143.08 302.196 144.354 300.516 144.354 298.374C144.354 296.232 143.038 294.566 140.84 294.566C138.628 294.566 137.326 296.232 137.326 298.374C137.326 300.516 138.6 302.196 140.84 302.196ZM143.052 298.64C143.052 300.208 142.058 301.118 140.84 301.118C139.622 301.118 138.614 300.152 138.614 298.64V298.108C138.614 296.582 139.622 295.644 140.84 295.644C142.058 295.644 143.052 296.554 143.052 298.108V298.64ZM147.36 297.758C147.36 296.33 148.284 295.658 149.292 295.658C150.258 295.658 151.084 296.288 151.084 297.59V302H152.372V297.478C152.372 295.574 151.182 294.566 149.67 294.566C148.606 294.566 147.724 295.028 147.304 295.994H147.29V294.762H146.072V302H147.36V297.758ZM157.374 296.778H158.648C158.732 296.008 159.278 295.546 160.314 295.546C161.462 295.546 161.854 296.134 161.854 296.708C161.854 297.268 161.476 297.506 160.734 297.632L159.642 297.814C158.116 298.052 157.108 298.724 157.108 300.054C157.108 301.412 158.158 302.196 159.586 302.196C160.804 302.196 161.7 301.58 162.05 300.684H162.064V300.824C162.05 301.594 162.414 302 163.324 302H164.15V300.964H163.702C163.352 300.964 163.17 300.852 163.17 300.404V296.974C163.17 295.336 161.994 294.566 160.342 294.566C158.522 294.566 157.5 295.476 157.374 296.778ZM161.896 298.99C161.896 300.306 161.042 301.188 159.824 301.188C158.956 301.188 158.368 300.768 158.368 300.012V299.928C158.368 299.228 158.942 298.85 159.866 298.696L160.93 298.514C161.434 298.43 161.756 298.234 161.896 298.038V298.99ZM166.258 298.108C166.258 296.582 167.224 295.644 168.442 295.644C169.506 295.644 170.094 296.274 170.29 297.016H171.564C171.298 295.546 170.164 294.566 168.456 294.566C166.244 294.566 164.97 296.19 164.97 298.374C164.97 300.544 166.216 302.196 168.456 302.196C170.164 302.196 171.284 301.202 171.564 299.704H170.304C170.094 300.488 169.478 301.118 168.442 301.118C167.224 301.118 166.258 300.166 166.258 298.654V298.108ZM173.211 302H174.499V297.8C174.499 296.736 174.891 295.91 176.263 295.91H177.467V294.72H176.501C175.269 294.72 174.681 295.336 174.457 295.98H174.443V294.762H173.211V302ZM181.623 302.196C183.863 302.196 185.137 300.516 185.137 298.374C185.137 296.232 183.821 294.566 181.623 294.566C179.411 294.566 178.109 296.232 178.109 298.374C178.109 300.516 179.383 302.196 181.623 302.196ZM183.835 298.64C183.835 300.208 182.841 301.118 181.623 301.118C180.405 301.118 179.397 300.152 179.397 298.64V298.108C179.397 296.582 180.405 295.644 181.623 295.644C182.841 295.644 183.835 296.554 183.835 298.108V298.64ZM186.295 299.886C186.337 301.286 187.527 302.21 189.417 302.21C191.209 302.21 192.469 301.356 192.469 299.942C192.469 298.71 191.587 298.038 190.159 297.842L189.053 297.688C188.227 297.562 187.807 297.254 187.807 296.638C187.807 295.98 188.409 295.518 189.389 295.518C190.397 295.518 190.957 295.994 190.999 296.722H192.301C192.245 295.546 191.251 294.538 189.417 294.538C187.723 294.538 186.519 295.392 186.519 296.736C186.519 297.982 187.373 298.598 188.633 298.78L189.739 298.934C190.621 299.06 191.167 299.354 191.167 300.04C191.167 300.782 190.481 301.23 189.459 301.23C188.409 301.23 187.653 300.796 187.625 299.886H186.295ZM193.528 299.886C193.57 301.286 194.76 302.21 196.65 302.21C198.442 302.21 199.702 301.356 199.702 299.942C199.702 298.71 198.82 298.038 197.392 297.842L196.286 297.688C195.46 297.562 195.04 297.254 195.04 296.638C195.04 295.98 195.642 295.518 196.622 295.518C197.63 295.518 198.19 295.994 198.232 296.722H199.534C199.478 295.546 198.484 294.538 196.65 294.538C194.956 294.538 193.752 295.392 193.752 296.736C193.752 297.982 194.606 298.598 195.866 298.78L196.972 298.934C197.854 299.06 198.4 299.354 198.4 300.04C198.4 300.782 197.714 301.23 196.692 301.23C195.642 301.23 194.886 300.796 194.858 299.886H193.528ZM205.753 297.758C205.753 296.33 206.677 295.658 207.685 295.658C208.651 295.658 209.477 296.288 209.477 297.59V302H210.765V297.478C210.765 295.574 209.575 294.566 208.063 294.566C206.999 294.566 206.117 295.028 205.697 295.994H205.683V294.762H204.465V302H205.753V297.758ZM215.912 302.196C217.662 302.196 218.838 301.244 219.104 299.9H217.802C217.69 300.53 217.06 301.188 215.94 301.188C214.652 301.188 213.7 300.236 213.7 298.71V298.668H219.244V298.206C219.244 296.148 218.04 294.566 215.87 294.566C213.714 294.566 212.412 296.218 212.412 298.374C212.412 300.516 213.644 302.196 215.912 302.196ZM215.87 295.56C217.046 295.56 217.886 296.344 217.942 297.744H213.714C213.826 296.372 214.75 295.56 215.87 295.56ZM219.894 294.762L222.26 302.014H223.562L225.312 296.33H225.326L227.104 302.014H228.434L230.702 294.762H229.456L227.79 300.362H227.776L226.012 294.748H224.71L222.988 300.39H222.974L221.252 294.762H219.894ZM65.518 319.886C65.56 321.286 66.75 322.21 68.64 322.21C70.432 322.21 71.692 321.356 71.692 319.942C71.692 318.71 70.81 318.038 69.382 317.842L68.276 317.688C67.45 317.562 67.03 317.254 67.03 316.638C67.03 315.98 67.632 315.518 68.612 315.518C69.62 315.518 70.18 315.994 70.222 316.722H71.524C71.468 315.546 70.474 314.538 68.64 314.538C66.946 314.538 65.742 315.392 65.742 316.736C65.742 317.982 66.596 318.598 67.856 318.78L68.962 318.934C69.844 319.06 70.39 319.354 70.39 320.04C70.39 320.782 69.704 321.23 68.682 321.23C67.632 321.23 66.876 320.796 66.848 319.886H65.518ZM76.3901 322.196C78.1401 322.196 79.3161 321.244 79.5821 319.9H78.2801C78.1681 320.53 77.5381 321.188 76.4181 321.188C75.1301 321.188 74.1781 320.236 74.1781 318.71V318.668H79.7221V318.206C79.7221 316.148 78.5181 314.566 76.3481 314.566C74.1921 314.566 72.8901 316.218 72.8901 318.374C72.8901 320.516 74.1221 322.196 76.3901 322.196ZM76.3481 315.56C77.5241 315.56 78.3641 316.344 78.4201 317.744H74.1921C74.3041 316.372 75.2281 315.56 76.3481 315.56ZM82.7195 317.758C82.7195 316.33 83.6435 315.658 84.6515 315.658C85.6175 315.658 86.4435 316.288 86.4435 317.59V322H87.7315V317.478C87.7315 315.574 86.5415 314.566 85.0295 314.566C83.9655 314.566 83.0835 315.028 82.6635 315.994H82.6495V314.762H81.4315V322H82.7195V317.758ZM96.3364 322V311.612H95.0484V316.05H95.0344C94.5864 315.126 93.7464 314.566 92.5704 314.566C90.5824 314.566 89.3784 316.232 89.3784 318.374C89.3784 320.53 90.5544 322.196 92.5704 322.196C93.8024 322.196 94.6564 321.594 95.0904 320.628H95.1044V322H96.3364ZM90.6664 318.654V318.122C90.6664 316.554 91.6604 315.644 92.8504 315.644C94.0544 315.644 95.0484 316.582 95.0484 318.122V318.654C95.0484 320.166 94.0544 321.118 92.8504 321.118C91.6604 321.118 90.6664 320.222 90.6664 318.654ZM101.546 322.196C103.296 322.196 104.472 321.244 104.738 319.9H103.436C103.324 320.53 102.694 321.188 101.574 321.188C100.286 321.188 99.3343 320.236 99.3343 318.71V318.668H104.878V318.206C104.878 316.148 103.674 314.566 101.504 314.566C99.3483 314.566 98.0463 316.218 98.0463 318.374C98.0463 320.516 99.2783 322.196 101.546 322.196ZM101.504 315.56C102.68 315.56 103.52 316.344 103.576 317.744H99.3483C99.4603 316.372 100.384 315.56 101.504 315.56ZM106.588 322H107.876V317.8C107.876 316.736 108.268 315.91 109.64 315.91H110.844V314.72H109.878C108.646 314.72 108.058 315.336 107.834 315.98H107.82V314.762H106.588V322ZM111.565 319.886C111.607 321.286 112.797 322.21 114.687 322.21C116.479 322.21 117.739 321.356 117.739 319.942C117.739 318.71 116.857 318.038 115.429 317.842L114.323 317.688C113.497 317.562 113.077 317.254 113.077 316.638C113.077 315.98 113.679 315.518 114.659 315.518C115.667 315.518 116.227 315.994 116.269 316.722H117.571C117.515 315.546 116.521 314.538 114.687 314.538C112.993 314.538 111.789 315.392 111.789 316.736C111.789 317.982 112.643 318.598 113.903 318.78L115.009 318.934C115.891 319.06 116.437 319.354 116.437 320.04C116.437 320.782 115.751 321.23 114.729 321.23C113.679 321.23 112.923 320.796 112.895 319.886H111.565ZM122.278 316.778H123.552C123.636 316.008 124.182 315.546 125.218 315.546C126.366 315.546 126.758 316.134 126.758 316.708C126.758 317.268 126.38 317.506 125.638 317.632L124.546 317.814C123.02 318.052 122.012 318.724 122.012 320.054C122.012 321.412 123.062 322.196 124.49 322.196C125.708 322.196 126.604 321.58 126.954 320.684H126.968V320.824C126.954 321.594 127.318 322 128.228 322H129.054V320.964H128.606C128.256 320.964 128.074 320.852 128.074 320.404V316.974C128.074 315.336 126.898 314.566 125.246 314.566C123.426 314.566 122.404 315.476 122.278 316.778ZM126.8 318.99C126.8 320.306 125.946 321.188 124.728 321.188C123.86 321.188 123.272 320.768 123.272 320.012V319.928C123.272 319.228 123.846 318.85 124.77 318.696L125.834 318.514C126.338 318.43 126.66 318.234 126.8 318.038V318.99ZM131.583 317.758C131.583 316.33 132.507 315.658 133.515 315.658C134.481 315.658 135.307 316.288 135.307 317.59V322H136.595V317.478C136.595 315.574 135.405 314.566 133.893 314.566C132.829 314.566 131.947 315.028 131.527 315.994H131.513V314.762H130.295V322H131.583V317.758ZM145.2 322V311.612H143.912V316.05H143.898C143.45 315.126 142.61 314.566 141.434 314.566C139.446 314.566 138.242 316.232 138.242 318.374C138.242 320.53 139.418 322.196 141.434 322.196C142.666 322.196 143.52 321.594 143.954 320.628H143.968V322H145.2ZM139.53 318.654V318.122C139.53 316.554 140.524 315.644 141.714 315.644C142.918 315.644 143.912 316.582 143.912 318.122V318.654C143.912 320.166 142.918 321.118 141.714 321.118C140.524 321.118 139.53 320.222 139.53 318.654ZM150.264 316.778H151.538C151.622 316.008 152.168 315.546 153.204 315.546C154.352 315.546 154.744 316.134 154.744 316.708C154.744 317.268 154.366 317.506 153.624 317.632L152.532 317.814C151.006 318.052 149.998 318.724 149.998 320.054C149.998 321.412 151.048 322.196 152.476 322.196C153.694 322.196 154.59 321.58 154.94 320.684H154.954V320.824C154.94 321.594 155.304 322 156.214 322H157.04V320.964H156.592C156.242 320.964 156.06 320.852 156.06 320.404V316.974C156.06 315.336 154.884 314.566 153.232 314.566C151.412 314.566 150.39 315.476 150.264 316.778ZM154.786 318.99C154.786 320.306 153.932 321.188 152.714 321.188C151.846 321.188 151.258 320.768 151.258 320.012V319.928C151.258 319.228 151.832 318.85 152.756 318.696L153.82 318.514C154.324 318.43 154.646 318.234 154.786 318.038V318.99ZM164.819 322V311.612H163.531V316.05H163.517C163.069 315.126 162.229 314.566 161.053 314.566C159.065 314.566 157.861 316.232 157.861 318.374C157.861 320.53 159.037 322.196 161.053 322.196C162.285 322.196 163.139 321.594 163.573 320.628H163.587V322H164.819ZM159.149 318.654V318.122C159.149 316.554 160.143 315.644 161.333 315.644C162.537 315.644 163.531 316.582 163.531 318.122V318.654C163.531 320.166 162.537 321.118 161.333 321.118C160.143 321.118 159.149 320.222 159.149 318.654ZM173.067 314.762H171.751L169.637 320.502H169.623L167.495 314.762H166.081L168.923 322.014H170.281L173.067 314.762ZM173.793 316.778H175.067C175.151 316.008 175.697 315.546 176.733 315.546C177.881 315.546 178.273 316.134 178.273 316.708C178.273 317.268 177.895 317.506 177.153 317.632L176.061 317.814C174.535 318.052 173.527 318.724 173.527 320.054C173.527 321.412 174.577 322.196 176.005 322.196C177.223 322.196 178.119 321.58 178.469 320.684H178.483V320.824C178.469 321.594 178.833 322 179.743 322H180.569V320.964H180.121C179.771 320.964 179.589 320.852 179.589 320.404V316.974C179.589 315.336 178.413 314.566 176.761 314.566C174.941 314.566 173.919 315.476 173.793 316.778ZM178.315 318.99C178.315 320.306 177.461 321.188 176.243 321.188C175.375 321.188 174.787 320.768 174.787 320.012V319.928C174.787 319.228 175.361 318.85 176.285 318.696L177.349 318.514C177.853 318.43 178.175 318.234 178.315 318.038V318.99ZM183.098 317.758C183.098 316.33 184.022 315.658 185.03 315.658C185.996 315.658 186.822 316.288 186.822 317.59V322H188.11V317.478C188.11 315.574 186.92 314.566 185.408 314.566C184.344 314.566 183.462 315.028 183.042 315.994H183.028V314.762H181.81V322H183.098V317.758ZM191.045 318.108C191.045 316.582 192.011 315.644 193.229 315.644C194.293 315.644 194.881 316.274 195.077 317.016H196.351C196.085 315.546 194.951 314.566 193.243 314.566C191.031 314.566 189.757 316.19 189.757 318.374C189.757 320.544 191.003 322.196 193.243 322.196C194.951 322.196 196.071 321.202 196.351 319.704H195.091C194.881 320.488 194.265 321.118 193.229 321.118C192.011 321.118 191.045 320.166 191.045 318.654V318.108ZM201.064 322.196C202.814 322.196 203.99 321.244 204.256 319.9H202.954C202.842 320.53 202.212 321.188 201.092 321.188C199.804 321.188 198.852 320.236 198.852 318.71V318.668H204.396V318.206C204.396 316.148 203.192 314.566 201.022 314.566C198.866 314.566 197.564 316.218 197.564 318.374C197.564 320.516 198.796 322.196 201.064 322.196ZM201.022 315.56C202.198 315.56 203.038 316.344 203.094 317.744H198.866C198.978 316.372 199.902 315.56 201.022 315.56ZM212.629 322V311.612H211.341V316.05H211.327C210.879 315.126 210.039 314.566 208.863 314.566C206.875 314.566 205.671 316.232 205.671 318.374C205.671 320.53 206.847 322.196 208.863 322.196C210.095 322.196 210.949 321.594 211.383 320.628H211.397V322H212.629ZM206.959 318.654V318.122C206.959 316.554 207.953 315.644 209.143 315.644C210.347 315.644 211.341 316.582 211.341 318.122V318.654C211.341 320.166 210.347 321.118 209.143 321.118C207.953 321.118 206.959 320.222 206.959 318.654ZM217.358 319.886C217.4 321.286 218.59 322.21 220.48 322.21C222.272 322.21 223.532 321.356 223.532 319.942C223.532 318.71 222.65 318.038 221.222 317.842L220.116 317.688C219.29 317.562 218.87 317.254 218.87 316.638C218.87 315.98 219.472 315.518 220.452 315.518C221.46 315.518 222.02 315.994 222.062 316.722H223.364C223.308 315.546 222.314 314.538 220.48 314.538C218.786 314.538 217.582 315.392 217.582 316.736C217.582 317.982 218.436 318.598 219.696 318.78L220.802 318.934C221.684 319.06 222.23 319.354 222.23 320.04C222.23 320.782 221.544 321.23 220.522 321.23C219.472 321.23 218.716 320.796 218.688 319.886H217.358ZM228.23 322.196C229.98 322.196 231.156 321.244 231.422 319.9H230.12C230.008 320.53 229.378 321.188 228.258 321.188C226.97 321.188 226.018 320.236 226.018 318.71V318.668H231.562V318.206C231.562 316.148 230.358 314.566 228.188 314.566C226.032 314.566 224.73 316.218 224.73 318.374C224.73 320.516 225.962 322.196 228.23 322.196ZM228.188 315.56C229.364 315.56 230.204 316.344 230.26 317.744H226.032C226.144 316.372 227.068 315.56 228.188 315.56ZM234.559 317.758C234.559 316.33 235.483 315.658 236.491 315.658C237.457 315.658 238.283 316.288 238.283 317.59V322H239.571V317.478C239.571 315.574 238.381 314.566 236.869 314.566C235.805 314.566 234.923 315.028 234.503 315.994H234.489V314.762H233.271V322H234.559V317.758ZM248.176 322V311.612H246.888V316.05H246.874C246.426 315.126 245.586 314.566 244.41 314.566C242.422 314.566 241.218 316.232 241.218 318.374C241.218 320.53 242.394 322.196 244.41 322.196C245.642 322.196 246.496 321.594 246.93 320.628H246.944V322H248.176ZM242.506 318.654V318.122C242.506 316.554 243.5 315.644 244.69 315.644C245.894 315.644 246.888 316.582 246.888 318.122V318.654C246.888 320.166 245.894 321.118 244.69 321.118C243.5 321.118 242.506 320.222 242.506 318.654ZM253.386 322.196C255.136 322.196 256.312 321.244 256.578 319.9H255.276C255.164 320.53 254.534 321.188 253.414 321.188C252.126 321.188 251.174 320.236 251.174 318.71V318.668H256.718V318.206C256.718 316.148 255.514 314.566 253.344 314.566C251.188 314.566 249.886 316.218 249.886 318.374C249.886 320.516 251.118 322.196 253.386 322.196ZM253.344 315.56C254.52 315.56 255.36 316.344 255.416 317.744H251.188C251.3 316.372 252.224 315.56 253.344 315.56ZM258.428 322H259.716V317.8C259.716 316.736 260.108 315.91 261.48 315.91H262.684V314.72H261.718C260.486 314.72 259.898 315.336 259.674 315.98H259.66V314.762H258.428V322ZM263.405 319.886C263.447 321.286 264.637 322.21 266.527 322.21C268.319 322.21 269.579 321.356 269.579 319.942C269.579 318.71 268.697 318.038 267.269 317.842L266.163 317.688C265.337 317.562 264.917 317.254 264.917 316.638C264.917 315.98 265.519 315.518 266.499 315.518C267.507 315.518 268.067 315.994 268.109 316.722H269.411C269.355 315.546 268.361 314.538 266.527 314.538C264.833 314.538 263.629 315.392 263.629 316.736C263.629 317.982 264.483 318.598 265.743 318.78L266.849 318.934C267.731 319.06 268.277 319.354 268.277 320.04C268.277 320.782 267.591 321.23 266.569 321.23C265.519 321.23 264.763 320.796 264.735 319.886H263.405ZM271.633 324.016L272.809 320.446H271.479L270.499 324.016H271.633ZM66.078 342H67.31V340.628H67.324C67.744 341.594 68.612 342.196 69.83 342.196C71.86 342.196 73.036 340.53 73.036 338.374C73.036 336.232 71.832 334.566 69.83 334.566C68.668 334.566 67.828 335.126 67.38 336.05H67.366V331.612H66.078V342ZM71.734 338.654C71.734 340.222 70.754 341.118 69.55 341.118C68.346 341.118 67.366 340.166 67.366 338.654V338.122C67.366 336.582 68.346 335.644 69.55 335.644C70.754 335.644 71.734 336.554 71.734 338.122V338.654ZM79.688 339.004C79.688 340.432 78.764 341.104 77.756 341.104C76.79 341.104 75.964 340.474 75.964 339.172V334.762H74.676V339.284C74.676 341.188 75.866 342.196 77.378 342.196C78.442 342.196 79.324 341.734 79.744 340.768H79.758V342H80.976V334.762H79.688V339.004ZM82.3148 334.762V335.826H83.9668V340.278C83.9668 341.426 84.5128 342 85.7448 342H87.6348V340.936H85.9828C85.4648 340.936 85.2548 340.712 85.2548 340.194V335.826H87.6208V334.762H85.2548V332.592H83.9668V334.762H82.3148ZM91.4877 334.762L93.8537 342.014H95.1557L96.9057 336.33H96.9197L98.6977 342.014H100.028L102.296 334.762H101.05L99.3837 340.362H99.3697L97.6057 334.748H96.3037L94.5817 340.39H94.5677L92.8457 334.762H91.4877ZM106.468 342.196C108.218 342.196 109.394 341.244 109.66 339.9H108.358C108.246 340.53 107.616 341.188 106.496 341.188C105.208 341.188 104.256 340.236 104.256 338.71V338.668H109.8V338.206C109.8 336.148 108.596 334.566 106.426 334.566C104.27 334.566 102.968 336.218 102.968 338.374C102.968 340.516 104.2 342.196 106.468 342.196ZM106.426 335.56C107.602 335.56 108.442 336.344 108.498 337.744H104.27C104.382 336.372 105.306 335.56 106.426 335.56ZM114.43 336.778H115.704C115.788 336.008 116.334 335.546 117.37 335.546C118.518 335.546 118.91 336.134 118.91 336.708C118.91 337.268 118.532 337.506 117.79 337.632L116.698 337.814C115.172 338.052 114.164 338.724 114.164 340.054C114.164 341.412 115.214 342.196 116.642 342.196C117.86 342.196 118.756 341.58 119.106 340.684H119.12V340.824C119.106 341.594 119.47 342 120.38 342H121.206V340.964H120.758C120.408 340.964 120.226 340.852 120.226 340.404V336.974C120.226 335.336 119.05 334.566 117.398 334.566C115.578 334.566 114.556 335.476 114.43 336.778ZM118.952 338.99C118.952 340.306 118.098 341.188 116.88 341.188C116.012 341.188 115.424 340.768 115.424 340.012V339.928C115.424 339.228 115.998 338.85 116.922 338.696L117.986 338.514C118.49 338.43 118.812 338.234 118.952 338.038V338.99ZM122.295 340.278C122.295 341.426 122.855 342 124.073 342H125.655V340.922H124.381C123.821 340.922 123.583 340.684 123.583 340.124V331.612H122.295V340.278ZM126.358 339.886C126.4 341.286 127.59 342.21 129.48 342.21C131.272 342.21 132.532 341.356 132.532 339.942C132.532 338.71 131.65 338.038 130.222 337.842L129.116 337.688C128.29 337.562 127.87 337.254 127.87 336.638C127.87 335.98 128.472 335.518 129.452 335.518C130.46 335.518 131.02 335.994 131.062 336.722H132.364C132.308 335.546 131.314 334.538 129.48 334.538C127.786 334.538 126.582 335.392 126.582 336.736C126.582 337.982 127.436 338.598 128.696 338.78L129.802 338.934C130.684 339.06 131.23 339.354 131.23 340.04C131.23 340.782 130.544 341.23 129.522 341.23C128.472 341.23 127.716 340.796 127.688 339.886H126.358ZM137.244 342.196C139.484 342.196 140.758 340.516 140.758 338.374C140.758 336.232 139.442 334.566 137.244 334.566C135.032 334.566 133.73 336.232 133.73 338.374C133.73 340.516 135.004 342.196 137.244 342.196ZM139.456 338.64C139.456 340.208 138.462 341.118 137.244 341.118C136.026 341.118 135.018 340.152 135.018 338.64V338.108C135.018 336.582 136.026 335.644 137.244 335.644C138.462 335.644 139.456 336.554 139.456 338.108V338.64ZM145.061 339.886C145.103 341.286 146.293 342.21 148.183 342.21C149.975 342.21 151.235 341.356 151.235 339.942C151.235 338.71 150.353 338.038 148.925 337.842L147.819 337.688C146.993 337.562 146.573 337.254 146.573 336.638C146.573 335.98 147.175 335.518 148.155 335.518C149.163 335.518 149.723 335.994 149.765 336.722H151.067C151.011 335.546 150.017 334.538 148.183 334.538C146.489 334.538 145.285 335.392 145.285 336.736C145.285 337.982 146.139 338.598 147.399 338.78L148.505 338.934C149.387 339.06 149.933 339.354 149.933 340.04C149.933 340.782 149.247 341.23 148.225 341.23C147.175 341.23 146.419 340.796 146.391 339.886H145.061ZM152.629 336.778H153.903C153.987 336.008 154.533 335.546 155.569 335.546C156.717 335.546 157.109 336.134 157.109 336.708C157.109 337.268 156.731 337.506 155.989 337.632L154.897 337.814C153.371 338.052 152.363 338.724 152.363 340.054C152.363 341.412 153.413 342.196 154.841 342.196C156.059 342.196 156.955 341.58 157.305 340.684H157.319V340.824C157.305 341.594 157.669 342 158.579 342H159.405V340.964H158.957C158.607 340.964 158.425 340.852 158.425 340.404V336.974C158.425 335.336 157.249 334.566 155.597 334.566C153.777 334.566 152.755 335.476 152.629 336.778ZM157.151 338.99C157.151 340.306 156.297 341.188 155.079 341.188C154.211 341.188 153.623 340.768 153.623 340.012V339.928C153.623 339.228 154.197 338.85 155.121 338.696L156.185 338.514C156.689 338.43 157.011 338.234 157.151 338.038V338.99ZM159.423 334.762L161.789 342.014H163.091L164.841 336.33H164.855L166.633 342.014H167.963L170.231 334.762H168.985L167.319 340.362H167.305L165.541 334.748H164.239L162.517 340.39H162.503L160.781 334.762H159.423ZM174.463 336.778H175.737C175.821 336.008 176.367 335.546 177.403 335.546C178.551 335.546 178.943 336.134 178.943 336.708C178.943 337.268 178.565 337.506 177.823 337.632L176.731 337.814C175.205 338.052 174.197 338.724 174.197 340.054C174.197 341.412 175.247 342.196 176.675 342.196C177.893 342.196 178.789 341.58 179.139 340.684H179.153V340.824C179.139 341.594 179.503 342 180.413 342H181.239V340.964H180.791C180.441 340.964 180.259 340.852 180.259 340.404V336.974C180.259 335.336 179.083 334.566 177.431 334.566C175.611 334.566 174.589 335.476 174.463 336.778ZM178.985 338.99C178.985 340.306 178.131 341.188 176.913 341.188C176.045 341.188 175.457 340.768 175.457 340.012V339.928C175.457 339.228 176.031 338.85 176.955 338.696L178.019 338.514C178.523 338.43 178.845 338.234 178.985 338.038V338.99ZM192.288 338.766C192.288 336.778 190.93 335.406 189.138 335.406C188.494 335.406 188.032 335.588 187.654 335.882H187.64L190.398 332.144H188.886L186.38 335.672C185.61 336.75 185.274 337.632 185.274 338.71C185.274 340.684 186.716 342.196 188.76 342.196C190.832 342.196 192.288 340.726 192.288 338.766ZM186.59 338.668C186.59 337.422 187.486 336.442 188.802 336.442C190.258 336.442 190.972 337.45 190.972 338.668V338.836C190.972 340.068 190.188 341.132 188.802 341.132C187.43 341.132 186.59 340.026 186.59 338.836V338.668ZM198.585 336.792C199.691 336.54 200.377 335.672 200.377 334.594C200.377 333.04 199.061 331.934 197.115 331.934C195.183 331.934 193.853 333.04 193.853 334.594C193.853 335.672 194.539 336.54 195.645 336.792V336.806C194.455 337.058 193.587 337.968 193.587 339.34C193.587 340.992 195.001 342.196 197.115 342.196C199.229 342.196 200.657 340.992 200.657 339.34C200.657 337.968 199.775 337.058 198.585 336.806V336.792ZM195.141 334.608C195.141 333.684 195.925 332.998 197.115 332.998C198.319 332.998 199.089 333.684 199.089 334.608V334.748C199.089 335.63 198.277 336.344 197.115 336.344C195.953 336.344 195.141 335.63 195.141 334.748V334.608ZM194.903 339.144C194.903 338.122 195.743 337.324 197.115 337.324C198.487 337.324 199.327 338.122 199.327 339.144V339.312C199.327 340.362 198.459 341.146 197.115 341.146C195.771 341.146 194.903 340.362 194.903 339.312V339.144ZM204.406 337.548C205.974 337.548 206.996 336.442 206.996 334.79C206.996 333.124 206.016 331.962 204.448 331.962C202.866 331.962 201.9 333.124 201.9 334.79C201.9 336.442 202.824 337.548 204.406 337.548ZM203.734 342H204.994L208.494 337.086L212.05 332.144H210.79L207.276 337.086L203.734 342ZM204.406 336.582C203.468 336.582 202.978 335.854 202.978 334.79C202.978 333.712 203.51 332.942 204.448 332.942C205.386 332.942 205.918 333.712 205.918 334.79C205.918 335.854 205.344 336.582 204.406 336.582ZM211.322 342.21C212.876 342.21 213.856 341.048 213.856 339.396C213.856 337.744 212.876 336.582 211.322 336.582C209.74 336.582 208.774 337.744 208.774 339.396C208.774 341.048 209.74 342.21 211.322 342.21ZM211.322 341.23C210.384 341.23 209.852 340.474 209.852 339.396C209.852 338.318 210.384 337.548 211.322 337.548C212.246 337.548 212.778 338.318 212.778 339.396C212.778 340.474 212.246 341.23 211.322 341.23ZM225.331 342V331.612H224.043V336.05H224.029C223.581 335.126 222.741 334.566 221.565 334.566C219.577 334.566 218.373 336.232 218.373 338.374C218.373 340.53 219.549 342.196 221.565 342.196C222.797 342.196 223.651 341.594 224.085 340.628H224.099V342H225.331ZM219.661 338.654V338.122C219.661 336.554 220.655 335.644 221.845 335.644C223.049 335.644 224.043 336.582 224.043 338.122V338.654C224.043 340.166 223.049 341.118 221.845 341.118C220.655 341.118 219.661 340.222 219.661 338.654ZM230.54 342.196C232.29 342.196 233.466 341.244 233.732 339.9H232.43C232.318 340.53 231.688 341.188 230.568 341.188C229.28 341.188 228.328 340.236 228.328 338.71V338.668H233.872V338.206C233.872 336.148 232.668 334.566 230.498 334.566C228.342 334.566 227.04 336.218 227.04 338.374C227.04 340.516 228.272 342.196 230.54 342.196ZM230.498 335.56C231.674 335.56 232.514 336.344 232.57 337.744H228.342C228.454 336.372 229.378 335.56 230.498 335.56ZM236.436 338.108C236.436 336.582 237.402 335.644 238.62 335.644C239.684 335.644 240.272 336.274 240.468 337.016H241.742C241.476 335.546 240.342 334.566 238.634 334.566C236.422 334.566 235.148 336.19 235.148 338.374C235.148 340.544 236.394 342.196 238.634 342.196C240.342 342.196 241.462 341.202 241.742 339.704H240.482C240.272 340.488 239.656 341.118 238.62 341.118C237.402 341.118 236.436 340.166 236.436 338.654V338.108ZM243.389 342H244.677V337.8C244.677 336.736 245.069 335.91 246.441 335.91H247.645V334.72H246.679C245.447 334.72 244.859 335.336 244.635 335.98H244.621V334.762H243.389V342ZM251.787 342.196C253.537 342.196 254.713 341.244 254.979 339.9H253.677C253.565 340.53 252.935 341.188 251.815 341.188C250.527 341.188 249.575 340.236 249.575 338.71V338.668H255.119V338.206C255.119 336.148 253.915 334.566 251.745 334.566C249.589 334.566 248.287 336.218 248.287 338.374C248.287 340.516 249.519 342.196 251.787 342.196ZM251.745 335.56C252.921 335.56 253.761 336.344 253.817 337.744H249.589C249.701 336.372 250.625 335.56 251.745 335.56ZM256.631 336.778H257.905C257.989 336.008 258.535 335.546 259.571 335.546C260.719 335.546 261.111 336.134 261.111 336.708C261.111 337.268 260.733 337.506 259.991 337.632L258.899 337.814C257.373 338.052 256.365 338.724 256.365 340.054C256.365 341.412 257.415 342.196 258.843 342.196C260.061 342.196 260.957 341.58 261.307 340.684H261.321V340.824C261.307 341.594 261.671 342 262.581 342H263.407V340.964H262.959C262.609 340.964 262.427 340.852 262.427 340.404V336.974C262.427 335.336 261.251 334.566 259.599 334.566C257.779 334.566 256.757 335.476 256.631 336.778ZM261.153 338.99C261.153 340.306 260.299 341.188 259.081 341.188C258.213 341.188 257.625 340.768 257.625 340.012V339.928C257.625 339.228 258.199 338.85 259.123 338.696L260.187 338.514C260.691 338.43 261.013 338.234 261.153 338.038V338.99ZM264.143 339.886C264.185 341.286 265.375 342.21 267.265 342.21C269.057 342.21 270.317 341.356 270.317 339.942C270.317 338.71 269.435 338.038 268.007 337.842L266.901 337.688C266.075 337.562 265.655 337.254 265.655 336.638C265.655 335.98 266.257 335.518 267.237 335.518C268.245 335.518 268.805 335.994 268.847 336.722H270.149C270.093 335.546 269.099 334.538 267.265 334.538C265.571 334.538 264.367 335.392 264.367 336.736C264.367 337.982 265.221 338.598 266.481 338.78L267.587 338.934C268.469 339.06 269.015 339.354 269.015 340.04C269.015 340.782 268.329 341.23 267.307 341.23C266.257 341.23 265.501 340.796 265.473 339.886H264.143ZM275.015 342.196C276.765 342.196 277.941 341.244 278.207 339.9H276.905C276.793 340.53 276.163 341.188 275.043 341.188C273.755 341.188 272.803 340.236 272.803 338.71V338.668H278.347V338.206C278.347 336.148 277.143 334.566 274.973 334.566C272.817 334.566 271.515 336.218 271.515 338.374C271.515 340.516 272.747 342.196 275.015 342.196ZM274.973 335.56C276.149 335.56 276.989 336.344 277.045 337.744H272.817C272.929 336.372 273.853 335.56 274.973 335.56ZM67.226 353.53C67.73 353.53 68.108 353.138 68.108 352.662C68.108 352.158 67.73 351.794 67.226 351.794H67.156C66.638 351.794 66.26 352.158 66.26 352.662C66.26 353.138 66.638 353.53 67.156 353.53H67.226ZM65.378 355.812H66.54V362H67.828V354.762H65.378V355.812ZM71.2762 357.758C71.2762 356.33 72.2002 355.658 73.2082 355.658C74.1742 355.658 75.0002 356.288 75.0002 357.59V362H76.2882V357.478C76.2882 355.574 75.0982 354.566 73.5862 354.566C72.5222 354.566 71.6402 355.028 71.2202 355.994H71.2062V354.762H69.9882V362H71.2762V357.758ZM85.6015 361.034C83.8935 361.034 82.4935 359.718 82.4935 357.366V356.764C82.4935 354.412 83.8935 353.096 85.6015 353.096C87.0295 353.096 87.8695 353.838 88.1215 354.93H89.5495C89.1715 353.152 87.7435 351.934 85.6295 351.934C82.6615 351.934 81.1355 354.286 81.1355 357.072C81.1355 359.872 82.6615 362.196 85.6295 362.196C87.7435 362.196 89.1995 360.95 89.5775 359.088H88.1775C87.9395 360.166 87.0995 361.034 85.6015 361.034ZM93.3588 356.932L89.8728 362H91.3708L94.1148 357.968H94.1288L96.8728 362H98.4408L94.9408 356.918L98.2308 352.144H96.7328L94.1708 355.882H94.1568L91.5948 352.144H90.0408L93.3588 356.932ZM103.949 353.53C104.453 353.53 104.831 353.138 104.831 352.662C104.831 352.158 104.453 351.794 103.949 351.794H103.879C103.361 351.794 102.983 352.158 102.983 352.662C102.983 353.138 103.361 353.53 103.879 353.53H103.949ZM102.101 355.812H103.263V362H104.551V354.762H102.101V355.812ZM106.151 359.886C106.193 361.286 107.383 362.21 109.273 362.21C111.065 362.21 112.325 361.356 112.325 359.942C112.325 358.71 111.443 358.038 110.015 357.842L108.909 357.688C108.083 357.562 107.663 357.254 107.663 356.638C107.663 355.98 108.265 355.518 109.245 355.518C110.253 355.518 110.813 355.994 110.855 356.722H112.157C112.101 355.546 111.107 354.538 109.273 354.538C107.579 354.538 106.375 355.392 106.375 356.736C106.375 357.982 107.229 358.598 108.489 358.78L109.595 358.934C110.477 359.06 111.023 359.354 111.023 360.04C111.023 360.782 110.337 361.23 109.315 361.23C108.265 361.23 107.509 360.796 107.481 359.886H106.151ZM113.383 359.886C113.425 361.286 114.615 362.21 116.505 362.21C118.297 362.21 119.557 361.356 119.557 359.942C119.557 358.71 118.675 358.038 117.247 357.842L116.141 357.688C115.315 357.562 114.895 357.254 114.895 356.638C114.895 355.98 115.497 355.518 116.477 355.518C117.485 355.518 118.045 355.994 118.087 356.722H119.389C119.333 355.546 118.339 354.538 116.505 354.538C114.811 354.538 113.607 355.392 113.607 356.736C113.607 357.982 114.461 358.598 115.721 358.78L116.827 358.934C117.709 359.06 118.255 359.354 118.255 360.04C118.255 360.782 117.569 361.23 116.547 361.23C115.497 361.23 114.741 360.796 114.713 359.886H113.383ZM126.118 359.004C126.118 360.432 125.194 361.104 124.186 361.104C123.22 361.104 122.394 360.474 122.394 359.172V354.762H121.106V359.284C121.106 361.188 122.296 362.196 123.808 362.196C124.872 362.196 125.754 361.734 126.174 360.768H126.188V362H127.406V354.762H126.118V359.004ZM132.623 362.196C134.373 362.196 135.549 361.244 135.815 359.9H134.513C134.401 360.53 133.771 361.188 132.651 361.188C131.363 361.188 130.411 360.236 130.411 358.71V358.668H135.955V358.206C135.955 356.148 134.751 354.566 132.581 354.566C130.425 354.566 129.123 356.218 129.123 358.374C129.123 360.516 130.355 362.196 132.623 362.196ZM132.581 355.56C133.757 355.56 134.597 356.344 134.653 357.744H130.425C130.537 356.372 131.461 355.56 132.581 355.56ZM137.104 359.886C137.146 361.286 138.336 362.21 140.226 362.21C142.018 362.21 143.278 361.356 143.278 359.942C143.278 358.71 142.396 358.038 140.968 357.842L139.862 357.688C139.036 357.562 138.616 357.254 138.616 356.638C138.616 355.98 139.218 355.518 140.198 355.518C141.206 355.518 141.766 355.994 141.808 356.722H143.11C143.054 355.546 142.06 354.538 140.226 354.538C138.532 354.538 137.328 355.392 137.328 356.736C137.328 357.982 138.182 358.598 139.442 358.78L140.548 358.934C141.43 359.06 141.976 359.354 141.976 360.04C141.976 360.782 141.29 361.23 140.268 361.23C139.218 361.23 138.462 360.796 138.434 359.886H137.104ZM147.817 356.778H149.091C149.175 356.008 149.721 355.546 150.757 355.546C151.905 355.546 152.297 356.134 152.297 356.708C152.297 357.268 151.919 357.506 151.177 357.632L150.085 357.814C148.559 358.052 147.551 358.724 147.551 360.054C147.551 361.412 148.601 362.196 150.029 362.196C151.247 362.196 152.143 361.58 152.493 360.684H152.507V360.824C152.493 361.594 152.857 362 153.767 362H154.593V360.964H154.145C153.795 360.964 153.613 360.852 153.613 360.404V356.974C153.613 355.336 152.437 354.566 150.785 354.566C148.965 354.566 147.943 355.476 147.817 356.778ZM152.339 358.99C152.339 360.306 151.485 361.188 150.267 361.188C149.399 361.188 148.811 360.768 148.811 360.012V359.928C148.811 359.228 149.385 358.85 150.309 358.696L151.373 358.514C151.877 358.43 152.199 358.234 152.339 358.038V358.99ZM157.122 357.758C157.122 356.33 158.046 355.658 159.054 355.658C160.02 355.658 160.846 356.288 160.846 357.59V362H162.134V357.478C162.134 355.574 160.944 354.566 159.432 354.566C158.368 354.566 157.486 355.028 157.066 355.994H157.052V354.762H155.834V362H157.122V357.758ZM170.739 362V351.612H169.451V356.05H169.437C168.989 355.126 168.149 354.566 166.973 354.566C164.985 354.566 163.781 356.232 163.781 358.374C163.781 360.53 164.957 362.196 166.973 362.196C168.205 362.196 169.059 361.594 169.493 360.628H169.507V362H170.739ZM165.069 358.654V358.122C165.069 356.554 166.063 355.644 167.253 355.644C168.457 355.644 169.451 356.582 169.451 358.122V358.654C169.451 360.166 168.457 361.118 167.253 361.118C166.063 361.118 165.069 360.222 165.069 358.654ZM175.803 356.778H177.077C177.161 356.008 177.707 355.546 178.743 355.546C179.891 355.546 180.283 356.134 180.283 356.708C180.283 357.268 179.905 357.506 179.163 357.632L178.071 357.814C176.545 358.052 175.537 358.724 175.537 360.054C175.537 361.412 176.587 362.196 178.015 362.196C179.233 362.196 180.129 361.58 180.479 360.684H180.493V360.824C180.479 361.594 180.843 362 181.753 362H182.579V360.964H182.131C181.781 360.964 181.599 360.852 181.599 360.404V356.974C181.599 355.336 180.423 354.566 178.771 354.566C176.951 354.566 175.929 355.476 175.803 356.778ZM180.325 358.99C180.325 360.306 179.471 361.188 178.253 361.188C177.385 361.188 176.797 360.768 176.797 360.012V359.928C176.797 359.228 177.371 358.85 178.295 358.696L179.359 358.514C179.863 358.43 180.185 358.234 180.325 358.038V358.99ZM190.716 352.144H187.216V362H190.716C193.712 362 195.224 359.76 195.224 357.072C195.224 354.398 193.698 352.144 190.716 352.144ZM190.73 353.306C192.438 353.306 193.852 354.538 193.852 356.764V357.38C193.852 359.606 192.438 360.838 190.73 360.838H188.56V353.306H190.73ZM200.374 362.196C202.67 362.196 204.196 361.02 204.196 359.228C204.196 357.52 202.992 356.764 201.284 356.484L199.898 356.274C198.764 356.092 198.05 355.686 198.05 354.706C198.05 353.754 198.834 353.012 200.36 353.012C201.872 353.012 202.628 353.726 202.698 354.72H204.042C203.972 353.236 202.782 351.934 200.374 351.934C198.022 351.934 196.706 353.208 196.706 354.79C196.706 356.484 197.882 357.254 199.534 357.506L200.948 357.73C202.166 357.926 202.838 358.332 202.838 359.312C202.838 360.39 201.9 361.118 200.388 361.118C198.834 361.118 197.854 360.432 197.798 359.2H196.454C196.51 360.936 197.938 362.196 200.374 362.196ZM212.443 362H213.871L210.021 352.144H208.509L204.701 362H206.101L207.011 359.536H211.505L212.443 362ZM209.223 353.558H209.251L211.071 358.388H207.431L209.223 353.558ZM216.061 353.306V362H217.391V353.306H220.695V352.144H212.757V353.306H216.061ZM224.467 359.886C224.509 361.286 225.699 362.21 227.589 362.21C229.381 362.21 230.641 361.356 230.641 359.942C230.641 358.71 229.759 358.038 228.331 357.842L227.225 357.688C226.399 357.562 225.979 357.254 225.979 356.638C225.979 355.98 226.581 355.518 227.561 355.518C228.569 355.518 229.129 355.994 229.171 356.722H230.473C230.417 355.546 229.423 354.538 227.589 354.538C225.895 354.538 224.691 355.392 224.691 356.736C224.691 357.982 225.545 358.598 226.805 358.78L227.911 358.934C228.793 359.06 229.339 359.354 229.339 360.04C229.339 360.782 228.653 361.23 227.631 361.23C226.581 361.23 225.825 360.796 225.797 359.886H224.467ZM233.127 358.108C233.127 356.582 234.093 355.644 235.311 355.644C236.375 355.644 236.963 356.274 237.159 357.016H238.433C238.167 355.546 237.033 354.566 235.325 354.566C233.113 354.566 231.839 356.19 231.839 358.374C231.839 360.544 233.085 362.196 235.325 362.196C237.033 362.196 238.153 361.202 238.433 359.704H237.173C236.963 360.488 236.347 361.118 235.311 361.118C234.093 361.118 233.127 360.166 233.127 358.654V358.108ZM243.16 362.196C245.4 362.196 246.674 360.516 246.674 358.374C246.674 356.232 245.358 354.566 243.16 354.566C240.948 354.566 239.646 356.232 239.646 358.374C239.646 360.516 240.92 362.196 243.16 362.196ZM245.372 358.64C245.372 360.208 244.378 361.118 243.16 361.118C241.942 361.118 240.934 360.152 240.934 358.64V358.108C240.934 356.582 241.942 355.644 243.16 355.644C244.378 355.644 245.372 356.554 245.372 358.108V358.64ZM248.392 362H249.68V357.8C249.68 356.736 250.072 355.91 251.444 355.91H252.648V354.72H251.682C250.45 354.72 249.862 355.336 249.638 355.98H249.624V354.762H248.392V362ZM256.79 362.196C258.54 362.196 259.716 361.244 259.982 359.9H258.68C258.568 360.53 257.938 361.188 256.818 361.188C255.53 361.188 254.578 360.236 254.578 358.71V358.668H260.122V358.206C260.122 356.148 258.918 354.566 256.748 354.566C254.592 354.566 253.29 356.218 253.29 358.374C253.29 360.516 254.522 362.196 256.79 362.196ZM256.748 355.56C257.924 355.56 258.764 356.344 258.82 357.744H254.592C254.704 356.372 255.628 355.56 256.748 355.56ZM66.078 382H67.366V377.8C67.366 376.736 67.758 375.91 69.13 375.91H70.334V374.72H69.368C68.136 374.72 67.548 375.336 67.324 375.98H67.31V374.762H66.078V382ZM74.476 382.196C76.226 382.196 77.402 381.244 77.668 379.9H76.366C76.254 380.53 75.624 381.188 74.504 381.188C73.216 381.188 72.264 380.236 72.264 378.71V378.668H77.808V378.206C77.808 376.148 76.604 374.566 74.434 374.566C72.278 374.566 70.976 376.218 70.976 378.374C70.976 380.516 72.208 382.196 74.476 382.196ZM74.434 375.56C75.61 375.56 76.45 376.344 76.506 377.744H72.278C72.39 376.372 73.314 375.56 74.434 375.56ZM86.0415 382V371.612H84.7535V376.05H84.7395C84.2915 375.126 83.4515 374.566 82.2755 374.566C80.2875 374.566 79.0835 376.232 79.0835 378.374C79.0835 380.53 80.2595 382.196 82.2755 382.196C83.5075 382.196 84.3615 381.594 84.7955 380.628H84.8095V382H86.0415ZM80.3715 378.654V378.122C80.3715 376.554 81.3655 375.644 82.5555 375.644C83.7595 375.644 84.7535 376.582 84.7535 378.122V378.654C84.7535 380.166 83.7595 381.118 82.5555 381.118C81.3655 381.118 80.3715 380.222 80.3715 378.654ZM93.1274 379.004C93.1274 380.432 92.2034 381.104 91.1954 381.104C90.2294 381.104 89.4034 380.474 89.4034 379.172V374.762H88.1154V379.284C88.1154 381.188 89.3054 382.196 90.8174 382.196C91.8814 382.196 92.7634 381.734 93.1834 380.768H93.1974V382H94.4154V374.762H93.1274V379.004ZM97.4203 378.108C97.4203 376.582 98.3863 375.644 99.6043 375.644C100.668 375.644 101.256 376.274 101.452 377.016H102.726C102.46 375.546 101.326 374.566 99.6183 374.566C97.4063 374.566 96.1323 376.19 96.1323 378.374C96.1323 380.544 97.3783 382.196 99.6183 382.196C101.326 382.196 102.446 381.202 102.726 379.704H101.466C101.256 380.488 100.64 381.118 99.6043 381.118C98.3863 381.118 97.4203 380.166 97.4203 378.654V378.108ZM103.561 374.762V375.826H105.213V380.278C105.213 381.426 105.759 382 106.991 382H108.881V380.936H107.229C106.711 380.936 106.501 380.712 106.501 380.194V375.826H108.867V374.762H106.501V372.592H105.213V374.762H103.561ZM111.591 373.53C112.095 373.53 112.473 373.138 112.473 372.662C112.473 372.158 112.095 371.794 111.591 371.794H111.521C111.003 371.794 110.625 372.158 110.625 372.662C110.625 373.138 111.003 373.53 111.521 373.53H111.591ZM109.743 375.812H110.905V382H112.193V374.762H109.743V375.812ZM117.433 382.196C119.673 382.196 120.947 380.516 120.947 378.374C120.947 376.232 119.631 374.566 117.433 374.566C115.221 374.566 113.919 376.232 113.919 378.374C113.919 380.516 115.193 382.196 117.433 382.196ZM119.645 378.64C119.645 380.208 118.651 381.118 117.433 381.118C116.215 381.118 115.207 380.152 115.207 378.64V378.108C115.207 376.582 116.215 375.644 117.433 375.644C118.651 375.644 119.645 376.554 119.645 378.108V378.64ZM123.954 377.758C123.954 376.33 124.878 375.658 125.886 375.658C126.852 375.658 127.678 376.288 127.678 377.59V382H128.966V377.478C128.966 375.574 127.776 374.566 126.264 374.566C125.2 374.566 124.318 375.028 123.898 375.994H123.884V374.762H122.666V382H123.954V377.758ZM131.789 382.126C132.335 382.126 132.755 381.706 132.755 381.16C132.755 380.614 132.335 380.194 131.789 380.194C131.243 380.194 130.823 380.614 130.823 381.16C130.823 381.706 131.243 382.126 131.789 382.126Z" fill="black"/>
</svg>
