<svg width="752" height="423" viewBox="0 0 752 423" fill="none" xmlns="http://www.w3.org/2000/svg">
<rect width="752" height="423" fill="#0A0B0D"/>
<path d="M70.8295 45.4545C70.7784 45.0227 70.571 44.6875 70.2074 44.4489C69.8438 44.2102 69.3977 44.0909 68.8693 44.0909C68.483 44.0909 68.1449 44.1534 67.8551 44.2784C67.5682 44.4034 67.3438 44.5753 67.1818 44.794C67.0227 45.0128 66.9432 45.2614 66.9432 45.5398C66.9432 45.7727 66.9986 45.973 67.1094 46.1406C67.223 46.3054 67.3679 46.4432 67.544 46.554C67.7202 46.6619 67.9048 46.7514 68.098 46.8224C68.2912 46.8906 68.4688 46.946 68.6307 46.9886L69.517 47.2273C69.7443 47.2869 69.9972 47.3693 70.2756 47.4744C70.5568 47.5795 70.8253 47.723 71.081 47.9048C71.3395 48.0838 71.5526 48.3139 71.7202 48.5952C71.8878 48.8764 71.9716 49.2216 71.9716 49.6307C71.9716 50.1023 71.848 50.5284 71.6009 50.9091C71.3565 51.2898 70.9986 51.5923 70.527 51.8168C70.0582 52.0412 69.4886 52.1534 68.8182 52.1534C68.1932 52.1534 67.652 52.0526 67.1946 51.8509C66.7401 51.6491 66.3821 51.3679 66.1207 51.0071C65.8622 50.6463 65.7159 50.2273 65.6818 49.75H66.7727C66.8011 50.0795 66.9119 50.3523 67.1051 50.5682C67.3011 50.7812 67.5483 50.9403 67.8466 51.0455C68.1477 51.1477 68.4716 51.1989 68.8182 51.1989C69.2216 51.1989 69.5838 51.1335 69.9048 51.0028C70.2259 50.8693 70.4801 50.6847 70.6676 50.4489C70.8551 50.2102 70.9489 49.9318 70.9489 49.6136C70.9489 49.3239 70.8679 49.0881 70.706 48.9062C70.544 48.7244 70.331 48.5767 70.0668 48.4631C69.8026 48.3494 69.517 48.25 69.2102 48.1648L68.1364 47.858C67.4545 47.6619 66.9148 47.3821 66.517 47.0185C66.1193 46.6548 65.9205 46.179 65.9205 45.5909C65.9205 45.1023 66.0526 44.6761 66.3168 44.3125C66.5838 43.946 66.9418 43.6619 67.3906 43.4602C67.8423 43.2557 68.3466 43.1534 68.9034 43.1534C69.4659 43.1534 69.9659 43.2543 70.4034 43.456C70.8409 43.6548 71.1875 43.9276 71.4432 44.2741C71.7017 44.6207 71.8381 45.0142 71.8523 45.4545H70.8295ZM76.4194 45.4545V46.3068H73.0273V45.4545H76.4194ZM74.016 43.8864H75.0217V50.125C75.0217 50.4091 75.0629 50.6222 75.1452 50.7642C75.2305 50.9034 75.3384 50.9972 75.4691 51.0455C75.6026 51.0909 75.7433 51.1136 75.891 51.1136C76.0018 51.1136 76.0927 51.108 76.1637 51.0966C76.2347 51.0824 76.2915 51.071 76.3342 51.0625L76.5387 51.9659C76.4705 51.9915 76.3754 52.017 76.2532 52.0426C76.131 52.071 75.9762 52.0852 75.7887 52.0852C75.5046 52.0852 75.2262 52.0241 74.9535 51.902C74.6836 51.7798 74.4592 51.5938 74.2802 51.3438C74.104 51.0938 74.016 50.7784 74.016 50.3977V43.8864ZM77.9322 52V45.4545H78.9038V46.4432H78.9719C79.0913 46.1193 79.3072 45.8565 79.6197 45.6548C79.9322 45.4531 80.2844 45.3523 80.6765 45.3523C80.7504 45.3523 80.8427 45.3537 80.9535 45.3565C81.0643 45.3594 81.1481 45.3636 81.2049 45.3693V46.392C81.1708 46.3835 81.0927 46.3707 80.9705 46.3537C80.8512 46.3338 80.7248 46.3239 80.5913 46.3239C80.2731 46.3239 79.989 46.3906 79.739 46.5241C79.4918 46.6548 79.2958 46.8366 79.1509 47.0696C79.0089 47.2997 78.9379 47.5625 78.9379 47.858V52H77.9322ZM84.3232 52.1534C83.9084 52.1534 83.532 52.0753 83.1939 51.919C82.8558 51.7599 82.5874 51.5312 82.3885 51.233C82.1896 50.9318 82.0902 50.5682 82.0902 50.142C82.0902 49.767 82.1641 49.4631 82.3118 49.2301C82.4595 48.9943 82.657 48.8097 82.9041 48.6761C83.1513 48.5426 83.424 48.4432 83.7223 48.3778C84.0234 48.3097 84.326 48.2557 84.63 48.2159C85.0277 48.1648 85.3501 48.1264 85.5973 48.1009C85.8473 48.0724 86.0291 48.0256 86.1428 47.9602C86.2592 47.8949 86.3175 47.7812 86.3175 47.6193V47.5852C86.3175 47.1648 86.2024 46.8381 85.9723 46.6051C85.745 46.3722 85.3999 46.2557 84.9368 46.2557C84.4567 46.2557 84.0803 46.3608 83.8075 46.571C83.5348 46.7812 83.343 47.0057 83.2322 47.2443L82.2777 46.9034C82.4482 46.5057 82.6754 46.196 82.9595 45.9744C83.2464 45.75 83.5589 45.5937 83.897 45.5057C84.2379 45.4148 84.5732 45.3693 84.9027 45.3693C85.1129 45.3693 85.3544 45.3949 85.6271 45.446C85.9027 45.4943 86.1683 45.5952 86.424 45.7486C86.6825 45.902 86.897 46.1335 87.0675 46.4432C87.2379 46.7528 87.3232 47.1676 87.3232 47.6875V52H86.3175V51.1136H86.2663C86.1982 51.2557 86.0845 51.4077 85.9254 51.5696C85.7663 51.7315 85.5547 51.8693 85.2905 51.983C85.0263 52.0966 84.7038 52.1534 84.3232 52.1534ZM84.4766 51.25C84.8743 51.25 85.2095 51.1719 85.4822 51.0156C85.7578 50.8594 85.9652 50.6577 86.1044 50.4105C86.2464 50.1634 86.3175 49.9034 86.3175 49.6307V48.7102C86.2749 48.7614 86.1811 48.8082 86.0362 48.8509C85.8942 48.8906 85.7294 48.9261 85.5419 48.9574C85.3572 48.9858 85.1768 49.0114 85.0007 49.0341C84.8274 49.054 84.6868 49.071 84.5788 49.0852C84.3175 49.1193 84.0732 49.1747 83.8459 49.2514C83.6214 49.3253 83.4396 49.4375 83.3004 49.5881C83.1641 49.7358 83.0959 49.9375 83.0959 50.1932C83.0959 50.5426 83.2251 50.8068 83.4837 50.9858C83.745 51.1619 84.076 51.25 84.4766 51.25ZM92.0053 45.4545V46.3068H88.6133V45.4545H92.0053ZM89.6019 43.8864H90.6076V50.125C90.6076 50.4091 90.6488 50.6222 90.7312 50.7642C90.8164 50.9034 90.9244 50.9972 91.055 51.0455C91.1886 51.0909 91.3292 51.1136 91.4769 51.1136C91.5877 51.1136 91.6786 51.108 91.7496 51.0966C91.8207 51.0824 91.8775 51.071 91.9201 51.0625L92.1246 51.9659C92.0565 51.9915 91.9613 52.017 91.8391 52.0426C91.717 52.071 91.5621 52.0852 91.3746 52.0852C91.0906 52.0852 90.8121 52.0241 90.5394 51.902C90.2695 51.7798 90.0451 51.5938 89.8661 51.3438C89.69 51.0938 89.6019 50.7784 89.6019 50.3977V43.8864ZM96.1921 52.1364C95.5614 52.1364 95.0174 51.9972 94.56 51.7188C94.1055 51.4375 93.7546 51.0455 93.5075 50.5426C93.2631 50.0369 93.141 49.4489 93.141 48.7784C93.141 48.108 93.2631 47.517 93.5075 47.0057C93.7546 46.4915 94.0984 46.0909 94.5387 45.804C94.9819 45.5142 95.4989 45.3693 96.0898 45.3693C96.4308 45.3693 96.7674 45.4261 97.0998 45.5398C97.4322 45.6534 97.7347 45.8381 98.0075 46.0938C98.2802 46.3466 98.4975 46.6818 98.6594 47.0994C98.8214 47.517 98.9023 48.0312 98.9023 48.642V49.0682H93.8569V48.1989H97.8796C97.8796 47.8295 97.8058 47.5 97.658 47.2102C97.5131 46.9205 97.3058 46.6918 97.0359 46.5241C96.7688 46.3565 96.4535 46.2727 96.0898 46.2727C95.6893 46.2727 95.3427 46.3722 95.0501 46.571C94.7603 46.767 94.5373 47.0227 94.381 47.3381C94.2248 47.6534 94.1467 47.9915 94.1467 48.3523V48.9318C94.1467 49.4261 94.2319 49.8452 94.4023 50.1889C94.5756 50.5298 94.8157 50.7898 95.1225 50.9688C95.4293 51.1449 95.7859 51.233 96.1921 51.233C96.4563 51.233 96.695 51.196 96.908 51.1222C97.1239 51.0455 97.31 50.9318 97.4663 50.7812C97.6225 50.6278 97.7433 50.4375 97.8285 50.2102L98.8001 50.483C98.6978 50.8125 98.5259 51.1023 98.2844 51.3523C98.043 51.5994 97.7447 51.7926 97.3896 51.9318C97.0344 52.0682 96.6353 52.1364 96.1921 52.1364ZM103.074 54.5909C102.588 54.5909 102.171 54.5284 101.821 54.4034C101.472 54.2812 101.181 54.1193 100.948 53.9176C100.718 53.7188 100.534 53.5057 100.398 53.2784L101.199 52.7159C101.29 52.8352 101.405 52.9716 101.544 53.125C101.684 53.2812 101.874 53.4162 102.115 53.5298C102.36 53.6463 102.679 53.7045 103.074 53.7045C103.603 53.7045 104.039 53.5767 104.382 53.321C104.726 53.0653 104.898 52.6648 104.898 52.1193V50.7898H104.813C104.739 50.9091 104.634 51.0568 104.498 51.233C104.364 51.4062 104.171 51.5611 103.918 51.6974C103.668 51.831 103.33 51.8977 102.904 51.8977C102.375 51.8977 101.901 51.7727 101.48 51.5227C101.063 51.2727 100.732 50.9091 100.488 50.4318C100.246 49.9545 100.125 49.375 100.125 48.6932C100.125 48.0227 100.243 47.4389 100.479 46.9418C100.715 46.4418 101.043 46.0554 101.463 45.7827C101.884 45.5071 102.37 45.3693 102.921 45.3693C103.347 45.3693 103.685 45.4403 103.935 45.5824C104.188 45.7216 104.381 45.8807 104.515 46.0597C104.651 46.2358 104.756 46.3807 104.83 46.4943H104.932V45.4545H105.904V52.1875C105.904 52.75 105.776 53.2074 105.52 53.5597C105.267 53.9148 104.926 54.1747 104.498 54.3395C104.071 54.5071 103.597 54.5909 103.074 54.5909ZM103.04 50.9943C103.444 50.9943 103.784 50.902 104.063 50.7173C104.341 50.5327 104.553 50.267 104.698 49.9205C104.843 49.5739 104.915 49.1591 104.915 48.6761C104.915 48.2045 104.844 47.7884 104.702 47.4276C104.56 47.0668 104.35 46.7841 104.071 46.5795C103.793 46.375 103.449 46.2727 103.04 46.2727C102.614 46.2727 102.259 46.3807 101.975 46.5966C101.694 46.8125 101.482 47.1023 101.34 47.4659C101.201 47.8295 101.131 48.233 101.131 48.6761C101.131 49.1307 101.202 49.5327 101.344 49.8821C101.489 50.2287 101.702 50.5014 101.983 50.7003C102.267 50.8963 102.62 50.9943 103.04 50.9943ZM108.392 54.4545C108.222 54.4545 108.07 54.4403 107.936 54.4119C107.803 54.3864 107.711 54.3608 107.659 54.3352L107.915 53.4489C108.159 53.5114 108.375 53.5341 108.563 53.517C108.75 53.5 108.917 53.4162 109.061 53.2656C109.209 53.1179 109.344 52.8778 109.466 52.5455L109.654 52.0341L107.233 45.4545H108.324L110.131 50.6705H110.199L112.006 45.4545H113.097L110.319 52.9545C110.194 53.2926 110.039 53.5724 109.854 53.794C109.669 54.0185 109.455 54.1847 109.211 54.2926C108.969 54.4006 108.696 54.4545 108.392 54.4545Z" fill="white"/>
<path d="M76.137 112.518C82.205 112.518 86.238 109.41 86.238 104.674C86.238 100.16 83.093 98.162 78.579 97.422L74.879 96.867C71.919 96.386 69.995 95.313 69.995 92.723C69.995 90.207 72.067 88.246 76.1 88.246C80.096 88.246 82.094 90.133 82.279 92.76H85.868C85.683 88.838 82.501 85.397 76.137 85.397C69.921 85.397 66.443 88.764 66.443 92.945C66.443 97.422 69.588 99.457 73.954 100.123L77.654 100.715C80.91 101.233 82.686 102.306 82.686 104.896C82.686 107.745 80.207 109.669 76.174 109.669C72.067 109.669 69.514 107.856 69.329 104.6H65.777C65.925 109.188 69.736 112.518 76.137 112.518ZM87.8463 92.871V95.683H92.2493V107.449C92.2493 110.483 93.6923 112 96.9483 112H101.943V109.188H97.5773C96.2083 109.188 95.6533 108.596 95.6533 107.227V95.683H101.906V92.871H95.6533V87.136H92.2493V92.871H87.8463ZM104.208 98.199H107.575C107.76 96.164 109.24 94.943 111.978 94.943C115.012 94.943 116.048 96.497 116.048 98.014C116.048 99.494 115.049 100.123 113.088 100.456L110.202 100.937C106.169 101.566 103.505 103.342 103.505 106.857C103.505 110.446 106.28 112.518 110.054 112.518C113.273 112.518 115.641 110.89 116.566 108.522H116.603V108.892C116.566 110.927 117.528 112 119.933 112H122.116V109.262H120.932C120.007 109.262 119.526 108.966 119.526 107.782V98.717C119.526 94.388 116.418 92.353 112.052 92.353C107.242 92.353 104.541 94.758 104.208 98.199ZM116.159 104.045C116.159 107.523 113.902 109.854 110.683 109.854C108.389 109.854 106.835 108.744 106.835 106.746V106.524C106.835 104.674 108.352 103.675 110.794 103.268L113.606 102.787C114.938 102.565 115.789 102.047 116.159 101.529V104.045ZM124.235 112H127.639V100.9C127.639 98.088 128.675 95.905 132.301 95.905H135.52V92.76H132.93C129.674 92.76 128.12 94.388 127.528 96.09H127.491V92.871H124.235V112ZM136.59 92.871V95.683H140.993V107.449C140.993 110.483 142.436 112 145.692 112H150.687V109.188H146.321C144.952 109.188 144.397 108.596 144.397 107.227V95.683H150.65V92.871H144.397V87.136H140.993V92.871H136.59ZM158.121 92.871L164.374 112.037H167.778L172.44 97.015H172.477L177.176 112.037H180.654L186.685 92.871H183.392L178.952 107.671H178.915L174.253 92.834H170.849L166.298 107.745H166.261L161.71 92.871H158.121ZM192.857 89.615C194.189 89.615 195.188 88.579 195.188 87.321C195.188 85.989 194.189 85.027 192.857 85.027H192.672C191.34 85.027 190.341 85.989 190.341 87.321C190.341 88.579 191.34 89.615 192.672 89.615H192.857ZM188.01 95.646H191.044V112H194.448V92.871H188.01V95.646ZM197.004 92.871V95.683H201.407V107.449C201.407 110.483 202.85 112 206.106 112H211.101V109.188H206.735C205.366 109.188 204.811 108.596 204.811 107.227V95.683H211.064V92.871H204.811V87.136H201.407V92.871H197.004ZM217.537 100.789C217.537 97.015 219.979 95.239 222.643 95.239C225.196 95.239 227.379 96.904 227.379 100.345V112H230.783V100.049C230.783 95.017 227.638 92.353 223.642 92.353C220.904 92.353 218.61 93.537 217.5 95.942H217.463V84.546H214.133V112H217.537V100.789ZM239.351 92.871V95.683H243.754V107.449C243.754 110.483 245.197 112 248.453 112H253.448V109.188H249.082C247.713 109.188 247.158 108.596 247.158 107.227V95.683H253.411V92.871H247.158V87.136H243.754V92.871H239.351ZM259.885 100.789C259.885 97.015 262.327 95.239 264.991 95.239C267.544 95.239 269.727 96.904 269.727 100.345V112H273.131V100.049C273.131 95.017 269.986 92.353 265.99 92.353C263.252 92.353 260.958 93.537 259.848 95.942H259.811V84.546H256.481V112H259.885V100.789ZM285.474 112.518C290.062 112.518 293.17 110.002 293.873 106.45H290.432C290.136 108.115 288.471 109.854 285.511 109.854C282.144 109.854 279.628 107.338 279.628 103.305V103.194H294.243V101.825C294.243 96.46 291.061 92.353 285.437 92.353C279.628 92.353 276.187 96.719 276.187 102.417C276.187 108.078 279.443 112.518 285.474 112.518ZM285.437 94.98C288.508 94.98 290.728 97.089 290.802 100.752H279.665C279.961 97.126 282.403 94.98 285.437 94.98ZM306.149 101.714C306.149 97.681 308.702 95.202 311.958 95.202C314.77 95.202 316.324 96.867 316.805 98.828H320.172C319.506 94.943 316.509 92.353 311.958 92.353C306.112 92.353 302.745 96.645 302.745 102.417C302.745 108.152 306.038 112.518 311.958 112.518C316.472 112.518 319.432 109.891 320.209 105.932H316.842C316.324 108.004 314.696 109.669 311.958 109.669C308.702 109.669 306.149 107.153 306.149 103.157V101.714ZM331.688 112.518C337.608 112.518 340.975 108.078 340.975 102.417C340.975 96.756 337.534 92.353 331.688 92.353C325.879 92.353 322.401 96.756 322.401 102.417C322.401 108.078 325.768 112.518 331.688 112.518ZM337.571 103.12C337.571 107.264 334.907 109.669 331.688 109.669C328.469 109.669 325.842 107.116 325.842 103.12V101.714C325.842 97.681 328.469 95.202 331.688 95.202C334.907 95.202 337.571 97.607 337.571 101.714V103.12ZM344.248 112H347.652V100.9C347.652 98.088 348.688 95.905 352.314 95.905H355.533V92.76H352.943C349.687 92.76 348.133 94.388 347.541 96.09H347.504V92.871H344.248V112ZM365.58 112.518C370.168 112.518 373.276 110.002 373.979 106.45H370.538C370.242 108.115 368.577 109.854 365.617 109.854C362.25 109.854 359.734 107.338 359.734 103.305V103.194H374.349V101.825C374.349 96.46 371.167 92.353 365.543 92.353C359.734 92.353 356.293 96.719 356.293 102.417C356.293 108.078 359.549 112.518 365.58 112.518ZM365.543 94.98C368.614 94.98 370.834 97.089 370.908 100.752H359.771C360.067 97.126 362.509 94.98 365.543 94.98ZM67.479 156H70.994V145.196H78.542C84.092 145.196 87.163 142.125 87.163 137.574C87.163 133.023 84.092 129.952 78.542 129.952H67.479V156ZM83.574 137.796C83.574 140.46 81.872 142.162 78.431 142.162H70.994V132.986H78.431C81.872 132.986 83.574 134.651 83.574 137.352V137.796ZM89.4587 156H106.664V153.04H92.8627V152.818C92.8627 150.783 93.8617 149.525 96.0817 147.934L101.188 144.493C104.962 141.94 106.183 139.572 106.183 136.686C106.183 132.542 103.001 129.397 97.9317 129.397C93.0847 129.397 89.5327 132.357 89.4587 137.352H92.8627C92.8997 134.096 94.8607 132.246 97.9317 132.246C101.114 132.246 102.668 134.17 102.668 136.575V137.056C102.668 138.684 102.002 140.201 99.3747 142.014L94.5647 145.233C91.0497 147.564 89.4587 149.673 89.4587 152.929V156ZM110.369 156H113.884V145.196H121.432C126.982 145.196 130.053 142.125 130.053 137.574C130.053 133.023 126.982 129.952 121.432 129.952H110.369V156ZM126.464 137.796C126.464 140.46 124.762 142.162 121.321 142.162H113.884V132.986H121.321C124.762 132.986 126.464 134.651 126.464 137.352V137.796ZM147.591 156.518C152.179 156.518 155.287 154.002 155.99 150.45H152.549C152.253 152.115 150.588 153.854 147.628 153.854C144.261 153.854 141.745 151.338 141.745 147.305V147.194H156.36V145.825C156.36 140.46 153.178 136.353 147.554 136.353C141.745 136.353 138.304 140.719 138.304 146.417C138.304 152.078 141.56 156.518 147.591 156.518ZM147.554 138.98C150.625 138.98 152.845 141.089 152.919 144.752H141.782C142.078 141.126 144.52 138.98 147.554 138.98ZM156.423 156H160.234L165.599 148.6H165.636L171.001 156H174.96L167.745 146.158L174.627 136.871H170.779L165.747 143.753H165.71L160.715 136.871H156.756L163.601 146.232L156.423 156ZM177.35 136.871V163.104H180.754V152.596H180.791C181.975 155.038 184.195 156.518 187.266 156.518C192.557 156.518 195.739 152.115 195.739 146.417C195.739 140.756 192.631 136.353 187.266 136.353C184.047 136.353 181.79 137.907 180.643 140.497H180.606V136.871H177.35ZM192.298 145.714V147.12C192.298 151.227 189.708 153.669 186.526 153.669C183.344 153.669 180.754 151.153 180.754 147.12V145.714C180.754 141.681 183.344 139.165 186.526 139.165C189.708 139.165 192.298 141.57 192.298 145.714ZM207.319 156.518C211.907 156.518 215.015 154.002 215.718 150.45H212.277C211.981 152.115 210.316 153.854 207.356 153.854C203.989 153.854 201.473 151.338 201.473 147.305V147.194H216.088V145.825C216.088 140.46 212.906 136.353 207.282 136.353C201.473 136.353 198.032 140.719 198.032 146.417C198.032 152.078 201.288 156.518 207.319 156.518ZM207.282 138.98C210.353 138.98 212.573 141.089 212.647 144.752H201.51C201.806 141.126 204.248 138.98 207.282 138.98ZM219.337 156H222.741V144.9C222.741 142.088 223.777 139.905 227.403 139.905H230.622V136.76H228.032C224.776 136.76 223.222 138.388 222.63 140.09H222.593V136.871H219.337V156ZM236.831 133.615C238.163 133.615 239.162 132.579 239.162 131.321C239.162 129.989 238.163 129.027 236.831 129.027H236.646C235.314 129.027 234.315 129.989 234.315 131.321C234.315 132.579 235.314 133.615 236.646 133.615H236.831ZM231.984 139.646H235.018V156H238.422V136.871H231.984V139.646ZM250.967 156.518C255.555 156.518 258.663 154.002 259.366 150.45H255.925C255.629 152.115 253.964 153.854 251.004 153.854C247.637 153.854 245.121 151.338 245.121 147.305V147.194H259.736V145.825C259.736 140.46 256.554 136.353 250.93 136.353C245.121 136.353 241.68 140.719 241.68 146.417C241.68 152.078 244.936 156.518 250.967 156.518ZM250.93 138.98C254.001 138.98 256.221 141.089 256.295 144.752H245.158C245.454 141.126 247.896 138.98 250.93 138.98ZM266.389 144.789C266.389 141.015 268.831 139.239 271.495 139.239C274.048 139.239 276.231 140.904 276.231 144.345V156H279.635V144.049C279.635 139.017 276.49 136.353 272.494 136.353C269.682 136.353 267.351 137.574 266.241 140.127H266.204V136.871H262.985V156H266.389V144.789ZM286.095 145.714C286.095 141.681 288.648 139.202 291.904 139.202C294.716 139.202 296.27 140.867 296.751 142.828H300.118C299.452 138.943 296.455 136.353 291.904 136.353C286.058 136.353 282.691 140.645 282.691 146.417C282.691 152.152 285.984 156.518 291.904 156.518C296.418 156.518 299.378 153.891 300.155 149.932H296.788C296.27 152.004 294.642 153.669 291.904 153.669C288.648 153.669 286.095 151.153 286.095 147.157V145.714ZM311.634 156.518C316.222 156.518 319.33 154.002 320.033 150.45H316.592C316.296 152.115 314.631 153.854 311.671 153.854C308.304 153.854 305.788 151.338 305.788 147.305V147.194H320.403V145.825C320.403 140.46 317.221 136.353 311.597 136.353C305.788 136.353 302.347 140.719 302.347 146.417C302.347 152.078 305.603 156.518 311.634 156.518ZM311.597 138.98C314.668 138.98 316.888 141.089 316.962 144.752H305.825C306.121 141.126 308.563 138.98 311.597 138.98ZM67.109 200H70.365V196.374H70.402C71.549 198.927 73.806 200.518 77.025 200.518C82.39 200.518 85.498 196.115 85.498 190.417C85.498 184.756 82.316 180.353 77.025 180.353C73.954 180.353 71.734 181.833 70.55 184.275H70.513V172.546H67.109V200ZM82.057 191.157C82.057 195.301 79.467 197.669 76.285 197.669C73.103 197.669 70.513 195.153 70.513 191.157V189.751C70.513 185.681 73.103 183.202 76.285 183.202C79.467 183.202 82.057 185.607 82.057 189.751V191.157ZM97.0776 200.518C101.666 200.518 104.774 198.002 105.477 194.45H102.036C101.74 196.115 100.075 197.854 97.1146 197.854C93.7476 197.854 91.2316 195.338 91.2316 191.305V191.194H105.847V189.825C105.847 184.46 102.665 180.353 97.0406 180.353C91.2316 180.353 87.7906 184.719 87.7906 190.417C87.7906 196.078 91.0466 200.518 97.0776 200.518ZM97.0406 182.98C100.112 182.98 102.332 185.089 102.406 188.752H91.2686C91.5646 185.126 94.0066 182.98 97.0406 182.98ZM111.29 200H114.694V183.683H121.354V180.871H114.694V177.171C114.694 175.802 115.212 175.247 116.618 175.247H121.391V172.509H115.989C112.77 172.509 111.29 174.026 111.29 177.06V180.871H106.961V183.683H111.29V200ZM131.44 200.518C137.36 200.518 140.727 196.078 140.727 190.417C140.727 184.756 137.286 180.353 131.44 180.353C125.631 180.353 122.153 184.756 122.153 190.417C122.153 196.078 125.52 200.518 131.44 200.518ZM137.323 191.12C137.323 195.264 134.659 197.669 131.44 197.669C128.221 197.669 125.594 195.116 125.594 191.12V189.714C125.594 185.681 128.221 183.202 131.44 183.202C134.659 183.202 137.323 185.607 137.323 189.714V191.12ZM144 200H147.404V188.9C147.404 186.088 148.44 183.905 152.066 183.905H155.285V180.76H152.695C149.439 180.76 147.885 182.388 147.293 184.09H147.256V180.871H144V200ZM165.332 200.518C169.92 200.518 173.028 198.002 173.731 194.45H170.29C169.994 196.115 168.329 197.854 165.369 197.854C162.002 197.854 159.486 195.338 159.486 191.305V191.194H174.101V189.825C174.101 184.46 170.919 180.353 165.295 180.353C159.486 180.353 156.045 184.719 156.045 190.417C156.045 196.078 159.301 200.518 165.332 200.518ZM165.295 182.98C168.366 182.98 170.586 185.089 170.66 188.752H159.523C159.819 185.126 162.261 182.98 165.295 182.98ZM191.89 200.518C196.478 200.518 199.586 198.002 200.289 194.45H196.848C196.552 196.115 194.887 197.854 191.927 197.854C188.56 197.854 186.044 195.338 186.044 191.305V191.194H200.659V189.825C200.659 184.46 197.477 180.353 191.853 180.353C186.044 180.353 182.603 184.719 182.603 190.417C182.603 196.078 185.859 200.518 191.89 200.518ZM191.853 182.98C194.924 182.98 197.144 185.089 197.218 188.752H186.081C186.377 185.126 188.819 182.98 191.853 182.98ZM200.722 200H204.533L209.898 192.6H209.935L215.3 200H219.259L212.044 190.158L218.926 180.871H215.078L210.046 187.753H210.009L205.014 180.871H201.055L207.9 190.232L200.722 200ZM219.984 180.871V183.683H224.387V195.449C224.387 198.483 225.83 200 229.086 200H234.081V197.188H229.715C228.346 197.188 227.791 196.596 227.791 195.227V183.683H234.044V180.871H227.791V175.136H224.387V180.871H219.984ZM244.933 200.518C249.521 200.518 252.629 198.002 253.332 194.45H249.891C249.595 196.115 247.93 197.854 244.97 197.854C241.603 197.854 239.087 195.338 239.087 191.305V191.194H253.702V189.825C253.702 184.46 250.52 180.353 244.896 180.353C239.087 180.353 235.646 184.719 235.646 190.417C235.646 196.078 238.902 200.518 244.933 200.518ZM244.896 182.98C247.967 182.98 250.187 185.089 250.261 188.752H239.124C239.42 185.126 241.862 182.98 244.896 182.98ZM260.355 188.789C260.355 185.015 262.797 183.239 265.461 183.239C268.014 183.239 270.197 184.904 270.197 188.345V200H273.601V188.049C273.601 183.017 270.456 180.353 266.46 180.353C263.648 180.353 261.317 181.574 260.207 184.127H260.17V180.871H256.951V200H260.355V188.789ZM295.046 200V172.546H291.642V184.275H291.605C290.421 181.833 288.201 180.353 285.093 180.353C279.839 180.353 276.657 184.756 276.657 190.417C276.657 196.115 279.765 200.518 285.093 200.518C288.349 200.518 290.606 198.927 291.753 196.374H291.79V200H295.046ZM280.098 191.157V189.751C280.098 185.607 282.688 183.202 285.87 183.202C289.015 183.202 291.642 185.681 291.642 189.751V191.157C291.642 195.153 289.015 197.669 285.87 197.669C282.688 197.669 280.098 195.301 280.098 191.157ZM302.592 177.615C303.924 177.615 304.923 176.579 304.923 175.321C304.923 173.989 303.924 173.027 302.592 173.027H302.407C301.075 173.027 300.076 173.989 300.076 175.321C300.076 176.579 301.075 177.615 302.407 177.615H302.592ZM297.745 183.646H300.779V200H304.183V180.871H297.745V183.646ZM311.808 188.789C311.808 185.015 314.25 183.239 316.914 183.239C319.467 183.239 321.65 184.904 321.65 188.345V200H325.054V188.049C325.054 183.017 321.909 180.353 317.913 180.353C315.101 180.353 312.77 181.574 311.66 184.127H311.623V180.871H308.404V200H311.808V188.789ZM328.702 201.628C329.257 204.884 332.106 207.622 337.249 207.622C342.947 207.622 346.277 204.366 346.277 198.557V180.871H343.058V184.312H343.021C341.874 181.87 339.728 180.353 336.435 180.353C331.181 180.353 328.11 184.534 328.11 189.862C328.11 195.264 331.292 199.445 336.435 199.445C339.543 199.445 341.689 198.002 342.836 195.634H342.873V198.742C342.873 202.664 341.06 204.921 337.249 204.921C333.919 204.921 332.476 203.182 332.143 201.628H328.702ZM331.551 189.418C331.551 185.459 334.104 183.202 337.212 183.202C340.32 183.202 342.873 185.57 342.873 189.418V190.38C342.873 194.265 340.32 196.633 337.212 196.633C334.104 196.633 331.551 194.339 331.551 190.38V189.418ZM75.434 244.518C81.354 244.518 84.721 240.078 84.721 234.417C84.721 228.756 81.28 224.353 75.434 224.353C69.625 224.353 66.147 228.756 66.147 234.417C66.147 240.078 69.514 244.518 75.434 244.518ZM81.317 235.12C81.317 239.264 78.653 241.669 75.434 241.669C72.215 241.669 69.588 239.116 69.588 235.12V233.714C69.588 229.681 72.215 227.202 75.434 227.202C78.653 227.202 81.317 229.607 81.317 233.714V235.12ZM101.055 236.082C101.055 239.856 98.6128 241.632 95.9488 241.632C93.3958 241.632 91.2128 239.967 91.2128 236.526V224.871H87.8088V236.822C87.8088 241.854 90.9538 244.518 94.9498 244.518C97.7618 244.518 100.093 243.297 101.203 240.744H101.24V244H104.459V224.871H101.055V236.082ZM106.997 224.871V227.683H111.4V239.449C111.4 242.483 112.843 244 116.099 244H121.094V241.188H116.728C115.359 241.188 114.804 240.596 114.804 239.227V227.683H121.057V224.871H114.804V219.136H111.4V224.871H106.997ZM122.721 238.413C122.832 242.113 125.977 244.555 130.972 244.555C135.671 244.555 139.001 242.298 139.001 238.561C139.001 235.305 136.67 233.529 132.933 233.011L130.01 232.604C127.827 232.271 126.717 231.457 126.717 229.829C126.717 228.09 128.308 226.869 130.898 226.869C133.562 226.869 135.042 228.127 135.153 230.051H138.594C138.446 226.943 135.782 224.279 130.935 224.279C126.495 224.279 123.313 226.536 123.313 230.088C123.313 233.381 125.57 235.009 128.9 235.49L131.823 235.897C134.154 236.23 135.597 237.007 135.597 238.82C135.597 240.781 133.784 241.965 131.083 241.965C128.271 241.965 126.31 240.818 126.199 238.413H122.721ZM145.306 221.615C146.638 221.615 147.637 220.579 147.637 219.321C147.637 217.989 146.638 217.027 145.306 217.027H145.121C143.789 217.027 142.79 217.989 142.79 219.321C142.79 220.579 143.789 221.615 145.121 221.615H145.306ZM140.459 227.646H143.493V244H146.897V224.871H140.459V227.646ZM168.545 244V216.546H165.141V228.275H165.104C163.92 225.833 161.7 224.353 158.592 224.353C153.338 224.353 150.156 228.756 150.156 234.417C150.156 240.115 153.264 244.518 158.592 244.518C161.848 244.518 164.105 242.927 165.252 240.374H165.289V244H168.545ZM153.597 235.157V233.751C153.597 229.607 156.187 227.202 159.369 227.202C162.514 227.202 165.141 229.681 165.141 233.751V235.157C165.141 239.153 162.514 241.669 159.369 241.669C156.187 241.669 153.597 239.301 153.597 235.157ZM181.086 244.518C185.674 244.518 188.782 242.002 189.485 238.45H186.044C185.748 240.115 184.083 241.854 181.123 241.854C177.756 241.854 175.24 239.338 175.24 235.305V235.194H189.855V233.825C189.855 228.46 186.673 224.353 181.049 224.353C175.24 224.353 171.799 228.719 171.799 234.417C171.799 240.078 175.055 244.518 181.086 244.518ZM181.049 226.98C184.12 226.98 186.34 229.089 186.414 232.752H175.277C175.573 229.126 178.015 226.98 181.049 226.98ZM197.654 224.871V227.683H202.057V239.449C202.057 242.483 203.5 244 206.756 244H211.751V241.188H207.385C206.016 241.188 205.461 240.596 205.461 239.227V227.683H211.714V224.871H205.461V219.136H202.057V224.871H197.654ZM218.188 232.789C218.188 229.015 220.63 227.239 223.294 227.239C225.847 227.239 228.03 228.904 228.03 232.345V244H231.434V232.049C231.434 227.017 228.289 224.353 224.293 224.353C221.555 224.353 219.261 225.537 218.151 227.942H218.114V216.546H214.784V244H218.188V232.789ZM243.777 244.518C248.365 244.518 251.473 242.002 252.176 238.45H248.735C248.439 240.115 246.774 241.854 243.814 241.854C240.447 241.854 237.931 239.338 237.931 235.305V235.194H252.546V233.825C252.546 228.46 249.364 224.353 243.74 224.353C237.931 224.353 234.49 228.719 234.49 234.417C234.49 240.078 237.746 244.518 243.777 244.518ZM243.74 226.98C246.811 226.98 249.031 229.089 249.105 232.752H237.968C238.264 229.126 240.706 226.98 243.74 226.98ZM264.451 233.714C264.451 229.681 267.004 227.202 270.26 227.202C273.072 227.202 274.626 228.867 275.107 230.828H278.474C277.808 226.943 274.811 224.353 270.26 224.353C264.414 224.353 261.047 228.645 261.047 234.417C261.047 240.152 264.34 244.518 270.26 244.518C274.774 244.518 277.734 241.891 278.511 237.932H275.144C274.626 240.004 272.998 241.669 270.26 241.669C267.004 241.669 264.451 239.153 264.451 235.157V233.714ZM289.991 244.518C295.911 244.518 299.278 240.078 299.278 234.417C299.278 228.756 295.837 224.353 289.991 224.353C284.182 224.353 280.704 228.756 280.704 234.417C280.704 240.078 284.071 244.518 289.991 244.518ZM295.874 235.12C295.874 239.264 293.21 241.669 289.991 241.669C286.772 241.669 284.145 239.116 284.145 235.12V233.714C284.145 229.681 286.772 227.202 289.991 227.202C293.21 227.202 295.874 229.607 295.874 233.714V235.12ZM302.55 244H305.954V232.9C305.954 230.088 306.99 227.905 310.616 227.905H313.835V224.76H311.245C307.989 224.76 306.435 226.388 305.843 228.09H305.806V224.871H302.55V244ZM323.883 244.518C328.471 244.518 331.579 242.002 332.282 238.45H328.841C328.545 240.115 326.88 241.854 323.92 241.854C320.553 241.854 318.037 239.338 318.037 235.305V235.194H332.652V233.825C332.652 228.46 329.47 224.353 323.846 224.353C318.037 224.353 314.596 228.719 314.596 234.417C314.596 240.078 317.852 244.518 323.883 244.518ZM323.846 226.98C326.917 226.98 329.137 229.089 329.211 232.752H318.074C318.37 229.126 320.812 226.98 323.846 226.98ZM341.709 230.199H345.076C345.261 228.164 346.741 226.943 349.479 226.943C352.513 226.943 353.549 228.497 353.549 230.014C353.549 231.494 352.55 232.123 350.589 232.456L347.703 232.937C343.67 233.566 341.006 235.342 341.006 238.857C341.006 242.446 343.781 244.518 347.555 244.518C350.774 244.518 353.142 242.89 354.067 240.522H354.104V240.892C354.067 242.927 355.029 244 357.434 244H359.617V241.262H358.433C357.508 241.262 357.027 240.966 357.027 239.782V230.717C357.027 226.388 353.919 224.353 349.553 224.353C344.743 224.353 342.042 226.758 341.709 230.199ZM353.66 236.045C353.66 239.523 351.403 241.854 348.184 241.854C345.89 241.854 344.336 240.744 344.336 238.746V238.524C344.336 236.674 345.853 235.675 348.295 235.268L351.107 234.787C352.439 234.565 353.29 234.047 353.66 233.529V236.045ZM361.736 224.871V251.104H365.14V240.596H365.177C366.361 243.038 368.581 244.518 371.652 244.518C376.943 244.518 380.125 240.115 380.125 234.417C380.125 228.756 377.017 224.353 371.652 224.353C368.433 224.353 366.176 225.907 365.029 228.497H364.992V224.871H361.736ZM376.684 233.714V235.12C376.684 239.227 374.094 241.669 370.912 241.669C367.73 241.669 365.14 239.153 365.14 235.12V233.714C365.14 229.681 367.73 227.165 370.912 227.165C374.094 227.165 376.684 229.57 376.684 233.714ZM383.38 224.871V251.104H386.784V240.596H386.821C388.005 243.038 390.225 244.518 393.296 244.518C398.587 244.518 401.769 240.115 401.769 234.417C401.769 228.756 398.661 224.353 393.296 224.353C390.077 224.353 387.82 225.907 386.673 228.497H386.636V224.871H383.38ZM398.328 233.714V235.12C398.328 239.227 395.738 241.669 392.556 241.669C389.374 241.669 386.784 239.153 386.784 235.12V233.714C386.784 229.681 389.374 227.165 392.556 227.165C395.738 227.165 398.328 229.57 398.328 233.714Z" fill="white"/>
<path d="M66.564 285H72.038C74.197 285 75.744 283.742 75.744 281.651C75.744 280.104 74.843 279.101 73.432 278.761V278.744C74.639 278.387 75.387 277.469 75.387 276.126C75.387 274.239 73.925 273.032 71.851 273.032H66.564V285ZM73.755 276.364C73.755 277.469 72.973 278.149 71.681 278.149H68.179V274.392H71.681C72.973 274.392 73.755 275.089 73.755 276.194V276.364ZM74.129 281.634C74.129 282.841 73.279 283.623 71.834 283.623H68.179V279.475H71.817C73.245 279.475 74.129 280.223 74.129 281.464V281.634ZM81.4507 285.986L85.2587 276.211H83.6607L81.1277 282.96H81.1107L78.5097 276.211H76.7927L80.2777 284.762L79.8867 285.765C79.4957 286.751 79.2237 286.955 78.3057 286.955H76.8437V288.264H78.3567C80.1077 288.264 80.8217 287.618 81.4507 285.986ZM89.9005 282.433C89.9515 284.133 91.3965 285.255 93.6915 285.255C95.8675 285.255 97.3975 284.218 97.3975 282.501C97.3975 281.005 96.3265 280.189 94.5925 279.951L93.2495 279.764C92.2465 279.611 91.7365 279.237 91.7365 278.489C91.7365 277.69 92.4675 277.129 93.6575 277.129C94.8815 277.129 95.5615 277.707 95.6125 278.591H97.1935C97.1255 277.163 95.9185 275.939 93.6915 275.939C91.6345 275.939 90.1725 276.976 90.1725 278.608C90.1725 280.121 91.2095 280.869 92.7395 281.09L94.0825 281.277C95.1535 281.43 95.8165 281.787 95.8165 282.62C95.8165 283.521 94.9835 284.065 93.7425 284.065C92.4675 284.065 91.5495 283.538 91.5155 282.433H89.9005ZM98.1609 276.211V277.503H100.167V282.909C100.167 284.303 100.83 285 102.326 285H104.621V283.708H102.615C101.986 283.708 101.731 283.436 101.731 282.807V277.503H104.604V276.211H101.731V273.576H100.167V276.211H98.1609ZM106.08 278.659H107.627C107.729 277.724 108.392 277.163 109.65 277.163C111.044 277.163 111.52 277.877 111.52 278.574C111.52 279.254 111.061 279.543 110.16 279.696L108.834 279.917C106.981 280.206 105.757 281.022 105.757 282.637C105.757 284.286 107.032 285.238 108.766 285.238C110.245 285.238 111.333 284.49 111.758 283.402H111.775V283.572C111.758 284.507 112.2 285 113.305 285H114.308V283.742H113.764C113.339 283.742 113.118 283.606 113.118 283.062V278.897C113.118 276.908 111.69 275.973 109.684 275.973C107.474 275.973 106.233 277.078 106.08 278.659ZM111.571 281.345C111.571 282.943 110.534 284.014 109.055 284.014C108.001 284.014 107.287 283.504 107.287 282.586V282.484C107.287 281.634 107.984 281.175 109.106 280.988L110.398 280.767C111.01 280.665 111.401 280.427 111.571 280.189V281.345ZM115.815 285H117.379V279.9C117.379 278.608 117.855 277.605 119.521 277.605H120.983V276.16H119.81C118.314 276.16 117.6 276.908 117.328 277.69H117.311V276.211H115.815V285ZM121.752 276.211V277.503H123.758V282.909C123.758 284.303 124.421 285 125.917 285H128.212V283.708H126.206C125.577 283.708 125.322 283.436 125.322 282.807V277.503H128.195V276.211H125.322V273.576H123.758V276.211H121.752ZM131.503 274.715C132.115 274.715 132.574 274.239 132.574 273.661C132.574 273.049 132.115 272.607 131.503 272.607H131.418C130.789 272.607 130.33 273.049 130.33 273.661C130.33 274.239 130.789 274.715 131.418 274.715H131.503ZM129.259 277.486H130.67V285H132.234V276.211H129.259V277.486ZM136.421 279.849C136.421 278.115 137.543 277.299 138.767 277.299C139.94 277.299 140.943 278.064 140.943 279.645V285H142.507V279.509C142.507 277.197 141.062 275.973 139.226 275.973C137.934 275.973 136.863 276.534 136.353 277.707H136.336V276.211H134.857V285H136.421V279.849ZM144.779 285.748C145.017 287.244 146.326 288.502 148.638 288.502C151.324 288.502 152.854 287.006 152.854 284.337V276.211H151.358V277.792H151.341C150.831 276.67 149.828 275.973 148.332 275.973C145.918 275.973 144.507 277.894 144.507 280.342C144.507 282.824 145.952 284.745 148.332 284.745C149.76 284.745 150.729 284.082 151.273 282.994H151.29V284.422C151.29 286.224 150.457 287.261 148.638 287.261C147.176 287.261 146.513 286.462 146.36 285.748H144.779ZM146.071 280.138C146.071 278.319 147.261 277.282 148.689 277.282C150.117 277.282 151.29 278.37 151.29 280.138V280.58C151.29 282.365 150.117 283.453 148.689 283.453C147.261 283.453 146.071 282.399 146.071 280.58V280.138ZM158.257 276.211L161.13 285.017H162.711L164.836 278.115H164.853L167.012 285.017H168.627L171.381 276.211H169.868L167.845 283.011H167.828L165.686 276.194H164.105L162.014 283.045H161.997L159.906 276.211H158.257ZM174.418 274.715C175.03 274.715 175.489 274.239 175.489 273.661C175.489 273.049 175.03 272.607 174.418 272.607H174.333C173.704 272.607 173.245 273.049 173.245 273.661C173.245 274.239 173.704 274.715 174.333 274.715H174.418ZM172.174 277.486H173.585V285H175.149V276.211H172.174V277.486ZM176.786 276.211V277.503H178.792V282.909C178.792 284.303 179.455 285 180.951 285H183.246V283.708H181.24C180.611 283.708 180.356 283.436 180.356 282.807V277.503H183.229V276.211H180.356V273.576H178.792V276.211H176.786ZM186.707 279.849C186.707 278.115 187.829 277.299 189.053 277.299C190.226 277.299 191.229 278.064 191.229 279.645V285H192.793V279.509C192.793 277.197 191.348 275.973 189.512 275.973C188.254 275.973 187.2 276.517 186.69 277.622H186.673V272.386H185.143V285H186.707V279.849ZM198.152 276.211V277.503H200.158V282.909C200.158 284.303 200.821 285 202.317 285H204.612V283.708H202.606C201.977 283.708 201.722 283.436 201.722 282.807V277.503H204.595V276.211H201.722V273.576H200.158V276.211H198.152ZM208.073 279.849C208.073 278.115 209.195 277.299 210.419 277.299C211.592 277.299 212.595 278.064 212.595 279.645V285H214.159V279.509C214.159 277.197 212.714 275.973 210.878 275.973C209.62 275.973 208.566 276.517 208.056 277.622H208.039V272.386H206.509V285H208.073V279.849ZM220.409 285.238C222.534 285.238 223.962 284.082 224.285 282.45H222.704C222.568 283.215 221.803 284.014 220.443 284.014C218.879 284.014 217.723 282.858 217.723 281.005V280.954H224.455V280.393C224.455 277.894 222.993 275.973 220.358 275.973C217.74 275.973 216.159 277.979 216.159 280.597C216.159 283.198 217.655 285.238 220.409 285.238ZM220.358 277.18C221.786 277.18 222.806 278.132 222.874 279.832H217.74C217.876 278.166 218.998 277.18 220.358 277.18ZM231.386 280.274C231.386 278.421 232.559 277.282 234.038 277.282C235.33 277.282 236.044 278.047 236.282 278.948H237.829C237.506 277.163 236.129 275.973 234.055 275.973C231.369 275.973 229.822 277.945 229.822 280.597C229.822 283.232 231.335 285.238 234.055 285.238C236.129 285.238 237.489 284.031 237.829 282.212H236.299C236.044 283.164 235.296 283.929 234.038 283.929C232.559 283.929 231.386 282.773 231.386 280.937V280.274ZM243.569 285.238C246.289 285.238 247.836 283.198 247.836 280.597C247.836 277.996 246.238 275.973 243.569 275.973C240.883 275.973 239.302 277.996 239.302 280.597C239.302 283.198 240.849 285.238 243.569 285.238ZM246.255 280.92C246.255 282.824 245.048 283.929 243.569 283.929C242.09 283.929 240.866 282.756 240.866 280.92V280.274C240.866 278.421 242.09 277.282 243.569 277.282C245.048 277.282 246.255 278.387 246.255 280.274V280.92ZM249.922 285H251.486V279.9C251.486 278.608 251.962 277.605 253.628 277.605H255.09V276.16H253.917C252.421 276.16 251.707 276.908 251.435 277.69H251.418V276.211H249.922V285ZM260.12 285.238C262.245 285.238 263.673 284.082 263.996 282.45H262.415C262.279 283.215 261.514 284.014 260.154 284.014C258.59 284.014 257.434 282.858 257.434 281.005V280.954H264.166V280.393C264.166 277.894 262.704 275.973 260.069 275.973C257.451 275.973 255.87 277.979 255.87 280.597C255.87 283.198 257.366 285.238 260.12 285.238ZM260.069 277.18C261.497 277.18 262.517 278.132 262.585 279.832H257.451C257.587 278.166 258.709 277.18 260.069 277.18ZM270.315 285H271.947V280.036H275.415C277.948 280.036 279.376 278.625 279.376 276.534C279.376 274.443 277.948 273.032 275.415 273.032H270.315V285ZM277.727 276.636C277.727 277.86 276.945 278.642 275.364 278.642H271.947V274.426H275.364C276.945 274.426 277.727 275.191 277.727 276.432V276.636ZM280.639 285H288.544V283.64H282.203V283.538C282.203 282.603 282.662 282.025 283.699 281.294L286.045 279.713C287.762 278.54 288.323 277.452 288.323 276.126C288.323 274.222 286.861 272.777 284.549 272.777C282.322 272.777 280.673 274.137 280.639 276.432H282.203C282.22 274.936 283.121 274.086 284.549 274.086C286.011 274.086 286.725 274.97 286.725 276.075V276.296C286.725 277.044 286.419 277.741 285.195 278.574L282.985 280.053C281.37 281.124 280.639 282.093 280.639 283.589V285ZM291.05 285H292.682V280.036H296.15C298.683 280.036 300.111 278.625 300.111 276.534C300.111 274.443 298.683 273.032 296.15 273.032H291.05V285ZM298.462 276.636C298.462 277.86 297.68 278.642 296.099 278.642H292.682V274.426H296.099C297.68 274.426 298.462 275.191 298.462 276.432V276.636ZM309.443 285.238C311.568 285.238 312.996 284.082 313.319 282.45H311.738C311.602 283.215 310.837 284.014 309.477 284.014C307.913 284.014 306.757 282.858 306.757 281.005V280.954H313.489V280.393C313.489 277.894 312.027 275.973 309.392 275.973C306.774 275.973 305.193 277.979 305.193 280.597C305.193 283.198 306.689 285.238 309.443 285.238ZM309.392 277.18C310.82 277.18 311.84 278.132 311.908 279.832H306.774C306.91 278.166 308.032 277.18 309.392 277.18ZM313.894 285H315.662L318.127 281.6H318.144L320.609 285H322.428L319.096 280.478L322.258 276.211H320.49L318.195 279.373H318.161L315.883 276.211H314.064L317.209 280.512L313.894 285ZM323.882 276.211V288.264H325.446V283.436H325.463C326.007 284.558 327.027 285.238 328.438 285.238C330.869 285.238 332.331 283.215 332.331 280.597C332.331 277.996 330.903 275.973 328.438 275.973C326.959 275.973 325.905 276.687 325.395 277.877H325.378V276.211H323.882ZM330.75 280.274V280.92C330.75 282.807 329.56 283.929 328.098 283.929C326.636 283.929 325.446 282.773 325.446 280.92V280.274C325.446 278.421 326.636 277.265 328.098 277.265C329.56 277.265 330.75 278.37 330.75 280.274ZM338.131 285.238C340.256 285.238 341.684 284.082 342.007 282.45H340.426C340.29 283.215 339.525 284.014 338.165 284.014C336.601 284.014 335.445 282.858 335.445 281.005V280.954H342.177V280.393C342.177 277.894 340.715 275.973 338.08 275.973C335.462 275.973 333.881 277.979 333.881 280.597C333.881 283.198 335.377 285.238 338.131 285.238ZM338.08 277.18C339.508 277.18 340.528 278.132 340.596 279.832H335.462C335.598 278.166 336.72 277.18 338.08 277.18ZM344.252 285H345.816V279.9C345.816 278.608 346.292 277.605 347.958 277.605H349.42V276.16H348.247C346.751 276.16 346.037 276.908 345.765 277.69H345.748V276.211H344.252V285ZM352.569 274.715C353.181 274.715 353.64 274.239 353.64 273.661C353.64 273.049 353.181 272.607 352.569 272.607H352.484C351.855 272.607 351.396 273.049 351.396 273.661C351.396 274.239 351.855 274.715 352.484 274.715H352.569ZM350.325 277.486H351.736V285H353.3V276.211H350.325V277.486ZM359.646 285.238C361.771 285.238 363.199 284.082 363.522 282.45H361.941C361.805 283.215 361.04 284.014 359.68 284.014C358.116 284.014 356.96 282.858 356.96 281.005V280.954H363.692V280.393C363.692 277.894 362.23 275.973 359.595 275.973C356.977 275.973 355.396 277.979 355.396 280.597C355.396 283.198 356.892 285.238 359.646 285.238ZM359.595 277.18C361.023 277.18 362.043 278.132 362.111 279.832H356.977C357.113 278.166 358.235 277.18 359.595 277.18ZM367.332 279.849C367.332 278.115 368.454 277.299 369.678 277.299C370.851 277.299 371.854 278.064 371.854 279.645V285H373.418V279.509C373.418 277.197 371.973 275.973 370.137 275.973C368.845 275.973 367.774 276.534 367.264 277.707H367.247V276.211H365.768V285H367.332V279.849ZM376.982 280.274C376.982 278.421 378.155 277.282 379.634 277.282C380.926 277.282 381.64 278.047 381.878 278.948H383.425C383.102 277.163 381.725 275.973 379.651 275.973C376.965 275.973 375.418 277.945 375.418 280.597C375.418 283.232 376.931 285.238 379.651 285.238C381.725 285.238 383.085 284.031 383.425 282.212H381.895C381.64 283.164 380.892 283.929 379.634 283.929C378.155 283.929 376.982 282.773 376.982 280.937V280.274ZM389.147 285.238C391.272 285.238 392.7 284.082 393.023 282.45H391.442C391.306 283.215 390.541 284.014 389.181 284.014C387.617 284.014 386.461 282.858 386.461 281.005V280.954H393.193V280.393C393.193 277.894 391.731 275.973 389.096 275.973C386.478 275.973 384.897 277.979 384.897 280.597C384.897 283.198 386.393 285.238 389.147 285.238ZM389.096 277.18C390.524 277.18 391.544 278.132 391.612 279.832H386.478C386.614 278.166 387.736 277.18 389.096 277.18ZM395.599 287.448L397.027 283.113H395.412L394.222 287.448H395.599ZM65.272 300.211L68.145 309.017H69.726L71.851 302.115H71.868L74.027 309.017H75.642L78.396 300.211H76.883L74.86 307.011H74.843L72.701 300.194H71.12L69.029 307.045H69.012L66.921 300.211H65.272ZM83.4627 309.238C85.5877 309.238 87.0157 308.082 87.3387 306.45H85.7577C85.6217 307.215 84.8567 308.014 83.4967 308.014C81.9327 308.014 80.7767 306.858 80.7767 305.005V304.954H87.5087V304.393C87.5087 301.894 86.0467 299.973 83.4117 299.973C80.7937 299.973 79.2127 301.979 79.2127 304.597C79.2127 307.198 80.7087 309.238 83.4627 309.238ZM83.4117 301.18C84.8397 301.18 85.8597 302.132 85.9277 303.832H80.7937C80.9297 302.166 82.0517 301.18 83.4117 301.18ZM92.3658 300.211L95.2388 309.017H96.8198L98.9448 302.115H98.9618L101.121 309.017H102.736L105.49 300.211H103.977L101.954 307.011H101.937L99.7948 300.194H98.2138L96.1228 307.045H96.1058L94.0148 300.211H92.3658ZM110.556 309.238C112.681 309.238 114.109 308.082 114.432 306.45H112.851C112.715 307.215 111.95 308.014 110.59 308.014C109.026 308.014 107.87 306.858 107.87 305.005V304.954H114.602V304.393C114.602 301.894 113.14 299.973 110.505 299.973C107.887 299.973 106.306 301.979 106.306 304.597C106.306 307.198 107.802 309.238 110.556 309.238ZM110.505 301.18C111.933 301.18 112.953 302.132 113.021 303.832H107.887C108.023 302.166 109.145 301.18 110.505 301.18ZM116.678 309H118.242V303.9C118.242 302.608 118.718 301.605 120.384 301.605H121.846V300.16H120.673C119.177 300.16 118.463 300.908 118.191 301.69H118.174V300.211H116.678V309ZM126.876 309.238C129.001 309.238 130.429 308.082 130.752 306.45H129.171C129.035 307.215 128.27 308.014 126.91 308.014C125.346 308.014 124.19 306.858 124.19 305.005V304.954H130.922V304.393C130.922 301.894 129.46 299.973 126.825 299.973C124.207 299.973 122.626 301.979 122.626 304.597C122.626 307.198 124.122 309.238 126.876 309.238ZM126.825 301.18C128.253 301.18 129.273 302.132 129.341 303.832H124.207C124.343 302.166 125.465 301.18 126.825 301.18ZM136.544 302.659H138.091C138.193 301.724 138.856 301.163 140.114 301.163C141.508 301.163 141.984 301.877 141.984 302.574C141.984 303.254 141.525 303.543 140.624 303.696L139.298 303.917C137.445 304.206 136.221 305.022 136.221 306.637C136.221 308.286 137.496 309.238 139.23 309.238C140.709 309.238 141.797 308.49 142.222 307.402H142.239V307.572C142.222 308.507 142.664 309 143.769 309H144.772V307.742H144.228C143.803 307.742 143.582 307.606 143.582 307.062V302.897C143.582 300.908 142.154 299.973 140.148 299.973C137.938 299.973 136.697 301.078 136.544 302.659ZM142.035 305.345C142.035 306.943 140.998 308.014 139.519 308.014C138.465 308.014 137.751 307.504 137.751 306.586V306.484C137.751 305.634 138.448 305.175 139.57 304.988L140.862 304.767C141.474 304.665 141.865 304.427 142.035 304.189V305.345ZM146.329 309H147.825V307.334H147.842C148.352 308.507 149.406 309.238 150.885 309.238C153.35 309.238 154.778 307.215 154.778 304.597C154.778 301.996 153.316 299.973 150.885 299.973C149.474 299.973 148.454 300.653 147.91 301.775H147.893V296.386H146.329V309ZM153.197 304.937C153.197 306.841 152.007 307.929 150.545 307.929C149.083 307.929 147.893 306.773 147.893 304.937V304.291C147.893 302.421 149.083 301.282 150.545 301.282C152.007 301.282 153.197 302.387 153.197 304.291V304.937ZM156.769 306.909C156.769 308.303 157.449 309 158.928 309H160.849V307.691H159.302C158.622 307.691 158.333 307.402 158.333 306.722V296.386H156.769V306.909ZM165.923 309.238C168.048 309.238 169.476 308.082 169.799 306.45H168.218C168.082 307.215 167.317 308.014 165.957 308.014C164.393 308.014 163.237 306.858 163.237 305.005V304.954H169.969V304.393C169.969 301.894 168.507 299.973 165.872 299.973C163.254 299.973 161.673 301.979 161.673 304.597C161.673 307.198 163.169 309.238 165.923 309.238ZM165.872 301.18C167.3 301.18 168.32 302.132 168.388 303.832H163.254C163.39 302.166 164.512 301.18 165.872 301.18ZM174.877 300.211V301.503H176.883V306.909C176.883 308.303 177.546 309 179.042 309H181.337V307.708H179.331C178.702 307.708 178.447 307.436 178.447 306.807V301.503H181.32V300.211H178.447V297.576H176.883V300.211H174.877ZM186.741 309.238C189.461 309.238 191.008 307.198 191.008 304.597C191.008 301.996 189.41 299.973 186.741 299.973C184.055 299.973 182.474 301.996 182.474 304.597C182.474 307.198 184.021 309.238 186.741 309.238ZM189.427 304.92C189.427 306.824 188.22 307.929 186.741 307.929C185.262 307.929 184.038 306.756 184.038 304.92V304.274C184.038 302.421 185.262 301.282 186.741 301.282C188.22 301.282 189.427 302.387 189.427 304.274V304.92ZM196.913 309H198.409V307.334H198.426C198.936 308.507 199.99 309.238 201.469 309.238C203.934 309.238 205.362 307.215 205.362 304.597C205.362 301.996 203.9 299.973 201.469 299.973C200.058 299.973 199.038 300.653 198.494 301.775H198.477V296.386H196.913V309ZM203.781 304.937C203.781 306.841 202.591 307.929 201.129 307.929C199.667 307.929 198.477 306.773 198.477 304.937V304.291C198.477 302.421 199.667 301.282 201.129 301.282C202.591 301.282 203.781 302.387 203.781 304.291V304.937ZM213.44 305.362C213.44 307.096 212.318 307.912 211.094 307.912C209.921 307.912 208.918 307.147 208.918 305.566V300.211H207.354V305.702C207.354 308.014 208.799 309.238 210.635 309.238C211.927 309.238 212.998 308.677 213.508 307.504H213.525V309H215.004V300.211H213.44V305.362ZM219.01 298.715C219.622 298.715 220.081 298.239 220.081 297.661C220.081 297.049 219.622 296.607 219.01 296.607H218.925C218.296 296.607 217.837 297.049 217.837 297.661C217.837 298.239 218.296 298.715 218.925 298.715H219.01ZM216.766 301.486H218.177V309H219.741V300.211H216.766V301.486ZM222.279 306.909C222.279 308.303 222.959 309 224.438 309H226.359V307.691H224.812C224.132 307.691 223.843 307.402 223.843 306.722V296.386H222.279V306.909ZM235.631 309V296.386H234.067V301.775H234.05C233.506 300.653 232.486 299.973 231.058 299.973C228.644 299.973 227.182 301.996 227.182 304.597C227.182 307.215 228.61 309.238 231.058 309.238C232.554 309.238 233.591 308.507 234.118 307.334H234.135V309H235.631ZM228.746 304.937V304.291C228.746 302.387 229.953 301.282 231.398 301.282C232.86 301.282 234.067 302.421 234.067 304.291V304.937C234.067 306.773 232.86 307.929 231.398 307.929C229.953 307.929 228.746 306.841 228.746 304.937ZM245.776 309.238C247.901 309.238 249.329 308.082 249.652 306.45H248.071C247.935 307.215 247.17 308.014 245.81 308.014C244.246 308.014 243.09 306.858 243.09 305.005V304.954H249.822V304.393C249.822 301.894 248.36 299.973 245.725 299.973C243.107 299.973 241.526 301.979 241.526 304.597C241.526 307.198 243.022 309.238 245.776 309.238ZM245.725 301.18C247.153 301.18 248.173 302.132 248.241 303.832H243.107C243.243 302.166 244.365 301.18 245.725 301.18ZM251.659 302.659H253.206C253.308 301.724 253.971 301.163 255.229 301.163C256.623 301.163 257.099 301.877 257.099 302.574C257.099 303.254 256.64 303.543 255.739 303.696L254.413 303.917C252.56 304.206 251.336 305.022 251.336 306.637C251.336 308.286 252.611 309.238 254.345 309.238C255.824 309.238 256.912 308.49 257.337 307.402H257.354V307.572C257.337 308.507 257.779 309 258.884 309H259.887V307.742H259.343C258.918 307.742 258.697 307.606 258.697 307.062V302.897C258.697 300.908 257.269 299.973 255.263 299.973C253.053 299.973 251.812 301.078 251.659 302.659ZM257.15 305.345C257.15 306.943 256.113 308.014 254.634 308.014C253.58 308.014 252.866 307.504 252.866 306.586V306.484C252.866 305.634 253.563 305.175 254.685 304.988L255.977 304.767C256.589 304.665 256.98 304.427 257.15 304.189V305.345ZM261.394 309H262.958V303.9C262.958 302.608 263.434 301.605 265.1 301.605H266.562V300.16H265.389C263.893 300.16 263.179 300.908 262.907 301.69H262.89V300.211H261.394V309ZM268.215 306.909C268.215 308.303 268.895 309 270.374 309H272.295V307.691H270.748C270.068 307.691 269.779 307.402 269.779 306.722V296.386H268.215V306.909ZM276.834 309.986L280.642 300.211H279.044L276.511 306.96H276.494L273.893 300.211H272.176L275.661 308.762L275.27 309.765C274.879 310.751 274.607 310.955 273.689 310.955H272.227V312.264H273.74C275.491 312.264 276.205 311.618 276.834 309.986ZM285.964 309H287.528V303.628C287.528 302.047 288.531 301.299 289.636 301.299C290.707 301.299 291.625 301.996 291.625 303.424V309H293.189V303.628C293.189 302.047 294.192 301.299 295.314 301.299C296.368 301.299 297.286 301.996 297.286 303.424V309H298.85V303.288C298.85 301.146 297.49 299.973 295.756 299.973C294.498 299.973 293.41 300.568 292.917 301.792H292.9C292.441 300.585 291.387 299.973 290.095 299.973C288.905 299.973 287.919 300.5 287.46 301.554H287.443V300.211H285.964V309ZM305.111 309.238C307.831 309.238 309.378 307.198 309.378 304.597C309.378 301.996 307.78 299.973 305.111 299.973C302.425 299.973 300.844 301.996 300.844 304.597C300.844 307.198 302.391 309.238 305.111 309.238ZM307.797 304.92C307.797 306.824 306.59 307.929 305.111 307.929C303.632 307.929 302.408 306.756 302.408 304.92V304.274C302.408 302.421 303.632 301.282 305.111 301.282C306.59 301.282 307.797 302.387 307.797 304.274V304.92ZM311.464 309H313.028V303.628C313.028 302.047 314.031 301.299 315.136 301.299C316.207 301.299 317.125 301.996 317.125 303.424V309H318.689V303.628C318.689 302.047 319.692 301.299 320.814 301.299C321.868 301.299 322.786 301.996 322.786 303.424V309H324.35V303.288C324.35 301.146 322.99 299.973 321.256 299.973C319.998 299.973 318.91 300.568 318.417 301.792H318.4C317.941 300.585 316.887 299.973 315.595 299.973C314.405 299.973 313.419 300.5 312.96 301.554H312.943V300.211H311.464V309ZM330.594 309.238C332.719 309.238 334.147 308.082 334.47 306.45H332.889C332.753 307.215 331.988 308.014 330.628 308.014C329.064 308.014 327.908 306.858 327.908 305.005V304.954H334.64V304.393C334.64 301.894 333.178 299.973 330.543 299.973C327.925 299.973 326.344 301.979 326.344 304.597C326.344 307.198 327.84 309.238 330.594 309.238ZM330.543 301.18C331.971 301.18 332.991 302.132 333.059 303.832H327.925C328.061 302.166 329.183 301.18 330.543 301.18ZM338.279 303.849C338.279 302.115 339.401 301.299 340.625 301.299C341.798 301.299 342.801 302.064 342.801 303.645V309H344.365V303.509C344.365 301.197 342.92 299.973 341.084 299.973C339.792 299.973 338.721 300.534 338.211 301.707H338.194V300.211H336.715V309H338.279V303.849ZM345.591 300.211V301.503H347.597V306.909C347.597 308.303 348.26 309 349.756 309H352.051V307.708H350.045C349.416 307.708 349.161 307.436 349.161 306.807V301.503H352.034V300.211H349.161V297.576H347.597V300.211H345.591ZM359.949 305.362C359.949 307.096 358.827 307.912 357.603 307.912C356.43 307.912 355.427 307.147 355.427 305.566V300.211H353.863V305.702C353.863 308.014 355.308 309.238 357.144 309.238C358.436 309.238 359.507 308.677 360.017 307.504H360.034V309H361.513V300.211H359.949V305.362ZM364.124 309H365.688V303.628C365.688 302.047 366.691 301.299 367.796 301.299C368.867 301.299 369.785 301.996 369.785 303.424V309H371.349V303.628C371.349 302.047 372.352 301.299 373.474 301.299C374.528 301.299 375.446 301.996 375.446 303.424V309H377.01V303.288C377.01 301.146 375.65 299.973 373.916 299.973C372.658 299.973 371.57 300.568 371.077 301.792H371.06C370.601 300.585 369.547 299.973 368.255 299.973C367.065 299.973 366.079 300.5 365.62 301.554H365.603V300.211H364.124V309ZM66.309 333H67.805V331.334H67.822C68.332 332.507 69.386 333.238 70.865 333.238C73.33 333.238 74.758 331.215 74.758 328.597C74.758 325.996 73.296 323.973 70.865 323.973C69.454 323.973 68.434 324.653 67.89 325.775H67.873V320.386H66.309V333ZM73.177 328.937C73.177 330.841 71.987 331.929 70.525 331.929C69.063 331.929 67.873 330.773 67.873 328.937V328.291C67.873 326.421 69.063 325.282 70.525 325.282C71.987 325.282 73.177 326.387 73.177 328.291V328.937ZM80.5574 333.238C82.6824 333.238 84.1104 332.082 84.4334 330.45H82.8524C82.7164 331.215 81.9514 332.014 80.5914 332.014C79.0274 332.014 77.8714 330.858 77.8714 329.005V328.954H84.6034V328.393C84.6034 325.894 83.1414 323.973 80.5064 323.973C77.8884 323.973 76.3074 325.979 76.3074 328.597C76.3074 331.198 77.8034 333.238 80.5574 333.238ZM80.5064 325.18C81.9344 325.18 82.9544 326.132 83.0224 327.832H77.8884C78.0244 326.166 79.1464 325.18 80.5064 325.18ZM87.4493 333H89.0133V325.503H92.0563V324.211H88.9963V322.511C88.9963 321.882 89.2513 321.627 89.8803 321.627H92.0733V320.369H89.6083C88.1123 320.369 87.4493 321.066 87.4493 322.46V324.211H85.4603V325.503H87.4493V333ZM97.0099 333.238C99.7299 333.238 101.277 331.198 101.277 328.597C101.277 325.996 99.6789 323.973 97.0099 323.973C94.3239 323.973 92.7429 325.996 92.7429 328.597C92.7429 331.198 94.2899 333.238 97.0099 333.238ZM99.6959 328.92C99.6959 330.824 98.4889 331.929 97.0099 331.929C95.5309 331.929 94.3069 330.756 94.3069 328.92V328.274C94.3069 326.421 95.5309 325.282 97.0099 325.282C98.4889 325.282 99.6959 326.387 99.6959 328.274V328.92ZM103.364 333H104.928V327.9C104.928 326.608 105.404 325.605 107.07 325.605H108.532V324.16H107.359C105.863 324.16 105.149 324.908 104.877 325.69H104.86V324.211H103.364V333ZM113.561 333.238C115.686 333.238 117.114 332.082 117.437 330.45H115.856C115.72 331.215 114.955 332.014 113.595 332.014C112.031 332.014 110.875 330.858 110.875 329.005V328.954H117.607V328.393C117.607 325.894 116.145 323.973 113.51 323.973C110.892 323.973 109.311 325.979 109.311 328.597C109.311 331.198 110.807 333.238 113.561 333.238ZM113.51 325.18C114.938 325.18 115.958 326.132 116.026 327.832H110.892C111.028 326.166 112.15 325.18 113.51 325.18ZM122.515 324.211V325.503H124.521V330.909C124.521 332.303 125.184 333 126.68 333H128.975V331.708H126.969C126.34 331.708 126.085 331.436 126.085 330.807V325.503H128.958V324.211H126.085V321.576H124.521V324.211H122.515ZM130.434 326.659H131.981C132.083 325.724 132.746 325.163 134.004 325.163C135.398 325.163 135.874 325.877 135.874 326.574C135.874 327.254 135.415 327.543 134.514 327.696L133.188 327.917C131.335 328.206 130.111 329.022 130.111 330.637C130.111 332.286 131.386 333.238 133.12 333.238C134.599 333.238 135.687 332.49 136.112 331.402H136.129V331.572C136.112 332.507 136.554 333 137.659 333H138.662V331.742H138.118C137.693 331.742 137.472 331.606 137.472 331.062V326.897C137.472 324.908 136.044 323.973 134.038 323.973C131.828 323.973 130.587 325.078 130.434 326.659ZM135.925 329.345C135.925 330.943 134.888 332.014 133.409 332.014C132.355 332.014 131.641 331.504 131.641 330.586V330.484C131.641 329.634 132.338 329.175 133.46 328.988L134.752 328.767C135.364 328.665 135.755 328.427 135.925 328.189V329.345ZM141.783 320.386H140.219V333H141.783V320.386ZM147.716 324.211H145.795L141.783 328.274L146.05 333H148.056L143.687 328.206L147.716 324.211ZM150.761 322.715C151.373 322.715 151.832 322.239 151.832 321.661C151.832 321.049 151.373 320.607 150.761 320.607H150.676C150.047 320.607 149.588 321.049 149.588 321.661C149.588 322.239 150.047 322.715 150.676 322.715H150.761ZM148.517 325.486H149.928V333H151.492V324.211H148.517V325.486ZM155.679 327.849C155.679 326.115 156.801 325.299 158.025 325.299C159.198 325.299 160.201 326.064 160.201 327.645V333H161.765V327.509C161.765 325.197 160.32 323.973 158.484 323.973C157.192 323.973 156.121 324.534 155.611 325.707H155.594V324.211H154.115V333H155.679V327.849ZM164.036 333.748C164.274 335.244 165.583 336.502 167.895 336.502C170.581 336.502 172.111 335.006 172.111 332.337V324.211H170.615V325.792H170.598C170.088 324.67 169.085 323.973 167.589 323.973C165.175 323.973 163.764 325.894 163.764 328.342C163.764 330.824 165.209 332.745 167.589 332.745C169.017 332.745 169.986 332.082 170.53 330.994H170.547V332.422C170.547 334.224 169.714 335.261 167.895 335.261C166.433 335.261 165.77 334.462 165.617 333.748H164.036ZM165.328 328.138C165.328 326.319 166.518 325.282 167.946 325.282C169.374 325.282 170.547 326.37 170.547 328.138V328.58C170.547 330.365 169.374 331.453 167.946 331.453C166.518 331.453 165.328 330.399 165.328 328.58V328.138ZM182.292 333.238C185.012 333.238 186.559 331.198 186.559 328.597C186.559 325.996 184.961 323.973 182.292 323.973C179.606 323.973 178.025 325.996 178.025 328.597C178.025 331.198 179.572 333.238 182.292 333.238ZM184.978 328.92C184.978 330.824 183.771 331.929 182.292 331.929C180.813 331.929 179.589 330.756 179.589 328.92V328.274C179.589 326.421 180.813 325.282 182.292 325.282C183.771 325.282 184.978 326.387 184.978 328.274V328.92ZM190.21 327.849C190.21 326.115 191.332 325.299 192.556 325.299C193.729 325.299 194.732 326.064 194.732 327.645V333H196.296V327.509C196.296 325.197 194.851 323.973 193.015 323.973C191.723 323.973 190.652 324.534 190.142 325.707H190.125V324.211H188.646V333H190.21V327.849ZM204.205 327.849C204.205 326.115 205.327 325.299 206.551 325.299C207.724 325.299 208.727 326.064 208.727 327.645V333H210.291V327.509C210.291 325.197 208.846 323.973 207.01 323.973C205.718 323.973 204.647 324.534 204.137 325.707H204.12V324.211H202.641V333H204.205V327.849ZM216.541 333.238C218.666 333.238 220.094 332.082 220.417 330.45H218.836C218.7 331.215 217.935 332.014 216.575 332.014C215.011 332.014 213.855 330.858 213.855 329.005V328.954H220.587V328.393C220.587 325.894 219.125 323.973 216.49 323.973C213.872 323.973 212.291 325.979 212.291 328.597C212.291 331.198 213.787 333.238 216.541 333.238ZM216.49 325.18C217.918 325.18 218.938 326.132 219.006 327.832H213.872C214.008 326.166 215.13 325.18 216.49 325.18ZM221.376 324.211L224.249 333.017H225.83L227.955 326.115H227.972L230.131 333.017H231.746L234.5 324.211H232.987L230.964 331.011H230.947L228.805 324.194H227.224L225.133 331.045H225.116L223.025 324.211H221.376ZM247.274 324.211H245.676L243.109 331.181H243.092L240.508 324.211H238.791L242.242 333.017H243.891L247.274 324.211ZM252.267 333.238C254.392 333.238 255.82 332.082 256.143 330.45H254.562C254.426 331.215 253.661 332.014 252.301 332.014C250.737 332.014 249.581 330.858 249.581 329.005V328.954H256.313V328.393C256.313 325.894 254.851 323.973 252.216 323.973C249.598 323.973 248.017 325.979 248.017 328.597C248.017 331.198 249.513 333.238 252.267 333.238ZM252.216 325.18C253.644 325.18 254.664 326.132 254.732 327.832H249.598C249.734 326.166 250.856 325.18 252.216 325.18ZM259.953 327.849C259.953 326.115 261.075 325.299 262.299 325.299C263.472 325.299 264.475 326.064 264.475 327.645V333H266.039V327.509C266.039 325.197 264.594 323.973 262.758 323.973C261.466 323.973 260.395 324.534 259.885 325.707H259.868V324.211H258.389V333H259.953V327.849ZM267.264 324.211V325.503H269.27V330.909C269.27 332.303 269.933 333 271.429 333H273.724V331.708H271.718C271.089 331.708 270.834 331.436 270.834 330.807V325.503H273.707V324.211H270.834V321.576H269.27V324.211H267.264ZM281.623 329.362C281.623 331.096 280.501 331.912 279.277 331.912C278.104 331.912 277.101 331.147 277.101 329.566V324.211H275.537V329.702C275.537 332.014 276.982 333.238 278.818 333.238C280.11 333.238 281.181 332.677 281.691 331.504H281.708V333H283.187V324.211H281.623V329.362ZM285.798 333H287.362V327.9C287.362 326.608 287.838 325.605 289.504 325.605H290.966V324.16H289.793C288.297 324.16 287.583 324.908 287.311 325.69H287.294V324.211H285.798V333ZM295.996 333.238C298.121 333.238 299.549 332.082 299.872 330.45H298.291C298.155 331.215 297.39 332.014 296.03 332.014C294.466 332.014 293.31 330.858 293.31 329.005V328.954H300.042V328.393C300.042 325.894 298.58 323.973 295.945 323.973C293.327 323.973 291.746 325.979 291.746 328.597C291.746 331.198 293.242 333.238 295.996 333.238ZM295.945 325.18C297.373 325.18 298.393 326.132 298.461 327.832H293.327C293.463 326.166 294.585 325.18 295.945 325.18ZM305.936 333H307.432V331.334H307.449C307.959 332.507 309.013 333.238 310.492 333.238C312.957 333.238 314.385 331.215 314.385 328.597C314.385 325.996 312.923 323.973 310.492 323.973C309.081 323.973 308.061 324.653 307.517 325.775H307.5V320.386H305.936V333ZM312.804 328.937C312.804 330.841 311.614 331.929 310.152 331.929C308.69 331.929 307.5 330.773 307.5 328.937V328.291C307.5 326.421 308.69 325.282 310.152 325.282C311.614 325.282 312.804 326.387 312.804 328.291V328.937ZM320.184 333.238C322.309 333.238 323.737 332.082 324.06 330.45H322.479C322.343 331.215 321.578 332.014 320.218 332.014C318.654 332.014 317.498 330.858 317.498 329.005V328.954H324.23V328.393C324.23 325.894 322.768 323.973 320.133 323.973C317.515 323.973 315.934 325.979 315.934 328.597C315.934 331.198 317.43 333.238 320.184 333.238ZM320.133 325.18C321.561 325.18 322.581 326.132 322.649 327.832H317.515C317.651 326.166 318.773 325.18 320.133 325.18ZM325.005 324.211V325.503H327.011V330.909C327.011 332.303 327.674 333 329.17 333H331.465V331.708H329.459C328.83 331.708 328.575 331.436 328.575 330.807V325.503H331.448V324.211H328.575V321.576H327.011V324.211H325.005ZM332.682 330.433C332.733 332.133 334.178 333.255 336.473 333.255C338.649 333.255 340.179 332.218 340.179 330.501C340.179 329.005 339.108 328.189 337.374 327.951L336.031 327.764C335.028 327.611 334.518 327.237 334.518 326.489C334.518 325.69 335.249 325.129 336.439 325.129C337.663 325.129 338.343 325.707 338.394 326.591H339.975C339.907 325.163 338.7 323.939 336.473 323.939C334.416 323.939 332.954 324.976 332.954 326.608C332.954 328.121 333.991 328.869 335.521 329.09L336.864 329.277C337.935 329.43 338.598 329.787 338.598 330.62C338.598 331.521 337.765 332.065 336.524 332.065C335.249 332.065 334.331 331.538 334.297 330.433H332.682ZM345.877 330.909C345.877 332.303 346.557 333 348.036 333H349.957V331.691H348.41C347.73 331.691 347.441 331.402 347.441 330.722V320.386H345.877V330.909ZM352.685 322.715C353.297 322.715 353.756 322.239 353.756 321.661C353.756 321.049 353.297 320.607 352.685 320.607H352.6C351.971 320.607 351.512 321.049 351.512 321.661C351.512 322.239 351.971 322.715 352.6 322.715H352.685ZM350.441 325.486H351.852V333H353.416V324.211H350.441V325.486ZM357.603 320.386H356.039V333H357.603V320.386ZM363.536 324.211H361.615L357.603 328.274L361.87 333H363.876L359.507 328.206L363.536 324.211ZM368.279 333.238C370.404 333.238 371.832 332.082 372.155 330.45H370.574C370.438 331.215 369.673 332.014 368.313 332.014C366.749 332.014 365.593 330.858 365.593 329.005V328.954H372.325V328.393C372.325 325.894 370.863 323.973 368.228 323.973C365.61 323.973 364.029 325.979 364.029 328.597C364.029 331.198 365.525 333.238 368.279 333.238ZM368.228 325.18C369.656 325.18 370.676 326.132 370.744 327.832H365.61C365.746 326.166 366.868 325.18 368.228 325.18ZM71.273 355.827C69.199 355.827 67.499 354.229 67.499 351.373V350.642C67.499 347.786 69.199 346.188 71.273 346.188C73.007 346.188 74.027 347.089 74.333 348.415H76.067C75.608 346.256 73.874 344.777 71.307 344.777C67.703 344.777 65.85 347.633 65.85 351.016C65.85 354.416 67.703 357.238 71.307 357.238C73.874 357.238 75.642 355.725 76.101 353.464H74.401C74.112 354.773 73.092 355.827 71.273 355.827ZM81.8195 357.238C84.5395 357.238 86.0865 355.198 86.0865 352.597C86.0865 349.996 84.4885 347.973 81.8195 347.973C79.1335 347.973 77.5525 349.996 77.5525 352.597C77.5525 355.198 79.0995 357.238 81.8195 357.238ZM84.5055 352.92C84.5055 354.824 83.2985 355.929 81.8195 355.929C80.3405 355.929 79.1165 354.756 79.1165 352.92V352.274C79.1165 350.421 80.3405 349.282 81.8195 349.282C83.2985 349.282 84.5055 350.387 84.5055 352.274V352.92ZM89.5673 346.715C90.1793 346.715 90.6383 346.239 90.6383 345.661C90.6383 345.049 90.1793 344.607 89.5673 344.607H89.4823C88.8533 344.607 88.3943 345.049 88.3943 345.661C88.3943 346.239 88.8533 346.715 89.4823 346.715H89.5673ZM87.3233 349.486H88.7343V357H90.2983V348.211H87.3233V349.486ZM94.4853 351.849C94.4853 350.115 95.6073 349.299 96.8313 349.299C98.0043 349.299 99.0073 350.064 99.0073 351.645V357H100.571V351.509C100.571 349.197 99.1263 347.973 97.2903 347.973C95.9983 347.973 94.9273 348.534 94.4173 349.707H94.4003V348.211H92.9213V357H94.4853V351.849ZM103.098 357H104.594V355.334H104.611C105.121 356.507 106.175 357.238 107.654 357.238C110.119 357.238 111.547 355.215 111.547 352.597C111.547 349.996 110.085 347.973 107.654 347.973C106.243 347.973 105.223 348.653 104.679 349.775H104.662V344.386H103.098V357ZM109.966 352.937C109.966 354.841 108.776 355.929 107.314 355.929C105.852 355.929 104.662 354.773 104.662 352.937V352.291C104.662 350.421 105.852 349.282 107.314 349.282C108.776 349.282 109.966 350.387 109.966 352.291V352.937ZM113.268 350.659H114.815C114.917 349.724 115.58 349.163 116.838 349.163C118.232 349.163 118.708 349.877 118.708 350.574C118.708 351.254 118.249 351.543 117.348 351.696L116.022 351.917C114.169 352.206 112.945 353.022 112.945 354.637C112.945 356.286 114.22 357.238 115.954 357.238C117.433 357.238 118.521 356.49 118.946 355.402H118.963V355.572C118.946 356.507 119.388 357 120.493 357H121.496V355.742H120.952C120.527 355.742 120.306 355.606 120.306 355.062V350.897C120.306 348.908 118.878 347.973 116.872 347.973C114.662 347.973 113.421 349.078 113.268 350.659ZM118.759 353.345C118.759 354.943 117.722 356.014 116.243 356.014C115.189 356.014 114.475 355.504 114.475 354.586V354.484C114.475 353.634 115.172 353.175 116.294 352.988L117.586 352.767C118.198 352.665 118.589 352.427 118.759 352.189V353.345ZM122.39 354.433C122.441 356.133 123.886 357.255 126.181 357.255C128.357 357.255 129.887 356.218 129.887 354.501C129.887 353.005 128.816 352.189 127.082 351.951L125.739 351.764C124.736 351.611 124.226 351.237 124.226 350.489C124.226 349.69 124.957 349.129 126.147 349.129C127.371 349.129 128.051 349.707 128.102 350.591H129.683C129.615 349.163 128.408 347.939 126.181 347.939C124.124 347.939 122.662 348.976 122.662 350.608C122.662 352.121 123.699 352.869 125.229 353.09L126.572 353.277C127.643 353.43 128.306 353.787 128.306 354.62C128.306 355.521 127.473 356.065 126.232 356.065C124.957 356.065 124.039 355.538 124.005 354.433H122.39ZM135.592 357.238C137.717 357.238 139.145 356.082 139.468 354.45H137.887C137.751 355.215 136.986 356.014 135.626 356.014C134.062 356.014 132.906 354.858 132.906 353.005V352.954H139.638V352.393C139.638 349.894 138.176 347.973 135.541 347.973C132.923 347.973 131.342 349.979 131.342 352.597C131.342 355.198 132.838 357.238 135.592 357.238ZM135.541 349.18C136.969 349.18 137.989 350.132 138.057 351.832H132.923C133.059 350.166 134.181 349.18 135.541 349.18ZM150.496 355.827C148.422 355.827 146.722 354.229 146.722 351.373V350.642C146.722 347.786 148.422 346.188 150.496 346.188C152.23 346.188 153.25 347.089 153.556 348.415H155.29C154.831 346.256 153.097 344.777 150.53 344.777C146.926 344.777 145.073 347.633 145.073 351.016C145.073 354.416 146.926 357.238 150.53 357.238C153.097 357.238 154.865 355.725 155.324 353.464H153.624C153.335 354.773 152.315 355.827 150.496 355.827ZM157.047 350.659H158.594C158.696 349.724 159.359 349.163 160.617 349.163C162.011 349.163 162.487 349.877 162.487 350.574C162.487 351.254 162.028 351.543 161.127 351.696L159.801 351.917C157.948 352.206 156.724 353.022 156.724 354.637C156.724 356.286 157.999 357.238 159.733 357.238C161.212 357.238 162.3 356.49 162.725 355.402H162.742V355.572C162.725 356.507 163.167 357 164.272 357H165.275V355.742H164.731C164.306 355.742 164.085 355.606 164.085 355.062V350.897C164.085 348.908 162.657 347.973 160.651 347.973C158.441 347.973 157.2 349.078 157.047 350.659ZM162.538 353.345C162.538 354.943 161.501 356.014 160.022 356.014C158.968 356.014 158.254 355.504 158.254 354.586V354.484C158.254 353.634 158.951 353.175 160.073 352.988L161.365 352.767C161.977 352.665 162.368 352.427 162.538 352.189V353.345ZM166.782 357H168.346V351.9C168.346 350.608 168.822 349.605 170.488 349.605H171.95V348.16H170.777C169.281 348.16 168.567 348.908 168.295 349.69H168.278V348.211H166.782V357ZM181.178 357V344.386H179.614V349.775H179.597C179.053 348.653 178.033 347.973 176.605 347.973C174.191 347.973 172.729 349.996 172.729 352.597C172.729 355.215 174.157 357.238 176.605 357.238C178.101 357.238 179.138 356.507 179.665 355.334H179.682V357H181.178ZM174.293 352.937V352.291C174.293 350.387 175.5 349.282 176.945 349.282C178.407 349.282 179.614 350.421 179.614 352.291V352.937C179.614 354.773 178.407 355.929 176.945 355.929C175.5 355.929 174.293 354.841 174.293 352.937Z" fill="white"/>
<path d="M436.564 94H438.196V89.036H441.664C444.197 89.036 445.625 87.625 445.625 85.534C445.625 83.443 444.197 82.032 441.664 82.032H436.564V94ZM443.976 85.636C443.976 86.86 443.194 87.642 441.613 87.642H438.196V83.426H441.613C443.194 83.426 443.976 84.191 443.976 85.432V85.636ZM447.415 94H448.979V88.9C448.979 87.608 449.455 86.605 451.121 86.605H452.583V85.16H451.41C449.914 85.16 449.2 85.908 448.928 86.69H448.911V85.211H447.415V94ZM457.63 94.238C460.35 94.238 461.897 92.198 461.897 89.597C461.897 86.996 460.299 84.973 457.63 84.973C454.944 84.973 453.363 86.996 453.363 89.597C453.363 92.198 454.91 94.238 457.63 94.238ZM460.316 89.92C460.316 91.824 459.109 92.929 457.63 92.929C456.151 92.929 454.927 91.756 454.927 89.92V89.274C454.927 87.421 456.151 86.282 457.63 86.282C459.109 86.282 460.316 87.387 460.316 89.274V89.92ZM464.834 83.715C465.429 83.715 465.888 83.239 465.888 82.661C465.888 82.049 465.429 81.607 464.834 81.607H464.732C464.12 81.607 463.661 82.049 463.661 82.661C463.661 83.239 464.12 83.715 464.732 83.715H464.834ZM464.001 95.088C464.001 95.734 463.746 95.989 463.1 95.989H461.536V97.281H463.406C464.885 97.281 465.565 96.567 465.565 95.173V85.211H464.001V95.088ZM471.89 94.238C474.015 94.238 475.443 93.082 475.766 91.45H474.185C474.049 92.215 473.284 93.014 471.924 93.014C470.36 93.014 469.204 91.858 469.204 90.005V89.954H475.936V89.393C475.936 86.894 474.474 84.973 471.839 84.973C469.221 84.973 467.64 86.979 467.64 89.597C467.64 92.198 469.136 94.238 471.89 94.238ZM471.839 86.18C473.267 86.18 474.287 87.132 474.355 88.832H469.221C469.357 87.166 470.479 86.18 471.839 86.18ZM479.049 89.274C479.049 87.421 480.222 86.282 481.701 86.282C482.993 86.282 483.707 87.047 483.945 87.948H485.492C485.169 86.163 483.792 84.973 481.718 84.973C479.032 84.973 477.485 86.945 477.485 89.597C477.485 92.232 478.998 94.238 481.718 94.238C483.792 94.238 485.152 93.031 485.492 91.212H483.962C483.707 92.164 482.959 92.929 481.701 92.929C480.222 92.929 479.049 91.773 479.049 89.937V89.274ZM486.506 85.211V86.503H488.512V91.909C488.512 93.303 489.175 94 490.671 94H492.966V92.708H490.96C490.331 92.708 490.076 92.436 490.076 91.807V86.503H492.949V85.211H490.076V82.576H488.512V85.211H486.506ZM500.789 94H502.387V82.032H500.789V84.106H497.848V85.432H500.789V94Z" fill="white"/>
<path d="M450.956 164H452.296V161.31H454.136C455.726 161.31 456.586 160.4 456.586 159.14C456.586 157.88 455.726 156.96 454.136 156.96H450.956V164ZM455.226 159.19C455.226 159.81 454.836 160.17 454.096 160.17H452.296V158.11H454.096C454.836 158.11 455.226 158.46 455.226 159.08V159.19ZM457.899 156.96V164H462.889V162.84H459.239V160.96H462.569V159.82H459.239V158.12H462.889V156.96H457.899ZM464.471 164H465.811V161.2H465.861H465.851L468.681 164H470.541L467.521 161.19H467.741C469.271 161.19 470.111 160.37 470.111 159.12C470.111 157.87 469.251 156.96 467.661 156.96H464.471V164ZM468.751 159.2C468.751 159.82 468.361 160.19 467.621 160.19H465.811V158.09H467.621C468.361 158.09 468.751 158.45 468.751 159.09V159.2ZM474.02 164.15C475.72 164.15 476.88 163.27 476.88 161.94C476.88 160.6 475.93 160.08 474.69 159.89L473.78 159.76C473.05 159.65 472.62 159.44 472.62 158.84C472.62 158.32 473.04 157.87 474 157.87C474.96 157.87 475.4 158.29 475.42 158.87H476.78C476.75 157.76 475.8 156.8 474.01 156.8C472.26 156.8 471.26 157.76 471.26 158.94C471.26 160.23 472.14 160.8 473.39 160.99L474.32 161.13C475.11 161.25 475.52 161.44 475.52 162.04C475.52 162.64 474.99 163.08 474.03 163.08C473.07 163.08 472.48 162.68 472.46 161.94H471.1C471.12 163.24 472.24 164.15 474.02 164.15ZM481.239 164.14C483.399 164.14 484.569 162.51 484.569 160.48C484.569 158.45 483.389 156.81 481.239 156.81C479.099 156.81 477.909 158.45 477.909 160.48C477.909 162.51 479.089 164.14 481.239 164.14ZM481.239 162.97C480.169 162.97 479.289 162.17 479.289 160.72V160.23C479.289 158.78 480.169 157.98 481.239 157.98C482.319 157.98 483.199 158.78 483.199 160.23V160.72C483.199 162.17 482.319 162.97 481.239 162.97ZM486.073 164H487.363V158.74H487.393L490.553 164H492.043V156.96H490.783V162.04H490.743L487.643 156.96H486.073V164Z" fill="white"/>
<path d="M450.956 313H452.296V310.31H454.136C455.726 310.31 456.586 309.4 456.586 308.14C456.586 306.88 455.726 305.96 454.136 305.96H450.956V313ZM455.226 308.19C455.226 308.81 454.836 309.17 454.096 309.17H452.296V307.11H454.096C454.836 307.11 455.226 307.46 455.226 308.08V308.19ZM457.899 305.96V313H462.889V311.84H459.239V309.96H462.569V308.82H459.239V307.12H462.889V305.96H457.899ZM464.471 313H465.811V310.2H465.861H465.851L468.681 313H470.541L467.521 310.19H467.741C469.271 310.19 470.111 309.37 470.111 308.12C470.111 306.87 469.251 305.96 467.661 305.96H464.471V313ZM468.751 308.2C468.751 308.82 468.361 309.19 467.621 309.19H465.811V307.09H467.621C468.361 307.09 468.751 307.45 468.751 308.09V308.2ZM474.02 313.15C475.72 313.15 476.88 312.27 476.88 310.94C476.88 309.6 475.93 309.08 474.69 308.89L473.78 308.76C473.05 308.65 472.62 308.44 472.62 307.84C472.62 307.32 473.04 306.87 474 306.87C474.96 306.87 475.4 307.29 475.42 307.87H476.78C476.75 306.76 475.8 305.8 474.01 305.8C472.26 305.8 471.26 306.76 471.26 307.94C471.26 309.23 472.14 309.8 473.39 309.99L474.32 310.13C475.11 310.25 475.52 310.44 475.52 311.04C475.52 311.64 474.99 312.08 474.03 312.08C473.07 312.08 472.48 311.68 472.46 310.94H471.1C471.12 312.24 472.24 313.15 474.02 313.15ZM481.239 313.14C483.399 313.14 484.569 311.51 484.569 309.48C484.569 307.45 483.389 305.81 481.239 305.81C479.099 305.81 477.909 307.45 477.909 309.48C477.909 311.51 479.089 313.14 481.239 313.14ZM481.239 311.97C480.169 311.97 479.289 311.17 479.289 309.72V309.23C479.289 307.78 480.169 306.98 481.239 306.98C482.319 306.98 483.199 307.78 483.199 309.23V309.72C483.199 311.17 482.319 311.97 481.239 311.97ZM486.073 313H487.363V307.74H487.393L490.553 313H492.043V305.96H490.783V311.04H490.743L487.643 305.96H486.073V313Z" fill="white"/>
<path d="M648.956 164H650.296V161.31H652.136C653.726 161.31 654.586 160.4 654.586 159.14C654.586 157.88 653.726 156.96 652.136 156.96H648.956V164ZM653.226 159.19C653.226 159.81 652.836 160.17 652.096 160.17H650.296V158.11H652.096C652.836 158.11 653.226 158.46 653.226 159.08V159.19ZM655.899 156.96V164H660.889V162.84H657.239V160.96H660.569V159.82H657.239V158.12H660.889V156.96H655.899ZM662.471 164H663.811V161.2H663.861H663.851L666.681 164H668.541L665.521 161.19H665.741C667.271 161.19 668.111 160.37 668.111 159.12C668.111 157.87 667.251 156.96 665.661 156.96H662.471V164ZM666.751 159.2C666.751 159.82 666.361 160.19 665.621 160.19H663.811V158.09H665.621C666.361 158.09 666.751 158.45 666.751 159.09V159.2ZM672.02 164.15C673.72 164.15 674.88 163.27 674.88 161.94C674.88 160.6 673.93 160.08 672.69 159.89L671.78 159.76C671.05 159.65 670.62 159.44 670.62 158.84C670.62 158.32 671.04 157.87 672 157.87C672.96 157.87 673.4 158.29 673.42 158.87H674.78C674.75 157.76 673.8 156.8 672.01 156.8C670.26 156.8 669.26 157.76 669.26 158.94C669.26 160.23 670.14 160.8 671.39 160.99L672.32 161.13C673.11 161.25 673.52 161.44 673.52 162.04C673.52 162.64 672.99 163.08 672.03 163.08C671.07 163.08 670.48 162.68 670.46 161.94H669.1C669.12 163.24 670.24 164.15 672.02 164.15ZM679.239 164.14C681.399 164.14 682.569 162.51 682.569 160.48C682.569 158.45 681.389 156.81 679.239 156.81C677.099 156.81 675.909 158.45 675.909 160.48C675.909 162.51 677.089 164.14 679.239 164.14ZM679.239 162.97C678.169 162.97 677.289 162.17 677.289 160.72V160.23C677.289 158.78 678.169 157.98 679.239 157.98C680.319 157.98 681.199 158.78 681.199 160.23V160.72C681.199 162.17 680.319 162.97 679.239 162.97ZM684.073 164H685.363V158.74H685.393L688.553 164H690.043V156.96H688.783V162.04H688.743L685.643 156.96H684.073V164Z" fill="white"/>
<path d="M640.214 313H641.444V307.38H641.484L643.444 313.01H644.434L646.394 307.34H646.434V313H647.724V305.96H645.744L643.994 311.03H643.954L642.194 305.96H640.214V313ZM649.618 305.96V313H654.608V311.84H650.958V309.96H654.288V308.82H650.958V307.12H654.608V305.96H649.618ZM656.19 313H657.53V310.2H657.58H657.57L660.4 313H662.26L659.24 310.19H659.46C660.99 310.19 661.83 309.37 661.83 308.12C661.83 306.87 660.97 305.96 659.38 305.96H656.19V313ZM660.47 308.2C660.47 308.82 660.08 309.19 659.34 309.19H657.53V307.09H659.34C660.08 307.09 660.47 307.45 660.47 308.09V308.2ZM666.189 311.97C665.139 311.97 664.289 311.17 664.289 309.72V309.23C664.289 307.78 665.139 306.98 666.189 306.98C667.079 306.98 667.589 307.43 667.729 308.09H669.149C668.909 306.75 667.809 305.81 666.229 305.81C664.059 305.81 662.909 307.45 662.909 309.48C662.909 311.52 664.049 313.14 666.229 313.14C667.819 313.14 668.919 312.2 669.169 310.78H667.769C667.649 311.42 667.159 311.97 666.189 311.97ZM670.536 305.96V313H671.876V309.96H675.126V313H676.476V305.96H675.126V308.8H671.876V305.96H670.536ZM682.978 313H684.418L681.758 305.96H680.198L677.548 313H678.938L679.458 311.51H682.448L682.978 313ZM680.918 307.32H680.958L682.058 310.4H679.848L680.918 307.32ZM685.497 313H686.787V307.74H686.817L689.977 313H691.467V305.96H690.207V311.04H690.167L687.067 305.96H685.497V313ZM694.908 307.12V313H696.248V307.12H698.498V305.96H692.658V307.12H694.908Z" fill="white"/>
<path d="M436.564 223H438.196V218.036H441.664C444.197 218.036 445.625 216.625 445.625 214.534C445.625 212.443 444.197 211.032 441.664 211.032H436.564V223ZM443.976 214.636C443.976 215.86 443.194 216.642 441.613 216.642H438.196V212.426H441.613C443.194 212.426 443.976 213.191 443.976 214.432V214.636ZM447.415 223H448.979V217.9C448.979 216.608 449.455 215.605 451.121 215.605H452.583V214.16H451.41C449.914 214.16 449.2 214.908 448.928 215.69H448.911V214.211H447.415V223ZM457.63 223.238C460.35 223.238 461.897 221.198 461.897 218.597C461.897 215.996 460.299 213.973 457.63 213.973C454.944 213.973 453.363 215.996 453.363 218.597C453.363 221.198 454.91 223.238 457.63 223.238ZM460.316 218.92C460.316 220.824 459.109 221.929 457.63 221.929C456.151 221.929 454.927 220.756 454.927 218.92V218.274C454.927 216.421 456.151 215.282 457.63 215.282C459.109 215.282 460.316 216.387 460.316 218.274V218.92ZM464.834 212.715C465.429 212.715 465.888 212.239 465.888 211.661C465.888 211.049 465.429 210.607 464.834 210.607H464.732C464.12 210.607 463.661 211.049 463.661 211.661C463.661 212.239 464.12 212.715 464.732 212.715H464.834ZM464.001 224.088C464.001 224.734 463.746 224.989 463.1 224.989H461.536V226.281H463.406C464.885 226.281 465.565 225.567 465.565 224.173V214.211H464.001V224.088ZM471.89 223.238C474.015 223.238 475.443 222.082 475.766 220.45H474.185C474.049 221.215 473.284 222.014 471.924 222.014C470.36 222.014 469.204 220.858 469.204 219.005V218.954H475.936V218.393C475.936 215.894 474.474 213.973 471.839 213.973C469.221 213.973 467.64 215.979 467.64 218.597C467.64 221.198 469.136 223.238 471.89 223.238ZM471.839 215.18C473.267 215.18 474.287 216.132 474.355 217.832H469.221C469.357 216.166 470.479 215.18 471.839 215.18ZM479.049 218.274C479.049 216.421 480.222 215.282 481.701 215.282C482.993 215.282 483.707 216.047 483.945 216.948H485.492C485.169 215.163 483.792 213.973 481.718 213.973C479.032 213.973 477.485 215.945 477.485 218.597C477.485 221.232 478.998 223.238 481.718 223.238C483.792 223.238 485.152 222.031 485.492 220.212H483.962C483.707 221.164 482.959 221.929 481.701 221.929C480.222 221.929 479.049 220.773 479.049 218.937V218.274ZM486.506 214.211V215.503H488.512V220.909C488.512 222.303 489.175 223 490.671 223H492.966V221.708H490.96C490.331 221.708 490.076 221.436 490.076 220.807V215.503H492.949V214.211H490.076V211.576H488.512V214.211H486.506ZM498.154 223H506.059V221.64H499.718V221.538C499.718 220.603 500.177 220.025 501.214 219.294L503.56 217.713C505.277 216.54 505.838 215.452 505.838 214.126C505.838 212.222 504.376 210.777 502.064 210.777C499.837 210.777 498.188 212.137 498.154 214.432H499.718C499.735 212.936 500.636 212.086 502.064 212.086C503.526 212.086 504.24 212.97 504.24 214.075V214.296C504.24 215.044 503.934 215.741 502.71 216.574L500.5 218.053C498.885 219.124 498.154 220.093 498.154 221.589V223Z" fill="white"/>
<circle cx="472" cy="136" r="6" fill="white"/>
<circle cx="470" cy="285" r="6" fill="white"/>
<circle cx="670" cy="136" r="6" fill="white"/>
<circle cx="669" cy="285" r="5" stroke="white" stroke-width="2"/>
<path d="M632.061 138.061C632.646 137.475 632.646 136.525 632.061 135.939L622.515 126.393C621.929 125.808 620.979 125.808 620.393 126.393C619.808 126.979 619.808 127.929 620.393 128.515L628.879 137L620.393 145.485C619.808 146.071 619.808 147.021 620.393 147.607C620.979 148.192 621.929 148.192 622.515 147.607L632.061 138.061ZM523 138.5H631V135.5H523V138.5Z" fill="white"/>
<path d="M632.061 287.061C632.646 286.475 632.646 285.525 632.061 284.939L622.515 275.393C621.929 274.808 620.979 274.808 620.393 275.393C619.808 275.979 619.808 276.929 620.393 277.515L628.879 286L620.393 294.485C619.808 295.071 619.808 296.021 620.393 296.607C620.979 297.192 621.929 297.192 622.515 296.607L632.061 287.061ZM523 287.5H631V284.5H523V287.5Z" fill="white"/>
</svg>
