<svg width="752" height="423" viewBox="0 0 752 423" fill="none" xmlns="http://www.w3.org/2000/svg">
<g clip-path="url(#clip0_1306_75781)">
<rect width="752" height="423" fill="#F25138"/>
<path d="M66.0568 52V43.2727H69.0057C69.6903 43.2727 70.25 43.3963 70.6847 43.6435C71.1222 43.8878 71.446 44.2188 71.6562 44.6364C71.8665 45.054 71.9716 45.5199 71.9716 46.0341C71.9716 46.5483 71.8665 47.0156 71.6562 47.4361C71.4489 47.8565 71.1278 48.1918 70.6932 48.4418C70.2585 48.6889 69.7017 48.8125 69.0227 48.8125H66.9091V47.875H68.9886C69.4574 47.875 69.8338 47.794 70.1179 47.6321C70.402 47.4702 70.608 47.2514 70.7358 46.9759C70.8665 46.6974 70.9318 46.3835 70.9318 46.0341C70.9318 45.6847 70.8665 45.3722 70.7358 45.0966C70.608 44.821 70.4006 44.6051 70.1136 44.4489C69.8267 44.2898 69.446 44.2102 68.9716 44.2102H67.1136V52H66.0568ZM73.5376 52V45.4545H74.5092V46.4432H74.5774C74.6967 46.1193 74.9126 45.8565 75.2251 45.6548C75.5376 45.4531 75.8899 45.3523 76.282 45.3523C76.3558 45.3523 76.4482 45.3537 76.5589 45.3565C76.6697 45.3594 76.7536 45.3636 76.8104 45.3693V46.392C76.7763 46.3835 76.6982 46.3707 76.576 46.3537C76.4567 46.3338 76.3303 46.3239 76.1967 46.3239C75.8786 46.3239 75.5945 46.3906 75.3445 46.5241C75.0973 46.6548 74.9013 46.8366 74.7564 47.0696C74.6143 47.2997 74.5433 47.5625 74.5433 47.858V52H73.5376ZM80.4624 52.1364C79.8714 52.1364 79.353 51.9957 78.907 51.7145C78.4638 51.4332 78.1172 51.0398 77.8672 50.5341C77.62 50.0284 77.4964 49.4375 77.4964 48.7614C77.4964 48.0795 77.62 47.4844 77.8672 46.9759C78.1172 46.4673 78.4638 46.0724 78.907 45.7912C79.353 45.5099 79.8714 45.3693 80.4624 45.3693C81.0533 45.3693 81.5703 45.5099 82.0135 45.7912C82.4595 46.0724 82.8061 46.4673 83.0533 46.9759C83.3033 47.4844 83.4283 48.0795 83.4283 48.7614C83.4283 49.4375 83.3033 50.0284 83.0533 50.5341C82.8061 51.0398 82.4595 51.4332 82.0135 51.7145C81.5703 51.9957 81.0533 52.1364 80.4624 52.1364ZM80.4624 51.233C80.9112 51.233 81.2805 51.1179 81.5703 50.8878C81.8601 50.6577 82.0746 50.3551 82.2138 49.9801C82.353 49.6051 82.4226 49.1989 82.4226 48.7614C82.4226 48.3239 82.353 47.9162 82.2138 47.5384C82.0746 47.1605 81.8601 46.8551 81.5703 46.6222C81.2805 46.3892 80.9112 46.2727 80.4624 46.2727C80.0135 46.2727 79.6442 46.3892 79.3544 46.6222C79.0646 46.8551 78.8501 47.1605 78.7109 47.5384C78.5717 47.9162 78.5021 48.3239 78.5021 48.7614C78.5021 49.1989 78.5717 49.6051 78.7109 49.9801C78.8501 50.3551 79.0646 50.6577 79.3544 50.8878C79.6442 51.1179 80.0135 51.233 80.4624 51.233ZM85.0998 52V43.2727H86.1055V46.4943H86.1907C86.2646 46.3807 86.3668 46.2358 86.4975 46.0597C86.631 45.8807 86.8214 45.7216 87.0685 45.5824C87.3185 45.4403 87.6566 45.3693 88.0827 45.3693C88.6339 45.3693 89.1197 45.5071 89.5401 45.7827C89.9606 46.0582 90.2887 46.4489 90.5245 46.9545C90.7603 47.4602 90.8782 48.0568 90.8782 48.7443C90.8782 49.4375 90.7603 50.0384 90.5245 50.5469C90.2887 51.0526 89.962 51.4446 89.5444 51.723C89.1268 51.9986 88.6452 52.1364 88.0998 52.1364C87.6793 52.1364 87.3427 52.0668 87.0898 51.9276C86.837 51.7855 86.6424 51.625 86.506 51.446C86.3697 51.2642 86.2646 51.1136 86.1907 50.9943H86.0714V52H85.0998ZM86.0884 48.7273C86.0884 49.2216 86.1609 49.6577 86.3058 50.0355C86.4506 50.4105 86.6623 50.7045 86.9407 50.9176C87.2191 51.1278 87.56 51.233 87.9634 51.233C88.3839 51.233 88.7347 51.1222 89.016 50.9006C89.3001 50.6761 89.5131 50.375 89.6552 49.9972C89.8001 49.6165 89.8725 49.1932 89.8725 48.7273C89.8725 48.267 89.8015 47.8523 89.6594 47.483C89.5202 47.1108 89.3086 46.8168 89.0245 46.6009C88.7433 46.3821 88.3896 46.2727 87.9634 46.2727C87.5543 46.2727 87.2106 46.3764 86.9322 46.5838C86.6538 46.7884 86.4435 47.0753 86.3015 47.4446C86.1594 47.8111 86.0884 48.2386 86.0884 48.7273ZM93.4222 43.2727V52H92.4165V43.2727H93.4222ZM98.0085 52.1364C97.3778 52.1364 96.8338 51.9972 96.3764 51.7188C95.9219 51.4375 95.571 51.0455 95.3239 50.5426C95.0795 50.0369 94.9574 49.4489 94.9574 48.7784C94.9574 48.108 95.0795 47.517 95.3239 47.0057C95.571 46.4915 95.9148 46.0909 96.3551 45.804C96.7983 45.5142 97.3153 45.3693 97.9062 45.3693C98.2472 45.3693 98.5838 45.4261 98.9162 45.5398C99.2486 45.6534 99.5511 45.8381 99.8239 46.0938C100.097 46.3466 100.314 46.6818 100.476 47.0994C100.638 47.517 100.719 48.0312 100.719 48.642V49.0682H95.6733V48.1989H99.696C99.696 47.8295 99.6222 47.5 99.4744 47.2102C99.3295 46.9205 99.1222 46.6918 98.8523 46.5241C98.5852 46.3565 98.2699 46.2727 97.9062 46.2727C97.5057 46.2727 97.1591 46.3722 96.8665 46.571C96.5767 46.767 96.3537 47.0227 96.1974 47.3381C96.0412 47.6534 95.9631 47.9915 95.9631 48.3523V48.9318C95.9631 49.4261 96.0483 49.8452 96.2188 50.1889C96.392 50.5298 96.6321 50.7898 96.9389 50.9688C97.2457 51.1449 97.6023 51.233 98.0085 51.233C98.2727 51.233 98.5114 51.196 98.7244 51.1222C98.9403 51.0455 99.1264 50.9318 99.2827 50.7812C99.4389 50.6278 99.5597 50.4375 99.6449 50.2102L100.616 50.483C100.514 50.8125 100.342 51.1023 100.101 51.3523C99.8594 51.5994 99.5611 51.7926 99.206 51.9318C98.8509 52.0682 98.4517 52.1364 98.0085 52.1364ZM102.249 52V45.4545H103.22V46.4773H103.305C103.442 46.1278 103.662 45.8565 103.966 45.6634C104.27 45.4673 104.635 45.3693 105.061 45.3693C105.493 45.3693 105.852 45.4673 106.139 45.6634C106.429 45.8565 106.655 46.1278 106.817 46.4773H106.885C107.053 46.1392 107.304 45.8707 107.639 45.6719C107.974 45.4702 108.376 45.3693 108.845 45.3693C109.43 45.3693 109.909 45.5526 110.281 45.919C110.653 46.2827 110.839 46.8494 110.839 47.6193V52H109.834V47.6193C109.834 47.1364 109.702 46.7912 109.438 46.5838C109.173 46.3764 108.862 46.2727 108.504 46.2727C108.044 46.2727 107.688 46.4119 107.435 46.6903C107.182 46.9659 107.055 47.3153 107.055 47.7386V52H106.033V47.517C106.033 47.1449 105.912 46.8452 105.67 46.6179C105.429 46.3878 105.118 46.2727 104.737 46.2727C104.476 46.2727 104.232 46.3423 104.004 46.4815C103.78 46.6207 103.598 46.8139 103.459 47.0611C103.322 47.3054 103.254 47.5881 103.254 47.9091V52H102.249ZM119.104 43.2727V52H118.048V44.3807H117.996L115.866 45.7955V44.7216L118.048 43.2727H119.104Z" fill="white"/>
<path d="M67.479 112H70.772V89.948H70.809L79.208 112H81.983L90.345 89.837H90.382V112H93.823V85.952H88.643L80.725 106.894H80.688L72.659 85.952H67.479V112ZM97.9569 98.199H101.324C101.509 96.164 102.989 94.943 105.727 94.943C108.761 94.943 109.797 96.497 109.797 98.014C109.797 99.494 108.798 100.123 106.837 100.456L103.951 100.937C99.9179 101.566 97.2539 103.342 97.2539 106.857C97.2539 110.446 100.029 112.518 103.803 112.518C107.022 112.518 109.39 110.89 110.315 108.522H110.352V108.892C110.315 110.927 111.277 112 113.682 112H115.865V109.262H114.681C113.756 109.262 113.275 108.966 113.275 107.782V98.717C113.275 94.388 110.167 92.353 105.801 92.353C100.991 92.353 98.2899 94.758 97.9569 98.199ZM109.908 104.045C109.908 107.523 107.651 109.854 104.432 109.854C102.138 109.854 100.584 108.744 100.584 106.746V106.524C100.584 104.674 102.101 103.675 104.543 103.268L107.355 102.787C108.687 102.565 109.538 102.047 109.908 101.529V104.045ZM121.496 84.546H118.092V112H121.496V84.546ZM134.409 92.871H130.228L121.496 101.714L130.783 112H135.149L125.64 101.566L134.409 92.871ZM143.653 112.518C148.241 112.518 151.349 110.002 152.052 106.45H148.611C148.315 108.115 146.65 109.854 143.69 109.854C140.323 109.854 137.807 107.338 137.807 103.305V103.194H152.422V101.825C152.422 96.46 149.24 92.353 143.616 92.353C137.807 92.353 134.366 96.719 134.366 102.417C134.366 108.078 137.622 112.518 143.653 112.518ZM143.616 94.98C146.687 94.98 148.907 97.089 148.981 100.752H137.844C138.14 97.126 140.582 94.98 143.616 94.98ZM164.327 101.714C164.327 97.681 166.88 95.202 170.136 95.202C172.948 95.202 174.502 96.867 174.983 98.828H178.35C177.684 94.943 174.687 92.353 170.136 92.353C164.29 92.353 160.923 96.645 160.923 102.417C160.923 108.152 164.216 112.518 170.136 112.518C174.65 112.518 177.61 109.891 178.387 105.932H175.02C174.502 108.004 172.874 109.669 170.136 109.669C166.88 109.669 164.327 107.153 164.327 103.157V101.714ZM181.542 112H184.946V100.9C184.946 98.088 185.982 95.905 189.608 95.905H192.827V92.76H190.237C186.981 92.76 185.427 94.388 184.835 96.09H184.798V92.871H181.542V112ZM203.993 114.146L212.281 92.871H208.803L203.29 107.56H203.253L197.592 92.871H193.855L201.44 111.482L200.589 113.665C199.738 115.811 199.146 116.255 197.148 116.255H193.966V119.104H197.259C201.07 119.104 202.624 117.698 203.993 114.146ZM214.603 92.871V119.104H218.007V108.596H218.044C219.228 111.038 221.448 112.518 224.519 112.518C229.81 112.518 232.992 108.115 232.992 102.417C232.992 96.756 229.884 92.353 224.519 92.353C221.3 92.353 219.043 93.907 217.896 96.497H217.859V92.871H214.603ZM229.551 101.714V103.12C229.551 107.227 226.961 109.669 223.779 109.669C220.597 109.669 218.007 107.153 218.007 103.12V101.714C218.007 97.681 220.597 95.165 223.779 95.165C226.961 95.165 229.551 97.57 229.551 101.714ZM233.859 92.871V95.683H238.262V107.449C238.262 110.483 239.705 112 242.961 112H247.956V109.188H243.59C242.221 109.188 241.666 108.596 241.666 107.227V95.683H247.919V92.871H241.666V87.136H238.262V92.871H233.859ZM258.808 112.518C264.728 112.518 268.095 108.078 268.095 102.417C268.095 96.756 264.654 92.353 258.808 92.353C252.999 92.353 249.521 96.756 249.521 102.417C249.521 108.078 252.888 112.518 258.808 112.518ZM264.691 103.12C264.691 107.264 262.027 109.669 258.808 109.669C255.589 109.669 252.962 107.116 252.962 103.12V101.714C252.962 97.681 255.589 95.202 258.808 95.202C262.027 95.202 264.691 97.607 264.691 101.714V103.12ZM285.908 112.518C290.496 112.518 293.604 110.002 294.307 106.45H290.866C290.57 108.115 288.905 109.854 285.945 109.854C282.578 109.854 280.062 107.338 280.062 103.305V103.194H294.677V101.825C294.677 96.46 291.495 92.353 285.871 92.353C280.062 92.353 276.621 96.719 276.621 102.417C276.621 108.078 279.877 112.518 285.908 112.518ZM285.871 94.98C288.942 94.98 291.162 97.089 291.236 100.752H280.099C280.395 97.126 282.837 94.98 285.871 94.98ZM297.591 98.199H300.958C301.143 96.164 302.623 94.943 305.361 94.943C308.395 94.943 309.431 96.497 309.431 98.014C309.431 99.494 308.432 100.123 306.471 100.456L303.585 100.937C299.552 101.566 296.888 103.342 296.888 106.857C296.888 110.446 299.663 112.518 303.437 112.518C306.656 112.518 309.024 110.89 309.949 108.522H309.986V108.892C309.949 110.927 310.911 112 313.316 112H315.499V109.262H314.315C313.39 109.262 312.909 108.966 312.909 107.782V98.717C312.909 94.388 309.801 92.353 305.435 92.353C300.625 92.353 297.924 94.758 297.591 98.199ZM309.542 104.045C309.542 107.523 307.285 109.854 304.066 109.854C301.772 109.854 300.218 108.744 300.218 106.746V106.524C300.218 104.674 301.735 103.675 304.177 103.268L306.989 102.787C308.321 102.565 309.172 102.047 309.542 101.529V104.045ZM316.356 106.413C316.467 110.113 319.612 112.555 324.607 112.555C329.306 112.555 332.636 110.298 332.636 106.561C332.636 103.305 330.305 101.529 326.568 101.011L323.645 100.604C321.462 100.271 320.352 99.457 320.352 97.829C320.352 96.09 321.943 94.869 324.533 94.869C327.197 94.869 328.677 96.127 328.788 98.051H332.229C332.081 94.943 329.417 92.279 324.57 92.279C320.13 92.279 316.948 94.536 316.948 98.088C316.948 101.381 319.205 103.009 322.535 103.49L325.458 103.897C327.789 104.23 329.232 105.007 329.232 106.82C329.232 108.781 327.419 109.965 324.718 109.965C321.906 109.965 319.945 108.818 319.834 106.413H316.356ZM343.574 114.146L351.862 92.871H348.384L342.871 107.56H342.834L337.173 92.871H333.436L341.021 111.482L340.17 113.665C339.319 115.811 338.727 116.255 336.729 116.255H333.547V119.104H336.84C340.651 119.104 342.205 117.698 343.574 114.146ZM65.444 136.871V139.683H69.847V151.449C69.847 154.483 71.29 156 74.546 156H79.541V153.188H75.175C73.806 153.188 73.251 152.596 73.251 151.227V139.683H79.504V136.871H73.251V131.136H69.847V136.871H65.444ZM90.393 156.518C96.313 156.518 99.68 152.078 99.68 146.417C99.68 140.756 96.239 136.353 90.393 136.353C84.584 136.353 81.106 140.756 81.106 146.417C81.106 152.078 84.473 156.518 90.393 156.518ZM96.276 147.12C96.276 151.264 93.612 153.669 90.393 153.669C87.174 153.669 84.547 151.116 84.547 147.12V145.714C84.547 141.681 87.174 139.202 90.393 139.202C93.612 139.202 96.276 141.607 96.276 145.714V147.12ZM107.762 150.413C107.873 154.113 111.018 156.555 116.013 156.555C120.712 156.555 124.042 154.298 124.042 150.561C124.042 147.305 121.711 145.529 117.974 145.011L115.051 144.604C112.868 144.271 111.758 143.457 111.758 141.829C111.758 140.09 113.349 138.869 115.939 138.869C118.603 138.869 120.083 140.127 120.194 142.051H123.635C123.487 138.943 120.823 136.279 115.976 136.279C111.536 136.279 108.354 138.536 108.354 142.088C108.354 145.381 110.611 147.009 113.941 147.49L116.864 147.897C119.195 148.23 120.638 149.007 120.638 150.82C120.638 152.781 118.825 153.965 116.124 153.965C113.312 153.965 111.351 152.818 111.24 150.413H107.762ZM135.378 156.518C139.966 156.518 143.074 154.002 143.777 150.45H140.336C140.04 152.115 138.375 153.854 135.415 153.854C132.048 153.854 129.532 151.338 129.532 147.305V147.194H144.147V145.825C144.147 140.46 140.965 136.353 135.341 136.353C129.532 136.353 126.091 140.719 126.091 146.417C126.091 152.078 129.347 156.518 135.378 156.518ZM135.341 138.98C138.412 138.98 140.632 141.089 140.706 144.752H129.569C129.865 141.126 132.307 138.98 135.341 138.98ZM150.8 144.789C150.8 141.015 153.242 139.239 155.906 139.239C158.459 139.239 160.642 140.904 160.642 144.345V156H164.046V144.049C164.046 139.017 160.901 136.353 156.905 136.353C154.093 136.353 151.762 137.574 150.652 140.127H150.615V136.871H147.396V156H150.8V144.789ZM185.491 156V128.546H182.087V140.275H182.05C180.866 137.833 178.646 136.353 175.538 136.353C170.284 136.353 167.102 140.756 167.102 146.417C167.102 152.115 170.21 156.518 175.538 156.518C178.794 156.518 181.051 154.927 182.198 152.374H182.235V156H185.491ZM170.543 147.157V145.751C170.543 141.607 173.133 139.202 176.315 139.202C179.46 139.202 182.087 141.681 182.087 145.751V147.157C182.087 151.153 179.46 153.669 176.315 153.669C173.133 153.669 170.543 151.301 170.543 147.157ZM194.257 136.871V139.683H198.66V151.449C198.66 154.483 200.103 156 203.359 156H208.354V153.188H203.988C202.619 153.188 202.064 152.596 202.064 151.227V139.683H208.317V136.871H202.064V131.136H198.66V136.871H194.257ZM219.206 156.518C225.126 156.518 228.493 152.078 228.493 146.417C228.493 140.756 225.052 136.353 219.206 136.353C213.397 136.353 209.919 140.756 209.919 146.417C209.919 152.078 213.286 156.518 219.206 156.518ZM225.089 147.12C225.089 151.264 222.425 153.669 219.206 153.669C215.987 153.669 213.36 151.116 213.36 147.12V145.714C213.36 141.681 215.987 139.202 219.206 139.202C222.425 139.202 225.089 141.607 225.089 145.714V147.12ZM246.306 156.518C252.226 156.518 255.593 152.078 255.593 146.417C255.593 140.756 252.152 136.353 246.306 136.353C240.497 136.353 237.019 140.756 237.019 146.417C237.019 152.078 240.386 156.518 246.306 156.518ZM252.189 147.12C252.189 151.264 249.525 153.669 246.306 153.669C243.087 153.669 240.46 151.116 240.46 147.12V145.714C240.46 141.681 243.087 139.202 246.306 139.202C249.525 139.202 252.189 141.607 252.189 145.714V147.12ZM256.478 136.871V139.683H260.881V151.449C260.881 154.483 262.324 156 265.58 156H270.575V153.188H266.209C264.84 153.188 264.285 152.596 264.285 151.227V139.683H270.538V136.871H264.285V131.136H260.881V136.871H256.478ZM277.012 144.789C277.012 141.015 279.454 139.239 282.118 139.239C284.671 139.239 286.854 140.904 286.854 144.345V156H290.258V144.049C290.258 139.017 287.113 136.353 283.117 136.353C280.379 136.353 278.085 137.537 276.975 139.942H276.938V128.546H273.608V156H277.012V144.789ZM302.601 156.518C307.189 156.518 310.297 154.002 311 150.45H307.559C307.263 152.115 305.598 153.854 302.638 153.854C299.271 153.854 296.755 151.338 296.755 147.305V147.194H311.37V145.825C311.37 140.46 308.188 136.353 302.564 136.353C296.755 136.353 293.314 140.719 293.314 146.417C293.314 152.078 296.57 156.518 302.601 156.518ZM302.564 138.98C305.635 138.98 307.855 141.089 307.929 144.752H296.792C297.088 141.126 299.53 138.98 302.564 138.98ZM314.619 156H318.023V144.9C318.023 142.088 319.059 139.905 322.685 139.905H325.904V136.76H323.314C320.058 136.76 318.504 138.388 317.912 140.09H317.875V136.871H314.619V156ZM326.763 150.413C326.874 154.113 330.019 156.555 335.014 156.555C339.713 156.555 343.043 154.298 343.043 150.561C343.043 147.305 340.712 145.529 336.975 145.011L334.052 144.604C331.869 144.271 330.759 143.457 330.759 141.829C330.759 140.09 332.35 138.869 334.94 138.869C337.604 138.869 339.084 140.127 339.195 142.051H342.636C342.488 138.943 339.824 136.279 334.977 136.279C330.537 136.279 327.355 138.536 327.355 142.088C327.355 145.381 329.612 147.009 332.942 147.49L335.865 147.897C338.196 148.23 339.639 149.007 339.639 150.82C339.639 152.781 337.826 153.965 335.125 153.965C332.313 153.965 330.352 152.818 330.241 150.413H326.763Z" fill="white"/>
<path d="M69.25 191.443V202H70.865V191.443H74.877V190.032H65.238V191.443H69.25ZM77.9834 196.849C77.9834 195.115 79.1054 194.299 80.3294 194.299C81.5024 194.299 82.5054 195.064 82.5054 196.645V202H84.0694V196.509C84.0694 194.197 82.6244 192.973 80.7884 192.973C79.5304 192.973 78.4764 193.517 77.9664 194.622H77.9494V189.386H76.4194V202H77.9834V196.849ZM87.9901 191.715C88.6021 191.715 89.0611 191.239 89.0611 190.661C89.0611 190.049 88.6021 189.607 87.9901 189.607H87.9051C87.2761 189.607 86.8171 190.049 86.8171 190.661C86.8171 191.239 87.2761 191.715 87.9051 191.715H87.9901ZM85.7461 194.486H87.1571V202H88.7211V193.211H85.7461V194.486ZM90.6642 199.433C90.7152 201.133 92.1602 202.255 94.4552 202.255C96.6312 202.255 98.1612 201.218 98.1612 199.501C98.1612 198.005 97.0902 197.189 95.3562 196.951L94.0132 196.764C93.0102 196.611 92.5002 196.237 92.5002 195.489C92.5002 194.69 93.2312 194.129 94.4212 194.129C95.6452 194.129 96.3252 194.707 96.3762 195.591H97.9572C97.8892 194.163 96.6822 192.939 94.4552 192.939C92.3982 192.939 90.9362 193.976 90.9362 195.608C90.9362 197.121 91.9732 197.869 93.5032 198.09L94.8462 198.277C95.9172 198.43 96.5802 198.787 96.5802 199.62C96.5802 200.521 95.7472 201.065 94.5062 201.065C93.2312 201.065 92.3132 200.538 92.2792 199.433H90.6642ZM102.908 193.211L105.781 202.017H107.362L109.487 195.115H109.504L111.663 202.017H113.278L116.032 193.211H114.519L112.496 200.011H112.479L110.337 193.194H108.756L106.665 200.045H106.648L104.557 193.211H102.908ZM117.02 195.659H118.567C118.669 194.724 119.332 194.163 120.59 194.163C121.984 194.163 122.46 194.877 122.46 195.574C122.46 196.254 122.001 196.543 121.1 196.696L119.774 196.917C117.921 197.206 116.697 198.022 116.697 199.637C116.697 201.286 117.972 202.238 119.706 202.238C121.185 202.238 122.273 201.49 122.698 200.402H122.715V200.572C122.698 201.507 123.14 202 124.245 202H125.248V200.742H124.704C124.279 200.742 124.058 200.606 124.058 200.062V195.897C124.058 193.908 122.63 192.973 120.624 192.973C118.414 192.973 117.173 194.078 117.02 195.659ZM122.511 198.345C122.511 199.943 121.474 201.014 119.995 201.014C118.941 201.014 118.227 200.504 118.227 199.586V199.484C118.227 198.634 118.924 198.175 120.046 197.988L121.338 197.767C121.95 197.665 122.341 197.427 122.511 197.189V198.345ZM126.142 199.433C126.193 201.133 127.638 202.255 129.933 202.255C132.109 202.255 133.639 201.218 133.639 199.501C133.639 198.005 132.568 197.189 130.834 196.951L129.491 196.764C128.488 196.611 127.978 196.237 127.978 195.489C127.978 194.69 128.709 194.129 129.899 194.129C131.123 194.129 131.803 194.707 131.854 195.591H133.435C133.367 194.163 132.16 192.939 129.933 192.939C127.876 192.939 126.414 193.976 126.414 195.608C126.414 197.121 127.451 197.869 128.981 198.09L130.324 198.277C131.395 198.43 132.058 198.787 132.058 199.62C132.058 200.521 131.225 201.065 129.984 201.065C128.709 201.065 127.791 200.538 127.757 199.433H126.142ZM147.344 202V189.386H145.78V194.775H145.763C145.219 193.653 144.199 192.973 142.771 192.973C140.357 192.973 138.895 194.996 138.895 197.597C138.895 200.215 140.323 202.238 142.771 202.238C144.267 202.238 145.304 201.507 145.831 200.334H145.848V202H147.344ZM140.459 197.937V197.291C140.459 195.387 141.666 194.282 143.111 194.282C144.573 194.282 145.78 195.421 145.78 197.291V197.937C145.78 199.773 144.573 200.929 143.111 200.929C141.666 200.929 140.459 199.841 140.459 197.937ZM153.688 202.238C156.408 202.238 157.955 200.198 157.955 197.597C157.955 194.996 156.357 192.973 153.688 192.973C151.002 192.973 149.421 194.996 149.421 197.597C149.421 200.198 150.968 202.238 153.688 202.238ZM156.374 197.92C156.374 199.824 155.167 200.929 153.688 200.929C152.209 200.929 150.985 199.756 150.985 197.92V197.274C150.985 195.421 152.209 194.282 153.688 194.282C155.167 194.282 156.374 195.387 156.374 197.274V197.92ZM161.605 196.849C161.605 195.115 162.727 194.299 163.951 194.299C165.124 194.299 166.127 195.064 166.127 196.645V202H167.691V196.509C167.691 194.197 166.246 192.973 164.41 192.973C163.118 192.973 162.047 193.534 161.537 194.707H161.52V193.211H160.041V202H161.605V196.849ZM173.941 202.238C176.066 202.238 177.494 201.082 177.817 199.45H176.236C176.1 200.215 175.335 201.014 173.975 201.014C172.411 201.014 171.255 199.858 171.255 198.005V197.954H177.987V197.393C177.987 194.894 176.525 192.973 173.89 192.973C171.272 192.973 169.691 194.979 169.691 197.597C169.691 200.198 171.187 202.238 173.941 202.238ZM173.89 194.18C175.318 194.18 176.338 195.132 176.406 196.832H171.272C171.408 195.166 172.53 194.18 173.89 194.18ZM185.275 191.715C185.887 191.715 186.346 191.239 186.346 190.661C186.346 190.049 185.887 189.607 185.275 189.607H185.19C184.561 189.607 184.102 190.049 184.102 190.661C184.102 191.239 184.561 191.715 185.19 191.715H185.275ZM183.031 194.486H184.442V202H186.006V193.211H183.031V194.486ZM190.193 196.849C190.193 195.115 191.315 194.299 192.539 194.299C193.712 194.299 194.715 195.064 194.715 196.645V202H196.279V196.509C196.279 194.197 194.834 192.973 192.998 192.973C191.706 192.973 190.635 193.534 190.125 194.707H190.108V193.211H188.629V202H190.193V196.849ZM202.624 202H204.188V196.628C204.188 195.047 205.191 194.299 206.296 194.299C207.367 194.299 208.285 194.996 208.285 196.424V202H209.849V196.628C209.849 195.047 210.852 194.299 211.974 194.299C213.028 194.299 213.946 194.996 213.946 196.424V202H215.51V196.288C215.51 194.146 214.15 192.973 212.416 192.973C211.158 192.973 210.07 193.568 209.577 194.792H209.56C209.101 193.585 208.047 192.973 206.755 192.973C205.565 192.973 204.579 193.5 204.12 194.554H204.103V193.211H202.624V202ZM217.759 195.659H219.306C219.408 194.724 220.071 194.163 221.329 194.163C222.723 194.163 223.199 194.877 223.199 195.574C223.199 196.254 222.74 196.543 221.839 196.696L220.513 196.917C218.66 197.206 217.436 198.022 217.436 199.637C217.436 201.286 218.711 202.238 220.445 202.238C221.924 202.238 223.012 201.49 223.437 200.402H223.454V200.572C223.437 201.507 223.879 202 224.984 202H225.987V200.742H225.443C225.018 200.742 224.797 200.606 224.797 200.062V195.897C224.797 193.908 223.369 192.973 221.363 192.973C219.153 192.973 217.912 194.078 217.759 195.659ZM223.25 198.345C223.25 199.943 222.213 201.014 220.734 201.014C219.68 201.014 218.966 200.504 218.966 199.586V199.484C218.966 198.634 219.663 198.175 220.785 197.988L222.077 197.767C222.689 197.665 223.08 197.427 223.25 197.189V198.345ZM229.058 196.849C229.058 195.115 230.18 194.299 231.404 194.299C232.577 194.299 233.58 195.064 233.58 196.645V202H235.144V196.509C235.144 194.197 233.699 192.973 231.863 192.973C230.571 192.973 229.5 193.534 228.99 194.707H228.973V193.211H227.494V202H229.058V196.849ZM241.042 202.986L244.85 193.211H243.252L240.719 199.96H240.702L238.101 193.211H236.384L239.869 201.762L239.478 202.765C239.087 203.751 238.815 203.955 237.897 203.955H236.435V205.264H237.948C239.699 205.264 240.413 204.618 241.042 202.986ZM250.171 193.211V205.264H251.735V200.436H251.752C252.296 201.558 253.316 202.238 254.727 202.238C257.158 202.238 258.62 200.215 258.62 197.597C258.62 194.996 257.192 192.973 254.727 192.973C253.248 192.973 252.194 193.687 251.684 194.877H251.667V193.211H250.171ZM257.039 197.274V197.92C257.039 199.807 255.849 200.929 254.387 200.929C252.925 200.929 251.735 199.773 251.735 197.92V197.274C251.735 195.421 252.925 194.265 254.387 194.265C255.849 194.265 257.039 195.37 257.039 197.274ZM260.697 202H262.261V196.9C262.261 195.608 262.737 194.605 264.403 194.605H265.865V193.16H264.692C263.196 193.16 262.482 193.908 262.21 194.69H262.193V193.211H260.697V202ZM270.911 202.238C273.631 202.238 275.178 200.198 275.178 197.597C275.178 194.996 273.58 192.973 270.911 192.973C268.225 192.973 266.644 194.996 266.644 197.597C266.644 200.198 268.191 202.238 270.911 202.238ZM273.597 197.92C273.597 199.824 272.39 200.929 270.911 200.929C269.432 200.929 268.208 199.756 268.208 197.92V197.274C268.208 195.421 269.432 194.282 270.911 194.282C272.39 194.282 273.597 195.387 273.597 197.274V197.92ZM278.115 191.715C278.71 191.715 279.169 191.239 279.169 190.661C279.169 190.049 278.71 189.607 278.115 189.607H278.013C277.401 189.607 276.942 190.049 276.942 190.661C276.942 191.239 277.401 191.715 278.013 191.715H278.115ZM277.282 203.088C277.282 203.734 277.027 203.989 276.381 203.989H274.817V205.281H276.687C278.166 205.281 278.846 204.567 278.846 203.173V193.211H277.282V203.088ZM285.172 202.238C287.297 202.238 288.725 201.082 289.048 199.45H287.467C287.331 200.215 286.566 201.014 285.206 201.014C283.642 201.014 282.486 199.858 282.486 198.005V197.954H289.218V197.393C289.218 194.894 287.756 192.973 285.121 192.973C282.503 192.973 280.922 194.979 280.922 197.597C280.922 200.198 282.418 202.238 285.172 202.238ZM285.121 194.18C286.549 194.18 287.569 195.132 287.637 196.832H282.503C282.639 195.166 283.761 194.18 285.121 194.18ZM292.33 197.274C292.33 195.421 293.503 194.282 294.982 194.282C296.274 194.282 296.988 195.047 297.226 195.948H298.773C298.45 194.163 297.073 192.973 294.999 192.973C292.313 192.973 290.766 194.945 290.766 197.597C290.766 200.232 292.279 202.238 294.999 202.238C297.073 202.238 298.433 201.031 298.773 199.212H297.243C296.988 200.164 296.24 200.929 294.982 200.929C293.503 200.929 292.33 199.773 292.33 197.937V197.274ZM299.787 193.211V194.503H301.793V199.909C301.793 201.303 302.456 202 303.952 202H306.247V200.708H304.241C303.612 200.708 303.357 200.436 303.357 199.807V194.503H306.23V193.211H303.357V190.576H301.793V193.211H299.787ZM307.464 199.433C307.515 201.133 308.96 202.255 311.255 202.255C313.431 202.255 314.961 201.218 314.961 199.501C314.961 198.005 313.89 197.189 312.156 196.951L310.813 196.764C309.81 196.611 309.3 196.237 309.3 195.489C309.3 194.69 310.031 194.129 311.221 194.129C312.445 194.129 313.125 194.707 313.176 195.591H314.757C314.689 194.163 313.482 192.939 311.255 192.939C309.198 192.939 307.736 193.976 307.736 195.608C307.736 197.121 308.773 197.869 310.303 198.09L311.646 198.277C312.717 198.43 313.38 198.787 313.38 199.62C313.38 200.521 312.547 201.065 311.306 201.065C310.031 201.065 309.113 200.538 309.079 199.433H307.464ZM66.037 219.659H67.584C67.686 218.724 68.349 218.163 69.607 218.163C71.001 218.163 71.477 218.877 71.477 219.574C71.477 220.254 71.018 220.543 70.117 220.696L68.791 220.917C66.938 221.206 65.714 222.022 65.714 223.637C65.714 225.286 66.989 226.238 68.723 226.238C70.202 226.238 71.29 225.49 71.715 224.402H71.732V224.572C71.715 225.507 72.157 226 73.262 226H74.265V224.742H73.721C73.296 224.742 73.075 224.606 73.075 224.062V219.897C73.075 217.908 71.647 216.973 69.641 216.973C67.431 216.973 66.19 218.078 66.037 219.659ZM71.528 222.345C71.528 223.943 70.491 225.014 69.012 225.014C67.958 225.014 67.244 224.504 67.244 223.586V223.484C67.244 222.634 67.941 222.175 69.063 221.988L70.355 221.767C70.967 221.665 71.358 221.427 71.528 221.189V222.345ZM76.8255 221.274C76.8255 219.421 77.9985 218.282 79.4775 218.282C80.7695 218.282 81.4835 219.047 81.7215 219.948H83.2685C82.9455 218.163 81.5685 216.973 79.4945 216.973C76.8085 216.973 75.2615 218.945 75.2615 221.597C75.2615 224.232 76.7745 226.238 79.4945 226.238C81.5685 226.238 82.9285 225.031 83.2685 223.212H81.7385C81.4835 224.164 80.7355 224.929 79.4775 224.929C77.9985 224.929 76.8255 223.773 76.8255 221.937V221.274ZM85.268 226H86.832V220.9C86.832 219.608 87.308 218.605 88.974 218.605H90.436V217.16H89.263C87.767 217.16 87.053 217.908 86.781 218.69H86.764V217.211H85.268V226ZM95.4826 226.238C98.2026 226.238 99.7496 224.198 99.7496 221.597C99.7496 218.996 98.1516 216.973 95.4826 216.973C92.7966 216.973 91.2156 218.996 91.2156 221.597C91.2156 224.198 92.7626 226.238 95.4826 226.238ZM98.1686 221.92C98.1686 223.824 96.9616 224.929 95.4826 224.929C94.0036 224.929 92.7796 223.756 92.7796 221.92V221.274C92.7796 219.421 94.0036 218.282 95.4826 218.282C96.9616 218.282 98.1686 219.387 98.1686 221.274V221.92ZM101.156 223.433C101.207 225.133 102.652 226.255 104.947 226.255C107.123 226.255 108.653 225.218 108.653 223.501C108.653 222.005 107.582 221.189 105.848 220.951L104.505 220.764C103.502 220.611 102.992 220.237 102.992 219.489C102.992 218.69 103.723 218.129 104.913 218.129C106.137 218.129 106.817 218.707 106.868 219.591H108.449C108.381 218.163 107.174 216.939 104.947 216.939C102.89 216.939 101.428 217.976 101.428 219.608C101.428 221.121 102.465 221.869 103.995 222.09L105.338 222.277C106.409 222.43 107.072 222.787 107.072 223.62C107.072 224.521 106.239 225.065 104.998 225.065C103.723 225.065 102.805 224.538 102.771 223.433H101.156ZM109.939 223.433C109.99 225.133 111.435 226.255 113.73 226.255C115.906 226.255 117.436 225.218 117.436 223.501C117.436 222.005 116.365 221.189 114.631 220.951L113.288 220.764C112.285 220.611 111.775 220.237 111.775 219.489C111.775 218.69 112.506 218.129 113.696 218.129C114.92 218.129 115.6 218.707 115.651 219.591H117.232C117.164 218.163 115.957 216.939 113.73 216.939C111.673 216.939 110.211 217.976 110.211 219.608C110.211 221.121 111.248 221.869 112.778 222.09L114.121 222.277C115.192 222.43 115.855 222.787 115.855 223.62C115.855 224.521 115.022 225.065 113.781 225.065C112.506 225.065 111.588 224.538 111.554 223.433H109.939ZM122.233 217.211V218.503H124.239V223.909C124.239 225.303 124.902 226 126.398 226H128.693V224.708H126.687C126.058 224.708 125.803 224.436 125.803 223.807V218.503H128.676V217.211H125.803V214.576H124.239V217.211H122.233ZM129.553 217.211L132.426 226.017H134.007L136.132 219.115H136.149L138.308 226.017H139.923L142.677 217.211H141.164L139.141 224.011H139.124L136.982 217.194H135.401L133.31 224.045H133.293L131.202 217.211H129.553ZM147.761 226.238C150.481 226.238 152.028 224.198 152.028 221.597C152.028 218.996 150.43 216.973 147.761 216.973C145.075 216.973 143.494 218.996 143.494 221.597C143.494 224.198 145.041 226.238 147.761 226.238ZM150.447 221.92C150.447 223.824 149.24 224.929 147.761 224.929C146.282 224.929 145.058 223.756 145.058 221.92V221.274C145.058 219.421 146.282 218.282 147.761 218.282C149.24 218.282 150.447 219.387 150.447 221.274V221.92ZM158.97 221.274C158.97 219.421 160.143 218.282 161.622 218.282C162.914 218.282 163.628 219.047 163.866 219.948H165.413C165.09 218.163 163.713 216.973 161.639 216.973C158.953 216.973 157.406 218.945 157.406 221.597C157.406 224.232 158.919 226.238 161.639 226.238C163.713 226.238 165.073 225.031 165.413 223.212H163.883C163.628 224.164 162.88 224.929 161.622 224.929C160.143 224.929 158.97 223.773 158.97 221.937V221.274ZM171.153 226.238C173.873 226.238 175.42 224.198 175.42 221.597C175.42 218.996 173.822 216.973 171.153 216.973C168.467 216.973 166.886 218.996 166.886 221.597C166.886 224.198 168.433 226.238 171.153 226.238ZM173.839 221.92C173.839 223.824 172.632 224.929 171.153 224.929C169.674 224.929 168.45 223.756 168.45 221.92V221.274C168.45 219.421 169.674 218.282 171.153 218.282C172.632 218.282 173.839 219.387 173.839 221.274V221.92ZM177.506 226H179.07V220.9C179.07 219.608 179.546 218.605 181.212 218.605H182.674V217.16H181.501C180.005 217.16 179.291 217.908 179.019 218.69H179.002V217.211H177.506V226ZM187.704 226.238C189.829 226.238 191.257 225.082 191.58 223.45H189.999C189.863 224.215 189.098 225.014 187.738 225.014C186.174 225.014 185.018 223.858 185.018 222.005V221.954H191.75V221.393C191.75 218.894 190.288 216.973 187.653 216.973C185.035 216.973 183.454 218.979 183.454 221.597C183.454 224.198 184.95 226.238 187.704 226.238ZM187.653 218.18C189.081 218.18 190.101 219.132 190.169 220.832H185.035C185.171 219.166 186.293 218.18 187.653 218.18ZM197.372 219.659H198.919C199.021 218.724 199.684 218.163 200.942 218.163C202.336 218.163 202.812 218.877 202.812 219.574C202.812 220.254 202.353 220.543 201.452 220.696L200.126 220.917C198.273 221.206 197.049 222.022 197.049 223.637C197.049 225.286 198.324 226.238 200.058 226.238C201.537 226.238 202.625 225.49 203.05 224.402H203.067V224.572C203.05 225.507 203.492 226 204.597 226H205.6V224.742H205.056C204.631 224.742 204.41 224.606 204.41 224.062V219.897C204.41 217.908 202.982 216.973 200.976 216.973C198.766 216.973 197.525 218.078 197.372 219.659ZM202.863 222.345C202.863 223.943 201.826 225.014 200.347 225.014C199.293 225.014 198.579 224.504 198.579 223.586V223.484C198.579 222.634 199.276 222.175 200.398 221.988L201.69 221.767C202.302 221.665 202.693 221.427 202.863 221.189V222.345ZM207.107 226H208.671V220.9C208.671 219.608 209.147 218.605 210.813 218.605H212.275V217.16H211.102C209.606 217.16 208.892 217.908 208.62 218.69H208.603V217.211H207.107V226ZM217.304 226.238C219.429 226.238 220.857 225.082 221.18 223.45H219.599C219.463 224.215 218.698 225.014 217.338 225.014C215.774 225.014 214.618 223.858 214.618 222.005V221.954H221.35V221.393C221.35 218.894 219.888 216.973 217.253 216.973C214.635 216.973 213.054 218.979 213.054 221.597C213.054 224.198 214.55 226.238 217.304 226.238ZM217.253 218.18C218.681 218.18 219.701 219.132 219.769 220.832H214.635C214.771 219.166 215.893 218.18 217.253 218.18ZM223.187 219.659H224.734C224.836 218.724 225.499 218.163 226.757 218.163C228.151 218.163 228.627 218.877 228.627 219.574C228.627 220.254 228.168 220.543 227.267 220.696L225.941 220.917C224.088 221.206 222.864 222.022 222.864 223.637C222.864 225.286 224.139 226.238 225.873 226.238C227.352 226.238 228.44 225.49 228.865 224.402H228.882V224.572C228.865 225.507 229.307 226 230.412 226H231.415V224.742H230.871C230.446 224.742 230.225 224.606 230.225 224.062V219.897C230.225 217.908 228.797 216.973 226.791 216.973C224.581 216.973 223.34 218.078 223.187 219.659ZM228.678 222.345C228.678 223.943 227.641 225.014 226.162 225.014C225.108 225.014 224.394 224.504 224.394 223.586V223.484C224.394 222.634 225.091 222.175 226.213 221.988L227.505 221.767C228.117 221.665 228.508 221.427 228.678 221.189V222.345ZM232.309 223.433C232.36 225.133 233.805 226.255 236.1 226.255C238.276 226.255 239.806 225.218 239.806 223.501C239.806 222.005 238.735 221.189 237.001 220.951L235.658 220.764C234.655 220.611 234.145 220.237 234.145 219.489C234.145 218.69 234.876 218.129 236.066 218.129C237.29 218.129 237.97 218.707 238.021 219.591H239.602C239.534 218.163 238.327 216.939 236.1 216.939C234.043 216.939 232.581 217.976 232.581 219.608C232.581 221.121 233.618 221.869 235.148 222.09L236.491 222.277C237.562 222.43 238.225 222.787 238.225 223.62C238.225 224.521 237.392 225.065 236.151 225.065C234.876 225.065 233.958 224.538 233.924 223.433H232.309ZM249.329 226.238C252.049 226.238 253.596 224.198 253.596 221.597C253.596 218.996 251.998 216.973 249.329 216.973C246.643 216.973 245.062 218.996 245.062 221.597C245.062 224.198 246.609 226.238 249.329 226.238ZM252.015 221.92C252.015 223.824 250.808 224.929 249.329 224.929C247.85 224.929 246.626 223.756 246.626 221.92V221.274C246.626 219.421 247.85 218.282 249.329 218.282C250.808 218.282 252.015 219.387 252.015 221.274V221.92ZM256.42 226H257.984V218.503H261.027V217.211H257.967V215.511C257.967 214.882 258.222 214.627 258.851 214.627H261.044V213.369H258.579C257.083 213.369 256.42 214.066 256.42 215.46V217.211H254.431V218.503H256.42V226ZM265.728 223.433C265.779 225.133 267.224 226.255 269.519 226.255C271.695 226.255 273.225 225.218 273.225 223.501C273.225 222.005 272.154 221.189 270.42 220.951L269.077 220.764C268.074 220.611 267.564 220.237 267.564 219.489C267.564 218.69 268.295 218.129 269.485 218.129C270.709 218.129 271.389 218.707 271.44 219.591H273.021C272.953 218.163 271.746 216.939 269.519 216.939C267.462 216.939 266 217.976 266 219.608C266 221.121 267.037 221.869 268.567 222.09L269.91 222.277C270.981 222.43 271.644 222.787 271.644 223.62C271.644 224.521 270.811 225.065 269.57 225.065C268.295 225.065 267.377 224.538 267.343 223.433H265.728ZM278.929 226.238C281.054 226.238 282.482 225.082 282.805 223.45H281.224C281.088 224.215 280.323 225.014 278.963 225.014C277.399 225.014 276.243 223.858 276.243 222.005V221.954H282.975V221.393C282.975 218.894 281.513 216.973 278.878 216.973C276.26 216.973 274.679 218.979 274.679 221.597C274.679 224.198 276.175 226.238 278.929 226.238ZM278.878 218.18C280.306 218.18 281.326 219.132 281.394 220.832H276.26C276.396 219.166 277.518 218.18 278.878 218.18ZM286.615 220.849C286.615 219.115 287.737 218.299 288.961 218.299C290.134 218.299 291.137 219.064 291.137 220.645V226H292.701V220.509C292.701 218.197 291.256 216.973 289.42 216.973C288.128 216.973 287.057 217.534 286.547 218.707H286.53V217.211H285.051V226H286.615V220.849ZM303.15 226V213.386H301.586V218.775H301.569C301.025 217.653 300.005 216.973 298.577 216.973C296.163 216.973 294.701 218.996 294.701 221.597C294.701 224.215 296.129 226.238 298.577 226.238C300.073 226.238 301.11 225.507 301.637 224.334H301.654V226H303.15ZM296.265 221.937V221.291C296.265 219.387 297.472 218.282 298.917 218.282C300.379 218.282 301.586 219.421 301.586 221.291V221.937C301.586 223.773 300.379 224.929 298.917 224.929C297.472 224.929 296.265 223.841 296.265 221.937ZM307.147 215.715C307.759 215.715 308.218 215.239 308.218 214.661C308.218 214.049 307.759 213.607 307.147 213.607H307.062C306.433 213.607 305.974 214.049 305.974 214.661C305.974 215.239 306.433 215.715 307.062 215.715H307.147ZM304.903 218.486H306.314V226H307.878V217.211H304.903V218.486ZM312.065 220.849C312.065 219.115 313.187 218.299 314.411 218.299C315.584 218.299 316.587 219.064 316.587 220.645V226H318.151V220.509C318.151 218.197 316.706 216.973 314.87 216.973C313.578 216.973 312.507 217.534 311.997 218.707H311.98V217.211H310.501V226H312.065V220.849ZM320.423 226.748C320.661 228.244 321.97 229.502 324.282 229.502C326.968 229.502 328.498 228.006 328.498 225.337V217.211H327.002V218.792H326.985C326.475 217.67 325.472 216.973 323.976 216.973C321.562 216.973 320.151 218.894 320.151 221.342C320.151 223.824 321.596 225.745 323.976 225.745C325.404 225.745 326.373 225.082 326.917 223.994H326.934V225.422C326.934 227.224 326.101 228.261 324.282 228.261C322.82 228.261 322.157 227.462 322.004 226.748H320.423ZM321.715 221.138C321.715 219.319 322.905 218.282 324.333 218.282C325.761 218.282 326.934 219.37 326.934 221.138V221.58C326.934 223.365 325.761 224.453 324.333 224.453C322.905 224.453 321.715 223.399 321.715 221.58V221.138ZM66.037 243.659H67.584C67.686 242.724 68.349 242.163 69.607 242.163C71.001 242.163 71.477 242.877 71.477 243.574C71.477 244.254 71.018 244.543 70.117 244.696L68.791 244.917C66.938 245.206 65.714 246.022 65.714 247.637C65.714 249.286 66.989 250.238 68.723 250.238C70.202 250.238 71.29 249.49 71.715 248.402H71.732V248.572C71.715 249.507 72.157 250 73.262 250H74.265V248.742H73.721C73.296 248.742 73.075 248.606 73.075 248.062V243.897C73.075 241.908 71.647 240.973 69.641 240.973C67.431 240.973 66.19 242.078 66.037 243.659ZM71.528 246.345C71.528 247.943 70.491 249.014 69.012 249.014C67.958 249.014 67.244 248.504 67.244 247.586V247.484C67.244 246.634 67.941 246.175 69.063 245.988L70.355 245.767C70.967 245.665 71.358 245.427 71.528 245.189V246.345ZM77.3359 244.849C77.3359 243.115 78.4579 242.299 79.6819 242.299C80.8549 242.299 81.8579 243.064 81.8579 244.645V250H83.4219V244.509C83.4219 242.197 81.9769 240.973 80.1409 240.973C78.8489 240.973 77.7779 241.534 77.2679 242.707H77.2509V241.211H75.7719V250H77.3359V244.849ZM93.8706 250V237.386H92.3066V242.775H92.2896C91.7456 241.653 90.7256 240.973 89.2976 240.973C86.8836 240.973 85.4216 242.996 85.4216 245.597C85.4216 248.215 86.8496 250.238 89.2976 250.238C90.7936 250.238 91.8306 249.507 92.3576 248.334H92.3746V250H93.8706ZM86.9856 245.937V245.291C86.9856 243.387 88.1926 242.282 89.6376 242.282C91.0996 242.282 92.3066 243.421 92.3066 245.291V245.937C92.3066 247.773 91.0996 248.929 89.6376 248.929C88.1926 248.929 86.9856 247.841 86.9856 245.937ZM99.6124 247.433C99.6634 249.133 101.108 250.255 103.403 250.255C105.579 250.255 107.109 249.218 107.109 247.501C107.109 246.005 106.038 245.189 104.304 244.951L102.961 244.764C101.958 244.611 101.448 244.237 101.448 243.489C101.448 242.69 102.179 242.129 103.369 242.129C104.593 242.129 105.273 242.707 105.324 243.591H106.905C106.837 242.163 105.63 240.939 103.403 240.939C101.346 240.939 99.8844 241.976 99.8844 243.608C99.8844 245.121 100.921 245.869 102.451 246.09L103.794 246.277C104.865 246.43 105.528 246.787 105.528 247.62C105.528 248.521 104.695 249.065 103.454 249.065C102.179 249.065 101.261 248.538 101.227 247.433H99.6124ZM109.075 241.211V253.264H110.639V248.436H110.656C111.2 249.558 112.22 250.238 113.631 250.238C116.062 250.238 117.524 248.215 117.524 245.597C117.524 242.996 116.096 240.973 113.631 240.973C112.152 240.973 111.098 241.687 110.588 242.877H110.571V241.211H109.075ZM115.943 245.274V245.92C115.943 247.807 114.753 248.929 113.291 248.929C111.829 248.929 110.639 247.773 110.639 245.92V245.274C110.639 243.421 111.829 242.265 113.291 242.265C114.753 242.265 115.943 243.37 115.943 245.274ZM123.323 250.238C125.448 250.238 126.876 249.082 127.199 247.45H125.618C125.482 248.215 124.717 249.014 123.357 249.014C121.793 249.014 120.637 247.858 120.637 246.005V245.954H127.369V245.393C127.369 242.894 125.907 240.973 123.272 240.973C120.654 240.973 119.073 242.979 119.073 245.597C119.073 248.198 120.569 250.238 123.323 250.238ZM123.272 242.18C124.7 242.18 125.72 243.132 125.788 244.832H120.654C120.79 243.166 121.912 242.18 123.272 242.18ZM131.009 244.849C131.009 243.115 132.131 242.299 133.355 242.299C134.528 242.299 135.531 243.064 135.531 244.645V250H137.095V244.509C137.095 242.197 135.65 240.973 133.814 240.973C132.522 240.973 131.451 241.534 130.941 242.707H130.924V241.211H129.445V250H131.009V244.849ZM147.544 250V237.386H145.98V242.775H145.963C145.419 241.653 144.399 240.973 142.971 240.973C140.556 240.973 139.095 242.996 139.095 245.597C139.095 248.215 140.523 250.238 142.971 250.238C144.467 250.238 145.504 249.507 146.031 248.334H146.048V250H147.544ZM140.659 245.937V245.291C140.659 243.387 141.866 242.282 143.31 242.282C144.773 242.282 145.98 243.421 145.98 245.291V245.937C145.98 247.773 144.773 248.929 143.31 248.929C141.866 248.929 140.659 247.841 140.659 245.937ZM151.541 239.715C152.153 239.715 152.612 239.239 152.612 238.661C152.612 238.049 152.153 237.607 151.541 237.607H151.456C150.827 237.607 150.368 238.049 150.368 238.661C150.368 239.239 150.827 239.715 151.456 239.715H151.541ZM149.297 242.486H150.708V250H152.272V241.211H149.297V242.486ZM156.459 244.849C156.459 243.115 157.581 242.299 158.805 242.299C159.978 242.299 160.981 243.064 160.981 244.645V250H162.545V244.509C162.545 242.197 161.1 240.973 159.264 240.973C157.972 240.973 156.901 241.534 156.391 242.707H156.374V241.211H154.895V250H156.459V244.849ZM164.817 250.748C165.055 252.244 166.364 253.502 168.676 253.502C171.362 253.502 172.892 252.006 172.892 249.337V241.211H171.396V242.792H171.379C170.869 241.67 169.866 240.973 168.37 240.973C165.956 240.973 164.545 242.894 164.545 245.342C164.545 247.824 165.99 249.745 168.37 249.745C169.798 249.745 170.767 249.082 171.311 247.994H171.328V249.422C171.328 251.224 170.495 252.261 168.676 252.261C167.214 252.261 166.551 251.462 166.398 250.748H164.817ZM166.109 245.138C166.109 243.319 167.299 242.282 168.727 242.282C170.155 242.282 171.328 243.37 171.328 245.138V245.58C171.328 247.365 170.155 248.453 168.727 248.453C167.299 248.453 166.109 247.399 166.109 245.58V245.138Z" fill="white"/>
<path d="M424.254 52.141C416.08 52.141 409.858 57.387 407.967 66.293L405.161 79.53C402.599 91.12 409.187 96.854 418.215 96.854C426.389 96.854 432.55 91.608 434.502 82.702L437.308 69.465C439.809 57.936 433.404 52.141 424.254 52.141ZM418.459 91.791C412.786 91.791 409.065 87.887 410.712 80.079L413.518 66.903C414.799 60.925 418.764 57.204 424.071 57.204C429.622 57.204 433.404 61.169 431.757 68.916L428.951 82.092C427.67 88.07 423.705 91.791 418.459 91.791ZM434.813 96H441.523L452.747 83.434H452.808L459.213 96H465.374L457.078 80.079L471.474 64.463H464.764L454.272 76.175H454.15L448.172 64.463H442.072L449.88 79.591L434.813 96ZM469.376 96H474.683L476.086 89.168H476.147C477.489 94.17 481.271 96.854 486.7 96.854C496.704 96.854 503.17 87.033 503.17 77.151C503.17 68.428 498.229 63.609 491.336 63.609C486.822 63.609 483.101 65.744 480.722 69.16H480.661L484.565 50.738H478.953L469.376 96ZM497.558 77.273C497.558 84.654 493.044 92.157 485.968 92.157C481.637 92.157 477.855 89.168 477.855 83.495V83.312C477.855 75.382 482.491 68.306 489.506 68.306C493.837 68.306 497.558 70.99 497.558 77.09V77.273ZM512.316 83.19C512.316 76.236 516.403 68.306 523.906 68.306C528.664 68.306 531.348 71.295 531.348 75.626H536.716C536.96 68.489 532.08 63.609 524.15 63.609C512.865 63.609 506.704 73.796 506.704 83.312C506.704 91.974 512.133 96.854 520.124 96.854C526.834 96.854 532.08 93.011 534.337 86.728H528.786C527.261 89.839 524.394 92.157 520.368 92.157C515.732 92.157 512.316 89.168 512.316 83.373V83.19ZM537.703 96H543.01L544.413 89.168H544.474C545.816 94.17 549.598 96.854 555.027 96.854C565.031 96.854 571.497 87.033 571.497 77.151C571.497 68.428 566.556 63.609 559.663 63.609C555.149 63.609 551.428 65.744 549.049 69.16H548.988L552.892 50.738H547.28L537.703 96ZM565.885 77.273C565.885 84.654 561.371 92.157 554.295 92.157C549.964 92.157 546.182 89.168 546.182 83.495V83.312C546.182 75.382 550.818 68.306 557.833 68.306C562.164 68.306 565.885 70.99 565.885 77.09V77.273ZM605.836 79.591C605.836 71.6 600.346 67.269 594.002 67.269C591.806 67.269 590.037 67.879 588.329 68.794H588.268L604.433 53.056H597.296L583.144 67.33C577.654 72.82 575.092 77.883 575.092 83.617C575.092 91.852 581.192 96.854 589.244 96.854C598.577 96.854 605.836 89.29 605.836 79.591ZM580.826 83.495C580.826 77.151 585.279 71.783 591.562 71.783C596.808 71.783 600.163 74.711 600.163 79.774V79.896C600.163 86.545 595.71 92.218 589.488 92.218C584.303 92.218 580.826 88.924 580.826 83.617V83.495ZM615.492 83.19C615.492 76.236 619.579 68.306 627.082 68.306C631.84 68.306 634.524 71.295 634.524 75.626H639.892C640.136 68.489 635.256 63.609 627.326 63.609C616.041 63.609 609.88 73.796 609.88 83.312C609.88 91.974 615.309 96.854 623.3 96.854C630.01 96.854 635.256 93.011 637.513 86.728H631.962C630.437 89.839 627.57 92.157 623.544 92.157C618.908 92.157 615.492 89.168 615.492 83.373V83.19ZM662.595 52.141C654.421 52.141 648.199 57.387 646.308 66.293L643.502 79.53C640.94 91.12 647.528 96.854 656.556 96.854C664.73 96.854 670.891 91.608 672.843 82.702L675.649 69.465C678.15 57.936 671.745 52.141 662.595 52.141ZM656.8 91.791C651.127 91.791 647.406 87.887 649.053 80.079L651.859 66.903C653.14 60.925 657.105 57.204 662.412 57.204C667.963 57.204 671.745 61.169 670.098 68.916L667.292 82.092C666.011 88.07 662.046 91.791 656.8 91.791ZM406.93 144.236H412.054C414.128 141.186 416.995 139.478 420.716 139.478C425.779 139.478 428.402 142.467 428.402 147.286V147.408C428.402 154.362 424.193 160.096 417.849 160.096C412.298 160.096 409.004 156.314 409.675 151.434H403.88C403.148 159.791 409.309 164.854 417.666 164.854C428.646 164.854 434.197 155.399 434.197 146.981C434.197 139.173 429.378 134.842 422.485 134.842C419.069 134.842 415.592 136.123 413.152 139.356H413.091L415.958 125.875H436.82L437.857 121.056H411.871L406.93 144.236ZM451.864 164.854C458.635 164.854 463.942 161.377 466.016 155.582H460.221C459.245 158.083 456.317 160.462 452.169 160.462C446.862 160.462 442.653 156.741 443.751 149.665H467.785L468.029 148.384C469.981 139.295 465.772 131.609 455.829 131.609C444.605 131.609 438.078 141.735 438.078 151.251C438.078 159.669 443.446 164.854 451.864 164.854ZM455.463 135.94C460.099 135.94 463.82 138.99 462.905 145.578H444.605C445.886 139.661 450.4 135.94 455.463 135.94ZM485.461 164.854C492.232 164.854 497.539 161.377 499.613 155.582H493.818C492.842 158.083 489.914 160.462 485.766 160.462C480.459 160.462 476.25 156.741 477.348 149.665H501.382L501.626 148.384C503.578 139.295 499.369 131.609 489.426 131.609C478.202 131.609 471.675 141.735 471.675 151.251C471.675 159.669 477.043 164.854 485.461 164.854ZM489.06 135.94C493.696 135.94 497.417 138.99 496.502 145.578H478.202C479.483 139.661 483.997 135.94 489.06 135.94ZM511.994 164H517.728L526.878 121.056H521.144L519.558 128.498H509.005L508.029 133.256H518.521L511.994 164ZM554.697 164L564.335 118.738H558.662L554.392 138.868H554.331C553.05 134.171 549.329 131.609 544.083 131.609C534.079 131.609 527.552 141.43 527.552 151.312C527.552 160.035 532.554 164.854 539.569 164.854C544.266 164.854 547.865 162.536 550.427 158.876H550.488L549.39 164H554.697ZM533.164 151.373V151.19C533.164 143.809 537.739 136.306 544.754 136.306C549.146 136.306 552.928 139.295 552.928 144.968V145.151C552.928 153.02 548.292 160.157 541.277 160.157C536.946 160.157 533.164 157.473 533.164 151.373ZM566.163 140.576H571.714C572.69 137.587 575.252 135.879 579.339 135.879C583.731 135.879 585.561 138.014 585.561 140.515C585.561 143.199 583.67 144.602 579.888 144.907L575.13 145.273C566.529 145.944 561.771 149.787 561.771 155.948C561.771 161.987 566.529 164.793 571.836 164.793C576.838 164.793 580.376 162.292 582.633 158.693H582.755L582.633 159.059C581.779 162.292 582.999 164 587.269 164H590.624L591.6 159.486H589.77C588.123 159.486 587.391 158.998 587.879 156.985L590.746 143.504C592.271 136.062 588.123 131.609 579.827 131.609C572.446 131.609 567.627 134.903 566.163 140.576ZM583.548 151.373C582.328 156.924 578.241 160.462 573.361 160.462C570.067 160.462 567.322 158.815 567.322 155.582V155.399C567.322 151.739 570.311 149.787 575.13 149.299L579.827 148.872C582.023 148.628 583.548 148.14 584.341 147.408L583.548 151.373ZM601.231 164H606.965L616.115 121.056H610.381L608.795 128.498H598.242L597.266 133.256H607.758L601.231 164ZM640.457 141.979C646.313 141.125 650.522 136.55 650.522 130.877C650.522 124.411 644.788 120.141 636.858 120.141C627.83 120.141 622.157 125.753 622.157 132.585C622.157 136.367 624.292 139.417 627.952 140.82V140.881C621.791 141.552 616.484 146.676 616.484 153.386C616.484 160.34 622.889 164.854 631.307 164.854C641.372 164.854 647.167 158.205 647.167 151.129C647.167 146.554 644.483 143.382 640.457 142.04V141.979ZM627.647 132.707C627.647 128.498 631.063 124.777 636.675 124.777C641.25 124.777 644.849 127.4 644.849 131.243V131.365C644.849 135.696 641.189 139.356 635.76 139.356C631.246 139.356 627.647 136.672 627.647 132.829V132.707ZM622.218 152.898C622.218 148.384 625.634 143.626 632.344 143.626C637.895 143.626 641.616 146.554 641.616 150.885V151.007C641.616 155.887 637.651 160.279 631.368 160.279C626.305 160.279 622.218 157.473 622.218 153.02V152.898ZM682.92 147.591C682.92 139.6 677.43 135.269 671.086 135.269C668.89 135.269 667.121 135.879 665.413 136.794H665.352L681.517 121.056H674.38L660.228 135.33C654.738 140.82 652.176 145.883 652.176 151.617C652.176 159.852 658.276 164.854 666.328 164.854C675.661 164.854 682.92 157.29 682.92 147.591ZM657.91 151.495C657.91 145.151 662.363 139.783 668.646 139.783C673.892 139.783 677.247 142.711 677.247 147.774V147.896C677.247 154.545 672.794 160.218 666.572 160.218C661.387 160.218 657.91 156.924 657.91 151.617V151.495ZM406.93 212.236H412.054C414.128 209.186 416.995 207.478 420.716 207.478C425.779 207.478 428.402 210.467 428.402 215.286V215.408C428.402 222.362 424.193 228.096 417.849 228.096C412.298 228.096 409.004 224.314 409.675 219.434H403.88C403.148 227.791 409.309 232.854 417.666 232.854C428.646 232.854 434.197 223.399 434.197 214.981C434.197 207.173 429.378 202.842 422.485 202.842C419.069 202.842 415.592 204.123 413.152 207.356H413.091L415.958 193.875H436.82L437.857 189.056H411.871L406.93 212.236ZM443.751 219.19C443.751 212.236 447.838 204.306 455.341 204.306C460.099 204.306 462.783 207.295 462.783 211.626H468.151C468.395 204.489 463.515 199.609 455.585 199.609C444.3 199.609 438.139 209.796 438.139 219.312C438.139 227.974 443.568 232.854 451.559 232.854C458.269 232.854 463.515 229.011 465.772 222.728H460.221C458.696 225.839 455.829 228.157 451.803 228.157C447.167 228.157 443.751 225.168 443.751 219.373V219.19ZM484.449 232.854C491.22 232.854 496.527 229.377 498.601 223.582H492.806C491.83 226.083 488.902 228.462 484.754 228.462C479.447 228.462 475.238 224.741 476.336 217.665H500.37L500.614 216.384C502.566 207.295 498.357 199.609 488.414 199.609C477.19 199.609 470.663 209.735 470.663 219.251C470.663 227.669 476.031 232.854 484.449 232.854ZM488.048 203.94C492.684 203.94 496.405 206.99 495.49 213.578H477.19C478.471 207.661 482.985 203.94 488.048 203.94ZM524.451 188.141C516.277 188.141 510.055 193.387 508.164 202.293L505.358 215.53C502.796 227.12 509.384 232.854 518.412 232.854C526.586 232.854 532.747 227.608 534.699 218.702L537.505 205.465C540.006 193.936 533.601 188.141 524.451 188.141ZM518.656 227.791C512.983 227.791 509.262 223.887 510.909 216.079L513.715 202.903C514.996 196.925 518.961 193.204 524.268 193.204C529.819 193.204 533.601 197.169 531.954 204.916L529.148 218.092C527.867 224.07 523.902 227.791 518.656 227.791ZM536.397 232H543.107L570.496 193.814L571.533 189.056H542.802L541.704 193.936H563.847L536.397 232ZM567.012 232H572.319L573.722 225.168H573.783C575.125 230.17 578.907 232.854 584.336 232.854C594.34 232.854 600.806 223.033 600.806 213.151C600.806 204.428 595.865 199.609 588.972 199.609C584.458 199.609 580.737 201.744 578.358 205.16H578.297L582.201 186.738H576.589L567.012 232ZM595.194 213.273C595.194 220.654 590.68 228.157 583.604 228.157C579.273 228.157 575.491 225.168 575.491 219.495V219.312C575.491 211.382 580.127 204.306 587.142 204.306C591.473 204.306 595.194 206.99 595.194 213.09V213.273ZM601.412 232H629.838L630.814 227.12H608.061L608.427 225.534C609.098 222.118 611.172 219.983 615.381 217.909L624.897 213.456C633.193 209.674 635.816 204.245 635.816 198.999C635.816 192.411 630.57 188.141 623.311 188.141C615.625 188.141 609.769 192.594 608.244 200.341H613.856C615.015 195.461 618.309 192.838 622.884 192.838C627.337 192.838 630.082 195.339 630.082 199.121V199.243C630.082 202.415 628.618 206.136 622.823 208.82L613.917 212.968C607.268 216.018 604.035 219.617 602.876 225.229L601.412 232ZM660.591 209.979C666.447 209.125 670.656 204.55 670.656 198.877C670.656 192.411 664.922 188.141 656.992 188.141C647.964 188.141 642.291 193.753 642.291 200.585C642.291 204.367 644.426 207.417 648.086 208.82V208.881C641.925 209.552 636.618 214.676 636.618 221.386C636.618 228.34 643.023 232.854 651.441 232.854C661.506 232.854 667.301 226.205 667.301 219.129C667.301 214.554 664.617 211.382 660.591 210.04V209.979ZM647.781 200.707C647.781 196.498 651.197 192.777 656.809 192.777C661.384 192.777 664.983 195.4 664.983 199.243V199.365C664.983 203.696 661.323 207.356 655.894 207.356C651.38 207.356 647.781 204.672 647.781 200.829V200.707ZM642.352 220.898C642.352 216.384 645.768 211.626 652.478 211.626C658.029 211.626 661.75 214.554 661.75 218.885V219.007C661.75 223.887 657.785 228.279 651.502 228.279C646.439 228.279 642.352 225.473 642.352 221.02V220.898ZM411.261 300H416.995L426.145 257.056H420.411L418.825 264.498H408.272L407.296 269.256H417.788L411.261 300ZM447.01 256.141C438.836 256.141 432.614 261.387 430.723 270.293L427.917 283.53C425.355 295.12 431.943 300.854 440.971 300.854C449.145 300.854 455.306 295.608 457.258 286.702L460.064 273.465C462.565 261.936 456.16 256.141 447.01 256.141ZM441.215 295.791C435.542 295.791 431.821 291.887 433.468 284.079L436.274 270.903C437.555 264.925 441.52 261.204 446.827 261.204C452.378 261.204 456.16 265.169 454.513 272.916L451.707 286.092C450.426 292.07 446.461 295.791 441.215 295.791ZM467.817 287.19C467.817 280.236 471.904 272.306 479.407 272.306C484.165 272.306 486.849 275.295 486.849 279.626H492.217C492.461 272.489 487.581 267.609 479.651 267.609C468.366 267.609 462.205 277.796 462.205 287.312C462.205 295.974 467.634 300.854 475.625 300.854C482.335 300.854 487.581 297.011 489.838 290.728H484.287C482.762 293.839 479.895 296.157 475.869 296.157C471.233 296.157 467.817 293.168 467.817 287.373V287.19ZM521.874 300L531.512 254.738H525.839L521.569 274.868H521.508C520.227 270.171 516.506 267.609 511.26 267.609C501.256 267.609 494.729 277.43 494.729 287.312C494.729 296.035 499.731 300.854 506.746 300.854C511.443 300.854 515.042 298.536 517.604 294.876H517.665L516.567 300H521.874ZM500.341 287.373V287.19C500.341 279.809 504.916 272.306 511.931 272.306C516.323 272.306 520.105 275.295 520.105 280.968V281.151C520.105 289.02 515.469 296.157 508.454 296.157C504.123 296.157 500.341 293.473 500.341 287.373ZM533.279 280.236H538.403C540.477 277.186 543.344 275.478 547.065 275.478C552.128 275.478 554.751 278.467 554.751 283.286V283.408C554.751 290.362 550.542 296.096 544.198 296.096C538.647 296.096 535.353 292.314 536.024 287.434H530.229C529.497 295.791 535.658 300.854 544.015 300.854C554.995 300.854 560.546 291.399 560.546 282.981C560.546 275.173 555.727 270.842 548.834 270.842C545.418 270.842 541.941 272.123 539.501 275.356H539.44L542.307 261.875H563.169L564.206 257.056H538.22L533.279 280.236ZM584.617 256.141C576.443 256.141 570.221 261.387 568.33 270.293L565.524 283.53C562.962 295.12 569.55 300.854 578.578 300.854C586.752 300.854 592.913 295.608 594.865 286.702L597.671 273.465C600.172 261.936 593.767 256.141 584.617 256.141ZM578.822 295.791C573.149 295.791 569.428 291.887 571.075 284.079L573.881 270.903C575.162 264.925 579.127 261.204 584.434 261.204C589.985 261.204 593.767 265.169 592.12 272.916L589.314 286.092C588.033 292.07 584.068 295.791 578.822 295.791ZM630.617 283.591C630.617 275.6 625.127 271.269 618.783 271.269C616.587 271.269 614.818 271.879 613.11 272.794H613.049L629.214 257.056H622.077L607.925 271.33C602.435 276.82 599.873 281.883 599.873 287.617C599.873 295.852 605.973 300.854 614.025 300.854C623.358 300.854 630.617 293.29 630.617 283.591ZM605.607 287.495C605.607 281.151 610.06 275.783 616.343 275.783C621.589 275.783 624.944 278.711 624.944 283.774V283.896C624.944 290.545 620.491 296.218 614.269 296.218C609.084 296.218 605.607 292.924 605.607 287.617V287.495ZM631.554 300H659.98L660.956 295.12H638.203L638.569 293.534C639.24 290.118 641.314 287.983 645.523 285.909L655.039 281.456C663.335 277.674 665.958 272.245 665.958 266.999C665.958 260.411 660.712 256.141 653.453 256.141C645.767 256.141 639.911 260.594 638.386 268.341H643.998C645.157 263.461 648.451 260.838 653.026 260.838C657.479 260.838 660.224 263.339 660.224 267.121V267.243C660.224 270.415 658.76 274.136 652.965 276.82L644.059 280.968C637.41 284.018 634.177 287.617 633.018 293.229L631.554 300ZM670.587 300H676.199L681.933 273.099H692.913L693.889 268.463H682.909L684.19 262.363C684.678 260.106 685.776 259.191 688.033 259.191H695.902L696.878 254.677H687.972C682.421 254.677 679.737 257.178 678.639 262.18L677.358 268.463H670.221L669.184 273.099H676.321L670.587 300ZM402.538 368H407.845L409.248 361.168H409.309C410.651 366.17 414.433 368.854 419.862 368.854C429.866 368.854 436.332 359.033 436.332 349.151C436.332 340.428 431.391 335.609 424.498 335.609C419.984 335.609 416.263 337.744 413.884 341.16H413.823L417.727 322.738H412.115L402.538 368ZM430.72 349.273C430.72 356.654 426.206 364.157 419.13 364.157C414.799 364.157 411.017 361.168 411.017 355.495V355.312C411.017 347.382 415.653 340.306 422.668 340.306C426.999 340.306 430.72 342.99 430.72 349.09V349.273ZM442.672 348.236H447.796C449.87 345.186 452.737 343.478 456.458 343.478C461.521 343.478 464.144 346.467 464.144 351.286V351.408C464.144 358.362 459.935 364.096 453.591 364.096C448.04 364.096 444.746 360.314 445.417 355.434H439.622C438.89 363.791 445.051 368.854 453.408 368.854C464.388 368.854 469.939 359.399 469.939 350.981C469.939 343.173 465.12 338.842 458.227 338.842C454.811 338.842 451.334 340.123 448.894 343.356H448.833L451.7 329.875H472.562L473.599 325.056H447.613L442.672 348.236ZM481.018 368H486.752L495.902 325.056H490.168L488.582 332.498H478.029L477.053 337.256H487.545L481.018 368ZM527.442 351.591C527.442 343.6 521.952 339.269 515.608 339.269C513.412 339.269 511.643 339.879 509.935 340.794H509.874L526.039 325.056H518.902L504.75 339.33C499.26 344.82 496.698 349.883 496.698 355.617C496.698 363.852 502.798 368.854 510.85 368.854C520.183 368.854 527.442 361.29 527.442 351.591ZM502.432 355.495C502.432 349.151 506.885 343.783 513.168 343.783C518.414 343.783 521.769 346.711 521.769 351.774V351.896C521.769 358.545 517.316 364.218 511.094 364.218C505.909 364.218 502.432 360.924 502.432 355.617V355.495ZM555.092 345.979C560.948 345.125 565.157 340.55 565.157 334.877C565.157 328.411 559.423 324.141 551.493 324.141C542.465 324.141 536.792 329.753 536.792 336.585C536.792 340.367 538.927 343.417 542.587 344.82V344.881C536.426 345.552 531.119 350.676 531.119 357.386C531.119 364.34 537.524 368.854 545.942 368.854C556.007 368.854 561.802 362.205 561.802 355.129C561.802 350.554 559.118 347.382 555.092 346.04V345.979ZM542.282 336.707C542.282 332.498 545.698 328.777 551.31 328.777C555.885 328.777 559.484 331.4 559.484 335.243V335.365C559.484 339.696 555.824 343.356 550.395 343.356C545.881 343.356 542.282 340.672 542.282 336.829V336.707ZM536.853 356.898C536.853 352.384 540.269 347.626 546.979 347.626C552.53 347.626 556.251 350.554 556.251 354.885V355.007C556.251 359.887 552.286 364.279 546.003 364.279C540.94 364.279 536.853 361.473 536.853 357.02V356.898ZM572.363 355.19C572.363 348.236 576.45 340.306 583.953 340.306C588.711 340.306 591.395 343.295 591.395 347.626H596.763C597.007 340.489 592.127 335.609 584.197 335.609C572.912 335.609 566.751 345.796 566.751 355.312C566.751 363.974 572.18 368.854 580.171 368.854C586.881 368.854 592.127 365.011 594.384 358.728H588.833C587.308 361.839 584.441 364.157 580.415 364.157C575.779 364.157 572.363 361.168 572.363 355.373V355.19ZM602.143 344.576H607.694C608.67 341.587 611.232 339.879 615.319 339.879C619.711 339.879 621.541 342.014 621.541 344.515C621.541 347.199 619.65 348.602 615.868 348.907L611.11 349.273C602.509 349.944 597.751 353.787 597.751 359.948C597.751 365.987 602.509 368.793 607.816 368.793C612.818 368.793 616.356 366.292 618.613 362.693H618.735L618.613 363.059C617.759 366.292 618.979 368 623.249 368H626.604L627.58 363.486H625.75C624.103 363.486 623.371 362.998 623.859 360.985L626.726 347.504C628.251 340.062 624.103 335.609 615.807 335.609C608.426 335.609 603.607 338.903 602.143 344.576ZM619.528 355.373C618.308 360.924 614.221 364.462 609.341 364.462C606.047 364.462 603.302 362.815 603.302 359.582V359.399C603.302 355.739 606.291 353.787 611.11 353.299L615.807 352.872C618.003 352.628 619.528 352.14 620.321 351.408L619.528 355.373ZM637.235 355.19C637.235 348.236 641.322 340.306 648.825 340.306C653.583 340.306 656.267 343.295 656.267 347.626H661.635C661.879 340.489 656.999 335.609 649.069 335.609C637.784 335.609 631.623 345.796 631.623 355.312C631.623 363.974 637.052 368.854 645.043 368.854C651.753 368.854 656.999 365.011 659.256 358.728H653.705C652.18 361.839 649.313 364.157 645.287 364.157C640.651 364.157 637.235 361.168 637.235 355.373V355.19Z" fill="white"/>
<path d="M477.37 72V255.553L404 182.193V209.511L487.5 293L571 209.511V182.193L497.631 255.553V72H477.37Z" fill="white"/>
<path d="M477.37 301V484.553L404 411.193V438.511L487.5 522L571 438.511V411.193L497.631 484.553V301H477.37Z" fill="white"/>
</g>
<defs>
<clipPath id="clip0_1306_75781">
<rect width="752" height="423" fill="white"/>
</clipPath>
</defs>
</svg>
