<svg width="752" height="423" viewBox="0 0 752 423" fill="none" xmlns="http://www.w3.org/2000/svg">
<rect width="752" height="423" fill="#F25138"/>
<path d="M66.0568 52V43.2727H69.0057C69.6903 43.2727 70.25 43.3963 70.6847 43.6435C71.1222 43.8878 71.446 44.2188 71.6562 44.6364C71.8665 45.054 71.9716 45.5199 71.9716 46.0341C71.9716 46.5483 71.8665 47.0156 71.6562 47.4361C71.4489 47.8565 71.1278 48.1918 70.6932 48.4418C70.2585 48.6889 69.7017 48.8125 69.0227 48.8125H66.9091V47.875H68.9886C69.4574 47.875 69.8338 47.794 70.1179 47.6321C70.402 47.4702 70.608 47.2514 70.7358 46.9759C70.8665 46.6974 70.9318 46.3835 70.9318 46.0341C70.9318 45.6847 70.8665 45.3722 70.7358 45.0966C70.608 44.821 70.4006 44.6051 70.1136 44.4489C69.8267 44.2898 69.446 44.2102 68.9716 44.2102H67.1136V52H66.0568ZM73.5376 52V45.4545H74.5092V46.4432H74.5774C74.6967 46.1193 74.9126 45.8565 75.2251 45.6548C75.5376 45.4531 75.8899 45.3523 76.282 45.3523C76.3558 45.3523 76.4482 45.3537 76.5589 45.3565C76.6697 45.3594 76.7536 45.3636 76.8104 45.3693V46.392C76.7763 46.3835 76.6982 46.3707 76.576 46.3537C76.4567 46.3338 76.3303 46.3239 76.1967 46.3239C75.8786 46.3239 75.5945 46.3906 75.3445 46.5241C75.0973 46.6548 74.9013 46.8366 74.7564 47.0696C74.6143 47.2997 74.5433 47.5625 74.5433 47.858V52H73.5376ZM80.4624 52.1364C79.8714 52.1364 79.353 51.9957 78.907 51.7145C78.4638 51.4332 78.1172 51.0398 77.8672 50.5341C77.62 50.0284 77.4964 49.4375 77.4964 48.7614C77.4964 48.0795 77.62 47.4844 77.8672 46.9759C78.1172 46.4673 78.4638 46.0724 78.907 45.7912C79.353 45.5099 79.8714 45.3693 80.4624 45.3693C81.0533 45.3693 81.5703 45.5099 82.0135 45.7912C82.4595 46.0724 82.8061 46.4673 83.0533 46.9759C83.3033 47.4844 83.4283 48.0795 83.4283 48.7614C83.4283 49.4375 83.3033 50.0284 83.0533 50.5341C82.8061 51.0398 82.4595 51.4332 82.0135 51.7145C81.5703 51.9957 81.0533 52.1364 80.4624 52.1364ZM80.4624 51.233C80.9112 51.233 81.2805 51.1179 81.5703 50.8878C81.8601 50.6577 82.0746 50.3551 82.2138 49.9801C82.353 49.6051 82.4226 49.1989 82.4226 48.7614C82.4226 48.3239 82.353 47.9162 82.2138 47.5384C82.0746 47.1605 81.8601 46.8551 81.5703 46.6222C81.2805 46.3892 80.9112 46.2727 80.4624 46.2727C80.0135 46.2727 79.6442 46.3892 79.3544 46.6222C79.0646 46.8551 78.8501 47.1605 78.7109 47.5384C78.5717 47.9162 78.5021 48.3239 78.5021 48.7614C78.5021 49.1989 78.5717 49.6051 78.7109 49.9801C78.8501 50.3551 79.0646 50.6577 79.3544 50.8878C79.6442 51.1179 80.0135 51.233 80.4624 51.233ZM85.0998 52V43.2727H86.1055V46.4943H86.1907C86.2646 46.3807 86.3668 46.2358 86.4975 46.0597C86.631 45.8807 86.8214 45.7216 87.0685 45.5824C87.3185 45.4403 87.6566 45.3693 88.0827 45.3693C88.6339 45.3693 89.1197 45.5071 89.5401 45.7827C89.9606 46.0582 90.2887 46.4489 90.5245 46.9545C90.7603 47.4602 90.8782 48.0568 90.8782 48.7443C90.8782 49.4375 90.7603 50.0384 90.5245 50.5469C90.2887 51.0526 89.962 51.4446 89.5444 51.723C89.1268 51.9986 88.6452 52.1364 88.0998 52.1364C87.6793 52.1364 87.3427 52.0668 87.0898 51.9276C86.837 51.7855 86.6424 51.625 86.506 51.446C86.3697 51.2642 86.2646 51.1136 86.1907 50.9943H86.0714V52H85.0998ZM86.0884 48.7273C86.0884 49.2216 86.1609 49.6577 86.3058 50.0355C86.4506 50.4105 86.6623 50.7045 86.9407 50.9176C87.2191 51.1278 87.56 51.233 87.9634 51.233C88.3839 51.233 88.7347 51.1222 89.016 50.9006C89.3001 50.6761 89.5131 50.375 89.6552 49.9972C89.8001 49.6165 89.8725 49.1932 89.8725 48.7273C89.8725 48.267 89.8015 47.8523 89.6594 47.483C89.5202 47.1108 89.3086 46.8168 89.0245 46.6009C88.7433 46.3821 88.3896 46.2727 87.9634 46.2727C87.5543 46.2727 87.2106 46.3764 86.9322 46.5838C86.6538 46.7884 86.4435 47.0753 86.3015 47.4446C86.1594 47.8111 86.0884 48.2386 86.0884 48.7273ZM93.4222 43.2727V52H92.4165V43.2727H93.4222ZM98.0085 52.1364C97.3778 52.1364 96.8338 51.9972 96.3764 51.7188C95.9219 51.4375 95.571 51.0455 95.3239 50.5426C95.0795 50.0369 94.9574 49.4489 94.9574 48.7784C94.9574 48.108 95.0795 47.517 95.3239 47.0057C95.571 46.4915 95.9148 46.0909 96.3551 45.804C96.7983 45.5142 97.3153 45.3693 97.9062 45.3693C98.2472 45.3693 98.5838 45.4261 98.9162 45.5398C99.2486 45.6534 99.5511 45.8381 99.8239 46.0938C100.097 46.3466 100.314 46.6818 100.476 47.0994C100.638 47.517 100.719 48.0312 100.719 48.642V49.0682H95.6733V48.1989H99.696C99.696 47.8295 99.6222 47.5 99.4744 47.2102C99.3295 46.9205 99.1222 46.6918 98.8523 46.5241C98.5852 46.3565 98.2699 46.2727 97.9062 46.2727C97.5057 46.2727 97.1591 46.3722 96.8665 46.571C96.5767 46.767 96.3537 47.0227 96.1974 47.3381C96.0412 47.6534 95.9631 47.9915 95.9631 48.3523V48.9318C95.9631 49.4261 96.0483 49.8452 96.2188 50.1889C96.392 50.5298 96.6321 50.7898 96.9389 50.9688C97.2457 51.1449 97.6023 51.233 98.0085 51.233C98.2727 51.233 98.5114 51.196 98.7244 51.1222C98.9403 51.0455 99.1264 50.9318 99.2827 50.7812C99.4389 50.6278 99.5597 50.4375 99.6449 50.2102L100.616 50.483C100.514 50.8125 100.342 51.1023 100.101 51.3523C99.8594 51.5994 99.5611 51.7926 99.206 51.9318C98.8509 52.0682 98.4517 52.1364 98.0085 52.1364ZM102.249 52V45.4545H103.22V46.4773H103.305C103.442 46.1278 103.662 45.8565 103.966 45.6634C104.27 45.4673 104.635 45.3693 105.061 45.3693C105.493 45.3693 105.852 45.4673 106.139 45.6634C106.429 45.8565 106.655 46.1278 106.817 46.4773H106.885C107.053 46.1392 107.304 45.8707 107.639 45.6719C107.974 45.4702 108.376 45.3693 108.845 45.3693C109.43 45.3693 109.909 45.5526 110.281 45.919C110.653 46.2827 110.839 46.8494 110.839 47.6193V52H109.834V47.6193C109.834 47.1364 109.702 46.7912 109.438 46.5838C109.173 46.3764 108.862 46.2727 108.504 46.2727C108.044 46.2727 107.688 46.4119 107.435 46.6903C107.182 46.9659 107.055 47.3153 107.055 47.7386V52H106.033V47.517C106.033 47.1449 105.912 46.8452 105.67 46.6179C105.429 46.3878 105.118 46.2727 104.737 46.2727C104.476 46.2727 104.232 46.3423 104.004 46.4815C103.78 46.6207 103.598 46.8139 103.459 47.0611C103.322 47.3054 103.254 47.5881 103.254 47.9091V52H102.249ZM119.104 43.2727V52H118.048V44.3807H117.996L115.866 45.7955V44.7216L118.048 43.2727H119.104Z" fill="white"/>
<path d="M67.479 112H70.772V89.948H70.809L79.208 112H81.983L90.345 89.837H90.382V112H93.823V85.952H88.643L80.725 106.894H80.688L72.659 85.952H67.479V112ZM97.9569 98.199H101.324C101.509 96.164 102.989 94.943 105.727 94.943C108.761 94.943 109.797 96.497 109.797 98.014C109.797 99.494 108.798 100.123 106.837 100.456L103.951 100.937C99.9179 101.566 97.2539 103.342 97.2539 106.857C97.2539 110.446 100.029 112.518 103.803 112.518C107.022 112.518 109.39 110.89 110.315 108.522H110.352V108.892C110.315 110.927 111.277 112 113.682 112H115.865V109.262H114.681C113.756 109.262 113.275 108.966 113.275 107.782V98.717C113.275 94.388 110.167 92.353 105.801 92.353C100.991 92.353 98.2899 94.758 97.9569 98.199ZM109.908 104.045C109.908 107.523 107.651 109.854 104.432 109.854C102.138 109.854 100.584 108.744 100.584 106.746V106.524C100.584 104.674 102.101 103.675 104.543 103.268L107.355 102.787C108.687 102.565 109.538 102.047 109.908 101.529V104.045ZM121.496 84.546H118.092V112H121.496V84.546ZM134.409 92.871H130.228L121.496 101.714L130.783 112H135.149L125.64 101.566L134.409 92.871ZM143.653 112.518C148.241 112.518 151.349 110.002 152.052 106.45H148.611C148.315 108.115 146.65 109.854 143.69 109.854C140.323 109.854 137.807 107.338 137.807 103.305V103.194H152.422V101.825C152.422 96.46 149.24 92.353 143.616 92.353C137.807 92.353 134.366 96.719 134.366 102.417C134.366 108.078 137.622 112.518 143.653 112.518ZM143.616 94.98C146.687 94.98 148.907 97.089 148.981 100.752H137.844C138.14 97.126 140.582 94.98 143.616 94.98ZM164.327 101.714C164.327 97.681 166.88 95.202 170.136 95.202C172.948 95.202 174.502 96.867 174.983 98.828H178.35C177.684 94.943 174.687 92.353 170.136 92.353C164.29 92.353 160.923 96.645 160.923 102.417C160.923 108.152 164.216 112.518 170.136 112.518C174.65 112.518 177.61 109.891 178.387 105.932H175.02C174.502 108.004 172.874 109.669 170.136 109.669C166.88 109.669 164.327 107.153 164.327 103.157V101.714ZM181.542 112H184.946V100.9C184.946 98.088 185.982 95.905 189.608 95.905H192.827V92.76H190.237C186.981 92.76 185.427 94.388 184.835 96.09H184.798V92.871H181.542V112ZM203.993 114.146L212.281 92.871H208.803L203.29 107.56H203.253L197.592 92.871H193.855L201.44 111.482L200.589 113.665C199.738 115.811 199.146 116.255 197.148 116.255H193.966V119.104H197.259C201.07 119.104 202.624 117.698 203.993 114.146ZM214.603 92.871V119.104H218.007V108.596H218.044C219.228 111.038 221.448 112.518 224.519 112.518C229.81 112.518 232.992 108.115 232.992 102.417C232.992 96.756 229.884 92.353 224.519 92.353C221.3 92.353 219.043 93.907 217.896 96.497H217.859V92.871H214.603ZM229.551 101.714V103.12C229.551 107.227 226.961 109.669 223.779 109.669C220.597 109.669 218.007 107.153 218.007 103.12V101.714C218.007 97.681 220.597 95.165 223.779 95.165C226.961 95.165 229.551 97.57 229.551 101.714ZM233.859 92.871V95.683H238.262V107.449C238.262 110.483 239.705 112 242.961 112H247.956V109.188H243.59C242.221 109.188 241.666 108.596 241.666 107.227V95.683H247.919V92.871H241.666V87.136H238.262V92.871H233.859ZM258.808 112.518C264.728 112.518 268.095 108.078 268.095 102.417C268.095 96.756 264.654 92.353 258.808 92.353C252.999 92.353 249.521 96.756 249.521 102.417C249.521 108.078 252.888 112.518 258.808 112.518ZM264.691 103.12C264.691 107.264 262.027 109.669 258.808 109.669C255.589 109.669 252.962 107.116 252.962 103.12V101.714C252.962 97.681 255.589 95.202 258.808 95.202C262.027 95.202 264.691 97.607 264.691 101.714V103.12ZM75.434 156.518C80.022 156.518 83.13 154.002 83.833 150.45H80.392C80.096 152.115 78.431 153.854 75.471 153.854C72.104 153.854 69.588 151.338 69.588 147.305V147.194H84.203V145.825C84.203 140.46 81.021 136.353 75.397 136.353C69.588 136.353 66.147 140.719 66.147 146.417C66.147 152.078 69.403 156.518 75.434 156.518ZM75.397 138.98C78.468 138.98 80.688 141.089 80.762 144.752H69.625C69.921 141.126 72.363 138.98 75.397 138.98ZM87.117 142.199H90.484C90.669 140.164 92.149 138.943 94.887 138.943C97.921 138.943 98.957 140.497 98.957 142.014C98.957 143.494 97.958 144.123 95.997 144.456L93.111 144.937C89.078 145.566 86.414 147.342 86.414 150.857C86.414 154.446 89.189 156.518 92.963 156.518C96.182 156.518 98.55 154.89 99.475 152.522H99.512V152.892C99.475 154.927 100.437 156 102.842 156H105.025V153.262H103.841C102.916 153.262 102.435 152.966 102.435 151.782V142.717C102.435 138.388 99.327 136.353 94.961 136.353C90.151 136.353 87.45 138.758 87.117 142.199ZM99.068 148.045C99.068 151.523 96.811 153.854 93.592 153.854C91.298 153.854 89.744 152.744 89.744 150.746V150.524C89.744 148.674 91.261 147.675 93.703 147.268L96.515 146.787C97.847 146.565 98.698 146.047 99.068 145.529V148.045ZM105.883 150.413C105.994 154.113 109.139 156.555 114.134 156.555C118.833 156.555 122.163 154.298 122.163 150.561C122.163 147.305 119.832 145.529 116.095 145.011L113.172 144.604C110.989 144.271 109.879 143.457 109.879 141.829C109.879 140.09 111.47 138.869 114.06 138.869C116.724 138.869 118.204 140.127 118.315 142.051H121.756C121.608 138.943 118.944 136.279 114.097 136.279C109.657 136.279 106.475 138.536 106.475 142.088C106.475 145.381 108.732 147.009 112.062 147.49L114.985 147.897C117.316 148.23 118.759 149.007 118.759 150.82C118.759 152.781 116.946 153.965 114.245 153.965C111.433 153.965 109.472 152.818 109.361 150.413H105.883ZM133.1 158.146L141.388 136.871H137.91L132.397 151.56H132.36L126.699 136.871H122.962L130.547 155.482L129.696 157.665C128.845 159.811 128.253 160.255 126.255 160.255H123.073V163.104H126.366C130.177 163.104 131.731 161.698 133.1 158.146ZM148.152 136.871V139.683H152.555V151.449C152.555 154.483 153.998 156 157.254 156H162.249V153.188H157.883C156.514 153.188 155.959 152.596 155.959 151.227V139.683H162.212V136.871H155.959V131.136H152.555V136.871H148.152ZM173.101 156.518C179.021 156.518 182.388 152.078 182.388 146.417C182.388 140.756 178.947 136.353 173.101 136.353C167.292 136.353 163.814 140.756 163.814 146.417C163.814 152.078 167.181 156.518 173.101 156.518ZM178.984 147.12C178.984 151.264 176.32 153.669 173.101 153.669C169.882 153.669 167.255 151.116 167.255 147.12V145.714C167.255 141.681 169.882 139.202 173.101 139.202C176.32 139.202 178.984 141.607 178.984 145.714V147.12ZM190.47 150.413C190.581 154.113 193.726 156.555 198.721 156.555C203.42 156.555 206.75 154.298 206.75 150.561C206.75 147.305 204.419 145.529 200.682 145.011L197.759 144.604C195.576 144.271 194.466 143.457 194.466 141.829C194.466 140.09 196.057 138.869 198.647 138.869C201.311 138.869 202.791 140.127 202.902 142.051H206.343C206.195 138.943 203.531 136.279 198.684 136.279C194.244 136.279 191.062 138.536 191.062 142.088C191.062 145.381 193.319 147.009 196.649 147.49L199.572 147.897C201.903 148.23 203.346 149.007 203.346 150.82C203.346 152.781 201.533 153.965 198.832 153.965C196.02 153.965 194.059 152.818 193.948 150.413H190.47ZM218.086 156.518C222.674 156.518 225.782 154.002 226.485 150.45H223.044C222.748 152.115 221.083 153.854 218.123 153.854C214.756 153.854 212.24 151.338 212.24 147.305V147.194H226.855V145.825C226.855 140.46 223.673 136.353 218.049 136.353C212.24 136.353 208.799 140.719 208.799 146.417C208.799 152.078 212.055 156.518 218.086 156.518ZM218.049 138.98C221.12 138.98 223.34 141.089 223.414 144.752H212.277C212.573 141.126 215.015 138.98 218.049 138.98ZM233.508 144.789C233.508 141.015 235.95 139.239 238.614 139.239C241.167 139.239 243.35 140.904 243.35 144.345V156H246.754V144.049C246.754 139.017 243.609 136.353 239.613 136.353C236.801 136.353 234.47 137.574 233.36 140.127H233.323V136.871H230.104V156H233.508V144.789ZM268.199 156V128.546H264.795V140.275H264.758C263.574 137.833 261.354 136.353 258.246 136.353C252.992 136.353 249.81 140.756 249.81 146.417C249.81 152.115 252.918 156.518 258.246 156.518C261.502 156.518 263.759 154.927 264.906 152.374H264.943V156H268.199ZM253.251 147.157V145.751C253.251 141.607 255.841 139.202 259.023 139.202C262.168 139.202 264.795 141.681 264.795 145.751V147.157C264.795 151.153 262.168 153.669 259.023 153.669C255.841 153.669 253.251 151.301 253.251 147.157ZM276.965 136.871V139.683H281.368V151.449C281.368 154.483 282.811 156 286.067 156H291.062V153.188H286.696C285.327 153.188 284.772 152.596 284.772 151.227V139.683H291.025V136.871H284.772V131.136H281.368V136.871H276.965ZM301.914 156.518C307.834 156.518 311.201 152.078 311.201 146.417C311.201 140.756 307.76 136.353 301.914 136.353C296.105 136.353 292.627 140.756 292.627 146.417C292.627 152.078 295.994 156.518 301.914 156.518ZM307.797 147.12C307.797 151.264 305.133 153.669 301.914 153.669C298.695 153.669 296.068 151.116 296.068 147.12V145.714C296.068 141.681 298.695 139.202 301.914 139.202C305.133 139.202 307.797 141.607 307.797 145.714V147.12ZM75.434 200.518C81.354 200.518 84.721 196.078 84.721 190.417C84.721 184.756 81.28 180.353 75.434 180.353C69.625 180.353 66.147 184.756 66.147 190.417C66.147 196.078 69.514 200.518 75.434 200.518ZM81.317 191.12C81.317 195.264 78.653 197.669 75.434 197.669C72.215 197.669 69.588 195.116 69.588 191.12V189.714C69.588 185.681 72.215 183.202 75.434 183.202C78.653 183.202 81.317 185.607 81.317 189.714V191.12ZM85.6061 180.871V183.683H90.0091V195.449C90.0091 198.483 91.4521 200 94.7081 200H99.7031V197.188H95.3371C93.9681 197.188 93.4131 196.596 93.4131 195.227V183.683H99.6661V180.871H93.4131V175.136H90.0091V180.871H85.6061ZM106.14 188.789C106.14 185.015 108.582 183.239 111.246 183.239C113.799 183.239 115.982 184.904 115.982 188.345V200H119.386V188.049C119.386 183.017 116.241 180.353 112.245 180.353C109.507 180.353 107.213 181.537 106.103 183.942H106.066V172.546H102.736V200H106.14V188.789ZM131.729 200.518C136.317 200.518 139.425 198.002 140.128 194.45H136.687C136.391 196.115 134.726 197.854 131.766 197.854C128.399 197.854 125.883 195.338 125.883 191.305V191.194H140.498V189.825C140.498 184.46 137.316 180.353 131.692 180.353C125.883 180.353 122.442 184.719 122.442 190.417C122.442 196.078 125.698 200.518 131.729 200.518ZM131.692 182.98C134.763 182.98 136.983 185.089 137.057 188.752H125.92C126.216 185.126 128.658 182.98 131.692 182.98ZM143.747 200H147.151V188.9C147.151 186.088 148.187 183.905 151.813 183.905H155.032V180.76H152.442C149.186 180.76 147.632 182.388 147.04 184.09H147.003V180.871H143.747V200ZM155.891 194.413C156.002 198.113 159.147 200.555 164.142 200.555C168.841 200.555 172.171 198.298 172.171 194.561C172.171 191.305 169.84 189.529 166.103 189.011L163.18 188.604C160.997 188.271 159.887 187.457 159.887 185.829C159.887 184.09 161.478 182.869 164.068 182.869C166.732 182.869 168.212 184.127 168.323 186.051H171.764C171.616 182.943 168.952 180.279 164.105 180.279C159.665 180.279 156.483 182.536 156.483 186.088C156.483 189.381 158.74 191.009 162.07 191.49L164.993 191.897C167.324 192.23 168.767 193.007 168.767 194.82C168.767 196.781 166.954 197.965 164.253 197.965C161.441 197.965 159.48 196.818 159.369 194.413H155.891Z" fill="white"/>
<path d="M69.25 221.443V232H70.865V221.443H74.877V220.032H65.238V221.443H69.25ZM77.9834 226.849C77.9834 225.115 79.1054 224.299 80.3294 224.299C81.5024 224.299 82.5054 225.064 82.5054 226.645V232H84.0694V226.509C84.0694 224.197 82.6244 222.973 80.7884 222.973C79.5304 222.973 78.4764 223.517 77.9664 224.622H77.9494V219.386H76.4194V232H77.9834V226.849ZM87.9901 221.715C88.6021 221.715 89.0611 221.239 89.0611 220.661C89.0611 220.049 88.6021 219.607 87.9901 219.607H87.9051C87.2761 219.607 86.8171 220.049 86.8171 220.661C86.8171 221.239 87.2761 221.715 87.9051 221.715H87.9901ZM85.7461 224.486H87.1571V232H88.7211V223.211H85.7461V224.486ZM90.6642 229.433C90.7152 231.133 92.1602 232.255 94.4552 232.255C96.6312 232.255 98.1612 231.218 98.1612 229.501C98.1612 228.005 97.0902 227.189 95.3562 226.951L94.0132 226.764C93.0102 226.611 92.5002 226.237 92.5002 225.489C92.5002 224.69 93.2312 224.129 94.4212 224.129C95.6452 224.129 96.3252 224.707 96.3762 225.591H97.9572C97.8892 224.163 96.6822 222.939 94.4552 222.939C92.3982 222.939 90.9362 223.976 90.9362 225.608C90.9362 227.121 91.9732 227.869 93.5032 228.09L94.8462 228.277C95.9172 228.43 96.5802 228.787 96.5802 229.62C96.5802 230.521 95.7472 231.065 94.5062 231.065C93.2312 231.065 92.3132 230.538 92.2792 229.433H90.6642ZM102.908 223.211L105.781 232.017H107.362L109.487 225.115H109.504L111.663 232.017H113.278L116.032 223.211H114.519L112.496 230.011H112.479L110.337 223.194H108.756L106.665 230.045H106.648L104.557 223.211H102.908ZM117.02 225.659H118.567C118.669 224.724 119.332 224.163 120.59 224.163C121.984 224.163 122.46 224.877 122.46 225.574C122.46 226.254 122.001 226.543 121.1 226.696L119.774 226.917C117.921 227.206 116.697 228.022 116.697 229.637C116.697 231.286 117.972 232.238 119.706 232.238C121.185 232.238 122.273 231.49 122.698 230.402H122.715V230.572C122.698 231.507 123.14 232 124.245 232H125.248V230.742H124.704C124.279 230.742 124.058 230.606 124.058 230.062V225.897C124.058 223.908 122.63 222.973 120.624 222.973C118.414 222.973 117.173 224.078 117.02 225.659ZM122.511 228.345C122.511 229.943 121.474 231.014 119.995 231.014C118.941 231.014 118.227 230.504 118.227 229.586V229.484C118.227 228.634 118.924 228.175 120.046 227.988L121.338 227.767C121.95 227.665 122.341 227.427 122.511 227.189V228.345ZM126.142 229.433C126.193 231.133 127.638 232.255 129.933 232.255C132.109 232.255 133.639 231.218 133.639 229.501C133.639 228.005 132.568 227.189 130.834 226.951L129.491 226.764C128.488 226.611 127.978 226.237 127.978 225.489C127.978 224.69 128.709 224.129 129.899 224.129C131.123 224.129 131.803 224.707 131.854 225.591H133.435C133.367 224.163 132.16 222.939 129.933 222.939C127.876 222.939 126.414 223.976 126.414 225.608C126.414 227.121 127.451 227.869 128.981 228.09L130.324 228.277C131.395 228.43 132.058 228.787 132.058 229.62C132.058 230.521 131.225 231.065 129.984 231.065C128.709 231.065 127.791 230.538 127.757 229.433H126.142ZM147.344 232V219.386H145.78V224.775H145.763C145.219 223.653 144.199 222.973 142.771 222.973C140.357 222.973 138.895 224.996 138.895 227.597C138.895 230.215 140.323 232.238 142.771 232.238C144.267 232.238 145.304 231.507 145.831 230.334H145.848V232H147.344ZM140.459 227.937V227.291C140.459 225.387 141.666 224.282 143.111 224.282C144.573 224.282 145.78 225.421 145.78 227.291V227.937C145.78 229.773 144.573 230.929 143.111 230.929C141.666 230.929 140.459 229.841 140.459 227.937ZM153.688 232.238C156.408 232.238 157.955 230.198 157.955 227.597C157.955 224.996 156.357 222.973 153.688 222.973C151.002 222.973 149.421 224.996 149.421 227.597C149.421 230.198 150.968 232.238 153.688 232.238ZM156.374 227.92C156.374 229.824 155.167 230.929 153.688 230.929C152.209 230.929 150.985 229.756 150.985 227.92V227.274C150.985 225.421 152.209 224.282 153.688 224.282C155.167 224.282 156.374 225.387 156.374 227.274V227.92ZM161.605 226.849C161.605 225.115 162.727 224.299 163.951 224.299C165.124 224.299 166.127 225.064 166.127 226.645V232H167.691V226.509C167.691 224.197 166.246 222.973 164.41 222.973C163.118 222.973 162.047 223.534 161.537 224.707H161.52V223.211H160.041V232H161.605V226.849ZM173.941 232.238C176.066 232.238 177.494 231.082 177.817 229.45H176.236C176.1 230.215 175.335 231.014 173.975 231.014C172.411 231.014 171.255 229.858 171.255 228.005V227.954H177.987V227.393C177.987 224.894 176.525 222.973 173.89 222.973C171.272 222.973 169.691 224.979 169.691 227.597C169.691 230.198 171.187 232.238 173.941 232.238ZM173.89 224.18C175.318 224.18 176.338 225.132 176.406 226.832H171.272C171.408 225.166 172.53 224.18 173.89 224.18ZM185.275 221.715C185.887 221.715 186.346 221.239 186.346 220.661C186.346 220.049 185.887 219.607 185.275 219.607H185.19C184.561 219.607 184.102 220.049 184.102 220.661C184.102 221.239 184.561 221.715 185.19 221.715H185.275ZM183.031 224.486H184.442V232H186.006V223.211H183.031V224.486ZM190.193 226.849C190.193 225.115 191.315 224.299 192.539 224.299C193.712 224.299 194.715 225.064 194.715 226.645V232H196.279V226.509C196.279 224.197 194.834 222.973 192.998 222.973C191.706 222.973 190.635 223.534 190.125 224.707H190.108V223.211H188.629V232H190.193V226.849ZM202.624 232H204.188V226.628C204.188 225.047 205.191 224.299 206.296 224.299C207.367 224.299 208.285 224.996 208.285 226.424V232H209.849V226.628C209.849 225.047 210.852 224.299 211.974 224.299C213.028 224.299 213.946 224.996 213.946 226.424V232H215.51V226.288C215.51 224.146 214.15 222.973 212.416 222.973C211.158 222.973 210.07 223.568 209.577 224.792H209.56C209.101 223.585 208.047 222.973 206.755 222.973C205.565 222.973 204.579 223.5 204.12 224.554H204.103V223.211H202.624V232ZM217.759 225.659H219.306C219.408 224.724 220.071 224.163 221.329 224.163C222.723 224.163 223.199 224.877 223.199 225.574C223.199 226.254 222.74 226.543 221.839 226.696L220.513 226.917C218.66 227.206 217.436 228.022 217.436 229.637C217.436 231.286 218.711 232.238 220.445 232.238C221.924 232.238 223.012 231.49 223.437 230.402H223.454V230.572C223.437 231.507 223.879 232 224.984 232H225.987V230.742H225.443C225.018 230.742 224.797 230.606 224.797 230.062V225.897C224.797 223.908 223.369 222.973 221.363 222.973C219.153 222.973 217.912 224.078 217.759 225.659ZM223.25 228.345C223.25 229.943 222.213 231.014 220.734 231.014C219.68 231.014 218.966 230.504 218.966 229.586V229.484C218.966 228.634 219.663 228.175 220.785 227.988L222.077 227.767C222.689 227.665 223.08 227.427 223.25 227.189V228.345ZM229.058 226.849C229.058 225.115 230.18 224.299 231.404 224.299C232.577 224.299 233.58 225.064 233.58 226.645V232H235.144V226.509C235.144 224.197 233.699 222.973 231.863 222.973C230.571 222.973 229.5 223.534 228.99 224.707H228.973V223.211H227.494V232H229.058V226.849ZM241.042 232.986L244.85 223.211H243.252L240.719 229.96H240.702L238.101 223.211H236.384L239.869 231.762L239.478 232.765C239.087 233.751 238.815 233.955 237.897 233.955H236.435V235.264H237.948C239.699 235.264 240.413 234.618 241.042 232.986ZM250.171 223.211V235.264H251.735V230.436H251.752C252.296 231.558 253.316 232.238 254.727 232.238C257.158 232.238 258.62 230.215 258.62 227.597C258.62 224.996 257.192 222.973 254.727 222.973C253.248 222.973 252.194 223.687 251.684 224.877H251.667V223.211H250.171ZM257.039 227.274V227.92C257.039 229.807 255.849 230.929 254.387 230.929C252.925 230.929 251.735 229.773 251.735 227.92V227.274C251.735 225.421 252.925 224.265 254.387 224.265C255.849 224.265 257.039 225.37 257.039 227.274ZM260.697 232H262.261V226.9C262.261 225.608 262.737 224.605 264.403 224.605H265.865V223.16H264.692C263.196 223.16 262.482 223.908 262.21 224.69H262.193V223.211H260.697V232ZM270.911 232.238C273.631 232.238 275.178 230.198 275.178 227.597C275.178 224.996 273.58 222.973 270.911 222.973C268.225 222.973 266.644 224.996 266.644 227.597C266.644 230.198 268.191 232.238 270.911 232.238ZM273.597 227.92C273.597 229.824 272.39 230.929 270.911 230.929C269.432 230.929 268.208 229.756 268.208 227.92V227.274C268.208 225.421 269.432 224.282 270.911 224.282C272.39 224.282 273.597 225.387 273.597 227.274V227.92ZM278.115 221.715C278.71 221.715 279.169 221.239 279.169 220.661C279.169 220.049 278.71 219.607 278.115 219.607H278.013C277.401 219.607 276.942 220.049 276.942 220.661C276.942 221.239 277.401 221.715 278.013 221.715H278.115ZM277.282 233.088C277.282 233.734 277.027 233.989 276.381 233.989H274.817V235.281H276.687C278.166 235.281 278.846 234.567 278.846 233.173V223.211H277.282V233.088ZM285.172 232.238C287.297 232.238 288.725 231.082 289.048 229.45H287.467C287.331 230.215 286.566 231.014 285.206 231.014C283.642 231.014 282.486 229.858 282.486 228.005V227.954H289.218V227.393C289.218 224.894 287.756 222.973 285.121 222.973C282.503 222.973 280.922 224.979 280.922 227.597C280.922 230.198 282.418 232.238 285.172 232.238ZM285.121 224.18C286.549 224.18 287.569 225.132 287.637 226.832H282.503C282.639 225.166 283.761 224.18 285.121 224.18ZM292.33 227.274C292.33 225.421 293.503 224.282 294.982 224.282C296.274 224.282 296.988 225.047 297.226 225.948H298.773C298.45 224.163 297.073 222.973 294.999 222.973C292.313 222.973 290.766 224.945 290.766 227.597C290.766 230.232 292.279 232.238 294.999 232.238C297.073 232.238 298.433 231.031 298.773 229.212H297.243C296.988 230.164 296.24 230.929 294.982 230.929C293.503 230.929 292.33 229.773 292.33 227.937V227.274ZM299.787 223.211V224.503H301.793V229.909C301.793 231.303 302.456 232 303.952 232H306.247V230.708H304.241C303.612 230.708 303.357 230.436 303.357 229.807V224.503H306.23V223.211H303.357V220.576H301.793V223.211H299.787ZM307.464 229.433C307.515 231.133 308.96 232.255 311.255 232.255C313.431 232.255 314.961 231.218 314.961 229.501C314.961 228.005 313.89 227.189 312.156 226.951L310.813 226.764C309.81 226.611 309.3 226.237 309.3 225.489C309.3 224.69 310.031 224.129 311.221 224.129C312.445 224.129 313.125 224.707 313.176 225.591H314.757C314.689 224.163 313.482 222.939 311.255 222.939C309.198 222.939 307.736 223.976 307.736 225.608C307.736 227.121 308.773 227.869 310.303 228.09L311.646 228.277C312.717 228.43 313.38 228.787 313.38 229.62C313.38 230.521 312.547 231.065 311.306 231.065C310.031 231.065 309.113 230.538 309.079 229.433H307.464ZM66.037 249.659H67.584C67.686 248.724 68.349 248.163 69.607 248.163C71.001 248.163 71.477 248.877 71.477 249.574C71.477 250.254 71.018 250.543 70.117 250.696L68.791 250.917C66.938 251.206 65.714 252.022 65.714 253.637C65.714 255.286 66.989 256.238 68.723 256.238C70.202 256.238 71.29 255.49 71.715 254.402H71.732V254.572C71.715 255.507 72.157 256 73.262 256H74.265V254.742H73.721C73.296 254.742 73.075 254.606 73.075 254.062V249.897C73.075 247.908 71.647 246.973 69.641 246.973C67.431 246.973 66.19 248.078 66.037 249.659ZM71.528 252.345C71.528 253.943 70.491 255.014 69.012 255.014C67.958 255.014 67.244 254.504 67.244 253.586V253.484C67.244 252.634 67.941 252.175 69.063 251.988L70.355 251.767C70.967 251.665 71.358 251.427 71.528 251.189V252.345ZM76.8255 251.274C76.8255 249.421 77.9985 248.282 79.4775 248.282C80.7695 248.282 81.4835 249.047 81.7215 249.948H83.2685C82.9455 248.163 81.5685 246.973 79.4945 246.973C76.8085 246.973 75.2615 248.945 75.2615 251.597C75.2615 254.232 76.7745 256.238 79.4945 256.238C81.5685 256.238 82.9285 255.031 83.2685 253.212H81.7385C81.4835 254.164 80.7355 254.929 79.4775 254.929C77.9985 254.929 76.8255 253.773 76.8255 251.937V251.274ZM85.268 256H86.832V250.9C86.832 249.608 87.308 248.605 88.974 248.605H90.436V247.16H89.263C87.767 247.16 87.053 247.908 86.781 248.69H86.764V247.211H85.268V256ZM95.4826 256.238C98.2026 256.238 99.7496 254.198 99.7496 251.597C99.7496 248.996 98.1516 246.973 95.4826 246.973C92.7966 246.973 91.2156 248.996 91.2156 251.597C91.2156 254.198 92.7626 256.238 95.4826 256.238ZM98.1686 251.92C98.1686 253.824 96.9616 254.929 95.4826 254.929C94.0036 254.929 92.7796 253.756 92.7796 251.92V251.274C92.7796 249.421 94.0036 248.282 95.4826 248.282C96.9616 248.282 98.1686 249.387 98.1686 251.274V251.92ZM101.156 253.433C101.207 255.133 102.652 256.255 104.947 256.255C107.123 256.255 108.653 255.218 108.653 253.501C108.653 252.005 107.582 251.189 105.848 250.951L104.505 250.764C103.502 250.611 102.992 250.237 102.992 249.489C102.992 248.69 103.723 248.129 104.913 248.129C106.137 248.129 106.817 248.707 106.868 249.591H108.449C108.381 248.163 107.174 246.939 104.947 246.939C102.89 246.939 101.428 247.976 101.428 249.608C101.428 251.121 102.465 251.869 103.995 252.09L105.338 252.277C106.409 252.43 107.072 252.787 107.072 253.62C107.072 254.521 106.239 255.065 104.998 255.065C103.723 255.065 102.805 254.538 102.771 253.433H101.156ZM109.939 253.433C109.99 255.133 111.435 256.255 113.73 256.255C115.906 256.255 117.436 255.218 117.436 253.501C117.436 252.005 116.365 251.189 114.631 250.951L113.288 250.764C112.285 250.611 111.775 250.237 111.775 249.489C111.775 248.69 112.506 248.129 113.696 248.129C114.92 248.129 115.6 248.707 115.651 249.591H117.232C117.164 248.163 115.957 246.939 113.73 246.939C111.673 246.939 110.211 247.976 110.211 249.608C110.211 251.121 111.248 251.869 112.778 252.09L114.121 252.277C115.192 252.43 115.855 252.787 115.855 253.62C115.855 254.521 115.022 255.065 113.781 255.065C112.506 255.065 111.588 254.538 111.554 253.433H109.939ZM122.233 247.211V248.503H124.239V253.909C124.239 255.303 124.902 256 126.398 256H128.693V254.708H126.687C126.058 254.708 125.803 254.436 125.803 253.807V248.503H128.676V247.211H125.803V244.576H124.239V247.211H122.233ZM129.553 247.211L132.426 256.017H134.007L136.132 249.115H136.149L138.308 256.017H139.923L142.677 247.211H141.164L139.141 254.011H139.124L136.982 247.194H135.401L133.31 254.045H133.293L131.202 247.211H129.553ZM147.761 256.238C150.481 256.238 152.028 254.198 152.028 251.597C152.028 248.996 150.43 246.973 147.761 246.973C145.075 246.973 143.494 248.996 143.494 251.597C143.494 254.198 145.041 256.238 147.761 256.238ZM150.447 251.92C150.447 253.824 149.24 254.929 147.761 254.929C146.282 254.929 145.058 253.756 145.058 251.92V251.274C145.058 249.421 146.282 248.282 147.761 248.282C149.24 248.282 150.447 249.387 150.447 251.274V251.92ZM158.97 251.274C158.97 249.421 160.143 248.282 161.622 248.282C162.914 248.282 163.628 249.047 163.866 249.948H165.413C165.09 248.163 163.713 246.973 161.639 246.973C158.953 246.973 157.406 248.945 157.406 251.597C157.406 254.232 158.919 256.238 161.639 256.238C163.713 256.238 165.073 255.031 165.413 253.212H163.883C163.628 254.164 162.88 254.929 161.622 254.929C160.143 254.929 158.97 253.773 158.97 251.937V251.274ZM171.153 256.238C173.873 256.238 175.42 254.198 175.42 251.597C175.42 248.996 173.822 246.973 171.153 246.973C168.467 246.973 166.886 248.996 166.886 251.597C166.886 254.198 168.433 256.238 171.153 256.238ZM173.839 251.92C173.839 253.824 172.632 254.929 171.153 254.929C169.674 254.929 168.45 253.756 168.45 251.92V251.274C168.45 249.421 169.674 248.282 171.153 248.282C172.632 248.282 173.839 249.387 173.839 251.274V251.92ZM177.506 256H179.07V250.9C179.07 249.608 179.546 248.605 181.212 248.605H182.674V247.16H181.501C180.005 247.16 179.291 247.908 179.019 248.69H179.002V247.211H177.506V256ZM187.704 256.238C189.829 256.238 191.257 255.082 191.58 253.45H189.999C189.863 254.215 189.098 255.014 187.738 255.014C186.174 255.014 185.018 253.858 185.018 252.005V251.954H191.75V251.393C191.75 248.894 190.288 246.973 187.653 246.973C185.035 246.973 183.454 248.979 183.454 251.597C183.454 254.198 184.95 256.238 187.704 256.238ZM187.653 248.18C189.081 248.18 190.101 249.132 190.169 250.832H185.035C185.171 249.166 186.293 248.18 187.653 248.18ZM197.372 249.659H198.919C199.021 248.724 199.684 248.163 200.942 248.163C202.336 248.163 202.812 248.877 202.812 249.574C202.812 250.254 202.353 250.543 201.452 250.696L200.126 250.917C198.273 251.206 197.049 252.022 197.049 253.637C197.049 255.286 198.324 256.238 200.058 256.238C201.537 256.238 202.625 255.49 203.05 254.402H203.067V254.572C203.05 255.507 203.492 256 204.597 256H205.6V254.742H205.056C204.631 254.742 204.41 254.606 204.41 254.062V249.897C204.41 247.908 202.982 246.973 200.976 246.973C198.766 246.973 197.525 248.078 197.372 249.659ZM202.863 252.345C202.863 253.943 201.826 255.014 200.347 255.014C199.293 255.014 198.579 254.504 198.579 253.586V253.484C198.579 252.634 199.276 252.175 200.398 251.988L201.69 251.767C202.302 251.665 202.693 251.427 202.863 251.189V252.345ZM207.107 256H208.671V250.9C208.671 249.608 209.147 248.605 210.813 248.605H212.275V247.16H211.102C209.606 247.16 208.892 247.908 208.62 248.69H208.603V247.211H207.107V256ZM217.304 256.238C219.429 256.238 220.857 255.082 221.18 253.45H219.599C219.463 254.215 218.698 255.014 217.338 255.014C215.774 255.014 214.618 253.858 214.618 252.005V251.954H221.35V251.393C221.35 248.894 219.888 246.973 217.253 246.973C214.635 246.973 213.054 248.979 213.054 251.597C213.054 254.198 214.55 256.238 217.304 256.238ZM217.253 248.18C218.681 248.18 219.701 249.132 219.769 250.832H214.635C214.771 249.166 215.893 248.18 217.253 248.18ZM223.187 249.659H224.734C224.836 248.724 225.499 248.163 226.757 248.163C228.151 248.163 228.627 248.877 228.627 249.574C228.627 250.254 228.168 250.543 227.267 250.696L225.941 250.917C224.088 251.206 222.864 252.022 222.864 253.637C222.864 255.286 224.139 256.238 225.873 256.238C227.352 256.238 228.44 255.49 228.865 254.402H228.882V254.572C228.865 255.507 229.307 256 230.412 256H231.415V254.742H230.871C230.446 254.742 230.225 254.606 230.225 254.062V249.897C230.225 247.908 228.797 246.973 226.791 246.973C224.581 246.973 223.34 248.078 223.187 249.659ZM228.678 252.345C228.678 253.943 227.641 255.014 226.162 255.014C225.108 255.014 224.394 254.504 224.394 253.586V253.484C224.394 252.634 225.091 252.175 226.213 251.988L227.505 251.767C228.117 251.665 228.508 251.427 228.678 251.189V252.345ZM232.309 253.433C232.36 255.133 233.805 256.255 236.1 256.255C238.276 256.255 239.806 255.218 239.806 253.501C239.806 252.005 238.735 251.189 237.001 250.951L235.658 250.764C234.655 250.611 234.145 250.237 234.145 249.489C234.145 248.69 234.876 248.129 236.066 248.129C237.29 248.129 237.97 248.707 238.021 249.591H239.602C239.534 248.163 238.327 246.939 236.1 246.939C234.043 246.939 232.581 247.976 232.581 249.608C232.581 251.121 233.618 251.869 235.148 252.09L236.491 252.277C237.562 252.43 238.225 252.787 238.225 253.62C238.225 254.521 237.392 255.065 236.151 255.065C234.876 255.065 233.958 254.538 233.924 253.433H232.309ZM249.329 256.238C252.049 256.238 253.596 254.198 253.596 251.597C253.596 248.996 251.998 246.973 249.329 246.973C246.643 246.973 245.062 248.996 245.062 251.597C245.062 254.198 246.609 256.238 249.329 256.238ZM252.015 251.92C252.015 253.824 250.808 254.929 249.329 254.929C247.85 254.929 246.626 253.756 246.626 251.92V251.274C246.626 249.421 247.85 248.282 249.329 248.282C250.808 248.282 252.015 249.387 252.015 251.274V251.92ZM256.42 256H257.984V248.503H261.027V247.211H257.967V245.511C257.967 244.882 258.222 244.627 258.851 244.627H261.044V243.369H258.579C257.083 243.369 256.42 244.066 256.42 245.46V247.211H254.431V248.503H256.42V256ZM265.728 253.433C265.779 255.133 267.224 256.255 269.519 256.255C271.695 256.255 273.225 255.218 273.225 253.501C273.225 252.005 272.154 251.189 270.42 250.951L269.077 250.764C268.074 250.611 267.564 250.237 267.564 249.489C267.564 248.69 268.295 248.129 269.485 248.129C270.709 248.129 271.389 248.707 271.44 249.591H273.021C272.953 248.163 271.746 246.939 269.519 246.939C267.462 246.939 266 247.976 266 249.608C266 251.121 267.037 251.869 268.567 252.09L269.91 252.277C270.981 252.43 271.644 252.787 271.644 253.62C271.644 254.521 270.811 255.065 269.57 255.065C268.295 255.065 267.377 254.538 267.343 253.433H265.728ZM278.929 256.238C281.054 256.238 282.482 255.082 282.805 253.45H281.224C281.088 254.215 280.323 255.014 278.963 255.014C277.399 255.014 276.243 253.858 276.243 252.005V251.954H282.975V251.393C282.975 248.894 281.513 246.973 278.878 246.973C276.26 246.973 274.679 248.979 274.679 251.597C274.679 254.198 276.175 256.238 278.929 256.238ZM278.878 248.18C280.306 248.18 281.326 249.132 281.394 250.832H276.26C276.396 249.166 277.518 248.18 278.878 248.18ZM286.615 250.849C286.615 249.115 287.737 248.299 288.961 248.299C290.134 248.299 291.137 249.064 291.137 250.645V256H292.701V250.509C292.701 248.197 291.256 246.973 289.42 246.973C288.128 246.973 287.057 247.534 286.547 248.707H286.53V247.211H285.051V256H286.615V250.849ZM303.15 256V243.386H301.586V248.775H301.569C301.025 247.653 300.005 246.973 298.577 246.973C296.163 246.973 294.701 248.996 294.701 251.597C294.701 254.215 296.129 256.238 298.577 256.238C300.073 256.238 301.11 255.507 301.637 254.334H301.654V256H303.15ZM296.265 251.937V251.291C296.265 249.387 297.472 248.282 298.917 248.282C300.379 248.282 301.586 249.421 301.586 251.291V251.937C301.586 253.773 300.379 254.929 298.917 254.929C297.472 254.929 296.265 253.841 296.265 251.937ZM307.147 245.715C307.759 245.715 308.218 245.239 308.218 244.661C308.218 244.049 307.759 243.607 307.147 243.607H307.062C306.433 243.607 305.974 244.049 305.974 244.661C305.974 245.239 306.433 245.715 307.062 245.715H307.147ZM304.903 248.486H306.314V256H307.878V247.211H304.903V248.486ZM312.065 250.849C312.065 249.115 313.187 248.299 314.411 248.299C315.584 248.299 316.587 249.064 316.587 250.645V256H318.151V250.509C318.151 248.197 316.706 246.973 314.87 246.973C313.578 246.973 312.507 247.534 311.997 248.707H311.98V247.211H310.501V256H312.065V250.849ZM320.423 256.748C320.661 258.244 321.97 259.502 324.282 259.502C326.968 259.502 328.498 258.006 328.498 255.337V247.211H327.002V248.792H326.985C326.475 247.67 325.472 246.973 323.976 246.973C321.562 246.973 320.151 248.894 320.151 251.342C320.151 253.824 321.596 255.745 323.976 255.745C325.404 255.745 326.373 255.082 326.917 253.994H326.934V255.422C326.934 257.224 326.101 258.261 324.282 258.261C322.82 258.261 322.157 257.462 322.004 256.748H320.423ZM321.715 251.138C321.715 249.319 322.905 248.282 324.333 248.282C325.761 248.282 326.934 249.37 326.934 251.138V251.58C326.934 253.365 325.761 254.453 324.333 254.453C322.905 254.453 321.715 253.399 321.715 251.58V251.138ZM66.037 273.659H67.584C67.686 272.724 68.349 272.163 69.607 272.163C71.001 272.163 71.477 272.877 71.477 273.574C71.477 274.254 71.018 274.543 70.117 274.696L68.791 274.917C66.938 275.206 65.714 276.022 65.714 277.637C65.714 279.286 66.989 280.238 68.723 280.238C70.202 280.238 71.29 279.49 71.715 278.402H71.732V278.572C71.715 279.507 72.157 280 73.262 280H74.265V278.742H73.721C73.296 278.742 73.075 278.606 73.075 278.062V273.897C73.075 271.908 71.647 270.973 69.641 270.973C67.431 270.973 66.19 272.078 66.037 273.659ZM71.528 276.345C71.528 277.943 70.491 279.014 69.012 279.014C67.958 279.014 67.244 278.504 67.244 277.586V277.484C67.244 276.634 67.941 276.175 69.063 275.988L70.355 275.767C70.967 275.665 71.358 275.427 71.528 275.189V276.345ZM77.3359 274.849C77.3359 273.115 78.4579 272.299 79.6819 272.299C80.8549 272.299 81.8579 273.064 81.8579 274.645V280H83.4219V274.509C83.4219 272.197 81.9769 270.973 80.1409 270.973C78.8489 270.973 77.7779 271.534 77.2679 272.707H77.2509V271.211H75.7719V280H77.3359V274.849ZM93.8706 280V267.386H92.3066V272.775H92.2896C91.7456 271.653 90.7256 270.973 89.2976 270.973C86.8836 270.973 85.4216 272.996 85.4216 275.597C85.4216 278.215 86.8496 280.238 89.2976 280.238C90.7936 280.238 91.8306 279.507 92.3576 278.334H92.3746V280H93.8706ZM86.9856 275.937V275.291C86.9856 273.387 88.1926 272.282 89.6376 272.282C91.0996 272.282 92.3066 273.421 92.3066 275.291V275.937C92.3066 277.773 91.0996 278.929 89.6376 278.929C88.1926 278.929 86.9856 277.841 86.9856 275.937ZM99.6124 277.433C99.6634 279.133 101.108 280.255 103.403 280.255C105.579 280.255 107.109 279.218 107.109 277.501C107.109 276.005 106.038 275.189 104.304 274.951L102.961 274.764C101.958 274.611 101.448 274.237 101.448 273.489C101.448 272.69 102.179 272.129 103.369 272.129C104.593 272.129 105.273 272.707 105.324 273.591H106.905C106.837 272.163 105.63 270.939 103.403 270.939C101.346 270.939 99.8844 271.976 99.8844 273.608C99.8844 275.121 100.921 275.869 102.451 276.09L103.794 276.277C104.865 276.43 105.528 276.787 105.528 277.62C105.528 278.521 104.695 279.065 103.454 279.065C102.179 279.065 101.261 278.538 101.227 277.433H99.6124ZM109.075 271.211V283.264H110.639V278.436H110.656C111.2 279.558 112.22 280.238 113.631 280.238C116.062 280.238 117.524 278.215 117.524 275.597C117.524 272.996 116.096 270.973 113.631 270.973C112.152 270.973 111.098 271.687 110.588 272.877H110.571V271.211H109.075ZM115.943 275.274V275.92C115.943 277.807 114.753 278.929 113.291 278.929C111.829 278.929 110.639 277.773 110.639 275.92V275.274C110.639 273.421 111.829 272.265 113.291 272.265C114.753 272.265 115.943 273.37 115.943 275.274ZM123.323 280.238C125.448 280.238 126.876 279.082 127.199 277.45H125.618C125.482 278.215 124.717 279.014 123.357 279.014C121.793 279.014 120.637 277.858 120.637 276.005V275.954H127.369V275.393C127.369 272.894 125.907 270.973 123.272 270.973C120.654 270.973 119.073 272.979 119.073 275.597C119.073 278.198 120.569 280.238 123.323 280.238ZM123.272 272.18C124.7 272.18 125.72 273.132 125.788 274.832H120.654C120.79 273.166 121.912 272.18 123.272 272.18ZM131.009 274.849C131.009 273.115 132.131 272.299 133.355 272.299C134.528 272.299 135.531 273.064 135.531 274.645V280H137.095V274.509C137.095 272.197 135.65 270.973 133.814 270.973C132.522 270.973 131.451 271.534 130.941 272.707H130.924V271.211H129.445V280H131.009V274.849ZM147.544 280V267.386H145.98V272.775H145.963C145.419 271.653 144.399 270.973 142.971 270.973C140.556 270.973 139.095 272.996 139.095 275.597C139.095 278.215 140.523 280.238 142.971 280.238C144.467 280.238 145.504 279.507 146.031 278.334H146.048V280H147.544ZM140.659 275.937V275.291C140.659 273.387 141.866 272.282 143.31 272.282C144.773 272.282 145.98 273.421 145.98 275.291V275.937C145.98 277.773 144.773 278.929 143.31 278.929C141.866 278.929 140.659 277.841 140.659 275.937ZM151.541 269.715C152.153 269.715 152.612 269.239 152.612 268.661C152.612 268.049 152.153 267.607 151.541 267.607H151.456C150.827 267.607 150.368 268.049 150.368 268.661C150.368 269.239 150.827 269.715 151.456 269.715H151.541ZM149.297 272.486H150.708V280H152.272V271.211H149.297V272.486ZM156.459 274.849C156.459 273.115 157.581 272.299 158.805 272.299C159.978 272.299 160.981 273.064 160.981 274.645V280H162.545V274.509C162.545 272.197 161.1 270.973 159.264 270.973C157.972 270.973 156.901 271.534 156.391 272.707H156.374V271.211H154.895V280H156.459V274.849ZM164.817 280.748C165.055 282.244 166.364 283.502 168.676 283.502C171.362 283.502 172.892 282.006 172.892 279.337V271.211H171.396V272.792H171.379C170.869 271.67 169.866 270.973 168.37 270.973C165.956 270.973 164.545 272.894 164.545 275.342C164.545 277.824 165.99 279.745 168.37 279.745C169.798 279.745 170.767 279.082 171.311 277.994H171.328V279.422C171.328 281.224 170.495 282.261 168.676 282.261C167.214 282.261 166.551 281.462 166.398 280.748H164.817ZM166.109 275.138C166.109 273.319 167.299 272.282 168.727 272.282C170.155 272.282 171.328 273.37 171.328 275.138V275.58C171.328 277.365 170.155 278.453 168.727 278.453C167.299 278.453 166.109 277.399 166.109 275.58V275.138Z" fill="white"/>
<rect x="376" width="376" height="423" fill="white"/>
<path d="M445.185 52.141C435.913 52.141 430.118 58.119 430.118 67.818V81.055C430.118 90.998 435.974 96.854 445.185 96.854C454.457 96.854 460.191 90.998 460.191 81.055V67.818C460.191 58.119 454.518 52.141 445.185 52.141ZM445.185 91.791C439.268 91.791 435.852 87.704 435.852 81.055V67.879C435.852 61.352 439.268 57.204 445.185 57.204C451.102 57.204 454.457 61.352 454.457 67.879V81.055C454.457 87.704 451.041 91.791 445.185 91.791ZM463.308 96H469.591L478.436 83.8H478.497L487.342 96H493.869L481.974 79.774L493.32 64.463H486.976L478.68 75.809H478.619L470.384 64.463H463.857L475.142 79.896L463.308 96ZM497.81 96H503.178V90.022H503.239C505.13 94.231 508.851 96.854 514.158 96.854C523.003 96.854 528.127 89.595 528.127 80.201C528.127 70.868 522.881 63.609 514.158 63.609C509.095 63.609 505.435 66.049 503.483 70.075H503.422V50.738H497.81V96ZM522.454 81.421C522.454 88.253 518.184 92.157 512.938 92.157C507.692 92.157 503.422 88.009 503.422 81.421V79.103C503.422 72.393 507.692 68.306 512.938 68.306C518.184 68.306 522.454 72.271 522.454 79.103V81.421ZM537.518 79.042C537.518 72.393 541.727 68.306 547.095 68.306C551.731 68.306 554.293 71.051 555.086 74.284H560.637C559.539 67.879 554.598 63.609 547.095 63.609C537.457 63.609 531.906 70.685 531.906 80.201C531.906 89.656 537.335 96.854 547.095 96.854C554.537 96.854 559.417 92.523 560.698 85.996H555.147C554.293 89.412 551.609 92.157 547.095 92.157C541.727 92.157 537.518 88.009 537.518 81.421V79.042ZM565.898 96H571.266V90.022H571.327C573.218 94.231 576.939 96.854 582.246 96.854C591.091 96.854 596.215 89.595 596.215 80.201C596.215 70.868 590.969 63.609 582.246 63.609C577.183 63.609 573.523 66.049 571.571 70.075H571.51V50.738H565.898V96ZM590.542 81.421C590.542 88.253 586.272 92.157 581.026 92.157C575.78 92.157 571.51 88.009 571.51 81.421V79.103C571.51 72.393 575.78 68.306 581.026 68.306C586.272 68.306 590.542 72.271 590.542 79.103V81.421ZM630.861 81.909C630.861 73.247 624.883 67.269 617.075 67.269C614.269 67.269 612.317 68.062 610.67 69.343H610.609L622.565 53.056H616.038L605.058 68.428C601.703 73.064 600.239 76.968 600.239 81.665C600.239 90.266 606.522 96.854 615.428 96.854C624.517 96.854 630.861 90.449 630.861 81.909ZM605.973 81.482C605.973 76.053 609.877 71.783 615.611 71.783C621.955 71.783 625.127 76.175 625.127 81.482V82.214C625.127 87.582 621.711 92.218 615.611 92.218C609.633 92.218 605.973 87.399 605.973 82.214V81.482ZM640.277 79.042C640.277 72.393 644.486 68.306 649.854 68.306C654.49 68.306 657.052 71.051 657.845 74.284H663.396C662.298 67.879 657.357 63.609 649.854 63.609C640.216 63.609 634.665 70.685 634.665 80.201C634.665 89.656 640.094 96.854 649.854 96.854C657.296 96.854 662.176 92.523 663.457 85.996H657.906C657.052 89.412 654.368 92.157 649.854 92.157C644.486 92.157 640.277 88.009 640.277 81.421V79.042ZM682.87 52.141C673.598 52.141 667.803 58.119 667.803 67.818V81.055C667.803 90.998 673.659 96.854 682.87 96.854C692.142 96.854 697.876 90.998 697.876 81.055V67.818C697.876 58.119 692.203 52.141 682.87 52.141ZM682.87 91.791C676.953 91.791 673.537 87.704 673.537 81.055V67.879C673.537 61.352 676.953 57.204 682.87 57.204C688.787 57.204 692.142 61.352 692.142 67.879V81.055C692.142 87.704 688.726 91.791 682.87 91.791ZM426.602 145.029H431.726C433.251 141.552 436.179 139.478 440.327 139.478C446.305 139.478 449.05 143.748 449.05 149.299V149.97C449.05 155.582 446 160.096 439.778 160.096C434.227 160.096 431.116 156.497 430.811 152.349H425.016C425.565 159.73 431.238 164.854 439.656 164.854C449.233 164.854 454.906 158.266 454.906 149.604C454.906 141.003 449.965 134.842 441.608 134.842C437.582 134.842 433.861 136.245 431.787 140.149H431.726V125.875H452.588V121.056H426.602V145.029ZM474.095 164.854C481.659 164.854 486.783 160.706 487.942 154.85H482.269C481.781 157.595 479.036 160.462 474.156 160.462C468.605 160.462 464.457 156.314 464.457 149.665V149.482H488.552V147.225C488.552 138.38 483.306 131.609 474.034 131.609C464.457 131.609 458.784 138.807 458.784 148.201C458.784 157.534 464.152 164.854 474.095 164.854ZM474.034 135.94C479.097 135.94 482.757 139.417 482.879 145.456H464.518C465.006 139.478 469.032 135.94 474.034 135.94ZM507.633 164.854C515.197 164.854 520.321 160.706 521.48 154.85H515.807C515.319 157.595 512.574 160.462 507.694 160.462C502.143 160.462 497.995 156.314 497.995 149.665V149.482H522.09V147.225C522.09 138.38 516.844 131.609 507.572 131.609C497.995 131.609 492.322 138.807 492.322 148.201C492.322 157.534 497.69 164.854 507.633 164.854ZM507.572 135.94C512.635 135.94 516.295 139.417 516.417 145.456H498.056C498.544 139.478 502.57 135.94 507.572 135.94ZM535.753 164H541.487V121.056H535.753V128.498H525.2V133.256H535.753V164ZM578.396 164V118.738H572.784V138.075H572.723C570.771 134.049 567.111 131.609 561.987 131.609C553.325 131.609 548.079 138.868 548.079 148.201C548.079 157.595 553.203 164.854 561.987 164.854C567.355 164.854 571.076 162.231 572.967 158.022H573.028V164H578.396ZM553.752 149.421V147.103C553.752 140.271 558.022 136.306 563.268 136.306C568.453 136.306 572.784 140.393 572.784 147.103V149.421C572.784 156.009 568.453 160.157 563.268 160.157C558.022 160.157 553.752 156.253 553.752 149.421ZM584.677 141.247H590.228C590.533 137.892 592.973 135.879 597.487 135.879C602.489 135.879 604.197 138.441 604.197 140.942C604.197 143.382 602.55 144.419 599.317 144.968L594.559 145.761C587.91 146.798 583.518 149.726 583.518 155.521C583.518 161.438 588.093 164.854 594.315 164.854C599.622 164.854 603.526 162.17 605.051 158.266H605.112V158.876C605.051 162.231 606.637 164 610.602 164H614.201V159.486H612.249C610.724 159.486 609.931 158.998 609.931 157.046V142.101C609.931 134.964 604.807 131.609 597.609 131.609C589.679 131.609 585.226 135.574 584.677 141.247ZM604.38 150.885C604.38 156.619 600.659 160.462 595.352 160.462C591.57 160.462 589.008 158.632 589.008 155.338V154.972C589.008 151.922 591.509 150.275 595.535 149.604L600.171 148.811C602.367 148.445 603.77 147.591 604.38 146.737V150.885ZM624.811 164H630.545V121.056H624.811V128.498H614.258V133.256H624.811V164ZM659.341 141.308C664.099 140.21 667.088 136.428 667.088 131.731C667.088 124.96 661.354 120.141 652.936 120.141C644.457 120.141 638.723 124.96 638.723 131.731C638.723 136.428 641.712 140.21 646.47 141.308V141.369C641.346 142.467 637.503 146.432 637.503 152.41C637.503 159.608 643.664 164.854 652.936 164.854C662.147 164.854 668.308 159.608 668.308 152.41C668.308 146.432 664.465 142.467 659.341 141.369V141.308ZM644.274 131.792C644.274 127.766 647.69 124.777 652.936 124.777C658.121 124.777 661.537 127.766 661.537 131.792V132.402C661.537 136.245 657.999 139.356 652.936 139.356C647.812 139.356 644.274 136.245 644.274 132.402V131.792ZM643.237 151.556C643.237 147.103 646.958 143.626 652.936 143.626C658.853 143.626 662.574 147.103 662.574 151.556V152.288C662.574 156.863 658.792 160.279 652.936 160.279C647.08 160.279 643.237 156.863 643.237 152.288V151.556ZM703.328 149.909C703.328 141.247 697.35 135.269 689.542 135.269C686.736 135.269 684.784 136.062 683.137 137.343H683.076L695.032 121.056H688.505L677.525 136.428C674.17 141.064 672.706 144.968 672.706 149.665C672.706 158.266 678.989 164.854 687.895 164.854C696.984 164.854 703.328 158.449 703.328 149.909ZM678.44 149.482C678.44 144.053 682.344 139.783 688.078 139.783C694.422 139.783 697.594 144.175 697.594 149.482V150.214C697.594 155.582 694.178 160.218 688.078 160.218C682.1 160.218 678.44 155.399 678.44 150.214V149.482ZM433.184 213.029H438.308C439.833 209.552 442.761 207.478 446.909 207.478C452.887 207.478 455.632 211.748 455.632 217.299V217.97C455.632 223.582 452.582 228.096 446.36 228.096C440.809 228.096 437.698 224.497 437.393 220.349H431.598C432.147 227.73 437.82 232.854 446.238 232.854C455.815 232.854 461.488 226.266 461.488 217.604C461.488 209.003 456.547 202.842 448.19 202.842C444.164 202.842 440.443 204.245 438.369 208.149H438.308V193.875H459.17V189.056H433.184V213.029ZM470.978 215.042C470.978 208.393 475.187 204.306 480.555 204.306C485.191 204.306 487.753 207.051 488.546 210.284H494.097C492.999 203.879 488.058 199.609 480.555 199.609C470.917 199.609 465.366 206.685 465.366 216.201C465.366 225.656 470.795 232.854 480.555 232.854C487.997 232.854 492.877 228.523 494.158 221.996H488.607C487.753 225.412 485.069 228.157 480.555 228.157C475.187 228.157 470.978 224.009 470.978 217.421V215.042ZM513.083 232.854C520.647 232.854 525.771 228.706 526.93 222.85H521.257C520.769 225.595 518.024 228.462 513.144 228.462C507.593 228.462 503.445 224.314 503.445 217.665V217.482H527.54V215.225C527.54 206.38 522.294 199.609 513.022 199.609C503.445 199.609 497.772 206.807 497.772 216.201C497.772 225.534 503.14 232.854 513.083 232.854ZM513.022 203.94C518.085 203.94 521.745 207.417 521.867 213.456H503.506C503.994 207.478 508.02 203.94 513.022 203.94ZM547.109 188.141C537.837 188.141 532.042 194.119 532.042 203.818V217.055C532.042 226.998 537.898 232.854 547.109 232.854C556.381 232.854 562.115 226.998 562.115 217.055V203.818C562.115 194.119 556.442 188.141 547.109 188.141ZM547.109 227.791C541.192 227.791 537.776 223.704 537.776 217.055V203.879C537.776 197.352 541.192 193.204 547.109 193.204C553.026 193.204 556.381 197.352 556.381 203.879V217.055C556.381 223.704 552.965 227.791 547.109 227.791ZM567.931 232H574.031L593.856 193.814V189.056H565.125V193.936H587.817L567.931 232ZM598.424 232H603.792V226.022H603.853C605.744 230.231 609.465 232.854 614.772 232.854C623.617 232.854 628.741 225.595 628.741 216.201C628.741 206.868 623.495 199.609 614.772 199.609C609.709 199.609 606.049 202.049 604.097 206.075H604.036V186.738H598.424V232ZM623.068 217.421C623.068 224.253 618.798 228.157 613.552 228.157C608.306 228.157 604.036 224.009 604.036 217.421V215.103C604.036 208.393 608.306 204.306 613.552 204.306C618.798 204.306 623.068 208.271 623.068 215.103V217.421ZM632.947 232H661.312V227.12H638.559V226.754C638.559 223.399 640.206 221.325 643.866 218.702L652.284 213.029C658.506 208.82 660.519 204.916 660.519 200.158C660.519 193.326 655.273 188.141 646.916 188.141C638.925 188.141 633.069 193.021 632.947 201.256H638.559C638.62 195.888 641.853 192.838 646.916 192.838C652.162 192.838 654.724 196.01 654.724 199.975V200.768C654.724 203.452 653.626 205.953 649.295 208.942L641.365 214.249C635.57 218.092 632.947 221.569 632.947 226.937V232ZM687.428 209.308C692.186 208.21 695.175 204.428 695.175 199.731C695.175 192.96 689.441 188.141 681.023 188.141C672.544 188.141 666.81 192.96 666.81 199.731C666.81 204.428 669.799 208.21 674.557 209.308V209.369C669.433 210.467 665.59 214.432 665.59 220.41C665.59 227.608 671.751 232.854 681.023 232.854C690.234 232.854 696.395 227.608 696.395 220.41C696.395 214.432 692.552 210.467 687.428 209.369V209.308ZM672.361 199.792C672.361 195.766 675.777 192.777 681.023 192.777C686.208 192.777 689.624 195.766 689.624 199.792V200.402C689.624 204.245 686.086 207.356 681.023 207.356C675.899 207.356 672.361 204.245 672.361 200.402V199.792ZM671.324 219.556C671.324 215.103 675.045 211.626 681.023 211.626C686.94 211.626 690.661 215.103 690.661 219.556V220.288C690.661 224.863 686.879 228.279 681.023 228.279C675.167 228.279 671.324 224.863 671.324 220.288V219.556ZM431.833 300H437.567V257.056H431.833V264.498H421.28V269.256H431.833V300ZM459.958 256.141C450.686 256.141 444.891 262.119 444.891 271.818V285.055C444.891 294.998 450.747 300.854 459.958 300.854C469.23 300.854 474.964 294.998 474.964 285.055V271.818C474.964 262.119 469.291 256.141 459.958 256.141ZM459.958 295.791C454.041 295.791 450.625 291.704 450.625 285.055V271.879C450.625 265.352 454.041 261.204 459.958 261.204C465.875 261.204 469.23 265.352 469.23 271.879V285.055C469.23 291.704 465.814 295.791 459.958 295.791ZM485.096 283.042C485.096 276.393 489.305 272.306 494.673 272.306C499.309 272.306 501.871 275.051 502.664 278.284H508.215C507.117 271.879 502.176 267.609 494.673 267.609C485.035 267.609 479.484 274.685 479.484 284.201C479.484 293.656 484.913 300.854 494.673 300.854C502.115 300.854 506.995 296.523 508.276 289.996H502.725C501.871 293.412 499.187 296.157 494.673 296.157C489.305 296.157 485.096 292.009 485.096 285.421V283.042ZM542.208 300V254.738H536.596V274.075H536.535C534.583 270.049 530.923 267.609 525.799 267.609C517.137 267.609 511.891 274.868 511.891 284.201C511.891 293.595 517.015 300.854 525.799 300.854C531.167 300.854 534.888 298.231 536.779 294.022H536.84V300H542.208ZM517.564 285.421V283.103C517.564 276.271 521.834 272.306 527.08 272.306C532.265 272.306 536.596 276.393 536.596 283.103V285.421C536.596 292.009 532.265 296.157 527.08 296.157C521.834 296.157 517.564 292.253 517.564 285.421ZM549.525 281.029H554.649C556.174 277.552 559.102 275.478 563.25 275.478C569.228 275.478 571.973 279.748 571.973 285.299V285.97C571.973 291.582 568.923 296.096 562.701 296.096C557.15 296.096 554.039 292.497 553.734 288.349H547.939C548.488 295.73 554.161 300.854 562.579 300.854C572.156 300.854 577.829 294.266 577.829 285.604C577.829 277.003 572.888 270.842 564.531 270.842C560.505 270.842 556.784 272.245 554.71 276.149H554.649V261.875H575.511V257.056H549.525V281.029ZM597.506 256.141C588.234 256.141 582.439 262.119 582.439 271.818V285.055C582.439 294.998 588.295 300.854 597.506 300.854C606.778 300.854 612.512 294.998 612.512 285.055V271.818C612.512 262.119 606.839 256.141 597.506 256.141ZM597.506 295.791C591.589 295.791 588.173 291.704 588.173 285.055V271.879C588.173 265.352 591.589 261.204 597.506 261.204C603.423 261.204 606.778 265.352 606.778 271.879V285.055C606.778 291.704 603.362 295.791 597.506 295.791ZM647.898 285.909C647.898 277.247 641.92 271.269 634.112 271.269C631.306 271.269 629.354 272.062 627.707 273.343H627.646L639.602 257.056H633.075L622.095 272.428C618.74 277.064 617.276 280.968 617.276 285.665C617.276 294.266 623.559 300.854 632.465 300.854C641.554 300.854 647.898 294.449 647.898 285.909ZM623.01 285.482C623.01 280.053 626.914 275.783 632.648 275.783C638.992 275.783 642.164 280.175 642.164 285.482V286.214C642.164 291.582 638.748 296.218 632.648 296.218C626.67 296.218 623.01 291.399 623.01 286.214V285.482ZM651.95 300H680.315V295.12H657.562V294.754C657.562 291.399 659.209 289.325 662.869 286.702L671.287 281.029C677.509 276.82 679.522 272.916 679.522 268.158C679.522 261.326 674.276 256.141 665.919 256.141C657.928 256.141 652.072 261.021 651.95 269.256H657.562C657.623 263.888 660.856 260.838 665.919 260.838C671.165 260.838 673.727 264.01 673.727 267.975V268.768C673.727 271.452 672.629 273.953 668.298 276.942L660.368 282.249C654.573 286.092 651.95 289.569 651.95 294.937V300ZM690.92 300H696.532V273.099H707.512V268.463H696.532V262.363C696.532 260.106 697.386 259.191 699.704 259.191H707.573V254.677H698.667C693.36 254.677 690.92 257.178 690.92 262.18V268.463H683.783V273.099H690.92V300ZM437.644 368H443.012V362.022H443.073C444.964 366.231 448.685 368.854 453.992 368.854C462.837 368.854 467.961 361.595 467.961 352.201C467.961 342.868 462.715 335.609 453.992 335.609C448.929 335.609 445.269 338.049 443.317 342.075H443.256V322.738H437.644V368ZM462.288 353.421C462.288 360.253 458.018 364.157 452.772 364.157C447.526 364.157 443.256 360.009 443.256 353.421V351.103C443.256 344.393 447.526 340.306 452.772 340.306C458.018 340.306 462.288 344.271 462.288 351.103V353.421ZM473.692 349.029H478.816C480.341 345.552 483.269 343.478 487.417 343.478C493.395 343.478 496.14 347.748 496.14 353.299V353.97C496.14 359.582 493.09 364.096 486.868 364.096C481.317 364.096 478.206 360.497 477.901 356.349H472.106C472.655 363.73 478.328 368.854 486.746 368.854C496.323 368.854 501.996 362.266 501.996 353.604C501.996 345.003 497.055 338.842 488.698 338.842C484.672 338.842 480.951 340.245 478.877 344.149H478.816V329.875H499.678V325.056H473.692V349.029ZM516.244 368H521.978V325.056H516.244V332.498H505.691V337.256H516.244V368ZM559.436 353.909C559.436 345.247 553.458 339.269 545.65 339.269C542.844 339.269 540.892 340.062 539.245 341.343H539.184L551.14 325.056H544.613L533.633 340.428C530.278 345.064 528.814 348.968 528.814 353.665C528.814 362.266 535.097 368.854 544.003 368.854C553.092 368.854 559.436 362.449 559.436 353.909ZM534.548 353.482C534.548 348.053 538.452 343.783 544.186 343.783C550.53 343.783 553.702 348.175 553.702 353.482V354.214C553.702 359.582 550.286 364.218 544.186 364.218C538.208 364.218 534.548 359.399 534.548 354.214V353.482ZM585.444 345.308C590.202 344.21 593.191 340.428 593.191 335.731C593.191 328.96 587.457 324.141 579.039 324.141C570.56 324.141 564.826 328.96 564.826 335.731C564.826 340.428 567.815 344.21 572.573 345.308V345.369C567.449 346.467 563.606 350.432 563.606 356.41C563.606 363.608 569.767 368.854 579.039 368.854C588.25 368.854 594.411 363.608 594.411 356.41C594.411 350.432 590.568 346.467 585.444 345.369V345.308ZM570.377 335.792C570.377 331.766 573.793 328.777 579.039 328.777C584.224 328.777 587.64 331.766 587.64 335.792V336.402C587.64 340.245 584.102 343.356 579.039 343.356C573.915 343.356 570.377 340.245 570.377 336.402V335.792ZM569.34 355.556C569.34 351.103 573.061 347.626 579.039 347.626C584.956 347.626 588.677 351.103 588.677 355.556V356.288C588.677 360.863 584.895 364.279 579.039 364.279C573.183 364.279 569.34 360.863 569.34 356.288V355.556ZM604.177 351.042C604.177 344.393 608.386 340.306 613.754 340.306C618.39 340.306 620.952 343.051 621.745 346.284H627.296C626.198 339.879 621.257 335.609 613.754 335.609C604.116 335.609 598.565 342.685 598.565 352.201C598.565 361.656 603.994 368.854 613.754 368.854C621.196 368.854 626.076 364.523 627.357 357.996H621.806C620.952 361.412 618.268 364.157 613.754 364.157C608.386 364.157 604.177 360.009 604.177 353.421V351.042ZM631.827 345.247H637.378C637.683 341.892 640.123 339.879 644.637 339.879C649.639 339.879 651.347 342.441 651.347 344.942C651.347 347.382 649.7 348.419 646.467 348.968L641.709 349.761C635.06 350.798 630.668 353.726 630.668 359.521C630.668 365.438 635.243 368.854 641.465 368.854C646.772 368.854 650.676 366.17 652.201 362.266H652.262V362.876C652.201 366.231 653.787 368 657.752 368H661.351V363.486H659.399C657.874 363.486 657.081 362.998 657.081 361.046V346.101C657.081 338.964 651.957 335.609 644.759 335.609C636.829 335.609 632.376 339.574 631.827 345.247ZM651.53 354.885C651.53 360.619 647.809 364.462 642.502 364.462C638.72 364.462 636.158 362.632 636.158 359.338V358.972C636.158 355.922 638.659 354.275 642.685 353.604L647.321 352.811C649.517 352.445 650.92 351.591 651.53 350.737V354.885ZM668.93 351.042C668.93 344.393 673.139 340.306 678.507 340.306C683.143 340.306 685.705 343.051 686.498 346.284H692.049C690.951 339.879 686.01 335.609 678.507 335.609C668.869 335.609 663.318 342.685 663.318 352.201C663.318 361.656 668.747 368.854 678.507 368.854C685.949 368.854 690.829 364.523 692.11 357.996H686.559C685.705 361.412 683.021 364.157 678.507 364.157C673.139 364.157 668.93 360.009 668.93 353.421V351.042Z" fill="#F25138"/>
</svg>
