<svg width="752" height="423" viewBox="0 0 752 423" fill="none" xmlns="http://www.w3.org/2000/svg">
<rect width="752" height="423" fill="white"/>
<path d="M72.9773 43.2727V52H71.9545L67.1989 45.1477H67.1136V52H66.0568V43.2727H67.0795L71.8523 50.142H71.9375V43.2727H72.9773ZM77.6999 52.1364C77.0692 52.1364 76.5252 51.9972 76.0678 51.7188C75.6133 51.4375 75.2624 51.0455 75.0153 50.5426C74.771 50.0369 74.6488 49.4489 74.6488 48.7784C74.6488 48.108 74.771 47.517 75.0153 47.0057C75.2624 46.4915 75.6062 46.0909 76.0465 45.804C76.4897 45.5142 77.0067 45.3693 77.5977 45.3693C77.9386 45.3693 78.2752 45.4261 78.6076 45.5398C78.94 45.6534 79.2425 45.8381 79.5153 46.0938C79.788 46.3466 80.0053 46.6818 80.1673 47.0994C80.3292 47.517 80.4102 48.0312 80.4102 48.642V49.0682H75.3647V48.1989H79.3874C79.3874 47.8295 79.3136 47.5 79.1658 47.2102C79.021 46.9205 78.8136 46.6918 78.5437 46.5241C78.2766 46.3565 77.9613 46.2727 77.5977 46.2727C77.1971 46.2727 76.8505 46.3722 76.5579 46.571C76.2681 46.767 76.0451 47.0227 75.8888 47.3381C75.7326 47.6534 75.6545 47.9915 75.6545 48.3523V48.9318C75.6545 49.4261 75.7397 49.8452 75.9102 50.1889C76.0835 50.5298 76.3235 50.7898 76.6303 50.9688C76.9371 51.1449 77.2937 51.233 77.6999 51.233C77.9641 51.233 78.2028 51.196 78.4158 51.1222C78.6317 51.0455 78.8178 50.9318 78.9741 50.7812C79.1303 50.6278 79.2511 50.4375 79.3363 50.2102L80.3079 50.483C80.2056 50.8125 80.0337 51.1023 79.7923 51.3523C79.5508 51.5994 79.2525 51.7926 78.8974 51.9318C78.5423 52.0682 78.1431 52.1364 77.6999 52.1364ZM82.5142 45.4545L84.0824 48.1307L85.6506 45.4545H86.8097L84.696 48.7273L86.8097 52H85.6506L84.0824 49.4602L82.5142 52H81.3551L83.4347 48.7273L81.3551 45.4545H82.5142ZM91.0913 45.4545V46.3068H87.6992V45.4545H91.0913ZM88.6879 43.8864H89.6935V50.125C89.6935 50.4091 89.7347 50.6222 89.8171 50.7642C89.9023 50.9034 90.0103 50.9972 90.141 51.0455C90.2745 51.0909 90.4151 51.1136 90.5629 51.1136C90.6737 51.1136 90.7646 51.108 90.8356 51.0966C90.9066 51.0824 90.9634 51.071 91.006 51.0625L91.2106 51.9659C91.1424 51.9915 91.0472 52.017 90.9251 52.0426C90.8029 52.071 90.6481 52.0852 90.4606 52.0852C90.1765 52.0852 89.8981 52.0241 89.6254 51.902C89.3555 51.7798 89.131 51.5938 88.9521 51.3438C88.7759 51.0938 88.6879 50.7784 88.6879 50.3977V43.8864Z" fill="black"/>
<path d="M67.479 104H70.994V93.196H78.542C84.092 93.196 87.163 90.125 87.163 85.574C87.163 81.023 84.092 77.952 78.542 77.952H67.479V104ZM83.574 85.796C83.574 88.46 81.872 90.162 78.431 90.162H70.994V80.986H78.431C81.872 80.986 83.574 82.651 83.574 85.352V85.796ZM89.4587 104H106.664V101.04H92.8627V100.818C92.8627 98.783 93.8617 97.525 96.0817 95.934L101.188 92.493C104.962 89.94 106.183 87.572 106.183 84.686C106.183 80.542 103.001 77.397 97.9317 77.397C93.0847 77.397 89.5327 80.357 89.4587 85.352H92.8627C92.8997 82.096 94.8607 80.246 97.9317 80.246C101.114 80.246 102.668 82.17 102.668 84.575V85.056C102.668 86.684 102.002 88.201 99.3747 90.014L94.5647 93.233C91.0497 95.564 89.4587 97.673 89.4587 100.929V104ZM110.369 104H113.884V93.196H121.432C126.982 93.196 130.053 90.125 130.053 85.574C130.053 81.023 126.982 77.952 121.432 77.952H110.369V104ZM126.464 85.796C126.464 88.46 124.762 90.162 121.321 90.162H113.884V80.986H121.321C124.762 80.986 126.464 82.651 126.464 85.352V85.796ZM137.86 98.413C137.971 102.113 141.116 104.555 146.111 104.555C150.81 104.555 154.14 102.298 154.14 98.561C154.14 95.305 151.809 93.529 148.072 93.011L145.149 92.604C142.966 92.271 141.856 91.457 141.856 89.829C141.856 88.09 143.447 86.869 146.037 86.869C148.701 86.869 150.181 88.127 150.292 90.051H153.733C153.585 86.943 150.921 84.279 146.074 84.279C141.634 84.279 138.452 86.536 138.452 90.088C138.452 93.381 140.709 95.009 144.039 95.49L146.962 95.897C149.293 96.23 150.736 97.007 150.736 98.82C150.736 100.781 148.923 101.965 146.222 101.965C143.41 101.965 141.449 100.818 141.338 98.413H137.86ZM165.477 104.518C170.065 104.518 173.173 102.002 173.876 98.45H170.435C170.139 100.115 168.474 101.854 165.514 101.854C162.147 101.854 159.631 99.338 159.631 95.305V95.194H174.246V93.825C174.246 88.46 171.064 84.353 165.44 84.353C159.631 84.353 156.19 88.719 156.19 94.417C156.19 100.078 159.446 104.518 165.477 104.518ZM165.44 86.98C168.511 86.98 170.731 89.089 170.805 92.752H159.668C159.964 89.126 162.406 86.98 165.44 86.98ZM180.899 92.789C180.899 89.015 183.341 87.239 186.005 87.239C188.558 87.239 190.741 88.904 190.741 92.345V104H194.145V92.049C194.145 87.017 191 84.353 187.004 84.353C184.192 84.353 181.861 85.574 180.751 88.127H180.714V84.871H177.495V104H180.899V92.789ZM215.59 104V76.546H212.186V88.275H212.149C210.965 85.833 208.745 84.353 205.637 84.353C200.383 84.353 197.201 88.756 197.201 94.417C197.201 100.115 200.309 104.518 205.637 104.518C208.893 104.518 211.15 102.927 212.297 100.374H212.334V104H215.59ZM200.642 95.157V93.751C200.642 89.607 203.232 87.202 206.414 87.202C209.559 87.202 212.186 89.681 212.186 93.751V95.157C212.186 99.153 209.559 101.669 206.414 101.669C203.232 101.669 200.642 99.301 200.642 95.157ZM218.4 98.413C218.511 102.113 221.656 104.555 226.651 104.555C231.35 104.555 234.68 102.298 234.68 98.561C234.68 95.305 232.349 93.529 228.612 93.011L225.689 92.604C223.506 92.271 222.396 91.457 222.396 89.829C222.396 88.09 223.987 86.869 226.577 86.869C229.241 86.869 230.721 88.127 230.832 90.051H234.273C234.125 86.943 231.461 84.279 226.614 84.279C222.174 84.279 218.992 86.536 218.992 90.088C218.992 93.381 221.249 95.009 224.579 95.49L227.502 95.897C229.833 96.23 231.276 97.007 231.276 98.82C231.276 100.781 229.463 101.965 226.762 101.965C223.95 101.965 221.989 100.818 221.878 98.413H218.4ZM243.464 90.199H246.831C247.016 88.164 248.496 86.943 251.234 86.943C254.268 86.943 255.304 88.497 255.304 90.014C255.304 91.494 254.305 92.123 252.344 92.456L249.458 92.937C245.425 93.566 242.761 95.342 242.761 98.857C242.761 102.446 245.536 104.518 249.31 104.518C252.529 104.518 254.897 102.89 255.822 100.522H255.859V100.892C255.822 102.927 256.784 104 259.189 104H261.372V101.262H260.188C259.263 101.262 258.782 100.966 258.782 99.782V90.717C258.782 86.388 255.674 84.353 251.308 84.353C246.498 84.353 243.797 86.758 243.464 90.199ZM255.415 96.045C255.415 99.523 253.158 101.854 249.939 101.854C247.645 101.854 246.091 100.744 246.091 98.746V98.524C246.091 96.674 247.608 95.675 250.05 95.268L252.862 94.787C254.194 94.565 255.045 94.047 255.415 93.529V96.045ZM262.229 98.413C262.34 102.113 265.485 104.555 270.48 104.555C275.179 104.555 278.509 102.298 278.509 98.561C278.509 95.305 276.178 93.529 272.441 93.011L269.518 92.604C267.335 92.271 266.225 91.457 266.225 89.829C266.225 88.09 267.816 86.869 270.406 86.869C273.07 86.869 274.55 88.127 274.661 90.051H278.102C277.954 86.943 275.29 84.279 270.443 84.279C266.003 84.279 262.821 86.536 262.821 90.088C262.821 93.381 265.078 95.009 268.408 95.49L271.331 95.897C273.662 96.23 275.105 97.007 275.105 98.82C275.105 100.781 273.292 101.965 270.591 101.965C267.779 101.965 265.818 100.818 265.707 98.413H262.229ZM286.035 84.871V87.683H290.438V99.449C290.438 102.483 291.881 104 295.137 104H300.132V101.188H295.766C294.397 101.188 293.842 100.596 293.842 99.227V87.683H300.095V84.871H293.842V79.136H290.438V84.871H286.035ZM306.569 92.789C306.569 89.015 309.011 87.239 311.675 87.239C314.228 87.239 316.411 88.904 316.411 92.345V104H319.815V92.049C319.815 87.017 316.67 84.353 312.674 84.353C309.936 84.353 307.642 85.537 306.532 87.942H306.495V76.546H303.165V104H306.569V92.789ZM332.158 104.518C336.746 104.518 339.854 102.002 340.557 98.45H337.116C336.82 100.115 335.155 101.854 332.195 101.854C328.828 101.854 326.312 99.338 326.312 95.305V95.194H340.927V93.825C340.927 88.46 337.745 84.353 332.121 84.353C326.312 84.353 322.871 88.719 322.871 94.417C322.871 100.078 326.127 104.518 332.158 104.518ZM332.121 86.98C335.192 86.98 337.412 89.089 337.486 92.752H326.349C326.645 89.126 329.087 86.98 332.121 86.98ZM67.109 128.871V155.104H70.513V144.596H70.55C71.734 147.038 73.954 148.518 77.025 148.518C82.316 148.518 85.498 144.115 85.498 138.417C85.498 132.756 82.39 128.353 77.025 128.353C73.806 128.353 71.549 129.907 70.402 132.497H70.365V128.871H67.109ZM82.057 137.714V139.12C82.057 143.227 79.467 145.669 76.285 145.669C73.103 145.669 70.513 143.153 70.513 139.12V137.714C70.513 133.681 73.103 131.165 76.285 131.165C79.467 131.165 82.057 133.57 82.057 137.714ZM97.0776 148.518C102.998 148.518 106.365 144.078 106.365 138.417C106.365 132.756 102.924 128.353 97.0776 128.353C91.2686 128.353 87.7906 132.756 87.7906 138.417C87.7906 144.078 91.1576 148.518 97.0776 148.518ZM102.961 139.12C102.961 143.264 100.297 145.669 97.0776 145.669C93.8586 145.669 91.2316 143.116 91.2316 139.12V137.714C91.2316 133.681 93.8586 131.202 97.0776 131.202C100.297 131.202 102.961 133.607 102.961 137.714V139.12ZM109.637 148H113.041V136.9C113.041 134.088 114.077 131.905 117.703 131.905H120.922V128.76H118.332C115.076 128.76 113.522 130.388 112.93 132.09H112.893V128.871H109.637V148ZM121.992 128.871V131.683H126.395V143.449C126.395 146.483 127.838 148 131.094 148H136.089V145.188H131.723C130.354 145.188 129.799 144.596 129.799 143.227V131.683H136.052V128.871H129.799V123.136H126.395V128.871H121.992ZM138.353 134.199H141.72C141.905 132.164 143.385 130.943 146.123 130.943C149.157 130.943 150.193 132.497 150.193 134.014C150.193 135.494 149.194 136.123 147.233 136.456L144.347 136.937C140.314 137.566 137.65 139.342 137.65 142.857C137.65 146.446 140.425 148.518 144.199 148.518C147.418 148.518 149.786 146.89 150.711 144.522H150.748V144.892C150.711 146.927 151.673 148 154.078 148H156.261V145.262H155.077C154.152 145.262 153.671 144.966 153.671 143.782V134.717C153.671 130.388 150.563 128.353 146.197 128.353C141.387 128.353 138.686 130.758 138.353 134.199ZM150.304 140.045C150.304 143.523 148.047 145.854 144.828 145.854C142.534 145.854 140.98 144.744 140.98 142.746V142.524C140.98 140.674 142.497 139.675 144.939 139.268L147.751 138.787C149.083 138.565 149.934 138.047 150.304 137.529V140.045ZM158.2 143.449C158.2 146.483 159.643 148 162.899 148H167.08V145.151H163.676C162.196 145.151 161.604 144.522 161.604 143.042V120.546H158.2V143.449ZM174.059 128.871V131.683H178.462V143.449C178.462 146.483 179.905 148 183.161 148H188.156V145.188H183.79C182.421 145.188 181.866 144.596 181.866 143.227V131.683H188.119V128.871H181.866V123.136H178.462V128.871H174.059ZM199.008 148.518C204.928 148.518 208.295 144.078 208.295 138.417C208.295 132.756 204.854 128.353 199.008 128.353C193.199 128.353 189.721 132.756 189.721 138.417C189.721 144.078 193.088 148.518 199.008 148.518ZM204.891 139.12C204.891 143.264 202.227 145.669 199.008 145.669C195.789 145.669 193.162 143.116 193.162 139.12V137.714C193.162 133.681 195.789 131.202 199.008 131.202C202.227 131.202 204.891 133.607 204.891 137.714V139.12ZM221.187 136.789C221.187 133.015 223.629 131.239 226.293 131.239C228.846 131.239 231.029 132.904 231.029 136.345V148H234.433V136.049C234.433 131.017 231.288 128.353 227.292 128.353C224.48 128.353 222.149 129.574 221.039 132.127H221.002V128.871H217.783V148H221.187V136.789ZM246.776 148.518C251.364 148.518 254.472 146.002 255.175 142.45H251.734C251.438 144.115 249.773 145.854 246.813 145.854C243.446 145.854 240.93 143.338 240.93 139.305V139.194H255.545V137.825C255.545 132.46 252.363 128.353 246.739 128.353C240.93 128.353 237.489 132.719 237.489 138.417C237.489 144.078 240.745 148.518 246.776 148.518ZM246.739 130.98C249.81 130.98 252.03 133.089 252.104 136.752H240.967C241.263 133.126 243.705 130.98 246.739 130.98ZM256.366 128.871L262.619 148.037H266.023L270.685 133.015H270.722L275.421 148.037H278.899L284.93 128.871H281.637L277.197 143.671H277.16L272.498 128.834H269.094L264.543 143.745H264.506L259.955 128.871H256.366ZM75.434 192.518C81.354 192.518 84.721 188.078 84.721 182.417C84.721 176.756 81.28 172.353 75.434 172.353C69.625 172.353 66.147 176.756 66.147 182.417C66.147 188.078 69.514 192.518 75.434 192.518ZM81.317 183.12C81.317 187.264 78.653 189.669 75.434 189.669C72.215 189.669 69.588 187.116 69.588 183.12V181.714C69.588 177.681 72.215 175.202 75.434 175.202C78.653 175.202 81.317 177.607 81.317 181.714V183.12ZM87.9938 172.871V199.104H91.3978V188.596H91.4348C92.6188 191.038 94.8388 192.518 97.9098 192.518C103.201 192.518 106.383 188.115 106.383 182.417C106.383 176.756 103.275 172.353 97.9098 172.353C94.6908 172.353 92.4338 173.907 91.2868 176.497H91.2498V172.871H87.9938ZM102.942 181.714V183.12C102.942 187.227 100.352 189.669 97.1698 189.669C93.9878 189.669 91.3978 187.153 91.3978 183.12V181.714C91.3978 177.681 93.9878 175.165 97.1698 175.165C100.352 175.165 102.942 177.57 102.942 181.714ZM109.637 172.871V199.104H113.041V188.596H113.078C114.262 191.038 116.482 192.518 119.553 192.518C124.844 192.518 128.026 188.115 128.026 182.417C128.026 176.756 124.918 172.353 119.553 172.353C116.334 172.353 114.077 173.907 112.93 176.497H112.893V172.871H109.637ZM124.585 181.714V183.12C124.585 187.227 121.995 189.669 118.813 189.669C115.631 189.669 113.041 187.153 113.041 183.12V181.714C113.041 177.681 115.631 175.165 118.813 175.165C121.995 175.165 124.585 177.57 124.585 181.714ZM131.281 192H134.685V180.9C134.685 178.088 135.721 175.905 139.347 175.905H142.566V172.76H139.976C136.72 172.76 135.166 174.388 134.574 176.09H134.537V172.871H131.281V192ZM152.614 192.518C158.534 192.518 161.901 188.078 161.901 182.417C161.901 176.756 158.46 172.353 152.614 172.353C146.805 172.353 143.327 176.756 143.327 182.417C143.327 188.078 146.694 192.518 152.614 192.518ZM158.497 183.12C158.497 187.264 155.833 189.669 152.614 189.669C149.395 189.669 146.768 187.116 146.768 183.12V181.714C146.768 177.681 149.395 175.202 152.614 175.202C155.833 175.202 158.497 177.607 158.497 181.714V183.12ZM162.786 172.871V175.683H167.189V187.449C167.189 190.483 168.632 192 171.888 192H176.883V189.188H172.517C171.148 189.188 170.593 188.596 170.593 187.227V175.683H176.846V172.871H170.593V167.136H167.189V172.871H162.786ZM192.977 184.082C192.977 187.856 190.535 189.632 187.871 189.632C185.318 189.632 183.135 187.967 183.135 184.526V172.871H179.731V184.822C179.731 189.854 182.876 192.518 186.872 192.518C189.684 192.518 192.015 191.297 193.125 188.744H193.162V192H196.381V172.871H192.977V184.082ZM203.988 180.789C203.988 177.015 206.43 175.239 209.094 175.239C211.647 175.239 213.83 176.904 213.83 180.345V192H217.234V180.049C217.234 175.017 214.089 172.353 210.093 172.353C207.281 172.353 204.95 173.574 203.84 176.127H203.803V172.871H200.584V192H203.988V180.789ZM224.582 169.615C225.914 169.615 226.913 168.579 226.913 167.321C226.913 165.989 225.914 165.027 224.582 165.027H224.397C223.065 165.027 222.066 165.989 222.066 167.321C222.066 168.579 223.065 169.615 224.397 169.615H224.582ZM219.735 175.646H222.769V192H226.173V172.871H219.735V175.646ZM228.728 172.871V175.683H233.131V187.449C233.131 190.483 234.574 192 237.83 192H242.825V189.188H238.459C237.09 189.188 236.535 188.596 236.535 187.227V175.683H242.788V172.871H236.535V167.136H233.131V172.871H228.728ZM249.188 169.615C250.52 169.615 251.519 168.579 251.519 167.321C251.519 165.989 250.52 165.027 249.188 165.027H249.003C247.671 165.027 246.672 165.989 246.672 167.321C246.672 168.579 247.671 169.615 249.003 169.615H249.188ZM244.341 175.646H247.375V192H250.779V172.871H244.341V175.646ZM263.325 192.518C267.913 192.518 271.021 190.002 271.724 186.45H268.283C267.987 188.115 266.322 189.854 263.362 189.854C259.995 189.854 257.479 187.338 257.479 183.305V183.194H272.094V181.825C272.094 176.46 268.912 172.353 263.288 172.353C257.479 172.353 254.038 176.719 254.038 182.417C254.038 188.078 257.294 192.518 263.325 192.518ZM263.288 174.98C266.359 174.98 268.579 177.089 268.653 180.752H257.516C257.812 177.126 260.254 174.98 263.288 174.98ZM273.936 186.413C274.047 190.113 277.192 192.555 282.187 192.555C286.886 192.555 290.216 190.298 290.216 186.561C290.216 183.305 287.885 181.529 284.148 181.011L281.225 180.604C279.042 180.271 277.932 179.457 277.932 177.829C277.932 176.09 279.523 174.869 282.113 174.869C284.777 174.869 286.257 176.127 286.368 178.051H289.809C289.661 174.943 286.997 172.279 282.15 172.279C277.71 172.279 274.528 174.536 274.528 178.088C274.528 181.381 276.785 183.009 280.115 183.49L283.038 183.897C285.369 184.23 286.812 185.007 286.812 186.82C286.812 188.781 284.999 189.965 282.298 189.965C279.486 189.965 277.525 188.818 277.414 186.413H273.936Z" fill="black"/>
<path d="M66.288 234H67.604V225.866H67.618L72.616 234H74.17V224.144H72.882V232.124H72.868L67.912 224.144H66.288V234ZM79.6307 234.196C81.8707 234.196 83.1447 232.516 83.1447 230.374C83.1447 228.232 81.8287 226.566 79.6307 226.566C77.4187 226.566 76.1167 228.232 76.1167 230.374C76.1167 232.516 77.3907 234.196 79.6307 234.196ZM81.8427 230.64C81.8427 232.208 80.8487 233.118 79.6307 233.118C78.4127 233.118 77.4047 232.152 77.4047 230.64V230.108C77.4047 228.582 78.4127 227.644 79.6307 227.644C80.8487 227.644 81.8427 228.554 81.8427 230.108V230.64ZM83.7777 226.762V227.826H85.4297V232.278C85.4297 233.426 85.9757 234 87.2077 234H89.0977V232.936H87.4457C86.9277 232.936 86.7177 232.712 86.7177 232.194V227.826H89.0837V226.762H86.7177V224.592H85.4297V226.762H83.7777ZM96.8846 234.196C99.1246 234.196 100.399 232.516 100.399 230.374C100.399 228.232 99.0826 226.566 96.8846 226.566C94.6726 226.566 93.3706 228.232 93.3706 230.374C93.3706 232.516 94.6446 234.196 96.8846 234.196ZM99.0966 230.64C99.0966 232.208 98.1026 233.118 96.8846 233.118C95.6666 233.118 94.6586 232.152 94.6586 230.64V230.108C94.6586 228.582 95.6666 227.644 96.8846 227.644C98.1026 227.644 99.0966 228.554 99.0966 230.108V230.64ZM103.405 229.758C103.405 228.33 104.329 227.658 105.337 227.658C106.303 227.658 107.129 228.288 107.129 229.59V234H108.417V229.478C108.417 227.574 107.227 226.566 105.715 226.566C104.651 226.566 103.769 227.028 103.349 227.994H103.335V226.762H102.117V234H103.405V229.758ZM110.428 232.278C110.428 233.426 110.988 234 112.206 234H113.788V232.922H112.514C111.954 232.922 111.716 232.684 111.716 232.124V223.612H110.428V232.278ZM117.526 234.812L120.662 226.762H119.346L117.26 232.32H117.246L115.104 226.762H113.69L116.56 233.804L116.238 234.63C115.916 235.442 115.692 235.61 114.936 235.61H113.732V236.688H114.978C116.42 236.688 117.008 236.156 117.526 234.812ZM131.569 234V223.612H130.281V228.05H130.267C129.819 227.126 128.979 226.566 127.803 226.566C125.815 226.566 124.611 228.232 124.611 230.374C124.611 232.53 125.787 234.196 127.803 234.196C129.035 234.196 129.889 233.594 130.323 232.628H130.337V234H131.569ZM125.899 230.654V230.122C125.899 228.554 126.893 227.644 128.083 227.644C129.287 227.644 130.281 228.582 130.281 230.122V230.654C130.281 232.166 129.287 233.118 128.083 233.118C126.893 233.118 125.899 232.222 125.899 230.654ZM134.861 225.53C135.365 225.53 135.743 225.138 135.743 224.662C135.743 224.158 135.365 223.794 134.861 223.794H134.791C134.273 223.794 133.895 224.158 133.895 224.662C133.895 225.138 134.273 225.53 134.791 225.53H134.861ZM133.013 227.812H134.175V234H135.463V226.762H133.013V227.812ZM144.147 234V223.612H142.859V228.05H142.845C142.397 227.126 141.557 226.566 140.381 226.566C138.393 226.566 137.189 228.232 137.189 230.374C137.189 232.53 138.365 234.196 140.381 234.196C141.613 234.196 142.467 233.594 142.901 232.628H142.915V234H144.147ZM138.477 230.654V230.122C138.477 228.554 139.471 227.644 140.661 227.644C141.865 227.644 142.859 228.582 142.859 230.122V230.654C142.859 232.166 141.865 233.118 140.661 233.118C139.471 233.118 138.477 232.222 138.477 230.654ZM148.581 226.762L150.947 234.014H152.249L153.999 228.33H154.013L155.791 234.014H157.121L159.389 226.762H158.143L156.477 232.362H156.463L154.699 226.748H153.397L151.675 232.39H151.661L149.939 226.762H148.581ZM163.562 234.196C165.312 234.196 166.488 233.244 166.754 231.9H165.452C165.34 232.53 164.71 233.188 163.59 233.188C162.302 233.188 161.35 232.236 161.35 230.71V230.668H166.894V230.206C166.894 228.148 165.69 226.566 163.52 226.566C161.364 226.566 160.062 228.218 160.062 230.374C160.062 232.516 161.294 234.196 163.562 234.196ZM163.52 227.56C164.696 227.56 165.536 228.344 165.592 229.744H161.364C161.476 228.372 162.4 227.56 163.52 227.56ZM171.188 231.886C171.23 233.286 172.42 234.21 174.31 234.21C176.102 234.21 177.362 233.356 177.362 231.942C177.362 230.71 176.48 230.038 175.052 229.842L173.946 229.688C173.12 229.562 172.7 229.254 172.7 228.638C172.7 227.98 173.302 227.518 174.282 227.518C175.29 227.518 175.85 227.994 175.892 228.722H177.194C177.138 227.546 176.144 226.538 174.31 226.538C172.616 226.538 171.412 227.392 171.412 228.736C171.412 229.982 172.266 230.598 173.526 230.78L174.632 230.934C175.514 231.06 176.06 231.354 176.06 232.04C176.06 232.782 175.374 233.23 174.352 233.23C173.302 233.23 172.546 232.796 172.518 231.886H171.188ZM182.06 234.196C183.81 234.196 184.986 233.244 185.252 231.9H183.95C183.838 232.53 183.208 233.188 182.088 233.188C180.8 233.188 179.848 232.236 179.848 230.71V230.668H185.392V230.206C185.392 228.148 184.188 226.566 182.018 226.566C179.862 226.566 178.56 228.218 178.56 230.374C178.56 232.516 179.792 234.196 182.06 234.196ZM182.018 227.56C183.194 227.56 184.034 228.344 184.09 229.744H179.862C179.974 228.372 180.898 227.56 182.018 227.56ZM190.167 234.196C191.917 234.196 193.093 233.244 193.359 231.9H192.057C191.945 232.53 191.315 233.188 190.195 233.188C188.907 233.188 187.955 232.236 187.955 230.71V230.668H193.499V230.206C193.499 228.148 192.295 226.566 190.125 226.566C187.969 226.566 186.667 228.218 186.667 230.374C186.667 232.516 187.899 234.196 190.167 234.196ZM190.125 227.56C191.301 227.56 192.141 228.344 192.197 229.744H187.969C188.081 228.372 189.005 227.56 190.125 227.56ZM198.129 228.778H199.403C199.487 228.008 200.033 227.546 201.069 227.546C202.217 227.546 202.609 228.134 202.609 228.708C202.609 229.268 202.231 229.506 201.489 229.632L200.397 229.814C198.871 230.052 197.863 230.724 197.863 232.054C197.863 233.412 198.913 234.196 200.341 234.196C201.559 234.196 202.455 233.58 202.805 232.684H202.819V232.824C202.805 233.594 203.169 234 204.079 234H204.905V232.964H204.457C204.107 232.964 203.925 232.852 203.925 232.404V228.974C203.925 227.336 202.749 226.566 201.097 226.566C199.277 226.566 198.255 227.476 198.129 228.778ZM202.651 230.99C202.651 232.306 201.797 233.188 200.579 233.188C199.711 233.188 199.123 232.768 199.123 232.012V231.928C199.123 231.228 199.697 230.85 200.621 230.696L201.685 230.514C202.189 230.43 202.511 230.234 202.651 230.038V230.99ZM207.434 229.758C207.434 228.33 208.358 227.658 209.366 227.658C210.332 227.658 211.158 228.288 211.158 229.59V234H212.446V229.478C212.446 227.574 211.256 226.566 209.744 226.566C208.68 226.566 207.798 227.028 207.378 227.994H207.364V226.762H206.146V234H207.434V229.758ZM218.82 225.53C219.324 225.53 219.702 225.138 219.702 224.662C219.702 224.158 219.324 223.794 218.82 223.794H218.75C218.232 223.794 217.854 224.158 217.854 224.662C217.854 225.138 218.232 225.53 218.75 225.53H218.82ZM216.972 227.812H218.134V234H219.422V226.762H216.972V227.812ZM222.87 229.758C222.87 228.33 223.794 227.658 224.802 227.658C225.768 227.658 226.594 228.288 226.594 229.59V234H227.882V229.478C227.882 227.574 226.692 226.566 225.18 226.566C224.116 226.566 223.234 227.028 222.814 227.994H222.8V226.762H221.582V234H222.87V229.758ZM230.817 230.108C230.817 228.582 231.783 227.644 233.001 227.644C234.065 227.644 234.653 228.274 234.849 229.016H236.123C235.857 227.546 234.723 226.566 233.015 226.566C230.803 226.566 229.529 228.19 229.529 230.374C229.529 232.544 230.775 234.196 233.015 234.196C234.723 234.196 235.843 233.202 236.123 231.704H234.863C234.653 232.488 234.037 233.118 233.001 233.118C231.783 233.118 230.817 232.166 230.817 230.654V230.108ZM237.769 234H239.057V229.8C239.057 228.736 239.449 227.91 240.821 227.91H242.025V226.72H241.059C239.827 226.72 239.239 227.336 239.015 227.98H239.001V226.762H237.769V234ZM246.167 234.196C247.917 234.196 249.093 233.244 249.359 231.9H248.057C247.945 232.53 247.315 233.188 246.195 233.188C244.907 233.188 243.955 232.236 243.955 230.71V230.668H249.499V230.206C249.499 228.148 248.295 226.566 246.125 226.566C243.969 226.566 242.667 228.218 242.667 230.374C242.667 232.516 243.899 234.196 246.167 234.196ZM246.125 227.56C247.301 227.56 248.141 228.344 248.197 229.744H243.969C244.081 228.372 245.005 227.56 246.125 227.56ZM251.012 228.778H252.286C252.37 228.008 252.916 227.546 253.952 227.546C255.1 227.546 255.492 228.134 255.492 228.708C255.492 229.268 255.114 229.506 254.372 229.632L253.28 229.814C251.754 230.052 250.746 230.724 250.746 232.054C250.746 233.412 251.796 234.196 253.224 234.196C254.442 234.196 255.338 233.58 255.688 232.684H255.702V232.824C255.688 233.594 256.052 234 256.962 234H257.788V232.964H257.34C256.99 232.964 256.808 232.852 256.808 232.404V228.974C256.808 227.336 255.632 226.566 253.98 226.566C252.16 226.566 251.138 227.476 251.012 228.778ZM255.534 230.99C255.534 232.306 254.68 233.188 253.462 233.188C252.594 233.188 252.006 232.768 252.006 232.012V231.928C252.006 231.228 252.58 230.85 253.504 230.696L254.568 230.514C255.072 230.43 255.394 230.234 255.534 230.038V230.99ZM258.524 231.886C258.566 233.286 259.756 234.21 261.646 234.21C263.438 234.21 264.698 233.356 264.698 231.942C264.698 230.71 263.816 230.038 262.388 229.842L261.282 229.688C260.456 229.562 260.036 229.254 260.036 228.638C260.036 227.98 260.638 227.518 261.618 227.518C262.626 227.518 263.186 227.994 263.228 228.722H264.53C264.474 227.546 263.48 226.538 261.646 226.538C259.952 226.538 258.748 227.392 258.748 228.736C258.748 229.982 259.602 230.598 260.862 230.78L261.968 230.934C262.85 231.06 263.396 231.354 263.396 232.04C263.396 232.782 262.71 233.23 261.688 233.23C260.638 233.23 259.882 232.796 259.854 231.886H258.524ZM269.396 234.196C271.146 234.196 272.322 233.244 272.588 231.9H271.286C271.174 232.53 270.544 233.188 269.424 233.188C268.136 233.188 267.184 232.236 267.184 230.71V230.668H272.728V230.206C272.728 228.148 271.524 226.566 269.354 226.566C267.198 226.566 265.896 228.218 265.896 230.374C265.896 232.516 267.128 234.196 269.396 234.196ZM269.354 227.56C270.53 227.56 271.37 228.344 271.426 229.744H267.198C267.31 228.372 268.234 227.56 269.354 227.56ZM67.226 245.53C67.73 245.53 68.108 245.138 68.108 244.662C68.108 244.158 67.73 243.794 67.226 243.794H67.156C66.638 243.794 66.26 244.158 66.26 244.662C66.26 245.138 66.638 245.53 67.156 245.53H67.226ZM65.378 247.812H66.54V254H67.828V246.762H65.378V247.812ZM71.2762 249.758C71.2762 248.33 72.2002 247.658 73.2082 247.658C74.1742 247.658 75.0002 248.288 75.0002 249.59V254H76.2882V249.478C76.2882 247.574 75.0982 246.566 73.5862 246.566C72.5222 246.566 71.6402 247.028 71.2202 247.994H71.2062V246.762H69.9882V254H71.2762V249.758ZM82.3675 250.108C82.3675 248.582 83.3335 247.644 84.5515 247.644C85.6155 247.644 86.2035 248.274 86.3995 249.016H87.6735C87.4075 247.546 86.2735 246.566 84.5655 246.566C82.3535 246.566 81.0795 248.19 81.0795 250.374C81.0795 252.544 82.3255 254.196 84.5655 254.196C86.2735 254.196 87.3935 253.202 87.6735 251.704H86.4135C86.2035 252.488 85.5875 253.118 84.5515 253.118C83.3335 253.118 82.3675 252.166 82.3675 250.654V250.108ZM92.4002 254.196C94.6402 254.196 95.9142 252.516 95.9142 250.374C95.9142 248.232 94.5982 246.566 92.4002 246.566C90.1882 246.566 88.8862 248.232 88.8862 250.374C88.8862 252.516 90.1602 254.196 92.4002 254.196ZM94.6122 250.64C94.6122 252.208 93.6182 253.118 92.4002 253.118C91.1822 253.118 90.1742 252.152 90.1742 250.64V250.108C90.1742 248.582 91.1822 247.644 92.4002 247.644C93.6182 247.644 94.6122 248.554 94.6122 250.108V250.64ZM98.9207 249.758C98.9207 248.33 99.8447 247.658 100.853 247.658C101.819 247.658 102.645 248.288 102.645 249.59V254H103.933V249.478C103.933 247.574 102.743 246.566 101.231 246.566C100.167 246.566 99.2847 247.028 98.8647 247.994H98.8507V246.762H97.6327V254H98.9207V249.758ZM111.926 246.762H110.61L108.496 252.502H108.482L106.354 246.762H104.94L107.782 254.014H109.14L111.926 246.762ZM116.039 254.196C117.789 254.196 118.965 253.244 119.231 251.9H117.929C117.817 252.53 117.187 253.188 116.067 253.188C114.779 253.188 113.827 252.236 113.827 250.71V250.668H119.371V250.206C119.371 248.148 118.167 246.566 115.997 246.566C113.841 246.566 112.539 248.218 112.539 250.374C112.539 252.516 113.771 254.196 116.039 254.196ZM115.997 247.56C117.173 247.56 118.013 248.344 118.069 249.744H113.841C113.953 248.372 114.877 247.56 115.997 247.56ZM121.08 254H122.368V249.8C122.368 248.736 122.76 247.91 124.132 247.91H125.336V246.72H124.37C123.138 246.72 122.55 247.336 122.326 247.98H122.312V246.762H121.08V254ZM126.057 251.886C126.099 253.286 127.289 254.21 129.179 254.21C130.971 254.21 132.231 253.356 132.231 251.942C132.231 250.71 131.349 250.038 129.921 249.842L128.815 249.688C127.989 249.562 127.569 249.254 127.569 248.638C127.569 247.98 128.171 247.518 129.151 247.518C130.159 247.518 130.719 247.994 130.761 248.722H132.063C132.007 247.546 131.013 246.538 129.179 246.538C127.485 246.538 126.281 247.392 126.281 248.736C126.281 249.982 127.135 250.598 128.395 250.78L129.501 250.934C130.383 251.06 130.929 251.354 130.929 252.04C130.929 252.782 130.243 253.23 129.221 253.23C128.171 253.23 127.415 252.796 127.387 251.886H126.057ZM134.997 245.53C135.501 245.53 135.879 245.138 135.879 244.662C135.879 244.158 135.501 243.794 134.997 243.794H134.927C134.409 243.794 134.031 244.158 134.031 244.662C134.031 245.138 134.409 245.53 134.927 245.53H134.997ZM133.149 247.812H134.311V254H135.599V246.762H133.149V247.812ZM140.84 254.196C143.08 254.196 144.354 252.516 144.354 250.374C144.354 248.232 143.038 246.566 140.84 246.566C138.628 246.566 137.326 248.232 137.326 250.374C137.326 252.516 138.6 254.196 140.84 254.196ZM143.052 250.64C143.052 252.208 142.058 253.118 140.84 253.118C139.622 253.118 138.614 252.152 138.614 250.64V250.108C138.614 248.582 139.622 247.644 140.84 247.644C142.058 247.644 143.052 248.554 143.052 250.108V250.64ZM147.36 249.758C147.36 248.33 148.284 247.658 149.292 247.658C150.258 247.658 151.084 248.288 151.084 249.59V254H152.372V249.478C152.372 247.574 151.182 246.566 149.67 246.566C148.606 246.566 147.724 247.028 147.304 247.994H147.29V246.762H146.072V254H147.36V249.758ZM157.374 248.778H158.648C158.732 248.008 159.278 247.546 160.314 247.546C161.462 247.546 161.854 248.134 161.854 248.708C161.854 249.268 161.476 249.506 160.734 249.632L159.642 249.814C158.116 250.052 157.108 250.724 157.108 252.054C157.108 253.412 158.158 254.196 159.586 254.196C160.804 254.196 161.7 253.58 162.05 252.684H162.064V252.824C162.05 253.594 162.414 254 163.324 254H164.15V252.964H163.702C163.352 252.964 163.17 252.852 163.17 252.404V248.974C163.17 247.336 161.994 246.566 160.342 246.566C158.522 246.566 157.5 247.476 157.374 248.778ZM161.896 250.99C161.896 252.306 161.042 253.188 159.824 253.188C158.956 253.188 158.368 252.768 158.368 252.012V251.928C158.368 251.228 158.942 250.85 159.866 250.696L160.93 250.514C161.434 250.43 161.756 250.234 161.896 250.038V250.99ZM166.258 250.108C166.258 248.582 167.224 247.644 168.442 247.644C169.506 247.644 170.094 248.274 170.29 249.016H171.564C171.298 247.546 170.164 246.566 168.456 246.566C166.244 246.566 164.97 248.19 164.97 250.374C164.97 252.544 166.216 254.196 168.456 254.196C170.164 254.196 171.284 253.202 171.564 251.704H170.304C170.094 252.488 169.478 253.118 168.442 253.118C167.224 253.118 166.258 252.166 166.258 250.654V250.108ZM173.211 254H174.499V249.8C174.499 248.736 174.891 247.91 176.263 247.91H177.467V246.72H176.501C175.269 246.72 174.681 247.336 174.457 247.98H174.443V246.762H173.211V254ZM181.623 254.196C183.863 254.196 185.137 252.516 185.137 250.374C185.137 248.232 183.821 246.566 181.623 246.566C179.411 246.566 178.109 248.232 178.109 250.374C178.109 252.516 179.383 254.196 181.623 254.196ZM183.835 250.64C183.835 252.208 182.841 253.118 181.623 253.118C180.405 253.118 179.397 252.152 179.397 250.64V250.108C179.397 248.582 180.405 247.644 181.623 247.644C182.841 247.644 183.835 248.554 183.835 250.108V250.64ZM186.295 251.886C186.337 253.286 187.527 254.21 189.417 254.21C191.209 254.21 192.469 253.356 192.469 251.942C192.469 250.71 191.587 250.038 190.159 249.842L189.053 249.688C188.227 249.562 187.807 249.254 187.807 248.638C187.807 247.98 188.409 247.518 189.389 247.518C190.397 247.518 190.957 247.994 190.999 248.722H192.301C192.245 247.546 191.251 246.538 189.417 246.538C187.723 246.538 186.519 247.392 186.519 248.736C186.519 249.982 187.373 250.598 188.633 250.78L189.739 250.934C190.621 251.06 191.167 251.354 191.167 252.04C191.167 252.782 190.481 253.23 189.459 253.23C188.409 253.23 187.653 252.796 187.625 251.886H186.295ZM193.528 251.886C193.57 253.286 194.76 254.21 196.65 254.21C198.442 254.21 199.702 253.356 199.702 251.942C199.702 250.71 198.82 250.038 197.392 249.842L196.286 249.688C195.46 249.562 195.04 249.254 195.04 248.638C195.04 247.98 195.642 247.518 196.622 247.518C197.63 247.518 198.19 247.994 198.232 248.722H199.534C199.478 247.546 198.484 246.538 196.65 246.538C194.956 246.538 193.752 247.392 193.752 248.736C193.752 249.982 194.606 250.598 195.866 250.78L196.972 250.934C197.854 251.06 198.4 251.354 198.4 252.04C198.4 252.782 197.714 253.23 196.692 253.23C195.642 253.23 194.886 252.796 194.858 251.886H193.528ZM205.753 249.758C205.753 248.33 206.677 247.658 207.685 247.658C208.651 247.658 209.477 248.288 209.477 249.59V254H210.765V249.478C210.765 247.574 209.575 246.566 208.063 246.566C206.999 246.566 206.117 247.028 205.697 247.994H205.683V246.762H204.465V254H205.753V249.758ZM215.912 254.196C217.662 254.196 218.838 253.244 219.104 251.9H217.802C217.69 252.53 217.06 253.188 215.94 253.188C214.652 253.188 213.7 252.236 213.7 250.71V250.668H219.244V250.206C219.244 248.148 218.04 246.566 215.87 246.566C213.714 246.566 212.412 248.218 212.412 250.374C212.412 252.516 213.644 254.196 215.912 254.196ZM215.87 247.56C217.046 247.56 217.886 248.344 217.942 249.744H213.714C213.826 248.372 214.75 247.56 215.87 247.56ZM219.894 246.762L222.26 254.014H223.562L225.312 248.33H225.326L227.104 254.014H228.434L230.702 246.762H229.456L227.79 252.362H227.776L226.012 246.748H224.71L222.988 252.39H222.974L221.252 246.762H219.894ZM65.518 271.886C65.56 273.286 66.75 274.21 68.64 274.21C70.432 274.21 71.692 273.356 71.692 271.942C71.692 270.71 70.81 270.038 69.382 269.842L68.276 269.688C67.45 269.562 67.03 269.254 67.03 268.638C67.03 267.98 67.632 267.518 68.612 267.518C69.62 267.518 70.18 267.994 70.222 268.722H71.524C71.468 267.546 70.474 266.538 68.64 266.538C66.946 266.538 65.742 267.392 65.742 268.736C65.742 269.982 66.596 270.598 67.856 270.78L68.962 270.934C69.844 271.06 70.39 271.354 70.39 272.04C70.39 272.782 69.704 273.23 68.682 273.23C67.632 273.23 66.876 272.796 66.848 271.886H65.518ZM76.3901 274.196C78.1401 274.196 79.3161 273.244 79.5821 271.9H78.2801C78.1681 272.53 77.5381 273.188 76.4181 273.188C75.1301 273.188 74.1781 272.236 74.1781 270.71V270.668H79.7221V270.206C79.7221 268.148 78.5181 266.566 76.3481 266.566C74.1921 266.566 72.8901 268.218 72.8901 270.374C72.8901 272.516 74.1221 274.196 76.3901 274.196ZM76.3481 267.56C77.5241 267.56 78.3641 268.344 78.4201 269.744H74.1921C74.3041 268.372 75.2281 267.56 76.3481 267.56ZM82.7195 269.758C82.7195 268.33 83.6435 267.658 84.6515 267.658C85.6175 267.658 86.4435 268.288 86.4435 269.59V274H87.7315V269.478C87.7315 267.574 86.5415 266.566 85.0295 266.566C83.9655 266.566 83.0835 267.028 82.6635 267.994H82.6495V266.762H81.4315V274H82.7195V269.758ZM96.3364 274V263.612H95.0484V268.05H95.0344C94.5864 267.126 93.7464 266.566 92.5704 266.566C90.5824 266.566 89.3784 268.232 89.3784 270.374C89.3784 272.53 90.5544 274.196 92.5704 274.196C93.8024 274.196 94.6564 273.594 95.0904 272.628H95.1044V274H96.3364ZM90.6664 270.654V270.122C90.6664 268.554 91.6604 267.644 92.8504 267.644C94.0544 267.644 95.0484 268.582 95.0484 270.122V270.654C95.0484 272.166 94.0544 273.118 92.8504 273.118C91.6604 273.118 90.6664 272.222 90.6664 270.654ZM101.546 274.196C103.296 274.196 104.472 273.244 104.738 271.9H103.436C103.324 272.53 102.694 273.188 101.574 273.188C100.286 273.188 99.3343 272.236 99.3343 270.71V270.668H104.878V270.206C104.878 268.148 103.674 266.566 101.504 266.566C99.3483 266.566 98.0463 268.218 98.0463 270.374C98.0463 272.516 99.2783 274.196 101.546 274.196ZM101.504 267.56C102.68 267.56 103.52 268.344 103.576 269.744H99.3483C99.4603 268.372 100.384 267.56 101.504 267.56ZM106.588 274H107.876V269.8C107.876 268.736 108.268 267.91 109.64 267.91H110.844V266.72H109.878C108.646 266.72 108.058 267.336 107.834 267.98H107.82V266.762H106.588V274ZM111.565 271.886C111.607 273.286 112.797 274.21 114.687 274.21C116.479 274.21 117.739 273.356 117.739 271.942C117.739 270.71 116.857 270.038 115.429 269.842L114.323 269.688C113.497 269.562 113.077 269.254 113.077 268.638C113.077 267.98 113.679 267.518 114.659 267.518C115.667 267.518 116.227 267.994 116.269 268.722H117.571C117.515 267.546 116.521 266.538 114.687 266.538C112.993 266.538 111.789 267.392 111.789 268.736C111.789 269.982 112.643 270.598 113.903 270.78L115.009 270.934C115.891 271.06 116.437 271.354 116.437 272.04C116.437 272.782 115.751 273.23 114.729 273.23C113.679 273.23 112.923 272.796 112.895 271.886H111.565ZM122.278 268.778H123.552C123.636 268.008 124.182 267.546 125.218 267.546C126.366 267.546 126.758 268.134 126.758 268.708C126.758 269.268 126.38 269.506 125.638 269.632L124.546 269.814C123.02 270.052 122.012 270.724 122.012 272.054C122.012 273.412 123.062 274.196 124.49 274.196C125.708 274.196 126.604 273.58 126.954 272.684H126.968V272.824C126.954 273.594 127.318 274 128.228 274H129.054V272.964H128.606C128.256 272.964 128.074 272.852 128.074 272.404V268.974C128.074 267.336 126.898 266.566 125.246 266.566C123.426 266.566 122.404 267.476 122.278 268.778ZM126.8 270.99C126.8 272.306 125.946 273.188 124.728 273.188C123.86 273.188 123.272 272.768 123.272 272.012V271.928C123.272 271.228 123.846 270.85 124.77 270.696L125.834 270.514C126.338 270.43 126.66 270.234 126.8 270.038V270.99ZM131.583 269.758C131.583 268.33 132.507 267.658 133.515 267.658C134.481 267.658 135.307 268.288 135.307 269.59V274H136.595V269.478C136.595 267.574 135.405 266.566 133.893 266.566C132.829 266.566 131.947 267.028 131.527 267.994H131.513V266.762H130.295V274H131.583V269.758ZM145.2 274V263.612H143.912V268.05H143.898C143.45 267.126 142.61 266.566 141.434 266.566C139.446 266.566 138.242 268.232 138.242 270.374C138.242 272.53 139.418 274.196 141.434 274.196C142.666 274.196 143.52 273.594 143.954 272.628H143.968V274H145.2ZM139.53 270.654V270.122C139.53 268.554 140.524 267.644 141.714 267.644C142.918 267.644 143.912 268.582 143.912 270.122V270.654C143.912 272.166 142.918 273.118 141.714 273.118C140.524 273.118 139.53 272.222 139.53 270.654ZM150.264 268.778H151.538C151.622 268.008 152.168 267.546 153.204 267.546C154.352 267.546 154.744 268.134 154.744 268.708C154.744 269.268 154.366 269.506 153.624 269.632L152.532 269.814C151.006 270.052 149.998 270.724 149.998 272.054C149.998 273.412 151.048 274.196 152.476 274.196C153.694 274.196 154.59 273.58 154.94 272.684H154.954V272.824C154.94 273.594 155.304 274 156.214 274H157.04V272.964H156.592C156.242 272.964 156.06 272.852 156.06 272.404V268.974C156.06 267.336 154.884 266.566 153.232 266.566C151.412 266.566 150.39 267.476 150.264 268.778ZM154.786 270.99C154.786 272.306 153.932 273.188 152.714 273.188C151.846 273.188 151.258 272.768 151.258 272.012V271.928C151.258 271.228 151.832 270.85 152.756 270.696L153.82 270.514C154.324 270.43 154.646 270.234 154.786 270.038V270.99ZM164.819 274V263.612H163.531V268.05H163.517C163.069 267.126 162.229 266.566 161.053 266.566C159.065 266.566 157.861 268.232 157.861 270.374C157.861 272.53 159.037 274.196 161.053 274.196C162.285 274.196 163.139 273.594 163.573 272.628H163.587V274H164.819ZM159.149 270.654V270.122C159.149 268.554 160.143 267.644 161.333 267.644C162.537 267.644 163.531 268.582 163.531 270.122V270.654C163.531 272.166 162.537 273.118 161.333 273.118C160.143 273.118 159.149 272.222 159.149 270.654ZM173.067 266.762H171.751L169.637 272.502H169.623L167.495 266.762H166.081L168.923 274.014H170.281L173.067 266.762ZM173.793 268.778H175.067C175.151 268.008 175.697 267.546 176.733 267.546C177.881 267.546 178.273 268.134 178.273 268.708C178.273 269.268 177.895 269.506 177.153 269.632L176.061 269.814C174.535 270.052 173.527 270.724 173.527 272.054C173.527 273.412 174.577 274.196 176.005 274.196C177.223 274.196 178.119 273.58 178.469 272.684H178.483V272.824C178.469 273.594 178.833 274 179.743 274H180.569V272.964H180.121C179.771 272.964 179.589 272.852 179.589 272.404V268.974C179.589 267.336 178.413 266.566 176.761 266.566C174.941 266.566 173.919 267.476 173.793 268.778ZM178.315 270.99C178.315 272.306 177.461 273.188 176.243 273.188C175.375 273.188 174.787 272.768 174.787 272.012V271.928C174.787 271.228 175.361 270.85 176.285 270.696L177.349 270.514C177.853 270.43 178.175 270.234 178.315 270.038V270.99ZM183.098 269.758C183.098 268.33 184.022 267.658 185.03 267.658C185.996 267.658 186.822 268.288 186.822 269.59V274H188.11V269.478C188.11 267.574 186.92 266.566 185.408 266.566C184.344 266.566 183.462 267.028 183.042 267.994H183.028V266.762H181.81V274H183.098V269.758ZM191.045 270.108C191.045 268.582 192.011 267.644 193.229 267.644C194.293 267.644 194.881 268.274 195.077 269.016H196.351C196.085 267.546 194.951 266.566 193.243 266.566C191.031 266.566 189.757 268.19 189.757 270.374C189.757 272.544 191.003 274.196 193.243 274.196C194.951 274.196 196.071 273.202 196.351 271.704H195.091C194.881 272.488 194.265 273.118 193.229 273.118C192.011 273.118 191.045 272.166 191.045 270.654V270.108ZM201.064 274.196C202.814 274.196 203.99 273.244 204.256 271.9H202.954C202.842 272.53 202.212 273.188 201.092 273.188C199.804 273.188 198.852 272.236 198.852 270.71V270.668H204.396V270.206C204.396 268.148 203.192 266.566 201.022 266.566C198.866 266.566 197.564 268.218 197.564 270.374C197.564 272.516 198.796 274.196 201.064 274.196ZM201.022 267.56C202.198 267.56 203.038 268.344 203.094 269.744H198.866C198.978 268.372 199.902 267.56 201.022 267.56ZM212.629 274V263.612H211.341V268.05H211.327C210.879 267.126 210.039 266.566 208.863 266.566C206.875 266.566 205.671 268.232 205.671 270.374C205.671 272.53 206.847 274.196 208.863 274.196C210.095 274.196 210.949 273.594 211.383 272.628H211.397V274H212.629ZM206.959 270.654V270.122C206.959 268.554 207.953 267.644 209.143 267.644C210.347 267.644 211.341 268.582 211.341 270.122V270.654C211.341 272.166 210.347 273.118 209.143 273.118C207.953 273.118 206.959 272.222 206.959 270.654ZM217.358 271.886C217.4 273.286 218.59 274.21 220.48 274.21C222.272 274.21 223.532 273.356 223.532 271.942C223.532 270.71 222.65 270.038 221.222 269.842L220.116 269.688C219.29 269.562 218.87 269.254 218.87 268.638C218.87 267.98 219.472 267.518 220.452 267.518C221.46 267.518 222.02 267.994 222.062 268.722H223.364C223.308 267.546 222.314 266.538 220.48 266.538C218.786 266.538 217.582 267.392 217.582 268.736C217.582 269.982 218.436 270.598 219.696 270.78L220.802 270.934C221.684 271.06 222.23 271.354 222.23 272.04C222.23 272.782 221.544 273.23 220.522 273.23C219.472 273.23 218.716 272.796 218.688 271.886H217.358ZM228.23 274.196C229.98 274.196 231.156 273.244 231.422 271.9H230.12C230.008 272.53 229.378 273.188 228.258 273.188C226.97 273.188 226.018 272.236 226.018 270.71V270.668H231.562V270.206C231.562 268.148 230.358 266.566 228.188 266.566C226.032 266.566 224.73 268.218 224.73 270.374C224.73 272.516 225.962 274.196 228.23 274.196ZM228.188 267.56C229.364 267.56 230.204 268.344 230.26 269.744H226.032C226.144 268.372 227.068 267.56 228.188 267.56ZM234.559 269.758C234.559 268.33 235.483 267.658 236.491 267.658C237.457 267.658 238.283 268.288 238.283 269.59V274H239.571V269.478C239.571 267.574 238.381 266.566 236.869 266.566C235.805 266.566 234.923 267.028 234.503 267.994H234.489V266.762H233.271V274H234.559V269.758ZM248.176 274V263.612H246.888V268.05H246.874C246.426 267.126 245.586 266.566 244.41 266.566C242.422 266.566 241.218 268.232 241.218 270.374C241.218 272.53 242.394 274.196 244.41 274.196C245.642 274.196 246.496 273.594 246.93 272.628H246.944V274H248.176ZM242.506 270.654V270.122C242.506 268.554 243.5 267.644 244.69 267.644C245.894 267.644 246.888 268.582 246.888 270.122V270.654C246.888 272.166 245.894 273.118 244.69 273.118C243.5 273.118 242.506 272.222 242.506 270.654ZM253.386 274.196C255.136 274.196 256.312 273.244 256.578 271.9H255.276C255.164 272.53 254.534 273.188 253.414 273.188C252.126 273.188 251.174 272.236 251.174 270.71V270.668H256.718V270.206C256.718 268.148 255.514 266.566 253.344 266.566C251.188 266.566 249.886 268.218 249.886 270.374C249.886 272.516 251.118 274.196 253.386 274.196ZM253.344 267.56C254.52 267.56 255.36 268.344 255.416 269.744H251.188C251.3 268.372 252.224 267.56 253.344 267.56ZM258.428 274H259.716V269.8C259.716 268.736 260.108 267.91 261.48 267.91H262.684V266.72H261.718C260.486 266.72 259.898 267.336 259.674 267.98H259.66V266.762H258.428V274ZM263.405 271.886C263.447 273.286 264.637 274.21 266.527 274.21C268.319 274.21 269.579 273.356 269.579 271.942C269.579 270.71 268.697 270.038 267.269 269.842L266.163 269.688C265.337 269.562 264.917 269.254 264.917 268.638C264.917 267.98 265.519 267.518 266.499 267.518C267.507 267.518 268.067 267.994 268.109 268.722H269.411C269.355 267.546 268.361 266.538 266.527 266.538C264.833 266.538 263.629 267.392 263.629 268.736C263.629 269.982 264.483 270.598 265.743 270.78L266.849 270.934C267.731 271.06 268.277 271.354 268.277 272.04C268.277 272.782 267.591 273.23 266.569 273.23C265.519 273.23 264.763 272.796 264.735 271.886H263.405ZM271.633 276.016L272.809 272.446H271.479L270.499 276.016H271.633ZM66.078 294H67.31V292.628H67.324C67.744 293.594 68.612 294.196 69.83 294.196C71.86 294.196 73.036 292.53 73.036 290.374C73.036 288.232 71.832 286.566 69.83 286.566C68.668 286.566 67.828 287.126 67.38 288.05H67.366V283.612H66.078V294ZM71.734 290.654C71.734 292.222 70.754 293.118 69.55 293.118C68.346 293.118 67.366 292.166 67.366 290.654V290.122C67.366 288.582 68.346 287.644 69.55 287.644C70.754 287.644 71.734 288.554 71.734 290.122V290.654ZM79.688 291.004C79.688 292.432 78.764 293.104 77.756 293.104C76.79 293.104 75.964 292.474 75.964 291.172V286.762H74.676V291.284C74.676 293.188 75.866 294.196 77.378 294.196C78.442 294.196 79.324 293.734 79.744 292.768H79.758V294H80.976V286.762H79.688V291.004ZM82.3148 286.762V287.826H83.9668V292.278C83.9668 293.426 84.5128 294 85.7448 294H87.6348V292.936H85.9828C85.4648 292.936 85.2548 292.712 85.2548 292.194V287.826H87.6208V286.762H85.2548V284.592H83.9668V286.762H82.3148ZM91.4877 286.762L93.8537 294.014H95.1557L96.9057 288.33H96.9197L98.6977 294.014H100.028L102.296 286.762H101.05L99.3837 292.362H99.3697L97.6057 286.748H96.3037L94.5817 292.39H94.5677L92.8457 286.762H91.4877ZM106.468 294.196C108.218 294.196 109.394 293.244 109.66 291.9H108.358C108.246 292.53 107.616 293.188 106.496 293.188C105.208 293.188 104.256 292.236 104.256 290.71V290.668H109.8V290.206C109.8 288.148 108.596 286.566 106.426 286.566C104.27 286.566 102.968 288.218 102.968 290.374C102.968 292.516 104.2 294.196 106.468 294.196ZM106.426 287.56C107.602 287.56 108.442 288.344 108.498 289.744H104.27C104.382 288.372 105.306 287.56 106.426 287.56ZM114.43 288.778H115.704C115.788 288.008 116.334 287.546 117.37 287.546C118.518 287.546 118.91 288.134 118.91 288.708C118.91 289.268 118.532 289.506 117.79 289.632L116.698 289.814C115.172 290.052 114.164 290.724 114.164 292.054C114.164 293.412 115.214 294.196 116.642 294.196C117.86 294.196 118.756 293.58 119.106 292.684H119.12V292.824C119.106 293.594 119.47 294 120.38 294H121.206V292.964H120.758C120.408 292.964 120.226 292.852 120.226 292.404V288.974C120.226 287.336 119.05 286.566 117.398 286.566C115.578 286.566 114.556 287.476 114.43 288.778ZM118.952 290.99C118.952 292.306 118.098 293.188 116.88 293.188C116.012 293.188 115.424 292.768 115.424 292.012V291.928C115.424 291.228 115.998 290.85 116.922 290.696L117.986 290.514C118.49 290.43 118.812 290.234 118.952 290.038V290.99ZM122.295 292.278C122.295 293.426 122.855 294 124.073 294H125.655V292.922H124.381C123.821 292.922 123.583 292.684 123.583 292.124V283.612H122.295V292.278ZM126.358 291.886C126.4 293.286 127.59 294.21 129.48 294.21C131.272 294.21 132.532 293.356 132.532 291.942C132.532 290.71 131.65 290.038 130.222 289.842L129.116 289.688C128.29 289.562 127.87 289.254 127.87 288.638C127.87 287.98 128.472 287.518 129.452 287.518C130.46 287.518 131.02 287.994 131.062 288.722H132.364C132.308 287.546 131.314 286.538 129.48 286.538C127.786 286.538 126.582 287.392 126.582 288.736C126.582 289.982 127.436 290.598 128.696 290.78L129.802 290.934C130.684 291.06 131.23 291.354 131.23 292.04C131.23 292.782 130.544 293.23 129.522 293.23C128.472 293.23 127.716 292.796 127.688 291.886H126.358ZM137.244 294.196C139.484 294.196 140.758 292.516 140.758 290.374C140.758 288.232 139.442 286.566 137.244 286.566C135.032 286.566 133.73 288.232 133.73 290.374C133.73 292.516 135.004 294.196 137.244 294.196ZM139.456 290.64C139.456 292.208 138.462 293.118 137.244 293.118C136.026 293.118 135.018 292.152 135.018 290.64V290.108C135.018 288.582 136.026 287.644 137.244 287.644C138.462 287.644 139.456 288.554 139.456 290.108V290.64ZM145.061 291.886C145.103 293.286 146.293 294.21 148.183 294.21C149.975 294.21 151.235 293.356 151.235 291.942C151.235 290.71 150.353 290.038 148.925 289.842L147.819 289.688C146.993 289.562 146.573 289.254 146.573 288.638C146.573 287.98 147.175 287.518 148.155 287.518C149.163 287.518 149.723 287.994 149.765 288.722H151.067C151.011 287.546 150.017 286.538 148.183 286.538C146.489 286.538 145.285 287.392 145.285 288.736C145.285 289.982 146.139 290.598 147.399 290.78L148.505 290.934C149.387 291.06 149.933 291.354 149.933 292.04C149.933 292.782 149.247 293.23 148.225 293.23C147.175 293.23 146.419 292.796 146.391 291.886H145.061ZM152.629 288.778H153.903C153.987 288.008 154.533 287.546 155.569 287.546C156.717 287.546 157.109 288.134 157.109 288.708C157.109 289.268 156.731 289.506 155.989 289.632L154.897 289.814C153.371 290.052 152.363 290.724 152.363 292.054C152.363 293.412 153.413 294.196 154.841 294.196C156.059 294.196 156.955 293.58 157.305 292.684H157.319V292.824C157.305 293.594 157.669 294 158.579 294H159.405V292.964H158.957C158.607 292.964 158.425 292.852 158.425 292.404V288.974C158.425 287.336 157.249 286.566 155.597 286.566C153.777 286.566 152.755 287.476 152.629 288.778ZM157.151 290.99C157.151 292.306 156.297 293.188 155.079 293.188C154.211 293.188 153.623 292.768 153.623 292.012V291.928C153.623 291.228 154.197 290.85 155.121 290.696L156.185 290.514C156.689 290.43 157.011 290.234 157.151 290.038V290.99ZM159.423 286.762L161.789 294.014H163.091L164.841 288.33H164.855L166.633 294.014H167.963L170.231 286.762H168.985L167.319 292.362H167.305L165.541 286.748H164.239L162.517 292.39H162.503L160.781 286.762H159.423ZM174.463 288.778H175.737C175.821 288.008 176.367 287.546 177.403 287.546C178.551 287.546 178.943 288.134 178.943 288.708C178.943 289.268 178.565 289.506 177.823 289.632L176.731 289.814C175.205 290.052 174.197 290.724 174.197 292.054C174.197 293.412 175.247 294.196 176.675 294.196C177.893 294.196 178.789 293.58 179.139 292.684H179.153V292.824C179.139 293.594 179.503 294 180.413 294H181.239V292.964H180.791C180.441 292.964 180.259 292.852 180.259 292.404V288.974C180.259 287.336 179.083 286.566 177.431 286.566C175.611 286.566 174.589 287.476 174.463 288.778ZM178.985 290.99C178.985 292.306 178.131 293.188 176.913 293.188C176.045 293.188 175.457 292.768 175.457 292.012V291.928C175.457 291.228 176.031 290.85 176.955 290.696L178.019 290.514C178.523 290.43 178.845 290.234 178.985 290.038V290.99ZM192.288 290.766C192.288 288.778 190.93 287.406 189.138 287.406C188.494 287.406 188.032 287.588 187.654 287.882H187.64L190.398 284.144H188.886L186.38 287.672C185.61 288.75 185.274 289.632 185.274 290.71C185.274 292.684 186.716 294.196 188.76 294.196C190.832 294.196 192.288 292.726 192.288 290.766ZM186.59 290.668C186.59 289.422 187.486 288.442 188.802 288.442C190.258 288.442 190.972 289.45 190.972 290.668V290.836C190.972 292.068 190.188 293.132 188.802 293.132C187.43 293.132 186.59 292.026 186.59 290.836V290.668ZM198.585 288.792C199.691 288.54 200.377 287.672 200.377 286.594C200.377 285.04 199.061 283.934 197.115 283.934C195.183 283.934 193.853 285.04 193.853 286.594C193.853 287.672 194.539 288.54 195.645 288.792V288.806C194.455 289.058 193.587 289.968 193.587 291.34C193.587 292.992 195.001 294.196 197.115 294.196C199.229 294.196 200.657 292.992 200.657 291.34C200.657 289.968 199.775 289.058 198.585 288.806V288.792ZM195.141 286.608C195.141 285.684 195.925 284.998 197.115 284.998C198.319 284.998 199.089 285.684 199.089 286.608V286.748C199.089 287.63 198.277 288.344 197.115 288.344C195.953 288.344 195.141 287.63 195.141 286.748V286.608ZM194.903 291.144C194.903 290.122 195.743 289.324 197.115 289.324C198.487 289.324 199.327 290.122 199.327 291.144V291.312C199.327 292.362 198.459 293.146 197.115 293.146C195.771 293.146 194.903 292.362 194.903 291.312V291.144ZM204.406 289.548C205.974 289.548 206.996 288.442 206.996 286.79C206.996 285.124 206.016 283.962 204.448 283.962C202.866 283.962 201.9 285.124 201.9 286.79C201.9 288.442 202.824 289.548 204.406 289.548ZM203.734 294H204.994L208.494 289.086L212.05 284.144H210.79L207.276 289.086L203.734 294ZM204.406 288.582C203.468 288.582 202.978 287.854 202.978 286.79C202.978 285.712 203.51 284.942 204.448 284.942C205.386 284.942 205.918 285.712 205.918 286.79C205.918 287.854 205.344 288.582 204.406 288.582ZM211.322 294.21C212.876 294.21 213.856 293.048 213.856 291.396C213.856 289.744 212.876 288.582 211.322 288.582C209.74 288.582 208.774 289.744 208.774 291.396C208.774 293.048 209.74 294.21 211.322 294.21ZM211.322 293.23C210.384 293.23 209.852 292.474 209.852 291.396C209.852 290.318 210.384 289.548 211.322 289.548C212.246 289.548 212.778 290.318 212.778 291.396C212.778 292.474 212.246 293.23 211.322 293.23ZM225.331 294V283.612H224.043V288.05H224.029C223.581 287.126 222.741 286.566 221.565 286.566C219.577 286.566 218.373 288.232 218.373 290.374C218.373 292.53 219.549 294.196 221.565 294.196C222.797 294.196 223.651 293.594 224.085 292.628H224.099V294H225.331ZM219.661 290.654V290.122C219.661 288.554 220.655 287.644 221.845 287.644C223.049 287.644 224.043 288.582 224.043 290.122V290.654C224.043 292.166 223.049 293.118 221.845 293.118C220.655 293.118 219.661 292.222 219.661 290.654ZM230.54 294.196C232.29 294.196 233.466 293.244 233.732 291.9H232.43C232.318 292.53 231.688 293.188 230.568 293.188C229.28 293.188 228.328 292.236 228.328 290.71V290.668H233.872V290.206C233.872 288.148 232.668 286.566 230.498 286.566C228.342 286.566 227.04 288.218 227.04 290.374C227.04 292.516 228.272 294.196 230.54 294.196ZM230.498 287.56C231.674 287.56 232.514 288.344 232.57 289.744H228.342C228.454 288.372 229.378 287.56 230.498 287.56ZM236.436 290.108C236.436 288.582 237.402 287.644 238.62 287.644C239.684 287.644 240.272 288.274 240.468 289.016H241.742C241.476 287.546 240.342 286.566 238.634 286.566C236.422 286.566 235.148 288.19 235.148 290.374C235.148 292.544 236.394 294.196 238.634 294.196C240.342 294.196 241.462 293.202 241.742 291.704H240.482C240.272 292.488 239.656 293.118 238.62 293.118C237.402 293.118 236.436 292.166 236.436 290.654V290.108ZM243.389 294H244.677V289.8C244.677 288.736 245.069 287.91 246.441 287.91H247.645V286.72H246.679C245.447 286.72 244.859 287.336 244.635 287.98H244.621V286.762H243.389V294ZM251.787 294.196C253.537 294.196 254.713 293.244 254.979 291.9H253.677C253.565 292.53 252.935 293.188 251.815 293.188C250.527 293.188 249.575 292.236 249.575 290.71V290.668H255.119V290.206C255.119 288.148 253.915 286.566 251.745 286.566C249.589 286.566 248.287 288.218 248.287 290.374C248.287 292.516 249.519 294.196 251.787 294.196ZM251.745 287.56C252.921 287.56 253.761 288.344 253.817 289.744H249.589C249.701 288.372 250.625 287.56 251.745 287.56ZM256.631 288.778H257.905C257.989 288.008 258.535 287.546 259.571 287.546C260.719 287.546 261.111 288.134 261.111 288.708C261.111 289.268 260.733 289.506 259.991 289.632L258.899 289.814C257.373 290.052 256.365 290.724 256.365 292.054C256.365 293.412 257.415 294.196 258.843 294.196C260.061 294.196 260.957 293.58 261.307 292.684H261.321V292.824C261.307 293.594 261.671 294 262.581 294H263.407V292.964H262.959C262.609 292.964 262.427 292.852 262.427 292.404V288.974C262.427 287.336 261.251 286.566 259.599 286.566C257.779 286.566 256.757 287.476 256.631 288.778ZM261.153 290.99C261.153 292.306 260.299 293.188 259.081 293.188C258.213 293.188 257.625 292.768 257.625 292.012V291.928C257.625 291.228 258.199 290.85 259.123 290.696L260.187 290.514C260.691 290.43 261.013 290.234 261.153 290.038V290.99ZM264.143 291.886C264.185 293.286 265.375 294.21 267.265 294.21C269.057 294.21 270.317 293.356 270.317 291.942C270.317 290.71 269.435 290.038 268.007 289.842L266.901 289.688C266.075 289.562 265.655 289.254 265.655 288.638C265.655 287.98 266.257 287.518 267.237 287.518C268.245 287.518 268.805 287.994 268.847 288.722H270.149C270.093 287.546 269.099 286.538 267.265 286.538C265.571 286.538 264.367 287.392 264.367 288.736C264.367 289.982 265.221 290.598 266.481 290.78L267.587 290.934C268.469 291.06 269.015 291.354 269.015 292.04C269.015 292.782 268.329 293.23 267.307 293.23C266.257 293.23 265.501 292.796 265.473 291.886H264.143ZM275.015 294.196C276.765 294.196 277.941 293.244 278.207 291.9H276.905C276.793 292.53 276.163 293.188 275.043 293.188C273.755 293.188 272.803 292.236 272.803 290.71V290.668H278.347V290.206C278.347 288.148 277.143 286.566 274.973 286.566C272.817 286.566 271.515 288.218 271.515 290.374C271.515 292.516 272.747 294.196 275.015 294.196ZM274.973 287.56C276.149 287.56 276.989 288.344 277.045 289.744H272.817C272.929 288.372 273.853 287.56 274.973 287.56ZM67.226 305.53C67.73 305.53 68.108 305.138 68.108 304.662C68.108 304.158 67.73 303.794 67.226 303.794H67.156C66.638 303.794 66.26 304.158 66.26 304.662C66.26 305.138 66.638 305.53 67.156 305.53H67.226ZM65.378 307.812H66.54V314H67.828V306.762H65.378V307.812ZM71.2762 309.758C71.2762 308.33 72.2002 307.658 73.2082 307.658C74.1742 307.658 75.0002 308.288 75.0002 309.59V314H76.2882V309.478C76.2882 307.574 75.0982 306.566 73.5862 306.566C72.5222 306.566 71.6402 307.028 71.2202 307.994H71.2062V306.762H69.9882V314H71.2762V309.758ZM85.6015 313.034C83.8935 313.034 82.4935 311.718 82.4935 309.366V308.764C82.4935 306.412 83.8935 305.096 85.6015 305.096C87.0295 305.096 87.8695 305.838 88.1215 306.93H89.5495C89.1715 305.152 87.7435 303.934 85.6295 303.934C82.6615 303.934 81.1355 306.286 81.1355 309.072C81.1355 311.872 82.6615 314.196 85.6295 314.196C87.7435 314.196 89.1995 312.95 89.5775 311.088H88.1775C87.9395 312.166 87.0995 313.034 85.6015 313.034ZM93.3588 308.932L89.8728 314H91.3708L94.1148 309.968H94.1288L96.8728 314H98.4408L94.9408 308.918L98.2308 304.144H96.7328L94.1708 307.882H94.1568L91.5948 304.144H90.0408L93.3588 308.932ZM103.949 305.53C104.453 305.53 104.831 305.138 104.831 304.662C104.831 304.158 104.453 303.794 103.949 303.794H103.879C103.361 303.794 102.983 304.158 102.983 304.662C102.983 305.138 103.361 305.53 103.879 305.53H103.949ZM102.101 307.812H103.263V314H104.551V306.762H102.101V307.812ZM106.151 311.886C106.193 313.286 107.383 314.21 109.273 314.21C111.065 314.21 112.325 313.356 112.325 311.942C112.325 310.71 111.443 310.038 110.015 309.842L108.909 309.688C108.083 309.562 107.663 309.254 107.663 308.638C107.663 307.98 108.265 307.518 109.245 307.518C110.253 307.518 110.813 307.994 110.855 308.722H112.157C112.101 307.546 111.107 306.538 109.273 306.538C107.579 306.538 106.375 307.392 106.375 308.736C106.375 309.982 107.229 310.598 108.489 310.78L109.595 310.934C110.477 311.06 111.023 311.354 111.023 312.04C111.023 312.782 110.337 313.23 109.315 313.23C108.265 313.23 107.509 312.796 107.481 311.886H106.151ZM113.383 311.886C113.425 313.286 114.615 314.21 116.505 314.21C118.297 314.21 119.557 313.356 119.557 311.942C119.557 310.71 118.675 310.038 117.247 309.842L116.141 309.688C115.315 309.562 114.895 309.254 114.895 308.638C114.895 307.98 115.497 307.518 116.477 307.518C117.485 307.518 118.045 307.994 118.087 308.722H119.389C119.333 307.546 118.339 306.538 116.505 306.538C114.811 306.538 113.607 307.392 113.607 308.736C113.607 309.982 114.461 310.598 115.721 310.78L116.827 310.934C117.709 311.06 118.255 311.354 118.255 312.04C118.255 312.782 117.569 313.23 116.547 313.23C115.497 313.23 114.741 312.796 114.713 311.886H113.383ZM126.118 311.004C126.118 312.432 125.194 313.104 124.186 313.104C123.22 313.104 122.394 312.474 122.394 311.172V306.762H121.106V311.284C121.106 313.188 122.296 314.196 123.808 314.196C124.872 314.196 125.754 313.734 126.174 312.768H126.188V314H127.406V306.762H126.118V311.004ZM132.623 314.196C134.373 314.196 135.549 313.244 135.815 311.9H134.513C134.401 312.53 133.771 313.188 132.651 313.188C131.363 313.188 130.411 312.236 130.411 310.71V310.668H135.955V310.206C135.955 308.148 134.751 306.566 132.581 306.566C130.425 306.566 129.123 308.218 129.123 310.374C129.123 312.516 130.355 314.196 132.623 314.196ZM132.581 307.56C133.757 307.56 134.597 308.344 134.653 309.744H130.425C130.537 308.372 131.461 307.56 132.581 307.56ZM137.104 311.886C137.146 313.286 138.336 314.21 140.226 314.21C142.018 314.21 143.278 313.356 143.278 311.942C143.278 310.71 142.396 310.038 140.968 309.842L139.862 309.688C139.036 309.562 138.616 309.254 138.616 308.638C138.616 307.98 139.218 307.518 140.198 307.518C141.206 307.518 141.766 307.994 141.808 308.722H143.11C143.054 307.546 142.06 306.538 140.226 306.538C138.532 306.538 137.328 307.392 137.328 308.736C137.328 309.982 138.182 310.598 139.442 310.78L140.548 310.934C141.43 311.06 141.976 311.354 141.976 312.04C141.976 312.782 141.29 313.23 140.268 313.23C139.218 313.23 138.462 312.796 138.434 311.886H137.104ZM147.817 308.778H149.091C149.175 308.008 149.721 307.546 150.757 307.546C151.905 307.546 152.297 308.134 152.297 308.708C152.297 309.268 151.919 309.506 151.177 309.632L150.085 309.814C148.559 310.052 147.551 310.724 147.551 312.054C147.551 313.412 148.601 314.196 150.029 314.196C151.247 314.196 152.143 313.58 152.493 312.684H152.507V312.824C152.493 313.594 152.857 314 153.767 314H154.593V312.964H154.145C153.795 312.964 153.613 312.852 153.613 312.404V308.974C153.613 307.336 152.437 306.566 150.785 306.566C148.965 306.566 147.943 307.476 147.817 308.778ZM152.339 310.99C152.339 312.306 151.485 313.188 150.267 313.188C149.399 313.188 148.811 312.768 148.811 312.012V311.928C148.811 311.228 149.385 310.85 150.309 310.696L151.373 310.514C151.877 310.43 152.199 310.234 152.339 310.038V310.99ZM157.122 309.758C157.122 308.33 158.046 307.658 159.054 307.658C160.02 307.658 160.846 308.288 160.846 309.59V314H162.134V309.478C162.134 307.574 160.944 306.566 159.432 306.566C158.368 306.566 157.486 307.028 157.066 307.994H157.052V306.762H155.834V314H157.122V309.758ZM170.739 314V303.612H169.451V308.05H169.437C168.989 307.126 168.149 306.566 166.973 306.566C164.985 306.566 163.781 308.232 163.781 310.374C163.781 312.53 164.957 314.196 166.973 314.196C168.205 314.196 169.059 313.594 169.493 312.628H169.507V314H170.739ZM165.069 310.654V310.122C165.069 308.554 166.063 307.644 167.253 307.644C168.457 307.644 169.451 308.582 169.451 310.122V310.654C169.451 312.166 168.457 313.118 167.253 313.118C166.063 313.118 165.069 312.222 165.069 310.654ZM175.803 308.778H177.077C177.161 308.008 177.707 307.546 178.743 307.546C179.891 307.546 180.283 308.134 180.283 308.708C180.283 309.268 179.905 309.506 179.163 309.632L178.071 309.814C176.545 310.052 175.537 310.724 175.537 312.054C175.537 313.412 176.587 314.196 178.015 314.196C179.233 314.196 180.129 313.58 180.479 312.684H180.493V312.824C180.479 313.594 180.843 314 181.753 314H182.579V312.964H182.131C181.781 312.964 181.599 312.852 181.599 312.404V308.974C181.599 307.336 180.423 306.566 178.771 306.566C176.951 306.566 175.929 307.476 175.803 308.778ZM180.325 310.99C180.325 312.306 179.471 313.188 178.253 313.188C177.385 313.188 176.797 312.768 176.797 312.012V311.928C176.797 311.228 177.371 310.85 178.295 310.696L179.359 310.514C179.863 310.43 180.185 310.234 180.325 310.038V310.99ZM190.716 304.144H187.216V314H190.716C193.712 314 195.224 311.76 195.224 309.072C195.224 306.398 193.698 304.144 190.716 304.144ZM190.73 305.306C192.438 305.306 193.852 306.538 193.852 308.764V309.38C193.852 311.606 192.438 312.838 190.73 312.838H188.56V305.306H190.73ZM200.374 314.196C202.67 314.196 204.196 313.02 204.196 311.228C204.196 309.52 202.992 308.764 201.284 308.484L199.898 308.274C198.764 308.092 198.05 307.686 198.05 306.706C198.05 305.754 198.834 305.012 200.36 305.012C201.872 305.012 202.628 305.726 202.698 306.72H204.042C203.972 305.236 202.782 303.934 200.374 303.934C198.022 303.934 196.706 305.208 196.706 306.79C196.706 308.484 197.882 309.254 199.534 309.506L200.948 309.73C202.166 309.926 202.838 310.332 202.838 311.312C202.838 312.39 201.9 313.118 200.388 313.118C198.834 313.118 197.854 312.432 197.798 311.2H196.454C196.51 312.936 197.938 314.196 200.374 314.196ZM212.443 314H213.871L210.021 304.144H208.509L204.701 314H206.101L207.011 311.536H211.505L212.443 314ZM209.223 305.558H209.251L211.071 310.388H207.431L209.223 305.558ZM216.061 305.306V314H217.391V305.306H220.695V304.144H212.757V305.306H216.061ZM224.467 311.886C224.509 313.286 225.699 314.21 227.589 314.21C229.381 314.21 230.641 313.356 230.641 311.942C230.641 310.71 229.759 310.038 228.331 309.842L227.225 309.688C226.399 309.562 225.979 309.254 225.979 308.638C225.979 307.98 226.581 307.518 227.561 307.518C228.569 307.518 229.129 307.994 229.171 308.722H230.473C230.417 307.546 229.423 306.538 227.589 306.538C225.895 306.538 224.691 307.392 224.691 308.736C224.691 309.982 225.545 310.598 226.805 310.78L227.911 310.934C228.793 311.06 229.339 311.354 229.339 312.04C229.339 312.782 228.653 313.23 227.631 313.23C226.581 313.23 225.825 312.796 225.797 311.886H224.467ZM233.127 310.108C233.127 308.582 234.093 307.644 235.311 307.644C236.375 307.644 236.963 308.274 237.159 309.016H238.433C238.167 307.546 237.033 306.566 235.325 306.566C233.113 306.566 231.839 308.19 231.839 310.374C231.839 312.544 233.085 314.196 235.325 314.196C237.033 314.196 238.153 313.202 238.433 311.704H237.173C236.963 312.488 236.347 313.118 235.311 313.118C234.093 313.118 233.127 312.166 233.127 310.654V310.108ZM243.16 314.196C245.4 314.196 246.674 312.516 246.674 310.374C246.674 308.232 245.358 306.566 243.16 306.566C240.948 306.566 239.646 308.232 239.646 310.374C239.646 312.516 240.92 314.196 243.16 314.196ZM245.372 310.64C245.372 312.208 244.378 313.118 243.16 313.118C241.942 313.118 240.934 312.152 240.934 310.64V310.108C240.934 308.582 241.942 307.644 243.16 307.644C244.378 307.644 245.372 308.554 245.372 310.108V310.64ZM248.392 314H249.68V309.8C249.68 308.736 250.072 307.91 251.444 307.91H252.648V306.72H251.682C250.45 306.72 249.862 307.336 249.638 307.98H249.624V306.762H248.392V314ZM256.79 314.196C258.54 314.196 259.716 313.244 259.982 311.9H258.68C258.568 312.53 257.938 313.188 256.818 313.188C255.53 313.188 254.578 312.236 254.578 310.71V310.668H260.122V310.206C260.122 308.148 258.918 306.566 256.748 306.566C254.592 306.566 253.29 308.218 253.29 310.374C253.29 312.516 254.522 314.196 256.79 314.196ZM256.748 307.56C257.924 307.56 258.764 308.344 258.82 309.744H254.592C254.704 308.372 255.628 307.56 256.748 307.56ZM66.078 334H67.366V329.8C67.366 328.736 67.758 327.91 69.13 327.91H70.334V326.72H69.368C68.136 326.72 67.548 327.336 67.324 327.98H67.31V326.762H66.078V334ZM74.476 334.196C76.226 334.196 77.402 333.244 77.668 331.9H76.366C76.254 332.53 75.624 333.188 74.504 333.188C73.216 333.188 72.264 332.236 72.264 330.71V330.668H77.808V330.206C77.808 328.148 76.604 326.566 74.434 326.566C72.278 326.566 70.976 328.218 70.976 330.374C70.976 332.516 72.208 334.196 74.476 334.196ZM74.434 327.56C75.61 327.56 76.45 328.344 76.506 329.744H72.278C72.39 328.372 73.314 327.56 74.434 327.56ZM86.0415 334V323.612H84.7535V328.05H84.7395C84.2915 327.126 83.4515 326.566 82.2755 326.566C80.2875 326.566 79.0835 328.232 79.0835 330.374C79.0835 332.53 80.2595 334.196 82.2755 334.196C83.5075 334.196 84.3615 333.594 84.7955 332.628H84.8095V334H86.0415ZM80.3715 330.654V330.122C80.3715 328.554 81.3655 327.644 82.5555 327.644C83.7595 327.644 84.7535 328.582 84.7535 330.122V330.654C84.7535 332.166 83.7595 333.118 82.5555 333.118C81.3655 333.118 80.3715 332.222 80.3715 330.654ZM93.1274 331.004C93.1274 332.432 92.2034 333.104 91.1954 333.104C90.2294 333.104 89.4034 332.474 89.4034 331.172V326.762H88.1154V331.284C88.1154 333.188 89.3054 334.196 90.8174 334.196C91.8814 334.196 92.7634 333.734 93.1834 332.768H93.1974V334H94.4154V326.762H93.1274V331.004ZM97.4203 330.108C97.4203 328.582 98.3863 327.644 99.6043 327.644C100.668 327.644 101.256 328.274 101.452 329.016H102.726C102.46 327.546 101.326 326.566 99.6183 326.566C97.4063 326.566 96.1323 328.19 96.1323 330.374C96.1323 332.544 97.3783 334.196 99.6183 334.196C101.326 334.196 102.446 333.202 102.726 331.704H101.466C101.256 332.488 100.64 333.118 99.6043 333.118C98.3863 333.118 97.4203 332.166 97.4203 330.654V330.108ZM103.561 326.762V327.826H105.213V332.278C105.213 333.426 105.759 334 106.991 334H108.881V332.936H107.229C106.711 332.936 106.501 332.712 106.501 332.194V327.826H108.867V326.762H106.501V324.592H105.213V326.762H103.561ZM111.591 325.53C112.095 325.53 112.473 325.138 112.473 324.662C112.473 324.158 112.095 323.794 111.591 323.794H111.521C111.003 323.794 110.625 324.158 110.625 324.662C110.625 325.138 111.003 325.53 111.521 325.53H111.591ZM109.743 327.812H110.905V334H112.193V326.762H109.743V327.812ZM117.433 334.196C119.673 334.196 120.947 332.516 120.947 330.374C120.947 328.232 119.631 326.566 117.433 326.566C115.221 326.566 113.919 328.232 113.919 330.374C113.919 332.516 115.193 334.196 117.433 334.196ZM119.645 330.64C119.645 332.208 118.651 333.118 117.433 333.118C116.215 333.118 115.207 332.152 115.207 330.64V330.108C115.207 328.582 116.215 327.644 117.433 327.644C118.651 327.644 119.645 328.554 119.645 330.108V330.64ZM123.954 329.758C123.954 328.33 124.878 327.658 125.886 327.658C126.852 327.658 127.678 328.288 127.678 329.59V334H128.966V329.478C128.966 327.574 127.776 326.566 126.264 326.566C125.2 326.566 124.318 327.028 123.898 327.994H123.884V326.762H122.666V334H123.954V329.758ZM131.789 334.126C132.335 334.126 132.755 333.706 132.755 333.16C132.755 332.614 132.335 332.194 131.789 332.194C131.243 332.194 130.823 332.614 130.823 333.16C130.823 333.706 131.243 334.126 131.789 334.126Z" fill="black"/>
<rect x="385" y="18" width="347" height="388" rx="20" fill="#FFD200"/>
<path d="M409.034 48.2876C406.419 48.2876 404.3 46.1771 404.294 43.5642C404.294 40.9512 406.407 38.8348 409.022 38.8289C411.407 38.8289 413.425 40.6024 413.721 42.9671H418.455C418.135 37.753 413.638 33.7922 408.419 34.1173C403.2 34.4424 399.235 38.9353 399.56 44.1494C399.886 49.3635 404.383 53.3243 409.602 52.9992C414.366 52.7036 418.159 48.9083 418.461 44.1494H413.727C413.431 46.5141 411.419 48.2876 409.034 48.2876Z" fill="white"/>
<path d="M692.665 46.9004H690.617V40.8571H692.706C693.306 40.8571 693.822 40.9781 694.253 41.2201C694.685 41.4601 695.018 41.8053 695.25 42.2558C695.482 42.7063 695.598 43.2453 695.598 43.8729C695.598 44.5024 695.481 45.0433 695.247 45.4958C695.015 45.9483 694.68 46.2955 694.241 46.5374C693.804 46.7794 693.279 46.9004 692.665 46.9004ZM691.712 45.9532H692.612C693.033 45.9532 693.384 45.8765 693.665 45.723C693.947 45.5676 694.158 45.3365 694.3 45.0296C694.442 44.7207 694.512 44.3352 694.512 43.8729C694.512 43.4106 694.442 43.027 694.3 42.722C694.158 42.4152 693.949 42.186 693.671 42.0345C693.396 41.8811 693.054 41.8043 692.644 41.8043H691.712V45.9532ZM702.038 43.8788C702.038 44.5299 701.916 45.0876 701.672 45.5519C701.431 46.0142 701.1 46.3683 700.681 46.6142C700.264 46.8601 699.791 46.983 699.262 46.983C698.732 46.983 698.258 46.8601 697.839 46.6142C697.422 46.3663 697.092 46.0112 696.848 45.5489C696.606 45.0847 696.485 44.5279 696.485 43.8788C696.485 43.2276 696.606 42.6709 696.848 42.2086C697.092 41.7443 697.422 41.3893 697.839 41.1434C698.258 40.8975 698.732 40.7745 699.262 40.7745C699.791 40.7745 700.264 40.8975 700.681 41.1434C701.1 41.3893 701.431 41.7443 701.672 42.2086C701.916 42.6709 702.038 43.2276 702.038 43.8788ZM700.938 43.8788C700.938 43.4204 700.866 43.0338 700.722 42.7191C700.581 42.4024 700.384 42.1634 700.132 42.002C699.88 41.8388 699.59 41.7571 699.262 41.7571C698.933 41.7571 698.643 41.8388 698.391 42.002C698.139 42.1634 697.942 42.4024 697.798 42.7191C697.656 43.0338 697.586 43.4204 697.586 43.8788C697.586 44.3371 697.656 44.7247 697.798 45.0414C697.942 45.3561 698.139 45.5951 698.391 45.7584C698.643 45.9197 698.933 46.0004 699.262 46.0004C699.59 46.0004 699.88 45.9197 700.132 45.7584C700.384 45.5951 700.581 45.3561 700.722 45.0414C700.866 44.7247 700.938 44.3371 700.938 43.8788ZM707.122 42.787C707.073 42.6276 707.005 42.485 706.918 42.3591C706.834 42.2312 706.731 42.122 706.611 42.0315C706.493 41.9411 706.358 41.8732 706.204 41.8279C706.051 41.7807 705.884 41.7571 705.703 41.7571C705.378 41.7571 705.089 41.8388 704.835 42.002C704.581 42.1653 704.382 42.4053 704.236 42.722C704.092 43.0368 704.021 43.4204 704.021 43.8729C704.021 44.3292 704.092 44.7158 704.236 45.0325C704.38 45.3492 704.579 45.5902 704.835 45.7555C705.091 45.9188 705.388 46.0004 705.726 46.0004C706.033 46.0004 706.299 45.9414 706.523 45.8233C706.749 45.7053 706.923 45.5381 707.045 45.3217C707.167 45.1033 707.228 44.8476 707.228 44.5545L707.476 44.5929H705.835V43.7371H708.287V44.463C708.287 44.9804 708.177 45.4279 707.957 45.8056C707.737 46.1833 707.434 46.4745 707.048 46.6791C706.663 46.8817 706.22 46.983 705.72 46.983C705.164 46.983 704.675 46.8581 704.254 46.6083C703.835 46.3565 703.507 45.9994 703.271 45.5371C703.037 45.0729 702.92 44.522 702.92 43.8847C702.92 43.3968 702.989 42.9611 703.126 42.5774C703.266 42.1938 703.461 41.8683 703.711 41.6007C703.961 41.3312 704.254 41.1266 704.59 40.987C704.926 40.8453 705.292 40.7745 705.688 40.7745C706.022 40.7745 706.334 40.8237 706.623 40.922C706.912 41.0184 707.169 41.1561 707.393 41.3352C707.62 41.5142 707.805 41.7266 707.951 41.9725C708.097 42.2184 708.192 42.4899 708.237 42.787H707.122ZM709.346 46.9004V40.8571H713.277V41.7748H710.441V43.4155H713.073V44.3332H710.441V45.9827H713.3V46.9004H709.346Z" fill="white"/>
</svg>
