<svg width="752" height="423" viewBox="0 0 752 423" fill="none" xmlns="http://www.w3.org/2000/svg">
<rect width="752" height="423" fill="#F25138"/>
<path d="M66.0568 52V43.2727H69.0057C69.6903 43.2727 70.25 43.3963 70.6847 43.6435C71.1222 43.8878 71.446 44.2188 71.6562 44.6364C71.8665 45.054 71.9716 45.5199 71.9716 46.0341C71.9716 46.5483 71.8665 47.0156 71.6562 47.4361C71.4489 47.8565 71.1278 48.1918 70.6932 48.4418C70.2585 48.6889 69.7017 48.8125 69.0227 48.8125H66.9091V47.875H68.9886C69.4574 47.875 69.8338 47.794 70.1179 47.6321C70.402 47.4702 70.608 47.2514 70.7358 46.9759C70.8665 46.6974 70.9318 46.3835 70.9318 46.0341C70.9318 45.6847 70.8665 45.3722 70.7358 45.0966C70.608 44.821 70.4006 44.6051 70.1136 44.4489C69.8267 44.2898 69.446 44.2102 68.9716 44.2102H67.1136V52H66.0568ZM73.5376 52V45.4545H74.5092V46.4432H74.5774C74.6967 46.1193 74.9126 45.8565 75.2251 45.6548C75.5376 45.4531 75.8899 45.3523 76.282 45.3523C76.3558 45.3523 76.4482 45.3537 76.5589 45.3565C76.6697 45.3594 76.7536 45.3636 76.8104 45.3693V46.392C76.7763 46.3835 76.6982 46.3707 76.576 46.3537C76.4567 46.3338 76.3303 46.3239 76.1967 46.3239C75.8786 46.3239 75.5945 46.3906 75.3445 46.5241C75.0973 46.6548 74.9013 46.8366 74.7564 47.0696C74.6143 47.2997 74.5433 47.5625 74.5433 47.858V52H73.5376ZM80.4624 52.1364C79.8714 52.1364 79.353 51.9957 78.907 51.7145C78.4638 51.4332 78.1172 51.0398 77.8672 50.5341C77.62 50.0284 77.4964 49.4375 77.4964 48.7614C77.4964 48.0795 77.62 47.4844 77.8672 46.9759C78.1172 46.4673 78.4638 46.0724 78.907 45.7912C79.353 45.5099 79.8714 45.3693 80.4624 45.3693C81.0533 45.3693 81.5703 45.5099 82.0135 45.7912C82.4595 46.0724 82.8061 46.4673 83.0533 46.9759C83.3033 47.4844 83.4283 48.0795 83.4283 48.7614C83.4283 49.4375 83.3033 50.0284 83.0533 50.5341C82.8061 51.0398 82.4595 51.4332 82.0135 51.7145C81.5703 51.9957 81.0533 52.1364 80.4624 52.1364ZM80.4624 51.233C80.9112 51.233 81.2805 51.1179 81.5703 50.8878C81.8601 50.6577 82.0746 50.3551 82.2138 49.9801C82.353 49.6051 82.4226 49.1989 82.4226 48.7614C82.4226 48.3239 82.353 47.9162 82.2138 47.5384C82.0746 47.1605 81.8601 46.8551 81.5703 46.6222C81.2805 46.3892 80.9112 46.2727 80.4624 46.2727C80.0135 46.2727 79.6442 46.3892 79.3544 46.6222C79.0646 46.8551 78.8501 47.1605 78.7109 47.5384C78.5717 47.9162 78.5021 48.3239 78.5021 48.7614C78.5021 49.1989 78.5717 49.6051 78.7109 49.9801C78.8501 50.3551 79.0646 50.6577 79.3544 50.8878C79.6442 51.1179 80.0135 51.233 80.4624 51.233ZM85.0998 52V43.2727H86.1055V46.4943H86.1907C86.2646 46.3807 86.3668 46.2358 86.4975 46.0597C86.631 45.8807 86.8214 45.7216 87.0685 45.5824C87.3185 45.4403 87.6566 45.3693 88.0827 45.3693C88.6339 45.3693 89.1197 45.5071 89.5401 45.7827C89.9606 46.0582 90.2887 46.4489 90.5245 46.9545C90.7603 47.4602 90.8782 48.0568 90.8782 48.7443C90.8782 49.4375 90.7603 50.0384 90.5245 50.5469C90.2887 51.0526 89.962 51.4446 89.5444 51.723C89.1268 51.9986 88.6452 52.1364 88.0998 52.1364C87.6793 52.1364 87.3427 52.0668 87.0898 51.9276C86.837 51.7855 86.6424 51.625 86.506 51.446C86.3697 51.2642 86.2646 51.1136 86.1907 50.9943H86.0714V52H85.0998ZM86.0884 48.7273C86.0884 49.2216 86.1609 49.6577 86.3058 50.0355C86.4506 50.4105 86.6623 50.7045 86.9407 50.9176C87.2191 51.1278 87.56 51.233 87.9634 51.233C88.3839 51.233 88.7347 51.1222 89.016 50.9006C89.3001 50.6761 89.5131 50.375 89.6552 49.9972C89.8001 49.6165 89.8725 49.1932 89.8725 48.7273C89.8725 48.267 89.8015 47.8523 89.6594 47.483C89.5202 47.1108 89.3086 46.8168 89.0245 46.6009C88.7433 46.3821 88.3896 46.2727 87.9634 46.2727C87.5543 46.2727 87.2106 46.3764 86.9322 46.5838C86.6538 46.7884 86.4435 47.0753 86.3015 47.4446C86.1594 47.8111 86.0884 48.2386 86.0884 48.7273ZM93.4222 43.2727V52H92.4165V43.2727H93.4222ZM98.0085 52.1364C97.3778 52.1364 96.8338 51.9972 96.3764 51.7188C95.9219 51.4375 95.571 51.0455 95.3239 50.5426C95.0795 50.0369 94.9574 49.4489 94.9574 48.7784C94.9574 48.108 95.0795 47.517 95.3239 47.0057C95.571 46.4915 95.9148 46.0909 96.3551 45.804C96.7983 45.5142 97.3153 45.3693 97.9062 45.3693C98.2472 45.3693 98.5838 45.4261 98.9162 45.5398C99.2486 45.6534 99.5511 45.8381 99.8239 46.0938C100.097 46.3466 100.314 46.6818 100.476 47.0994C100.638 47.517 100.719 48.0312 100.719 48.642V49.0682H95.6733V48.1989H99.696C99.696 47.8295 99.6222 47.5 99.4744 47.2102C99.3295 46.9205 99.1222 46.6918 98.8523 46.5241C98.5852 46.3565 98.2699 46.2727 97.9062 46.2727C97.5057 46.2727 97.1591 46.3722 96.8665 46.571C96.5767 46.767 96.3537 47.0227 96.1974 47.3381C96.0412 47.6534 95.9631 47.9915 95.9631 48.3523V48.9318C95.9631 49.4261 96.0483 49.8452 96.2188 50.1889C96.392 50.5298 96.6321 50.7898 96.9389 50.9688C97.2457 51.1449 97.6023 51.233 98.0085 51.233C98.2727 51.233 98.5114 51.196 98.7244 51.1222C98.9403 51.0455 99.1264 50.9318 99.2827 50.7812C99.4389 50.6278 99.5597 50.4375 99.6449 50.2102L100.616 50.483C100.514 50.8125 100.342 51.1023 100.101 51.3523C99.8594 51.5994 99.5611 51.7926 99.206 51.9318C98.8509 52.0682 98.4517 52.1364 98.0085 52.1364ZM102.249 52V45.4545H103.22V46.4773H103.305C103.442 46.1278 103.662 45.8565 103.966 45.6634C104.27 45.4673 104.635 45.3693 105.061 45.3693C105.493 45.3693 105.852 45.4673 106.139 45.6634C106.429 45.8565 106.655 46.1278 106.817 46.4773H106.885C107.053 46.1392 107.304 45.8707 107.639 45.6719C107.974 45.4702 108.376 45.3693 108.845 45.3693C109.43 45.3693 109.909 45.5526 110.281 45.919C110.653 46.2827 110.839 46.8494 110.839 47.6193V52H109.834V47.6193C109.834 47.1364 109.702 46.7912 109.438 46.5838C109.173 46.3764 108.862 46.2727 108.504 46.2727C108.044 46.2727 107.688 46.4119 107.435 46.6903C107.182 46.9659 107.055 47.3153 107.055 47.7386V52H106.033V47.517C106.033 47.1449 105.912 46.8452 105.67 46.6179C105.429 46.3878 105.118 46.2727 104.737 46.2727C104.476 46.2727 104.232 46.3423 104.004 46.4815C103.78 46.6207 103.598 46.8139 103.459 47.0611C103.322 47.3054 103.254 47.5881 103.254 47.9091V52H102.249ZM119.104 43.2727V52H118.048V44.3807H117.996L115.866 45.7955V44.7216L118.048 43.2727H119.104Z" fill="white"/>
<path d="M67.479 112H70.772V89.948H70.809L79.208 112H81.983L90.345 89.837H90.382V112H93.823V85.952H88.643L80.725 106.894H80.688L72.659 85.952H67.479V112ZM97.9569 98.199H101.324C101.509 96.164 102.989 94.943 105.727 94.943C108.761 94.943 109.797 96.497 109.797 98.014C109.797 99.494 108.798 100.123 106.837 100.456L103.951 100.937C99.9179 101.566 97.2539 103.342 97.2539 106.857C97.2539 110.446 100.029 112.518 103.803 112.518C107.022 112.518 109.39 110.89 110.315 108.522H110.352V108.892C110.315 110.927 111.277 112 113.682 112H115.865V109.262H114.681C113.756 109.262 113.275 108.966 113.275 107.782V98.717C113.275 94.388 110.167 92.353 105.801 92.353C100.991 92.353 98.2899 94.758 97.9569 98.199ZM109.908 104.045C109.908 107.523 107.651 109.854 104.432 109.854C102.138 109.854 100.584 108.744 100.584 106.746V106.524C100.584 104.674 102.101 103.675 104.543 103.268L107.355 102.787C108.687 102.565 109.538 102.047 109.908 101.529V104.045ZM121.496 84.546H118.092V112H121.496V84.546ZM134.409 92.871H130.228L121.496 101.714L130.783 112H135.149L125.64 101.566L134.409 92.871ZM143.653 112.518C148.241 112.518 151.349 110.002 152.052 106.45H148.611C148.315 108.115 146.65 109.854 143.69 109.854C140.323 109.854 137.807 107.338 137.807 103.305V103.194H152.422V101.825C152.422 96.46 149.24 92.353 143.616 92.353C137.807 92.353 134.366 96.719 134.366 102.417C134.366 108.078 137.622 112.518 143.653 112.518ZM143.616 94.98C146.687 94.98 148.907 97.089 148.981 100.752H137.844C138.14 97.126 140.582 94.98 143.616 94.98ZM164.327 101.714C164.327 97.681 166.88 95.202 170.136 95.202C172.948 95.202 174.502 96.867 174.983 98.828H178.35C177.684 94.943 174.687 92.353 170.136 92.353C164.29 92.353 160.923 96.645 160.923 102.417C160.923 108.152 164.216 112.518 170.136 112.518C174.65 112.518 177.61 109.891 178.387 105.932H175.02C174.502 108.004 172.874 109.669 170.136 109.669C166.88 109.669 164.327 107.153 164.327 103.157V101.714ZM181.542 112H184.946V100.9C184.946 98.088 185.982 95.905 189.608 95.905H192.827V92.76H190.237C186.981 92.76 185.427 94.388 184.835 96.09H184.798V92.871H181.542V112ZM203.993 114.146L212.281 92.871H208.803L203.29 107.56H203.253L197.592 92.871H193.855L201.44 111.482L200.589 113.665C199.738 115.811 199.146 116.255 197.148 116.255H193.966V119.104H197.259C201.07 119.104 202.624 117.698 203.993 114.146ZM214.603 92.871V119.104H218.007V108.596H218.044C219.228 111.038 221.448 112.518 224.519 112.518C229.81 112.518 232.992 108.115 232.992 102.417C232.992 96.756 229.884 92.353 224.519 92.353C221.3 92.353 219.043 93.907 217.896 96.497H217.859V92.871H214.603ZM229.551 101.714V103.12C229.551 107.227 226.961 109.669 223.779 109.669C220.597 109.669 218.007 107.153 218.007 103.12V101.714C218.007 97.681 220.597 95.165 223.779 95.165C226.961 95.165 229.551 97.57 229.551 101.714ZM233.859 92.871V95.683H238.262V107.449C238.262 110.483 239.705 112 242.961 112H247.956V109.188H243.59C242.221 109.188 241.666 108.596 241.666 107.227V95.683H247.919V92.871H241.666V87.136H238.262V92.871H233.859ZM258.808 112.518C264.728 112.518 268.095 108.078 268.095 102.417C268.095 96.756 264.654 92.353 258.808 92.353C252.999 92.353 249.521 96.756 249.521 102.417C249.521 108.078 252.888 112.518 258.808 112.518ZM264.691 103.12C264.691 107.264 262.027 109.669 258.808 109.669C255.589 109.669 252.962 107.116 252.962 103.12V101.714C252.962 97.681 255.589 95.202 258.808 95.202C262.027 95.202 264.691 97.607 264.691 101.714V103.12ZM75.434 156.518C80.022 156.518 83.13 154.002 83.833 150.45H80.392C80.096 152.115 78.431 153.854 75.471 153.854C72.104 153.854 69.588 151.338 69.588 147.305V147.194H84.203V145.825C84.203 140.46 81.021 136.353 75.397 136.353C69.588 136.353 66.147 140.719 66.147 146.417C66.147 152.078 69.403 156.518 75.434 156.518ZM75.397 138.98C78.468 138.98 80.688 141.089 80.762 144.752H69.625C69.921 141.126 72.363 138.98 75.397 138.98ZM87.117 142.199H90.484C90.669 140.164 92.149 138.943 94.887 138.943C97.921 138.943 98.957 140.497 98.957 142.014C98.957 143.494 97.958 144.123 95.997 144.456L93.111 144.937C89.078 145.566 86.414 147.342 86.414 150.857C86.414 154.446 89.189 156.518 92.963 156.518C96.182 156.518 98.55 154.89 99.475 152.522H99.512V152.892C99.475 154.927 100.437 156 102.842 156H105.025V153.262H103.841C102.916 153.262 102.435 152.966 102.435 151.782V142.717C102.435 138.388 99.327 136.353 94.961 136.353C90.151 136.353 87.45 138.758 87.117 142.199ZM99.068 148.045C99.068 151.523 96.811 153.854 93.592 153.854C91.298 153.854 89.744 152.744 89.744 150.746V150.524C89.744 148.674 91.261 147.675 93.703 147.268L96.515 146.787C97.847 146.565 98.698 146.047 99.068 145.529V148.045ZM105.883 150.413C105.994 154.113 109.139 156.555 114.134 156.555C118.833 156.555 122.163 154.298 122.163 150.561C122.163 147.305 119.832 145.529 116.095 145.011L113.172 144.604C110.989 144.271 109.879 143.457 109.879 141.829C109.879 140.09 111.47 138.869 114.06 138.869C116.724 138.869 118.204 140.127 118.315 142.051H121.756C121.608 138.943 118.944 136.279 114.097 136.279C109.657 136.279 106.475 138.536 106.475 142.088C106.475 145.381 108.732 147.009 112.062 147.49L114.985 147.897C117.316 148.23 118.759 149.007 118.759 150.82C118.759 152.781 116.946 153.965 114.245 153.965C111.433 153.965 109.472 152.818 109.361 150.413H105.883ZM133.1 158.146L141.388 136.871H137.91L132.397 151.56H132.36L126.699 136.871H122.962L130.547 155.482L129.696 157.665C128.845 159.811 128.253 160.255 126.255 160.255H123.073V163.104H126.366C130.177 163.104 131.731 161.698 133.1 158.146ZM148.152 136.871V139.683H152.555V151.449C152.555 154.483 153.998 156 157.254 156H162.249V153.188H157.883C156.514 153.188 155.959 152.596 155.959 151.227V139.683H162.212V136.871H155.959V131.136H152.555V136.871H148.152ZM173.101 156.518C179.021 156.518 182.388 152.078 182.388 146.417C182.388 140.756 178.947 136.353 173.101 136.353C167.292 136.353 163.814 140.756 163.814 146.417C163.814 152.078 167.181 156.518 173.101 156.518ZM178.984 147.12C178.984 151.264 176.32 153.669 173.101 153.669C169.882 153.669 167.255 151.116 167.255 147.12V145.714C167.255 141.681 169.882 139.202 173.101 139.202C176.32 139.202 178.984 141.607 178.984 145.714V147.12ZM190.47 150.413C190.581 154.113 193.726 156.555 198.721 156.555C203.42 156.555 206.75 154.298 206.75 150.561C206.75 147.305 204.419 145.529 200.682 145.011L197.759 144.604C195.576 144.271 194.466 143.457 194.466 141.829C194.466 140.09 196.057 138.869 198.647 138.869C201.311 138.869 202.791 140.127 202.902 142.051H206.343C206.195 138.943 203.531 136.279 198.684 136.279C194.244 136.279 191.062 138.536 191.062 142.088C191.062 145.381 193.319 147.009 196.649 147.49L199.572 147.897C201.903 148.23 203.346 149.007 203.346 150.82C203.346 152.781 201.533 153.965 198.832 153.965C196.02 153.965 194.059 152.818 193.948 150.413H190.47ZM218.086 156.518C222.674 156.518 225.782 154.002 226.485 150.45H223.044C222.748 152.115 221.083 153.854 218.123 153.854C214.756 153.854 212.24 151.338 212.24 147.305V147.194H226.855V145.825C226.855 140.46 223.673 136.353 218.049 136.353C212.24 136.353 208.799 140.719 208.799 146.417C208.799 152.078 212.055 156.518 218.086 156.518ZM218.049 138.98C221.12 138.98 223.34 141.089 223.414 144.752H212.277C212.573 141.126 215.015 138.98 218.049 138.98ZM233.508 144.789C233.508 141.015 235.95 139.239 238.614 139.239C241.167 139.239 243.35 140.904 243.35 144.345V156H246.754V144.049C246.754 139.017 243.609 136.353 239.613 136.353C236.801 136.353 234.47 137.574 233.36 140.127H233.323V136.871H230.104V156H233.508V144.789ZM268.199 156V128.546H264.795V140.275H264.758C263.574 137.833 261.354 136.353 258.246 136.353C252.992 136.353 249.81 140.756 249.81 146.417C249.81 152.115 252.918 156.518 258.246 156.518C261.502 156.518 263.759 154.927 264.906 152.374H264.943V156H268.199ZM253.251 147.157V145.751C253.251 141.607 255.841 139.202 259.023 139.202C262.168 139.202 264.795 141.681 264.795 145.751V147.157C264.795 151.153 262.168 153.669 259.023 153.669C255.841 153.669 253.251 151.301 253.251 147.157Z" fill="white"/>
<path d="M69.25 191.443V202H70.865V191.443H74.877V190.032H65.238V191.443H69.25ZM77.9834 196.849C77.9834 195.115 79.1054 194.299 80.3294 194.299C81.5024 194.299 82.5054 195.064 82.5054 196.645V202H84.0694V196.509C84.0694 194.197 82.6244 192.973 80.7884 192.973C79.5304 192.973 78.4764 193.517 77.9664 194.622H77.9494V189.386H76.4194V202H77.9834V196.849ZM90.3191 202.238C92.4441 202.238 93.8721 201.082 94.1951 199.45H92.6141C92.4781 200.215 91.7131 201.014 90.3531 201.014C88.7891 201.014 87.6331 199.858 87.6331 198.005V197.954H94.3651V197.393C94.3651 194.894 92.9031 192.973 90.2681 192.973C87.6501 192.973 86.0691 194.979 86.0691 197.597C86.0691 200.198 87.5651 202.238 90.3191 202.238ZM90.2681 194.18C91.6961 194.18 92.7161 195.132 92.7841 196.832H87.6501C87.7861 195.166 88.9081 194.18 90.2681 194.18ZM99.9872 195.659H101.534C101.636 194.724 102.299 194.163 103.557 194.163C104.951 194.163 105.427 194.877 105.427 195.574C105.427 196.254 104.968 196.543 104.067 196.696L102.741 196.917C100.888 197.206 99.6642 198.022 99.6642 199.637C99.6642 201.286 100.939 202.238 102.673 202.238C104.152 202.238 105.24 201.49 105.665 200.402H105.682V200.572C105.665 201.507 106.107 202 107.212 202H108.215V200.742H107.671C107.246 200.742 107.025 200.606 107.025 200.062V195.897C107.025 193.908 105.597 192.973 103.591 192.973C101.381 192.973 100.14 194.078 99.9872 195.659ZM105.478 198.345C105.478 199.943 104.441 201.014 102.962 201.014C101.908 201.014 101.194 200.504 101.194 199.586V199.484C101.194 198.634 101.891 198.175 103.013 197.988L104.305 197.767C104.917 197.665 105.308 197.427 105.478 197.189V198.345ZM116.636 193.211H115.038L112.471 200.181H112.454L109.87 193.211H108.153L111.604 202.017H113.253L116.636 193.211ZM121.63 202.238C123.755 202.238 125.183 201.082 125.506 199.45H123.925C123.789 200.215 123.024 201.014 121.664 201.014C120.1 201.014 118.944 199.858 118.944 198.005V197.954H125.676V197.393C125.676 194.894 124.214 192.973 121.579 192.973C118.961 192.973 117.38 194.979 117.38 197.597C117.38 200.198 118.876 202.238 121.63 202.238ZM121.579 194.18C123.007 194.18 124.027 195.132 124.095 196.832H118.961C119.097 195.166 120.219 194.18 121.579 194.18ZM127.751 202H129.315V196.9C129.315 195.608 129.791 194.605 131.457 194.605H132.919V193.16H131.746C130.25 193.16 129.536 193.908 129.264 194.69H129.247V193.211H127.751V202ZM134.037 195.659H135.584C135.686 194.724 136.349 194.163 137.607 194.163C139.001 194.163 139.477 194.877 139.477 195.574C139.477 196.254 139.018 196.543 138.117 196.696L136.791 196.917C134.938 197.206 133.714 198.022 133.714 199.637C133.714 201.286 134.989 202.238 136.723 202.238C138.202 202.238 139.29 201.49 139.715 200.402H139.732V200.572C139.715 201.507 140.157 202 141.262 202H142.265V200.742H141.721C141.296 200.742 141.075 200.606 141.075 200.062V195.897C141.075 193.908 139.647 192.973 137.641 192.973C135.431 192.973 134.19 194.078 134.037 195.659ZM139.528 198.345C139.528 199.943 138.491 201.014 137.012 201.014C135.958 201.014 135.244 200.504 135.244 199.586V199.484C135.244 198.634 135.941 198.175 137.063 197.988L138.355 197.767C138.967 197.665 139.358 197.427 139.528 197.189V198.345ZM143.55 202.748C143.788 204.244 145.097 205.502 147.409 205.502C150.095 205.502 151.625 204.006 151.625 201.337V193.211H150.129V194.792H150.112C149.602 193.67 148.599 192.973 147.103 192.973C144.689 192.973 143.278 194.894 143.278 197.342C143.278 199.824 144.723 201.745 147.103 201.745C148.531 201.745 149.5 201.082 150.044 199.994H150.061V201.422C150.061 203.224 149.228 204.261 147.409 204.261C145.947 204.261 145.284 203.462 145.131 202.748H143.55ZM144.842 197.138C144.842 195.319 146.032 194.282 147.46 194.282C148.888 194.282 150.061 195.37 150.061 197.138V197.58C150.061 199.365 148.888 200.453 147.46 200.453C146.032 200.453 144.842 199.399 144.842 197.58V197.138ZM157.97 202.238C160.095 202.238 161.523 201.082 161.846 199.45H160.265C160.129 200.215 159.364 201.014 158.004 201.014C156.44 201.014 155.284 199.858 155.284 198.005V197.954H162.016V197.393C162.016 194.894 160.554 192.973 157.919 192.973C155.301 192.973 153.72 194.979 153.72 197.597C153.72 200.198 155.216 202.238 157.97 202.238ZM157.919 194.18C159.347 194.18 160.367 195.132 160.435 196.832H155.301C155.437 195.166 156.559 194.18 157.919 194.18ZM167.231 199.433C167.282 201.133 168.727 202.255 171.022 202.255C173.198 202.255 174.728 201.218 174.728 199.501C174.728 198.005 173.657 197.189 171.923 196.951L170.58 196.764C169.577 196.611 169.067 196.237 169.067 195.489C169.067 194.69 169.798 194.129 170.988 194.129C172.212 194.129 172.892 194.707 172.943 195.591H174.524C174.456 194.163 173.249 192.939 171.022 192.939C168.965 192.939 167.503 193.976 167.503 195.608C167.503 197.121 168.54 197.869 170.07 198.09L171.413 198.277C172.484 198.43 173.147 198.787 173.147 199.62C173.147 200.521 172.314 201.065 171.073 201.065C169.798 201.065 168.88 200.538 168.846 199.433H167.231ZM180.432 202.238C182.557 202.238 183.985 201.082 184.308 199.45H182.727C182.591 200.215 181.826 201.014 180.466 201.014C178.902 201.014 177.746 199.858 177.746 198.005V197.954H184.478V197.393C184.478 194.894 183.016 192.973 180.381 192.973C177.763 192.973 176.182 194.979 176.182 197.597C176.182 200.198 177.678 202.238 180.432 202.238ZM180.381 194.18C181.809 194.18 182.829 195.132 182.897 196.832H177.763C177.899 195.166 179.021 194.18 180.381 194.18ZM188.118 196.849C188.118 195.115 189.24 194.299 190.464 194.299C191.637 194.299 192.64 195.064 192.64 196.645V202H194.204V196.509C194.204 194.197 192.759 192.973 190.923 192.973C189.631 192.973 188.56 193.534 188.05 194.707H188.033V193.211H186.554V202H188.118V196.849ZM204.653 202V189.386H203.089V194.775H203.072C202.528 193.653 201.508 192.973 200.08 192.973C197.666 192.973 196.204 194.996 196.204 197.597C196.204 200.215 197.632 202.238 200.08 202.238C201.576 202.238 202.613 201.507 203.14 200.334H203.157V202H204.653ZM197.768 197.937V197.291C197.768 195.387 198.975 194.282 200.42 194.282C201.882 194.282 203.089 195.421 203.089 197.291V197.937C203.089 199.773 201.882 200.929 200.42 200.929C198.975 200.929 197.768 199.841 197.768 197.937ZM211.075 193.211V205.264H212.639V200.436H212.656C213.2 201.558 214.22 202.238 215.631 202.238C218.062 202.238 219.524 200.215 219.524 197.597C219.524 194.996 218.096 192.973 215.631 192.973C214.152 192.973 213.098 193.687 212.588 194.877H212.571V193.211H211.075ZM217.943 197.274V197.92C217.943 199.807 216.753 200.929 215.291 200.929C213.829 200.929 212.639 199.773 212.639 197.92V197.274C212.639 195.421 213.829 194.265 215.291 194.265C216.753 194.265 217.943 195.37 217.943 197.274ZM221.6 202H223.164V196.9C223.164 195.608 223.64 194.605 225.306 194.605H226.768V193.16H225.595C224.099 193.16 223.385 193.908 223.113 194.69H223.096V193.211H221.6V202ZM231.815 202.238C234.535 202.238 236.082 200.198 236.082 197.597C236.082 194.996 234.484 192.973 231.815 192.973C229.129 192.973 227.548 194.996 227.548 197.597C227.548 200.198 229.095 202.238 231.815 202.238ZM234.501 197.92C234.501 199.824 233.294 200.929 231.815 200.929C230.336 200.929 229.112 199.756 229.112 197.92V197.274C229.112 195.421 230.336 194.282 231.815 194.282C233.294 194.282 234.501 195.387 234.501 197.274V197.92ZM239.205 197.274C239.205 195.421 240.378 194.282 241.857 194.282C243.149 194.282 243.863 195.047 244.101 195.948H245.648C245.325 194.163 243.948 192.973 241.874 192.973C239.188 192.973 237.641 194.945 237.641 197.597C237.641 200.232 239.154 202.238 241.874 202.238C243.948 202.238 245.308 201.031 245.648 199.212H244.118C243.863 200.164 243.115 200.929 241.857 200.929C240.378 200.929 239.205 199.773 239.205 197.937V197.274ZM251.371 202.238C253.496 202.238 254.924 201.082 255.247 199.45H253.666C253.53 200.215 252.765 201.014 251.405 201.014C249.841 201.014 248.685 199.858 248.685 198.005V197.954H255.417V197.393C255.417 194.894 253.955 192.973 251.32 192.973C248.702 192.973 247.121 194.979 247.121 197.597C247.121 200.198 248.617 202.238 251.371 202.238ZM251.32 194.18C252.748 194.18 253.768 195.132 253.836 196.832H248.702C248.838 195.166 249.96 194.18 251.32 194.18ZM256.813 199.433C256.864 201.133 258.309 202.255 260.604 202.255C262.78 202.255 264.31 201.218 264.31 199.501C264.31 198.005 263.239 197.189 261.505 196.951L260.162 196.764C259.159 196.611 258.649 196.237 258.649 195.489C258.649 194.69 259.38 194.129 260.57 194.129C261.794 194.129 262.474 194.707 262.525 195.591H264.106C264.038 194.163 262.831 192.939 260.604 192.939C258.547 192.939 257.085 193.976 257.085 195.608C257.085 197.121 258.122 197.869 259.652 198.09L260.995 198.277C262.066 198.43 262.729 198.787 262.729 199.62C262.729 200.521 261.896 201.065 260.655 201.065C259.38 201.065 258.462 200.538 258.428 199.433H256.813ZM265.595 199.433C265.646 201.133 267.091 202.255 269.386 202.255C271.562 202.255 273.092 201.218 273.092 199.501C273.092 198.005 272.021 197.189 270.287 196.951L268.944 196.764C267.941 196.611 267.431 196.237 267.431 195.489C267.431 194.69 268.162 194.129 269.352 194.129C270.576 194.129 271.256 194.707 271.307 195.591H272.888C272.82 194.163 271.613 192.939 269.386 192.939C267.329 192.939 265.867 193.976 265.867 195.608C265.867 197.121 266.904 197.869 268.434 198.09L269.777 198.277C270.848 198.43 271.511 198.787 271.511 199.62C271.511 200.521 270.678 201.065 269.437 201.065C268.162 201.065 267.244 200.538 267.21 199.433H265.595ZM277.889 193.211V194.503H279.895V199.909C279.895 201.303 280.558 202 282.054 202H284.349V200.708H282.343C281.714 200.708 281.459 200.436 281.459 199.807V194.503H284.332V193.211H281.459V190.576H279.895V193.211H277.889ZM289.754 202.238C292.474 202.238 294.021 200.198 294.021 197.597C294.021 194.996 292.423 192.973 289.754 192.973C287.068 192.973 285.487 194.996 285.487 197.597C285.487 200.198 287.034 202.238 289.754 202.238ZM292.44 197.92C292.44 199.824 291.233 200.929 289.754 200.929C288.275 200.929 287.051 199.756 287.051 197.92V197.274C287.051 195.421 288.275 194.282 289.754 194.282C291.233 194.282 292.44 195.387 292.44 197.274V197.92ZM299.848 202.238C302.568 202.238 304.115 200.198 304.115 197.597C304.115 194.996 302.517 192.973 299.848 192.973C297.162 192.973 295.581 194.996 295.581 197.597C295.581 200.198 297.128 202.238 299.848 202.238ZM302.534 197.92C302.534 199.824 301.327 200.929 299.848 200.929C298.369 200.929 297.145 199.756 297.145 197.92V197.274C297.145 195.421 298.369 194.282 299.848 194.282C301.327 194.282 302.534 195.387 302.534 197.274V197.92ZM307.766 189.386H306.202V202H307.766V189.386ZM313.699 193.211H311.778L307.766 197.274L312.033 202H314.039L309.67 197.206L313.699 193.211ZM70.049 226.238C72.769 226.238 74.316 224.198 74.316 221.597C74.316 218.996 72.718 216.973 70.049 216.973C67.363 216.973 65.782 218.996 65.782 221.597C65.782 224.198 67.329 226.238 70.049 226.238ZM72.735 221.92C72.735 223.824 71.528 224.929 70.049 224.929C68.57 224.929 67.346 223.756 67.346 221.92V221.274C67.346 219.421 68.57 218.282 70.049 218.282C71.528 218.282 72.735 219.387 72.735 221.274V221.92ZM83.5325 217.211H81.9345L79.3675 224.181H79.3505L76.7665 217.211H75.0495L78.5005 226.017H80.1495L83.5325 217.211ZM88.5261 226.238C90.6511 226.238 92.0791 225.082 92.4021 223.45H90.8211C90.6851 224.215 89.9201 225.014 88.5601 225.014C86.9961 225.014 85.8401 223.858 85.8401 222.005V221.954H92.5721V221.393C92.5721 218.894 91.1101 216.973 88.4751 216.973C85.8571 216.973 84.2761 218.979 84.2761 221.597C84.2761 224.198 85.7721 226.238 88.5261 226.238ZM88.4751 218.18C89.9031 218.18 90.9231 219.132 90.9911 220.832H85.8571C85.9931 219.166 87.1151 218.18 88.4751 218.18ZM94.6479 226H96.2119V220.9C96.2119 219.608 96.6879 218.605 98.3539 218.605H99.8159V217.16H98.6429C97.1469 217.16 96.4329 217.908 96.1609 218.69H96.1439V217.211H94.6479V226ZM104.779 226H112.684V224.64H106.343V224.538C106.343 223.603 106.802 223.025 107.839 222.294L110.185 220.713C111.902 219.54 112.463 218.452 112.463 217.126C112.463 215.222 111.001 213.777 108.689 213.777C106.462 213.777 104.813 215.137 104.779 217.432H106.343C106.36 215.936 107.261 215.086 108.689 215.086C110.151 215.086 110.865 215.97 110.865 217.075V217.296C110.865 218.044 110.559 218.741 109.335 219.574L107.125 221.053C105.51 222.124 104.779 223.093 104.779 224.589V226ZM114.765 226H116.482L122.007 215.358V214.032H113.983V215.392H120.307L114.765 226ZM122.858 226.153C123.521 226.153 124.031 225.643 124.031 224.98C124.031 224.317 123.521 223.807 122.858 223.807C122.195 223.807 121.685 224.317 121.685 224.98C121.685 225.643 122.195 226.153 122.858 226.153ZM126.187 226H127.904L133.429 215.358V214.032H125.405V215.392H131.729L126.187 226ZM138.211 223.433C138.262 225.133 139.707 226.255 142.002 226.255C144.178 226.255 145.708 225.218 145.708 223.501C145.708 222.005 144.637 221.189 142.903 220.951L141.56 220.764C140.557 220.611 140.047 220.237 140.047 219.489C140.047 218.69 140.778 218.129 141.968 218.129C143.192 218.129 143.872 218.707 143.923 219.591H145.504C145.436 218.163 144.229 216.939 142.002 216.939C139.945 216.939 138.483 217.976 138.483 219.608C138.483 221.121 139.52 221.869 141.05 222.09L142.393 222.277C143.464 222.43 144.127 222.787 144.127 223.62C144.127 224.521 143.294 225.065 142.053 225.065C140.778 225.065 139.86 224.538 139.826 223.433H138.211ZM151.413 226.238C153.538 226.238 154.966 225.082 155.289 223.45H153.708C153.572 224.215 152.807 225.014 151.447 225.014C149.883 225.014 148.727 223.858 148.727 222.005V221.954H155.459V221.393C155.459 218.894 153.997 216.973 151.362 216.973C148.744 216.973 147.163 218.979 147.163 221.597C147.163 224.198 148.659 226.238 151.413 226.238ZM151.362 218.18C152.79 218.18 153.81 219.132 153.878 220.832H148.744C148.88 219.166 150.002 218.18 151.362 218.18ZM158.572 221.274C158.572 219.421 159.745 218.282 161.224 218.282C162.516 218.282 163.23 219.047 163.468 219.948H165.015C164.692 218.163 163.315 216.973 161.241 216.973C158.555 216.973 157.008 218.945 157.008 221.597C157.008 224.232 158.521 226.238 161.241 226.238C163.315 226.238 164.675 225.031 165.015 223.212H163.485C163.23 224.164 162.482 224.929 161.224 224.929C159.745 224.929 158.572 223.773 158.572 221.937V221.274ZM170.754 226.238C173.474 226.238 175.021 224.198 175.021 221.597C175.021 218.996 173.423 216.973 170.754 216.973C168.068 216.973 166.487 218.996 166.487 221.597C166.487 224.198 168.034 226.238 170.754 226.238ZM173.44 221.92C173.44 223.824 172.233 224.929 170.754 224.929C169.275 224.929 168.051 223.756 168.051 221.92V221.274C168.051 219.421 169.275 218.282 170.754 218.282C172.233 218.282 173.44 219.387 173.44 221.274V221.92ZM178.672 220.849C178.672 219.115 179.794 218.299 181.018 218.299C182.191 218.299 183.194 219.064 183.194 220.645V226H184.758V220.509C184.758 218.197 183.313 216.973 181.477 216.973C180.185 216.973 179.114 217.534 178.604 218.707H178.587V217.211H177.108V226H178.672V220.849ZM195.207 226V213.386H193.643V218.775H193.626C193.082 217.653 192.062 216.973 190.634 216.973C188.22 216.973 186.758 218.996 186.758 221.597C186.758 224.215 188.186 226.238 190.634 226.238C192.13 226.238 193.167 225.507 193.694 224.334H193.711V226H195.207ZM188.322 221.937V221.291C188.322 219.387 189.529 218.282 190.974 218.282C192.436 218.282 193.643 219.421 193.643 221.291V221.937C193.643 223.773 192.436 224.929 190.974 224.929C189.529 224.929 188.322 223.841 188.322 221.937ZM197.13 223.433C197.181 225.133 198.626 226.255 200.921 226.255C203.097 226.255 204.627 225.218 204.627 223.501C204.627 222.005 203.556 221.189 201.822 220.951L200.479 220.764C199.476 220.611 198.966 220.237 198.966 219.489C198.966 218.69 199.697 218.129 200.887 218.129C202.111 218.129 202.791 218.707 202.842 219.591H204.423C204.355 218.163 203.148 216.939 200.921 216.939C198.864 216.939 197.402 217.976 197.402 219.608C197.402 221.121 198.439 221.869 199.969 222.09L201.312 222.277C202.383 222.43 203.046 222.787 203.046 223.62C203.046 224.521 202.213 225.065 200.972 225.065C199.697 225.065 198.779 224.538 198.745 223.433H197.13ZM209.374 217.211L212.247 226.017H213.828L215.953 219.115H215.97L218.129 226.017H219.744L222.498 217.211H220.985L218.962 224.011H218.945L216.803 217.194H215.222L213.131 224.045H213.114L211.023 217.211H209.374ZM225.534 215.715C226.146 215.715 226.605 215.239 226.605 214.661C226.605 214.049 226.146 213.607 225.534 213.607H225.449C224.82 213.607 224.361 214.049 224.361 214.661C224.361 215.239 224.82 215.715 225.449 215.715H225.534ZM223.29 218.486H224.701V226H226.265V217.211H223.29V218.486ZM227.902 217.211V218.503H229.908V223.909C229.908 225.303 230.571 226 232.067 226H234.362V224.708H232.356C231.727 224.708 231.472 224.436 231.472 223.807V218.503H234.345V217.211H231.472V214.576H229.908V217.211H227.902ZM237.823 220.849C237.823 219.115 238.945 218.299 240.169 218.299C241.342 218.299 242.345 219.064 242.345 220.645V226H243.909V220.509C243.909 218.197 242.464 216.973 240.628 216.973C239.37 216.973 238.316 217.517 237.806 218.622H237.789V213.386H236.259V226H237.823V220.849ZM249.982 219.659H251.529C251.631 218.724 252.294 218.163 253.552 218.163C254.946 218.163 255.422 218.877 255.422 219.574C255.422 220.254 254.963 220.543 254.062 220.696L252.736 220.917C250.883 221.206 249.659 222.022 249.659 223.637C249.659 225.286 250.934 226.238 252.668 226.238C254.147 226.238 255.235 225.49 255.66 224.402H255.677V224.572C255.66 225.507 256.102 226 257.207 226H258.21V224.742H257.666C257.241 224.742 257.02 224.606 257.02 224.062V219.897C257.02 217.908 255.592 216.973 253.586 216.973C251.376 216.973 250.135 218.078 249.982 219.659ZM255.473 222.345C255.473 223.943 254.436 225.014 252.957 225.014C251.903 225.014 251.189 224.504 251.189 223.586V223.484C251.189 222.634 251.886 222.175 253.008 221.988L254.3 221.767C254.912 221.665 255.303 221.427 255.473 221.189V222.345ZM74.231 250V237.386H72.667V242.775H72.65C72.106 241.653 71.086 240.973 69.658 240.973C67.244 240.973 65.782 242.996 65.782 245.597C65.782 248.215 67.21 250.238 69.658 250.238C71.154 250.238 72.191 249.507 72.718 248.334H72.735V250H74.231ZM67.346 245.937V245.291C67.346 243.387 68.553 242.282 69.998 242.282C71.46 242.282 72.667 243.421 72.667 245.291V245.937C72.667 247.773 71.46 248.929 69.998 248.929C68.553 248.929 67.346 247.841 67.346 245.937ZM78.2284 239.715C78.8404 239.715 79.2994 239.239 79.2994 238.661C79.2994 238.049 78.8404 237.607 78.2284 237.607H78.1434C77.5144 237.607 77.0554 238.049 77.0554 238.661C77.0554 239.239 77.5144 239.715 78.1434 239.715H78.2284ZM75.9844 242.486H77.3954V250H78.9594V241.211H75.9844V242.486ZM80.9024 247.433C80.9534 249.133 82.3984 250.255 84.6934 250.255C86.8694 250.255 88.3994 249.218 88.3994 247.501C88.3994 246.005 87.3284 245.189 85.5944 244.951L84.2514 244.764C83.2484 244.611 82.7384 244.237 82.7384 243.489C82.7384 242.69 83.4694 242.129 84.6594 242.129C85.8834 242.129 86.5634 242.707 86.6144 243.591H88.1954C88.1274 242.163 86.9204 240.939 84.6934 240.939C82.6364 240.939 81.1744 241.976 81.1744 243.608C81.1744 245.121 82.2114 245.869 83.7414 246.09L85.0844 246.277C86.1554 246.43 86.8184 246.787 86.8184 247.62C86.8184 248.521 85.9854 249.065 84.7444 249.065C83.4694 249.065 82.5514 248.538 82.5174 247.433H80.9024ZM89.6847 247.433C89.7357 249.133 91.1807 250.255 93.4757 250.255C95.6517 250.255 97.1817 249.218 97.1817 247.501C97.1817 246.005 96.1107 245.189 94.3767 244.951L93.0337 244.764C92.0307 244.611 91.5207 244.237 91.5207 243.489C91.5207 242.69 92.2517 242.129 93.4417 242.129C94.6657 242.129 95.3457 242.707 95.3967 243.591H96.9777C96.9097 242.163 95.7027 240.939 93.4757 240.939C91.4187 240.939 89.9567 241.976 89.9567 243.608C89.9567 245.121 90.9937 245.869 92.5237 246.09L93.8667 246.277C94.9377 246.43 95.6007 246.787 95.6007 247.62C95.6007 248.521 94.7677 249.065 93.5267 249.065C92.2517 249.065 91.3337 248.538 91.2997 247.433H89.6847ZM98.8749 243.659H100.422C100.524 242.724 101.187 242.163 102.445 242.163C103.839 242.163 104.315 242.877 104.315 243.574C104.315 244.254 103.856 244.543 102.955 244.696L101.629 244.917C99.7759 245.206 98.5519 246.022 98.5519 247.637C98.5519 249.286 99.8269 250.238 101.561 250.238C103.04 250.238 104.128 249.49 104.553 248.402H104.57V248.572C104.553 249.507 104.995 250 106.1 250H107.103V248.742H106.559C106.134 248.742 105.913 248.606 105.913 248.062V243.897C105.913 241.908 104.485 240.973 102.479 240.973C100.269 240.973 99.0279 242.078 98.8749 243.659ZM104.366 246.345C104.366 247.943 103.329 249.014 101.85 249.014C100.796 249.014 100.082 248.504 100.082 247.586V247.484C100.082 246.634 100.779 246.175 101.901 245.988L103.193 245.767C103.805 245.665 104.196 245.427 104.366 245.189V246.345ZM107.259 241.211V242.503H109.265V247.909C109.265 249.303 109.928 250 111.424 250H113.719V248.708H111.713C111.084 248.708 110.829 248.436 110.829 247.807V242.503H113.702V241.211H110.829V238.576H109.265V241.211H107.259ZM117.01 239.715C117.622 239.715 118.081 239.239 118.081 238.661C118.081 238.049 117.622 237.607 117.01 237.607H116.925C116.296 237.607 115.837 238.049 115.837 238.661C115.837 239.239 116.296 239.715 116.925 239.715H117.01ZM114.766 242.486H116.177V250H117.741V241.211H114.766V242.486ZM119.684 247.433C119.735 249.133 121.18 250.255 123.475 250.255C125.651 250.255 127.181 249.218 127.181 247.501C127.181 246.005 126.11 245.189 124.376 244.951L123.033 244.764C122.03 244.611 121.52 244.237 121.52 243.489C121.52 242.69 122.251 242.129 123.441 242.129C124.665 242.129 125.345 242.707 125.396 243.591H126.977C126.909 242.163 125.702 240.939 123.475 240.939C121.418 240.939 119.956 241.976 119.956 243.608C119.956 245.121 120.993 245.869 122.523 246.09L123.866 246.277C124.937 246.43 125.6 246.787 125.6 247.62C125.6 248.521 124.767 249.065 123.526 249.065C122.251 249.065 121.333 248.538 121.299 247.433H119.684ZM130.082 250H131.646V242.503H134.689V241.211H131.629V239.511C131.629 238.882 131.884 238.627 132.513 238.627H134.706V237.369H132.241C130.745 237.369 130.082 238.066 130.082 239.46V241.211H128.093V242.503H130.082V250ZM135.747 243.659H137.294C137.396 242.724 138.059 242.163 139.317 242.163C140.711 242.163 141.187 242.877 141.187 243.574C141.187 244.254 140.728 244.543 139.827 244.696L138.501 244.917C136.648 245.206 135.424 246.022 135.424 247.637C135.424 249.286 136.699 250.238 138.433 250.238C139.912 250.238 141 249.49 141.425 248.402H141.442V248.572C141.425 249.507 141.867 250 142.972 250H143.975V248.742H143.431C143.006 248.742 142.785 248.606 142.785 248.062V243.897C142.785 241.908 141.357 240.973 139.351 240.973C137.141 240.973 135.9 242.078 135.747 243.659ZM141.238 246.345C141.238 247.943 140.201 249.014 138.722 249.014C137.668 249.014 136.954 248.504 136.954 247.586V247.484C136.954 246.634 137.651 246.175 138.773 245.988L140.065 245.767C140.677 245.665 141.068 245.427 141.238 245.189V246.345ZM146.535 245.274C146.535 243.421 147.708 242.282 149.187 242.282C150.479 242.282 151.193 243.047 151.431 243.948H152.978C152.655 242.163 151.278 240.973 149.204 240.973C146.518 240.973 144.971 242.945 144.971 245.597C144.971 248.232 146.484 250.238 149.204 250.238C151.278 250.238 152.638 249.031 152.978 247.212H151.448C151.193 248.164 150.445 248.929 149.187 248.929C147.708 248.929 146.535 247.773 146.535 245.937V245.274ZM153.992 241.211V242.503H155.998V247.909C155.998 249.303 156.661 250 158.157 250H160.452V248.708H158.446C157.817 248.708 157.562 248.436 157.562 247.807V242.503H160.435V241.211H157.562V238.576H155.998V241.211H153.992ZM163.743 239.715C164.355 239.715 164.814 239.239 164.814 238.661C164.814 238.049 164.355 237.607 163.743 237.607H163.658C163.029 237.607 162.57 238.049 162.57 238.661C162.57 239.239 163.029 239.715 163.658 239.715H163.743ZM161.499 242.486H162.91V250H164.474V241.211H161.499V242.486ZM170.837 250.238C173.557 250.238 175.104 248.198 175.104 245.597C175.104 242.996 173.506 240.973 170.837 240.973C168.151 240.973 166.57 242.996 166.57 245.597C166.57 248.198 168.117 250.238 170.837 250.238ZM173.523 245.92C173.523 247.824 172.316 248.929 170.837 248.929C169.358 248.929 168.134 247.756 168.134 245.92V245.274C168.134 243.421 169.358 242.282 170.837 242.282C172.316 242.282 173.523 243.387 173.523 245.274V245.92ZM178.755 244.849C178.755 243.115 179.877 242.299 181.101 242.299C182.274 242.299 183.277 243.064 183.277 244.645V250H184.841V244.509C184.841 242.197 183.396 240.973 181.56 240.973C180.268 240.973 179.197 241.534 178.687 242.707H178.67V241.211H177.191V250H178.755V244.849ZM190.506 247.433C190.557 249.133 192.002 250.255 194.297 250.255C196.473 250.255 198.003 249.218 198.003 247.501C198.003 246.005 196.932 245.189 195.198 244.951L193.855 244.764C192.852 244.611 192.342 244.237 192.342 243.489C192.342 242.69 193.073 242.129 194.263 242.129C195.487 242.129 196.167 242.707 196.218 243.591H197.799C197.731 242.163 196.524 240.939 194.297 240.939C192.24 240.939 190.778 241.976 190.778 243.608C190.778 245.121 191.815 245.869 193.345 246.09L194.688 246.277C195.759 246.43 196.422 246.787 196.422 247.62C196.422 248.521 195.589 249.065 194.348 249.065C193.073 249.065 192.155 248.538 192.121 247.433H190.506ZM201.022 245.274C201.022 243.421 202.195 242.282 203.674 242.282C204.966 242.282 205.68 243.047 205.918 243.948H207.465C207.142 242.163 205.765 240.973 203.691 240.973C201.005 240.973 199.458 242.945 199.458 245.597C199.458 248.232 200.971 250.238 203.691 250.238C205.765 250.238 207.125 249.031 207.465 247.212H205.935C205.68 248.164 204.932 248.929 203.674 248.929C202.195 248.929 201.022 247.773 201.022 245.937V245.274ZM213.204 250.238C215.924 250.238 217.471 248.198 217.471 245.597C217.471 242.996 215.873 240.973 213.204 240.973C210.518 240.973 208.937 242.996 208.937 245.597C208.937 248.198 210.484 250.238 213.204 250.238ZM215.89 245.92C215.89 247.824 214.683 248.929 213.204 248.929C211.725 248.929 210.501 247.756 210.501 245.92V245.274C210.501 243.421 211.725 242.282 213.204 242.282C214.683 242.282 215.89 243.387 215.89 245.274V245.92ZM219.558 250H221.122V244.9C221.122 243.608 221.598 242.605 223.264 242.605H224.726V241.16H223.553C222.057 241.16 221.343 241.908 221.071 242.69H221.054V241.211H219.558V250ZM229.756 250.238C231.881 250.238 233.309 249.082 233.632 247.45H232.051C231.915 248.215 231.15 249.014 229.79 249.014C228.226 249.014 227.07 247.858 227.07 246.005V245.954H233.802V245.393C233.802 242.894 232.34 240.973 229.705 240.973C227.087 240.973 225.506 242.979 225.506 245.597C225.506 248.198 227.002 250.238 229.756 250.238ZM229.705 242.18C231.133 242.18 232.153 243.132 232.221 244.832H227.087C227.223 243.166 228.345 242.18 229.705 242.18ZM243.436 250.238C246.156 250.238 247.703 248.198 247.703 245.597C247.703 242.996 246.105 240.973 243.436 240.973C240.75 240.973 239.169 242.996 239.169 245.597C239.169 248.198 240.716 250.238 243.436 250.238ZM246.122 245.92C246.122 247.824 244.915 248.929 243.436 248.929C241.957 248.929 240.733 247.756 240.733 245.92V245.274C240.733 243.421 241.957 242.282 243.436 242.282C244.915 242.282 246.122 243.387 246.122 245.274V245.92ZM250.526 250H252.09V242.503H255.133V241.211H252.073V239.511C252.073 238.882 252.328 238.627 252.957 238.627H255.15V237.369H252.685C251.189 237.369 250.526 238.066 250.526 239.46V241.211H248.537V242.503H250.526V250ZM259.987 250H267.892V248.64H261.551V248.538C261.551 247.603 262.01 247.025 263.047 246.294L265.393 244.713C267.11 243.54 267.671 242.452 267.671 241.126C267.671 239.222 266.209 237.777 263.897 237.777C261.67 237.777 260.021 239.137 259.987 241.432H261.551C261.568 239.936 262.469 239.086 263.897 239.086C265.359 239.086 266.073 239.97 266.073 241.075V241.296C266.073 242.044 265.767 242.741 264.543 243.574L262.333 245.053C260.718 246.124 259.987 247.093 259.987 248.589V250ZM272.251 250H273.849V238.032H272.251V240.106H269.31V241.432H272.251V250ZM277.585 250.153C278.248 250.153 278.758 249.643 278.758 248.98C278.758 248.317 278.248 247.807 277.585 247.807C276.922 247.807 276.412 248.317 276.412 248.98C276.412 249.643 276.922 250.153 277.585 250.153ZM280.556 250H288.461V248.64H282.12V248.538C282.12 247.603 282.579 247.025 283.616 246.294L285.962 244.713C287.679 243.54 288.24 242.452 288.24 241.126C288.24 239.222 286.778 237.777 284.466 237.777C282.239 237.777 280.59 239.137 280.556 241.432H282.12C282.137 239.936 283.038 239.086 284.466 239.086C285.928 239.086 286.642 239.97 286.642 241.075V241.296C286.642 242.044 286.336 242.741 285.112 243.574L282.902 245.053C281.287 246.124 280.556 247.093 280.556 248.589V250ZM293.264 244.594C295.168 244.594 296.409 243.251 296.409 241.245C296.409 239.222 295.219 237.811 293.315 237.811C291.394 237.811 290.221 239.222 290.221 241.245C290.221 243.251 291.343 244.594 293.264 244.594ZM292.448 250H293.978L298.228 244.033L302.546 238.032H301.016L296.749 244.033L292.448 250ZM293.264 243.421C292.125 243.421 291.53 242.537 291.53 241.245C291.53 239.936 292.176 239.001 293.315 239.001C294.454 239.001 295.1 239.936 295.1 241.245C295.1 242.537 294.403 243.421 293.264 243.421ZM301.662 250.255C303.549 250.255 304.739 248.844 304.739 246.838C304.739 244.832 303.549 243.421 301.662 243.421C299.741 243.421 298.568 244.832 298.568 246.838C298.568 248.844 299.741 250.255 301.662 250.255ZM301.662 249.065C300.523 249.065 299.877 248.147 299.877 246.838C299.877 245.529 300.523 244.594 301.662 244.594C302.784 244.594 303.43 245.529 303.43 246.838C303.43 248.147 302.784 249.065 301.662 249.065ZM307.561 252.448L308.989 248.113H307.374L306.184 252.448H307.561ZM70.049 274.238C72.769 274.238 74.316 272.198 74.316 269.597C74.316 266.996 72.718 264.973 70.049 264.973C67.363 264.973 65.782 266.996 65.782 269.597C65.782 272.198 67.329 274.238 70.049 274.238ZM72.735 269.92C72.735 271.824 71.528 272.929 70.049 272.929C68.57 272.929 67.346 271.756 67.346 269.92V269.274C67.346 267.421 68.57 266.282 70.049 266.282C71.528 266.282 72.735 267.387 72.735 269.274V269.92ZM77.9668 268.849C77.9668 267.115 79.0888 266.299 80.3128 266.299C81.4858 266.299 82.4888 267.064 82.4888 268.645V274H84.0528V268.509C84.0528 266.197 82.6078 264.973 80.7718 264.973C79.4798 264.973 78.4088 265.534 77.8988 266.707H77.8818V265.211H76.4028V274H77.9668V268.849ZM90.3025 274.238C92.4275 274.238 93.8555 273.082 94.1785 271.45H92.5975C92.4615 272.215 91.6965 273.014 90.3365 273.014C88.7725 273.014 87.6165 271.858 87.6165 270.005V269.954H94.3485V269.393C94.3485 266.894 92.8865 264.973 90.2515 264.973C87.6335 264.973 86.0525 266.979 86.0525 269.597C86.0525 272.198 87.5485 274.238 90.3025 274.238ZM90.2515 266.18C91.6795 266.18 92.6995 267.132 92.7675 268.832H87.6335C87.7695 267.166 88.8915 266.18 90.2515 266.18ZM103.983 274.238C106.703 274.238 108.25 272.198 108.25 269.597C108.25 266.996 106.652 264.973 103.983 264.973C101.297 264.973 99.7156 266.996 99.7156 269.597C99.7156 272.198 101.263 274.238 103.983 274.238ZM106.669 269.92C106.669 271.824 105.462 272.929 103.983 272.929C102.504 272.929 101.28 271.756 101.28 269.92V269.274C101.28 267.421 102.504 266.282 103.983 266.282C105.462 266.282 106.669 267.387 106.669 269.274V269.92ZM111.073 274H112.637V266.503H115.68V265.211H112.62V263.511C112.62 262.882 112.875 262.627 113.504 262.627H115.697V261.369H113.232C111.736 261.369 111.073 262.066 111.073 263.46V265.211H109.084V266.503H111.073V274ZM120.075 265.211V266.503H122.081V271.909C122.081 273.303 122.744 274 124.24 274H126.535V272.708H124.529C123.9 272.708 123.645 272.436 123.645 271.807V266.503H126.518V265.211H123.645V262.576H122.081V265.211H120.075ZM129.996 268.849C129.996 267.115 131.118 266.299 132.342 266.299C133.515 266.299 134.518 267.064 134.518 268.645V274H136.082V268.509C136.082 266.197 134.637 264.973 132.801 264.973C131.543 264.973 130.489 265.517 129.979 266.622H129.962V261.386H128.432V274H129.996V268.849ZM142.332 274.238C144.457 274.238 145.885 273.082 146.208 271.45H144.627C144.491 272.215 143.726 273.014 142.366 273.014C140.802 273.014 139.646 271.858 139.646 270.005V269.954H146.378V269.393C146.378 266.894 144.916 264.973 142.281 264.973C139.663 264.973 138.082 266.979 138.082 269.597C138.082 272.198 139.578 274.238 142.332 274.238ZM142.281 266.18C143.709 266.18 144.729 267.132 144.797 268.832H139.663C139.799 267.166 140.921 266.18 142.281 266.18ZM153.836 268.849C153.836 267.115 154.958 266.299 156.182 266.299C157.355 266.299 158.358 267.064 158.358 268.645V274H159.922V268.509C159.922 266.197 158.477 264.973 156.641 264.973C155.383 264.973 154.329 265.517 153.819 266.622H153.802V261.386H152.272V274H153.836V268.849ZM163.843 263.715C164.455 263.715 164.914 263.239 164.914 262.661C164.914 262.049 164.455 261.607 163.843 261.607H163.758C163.129 261.607 162.67 262.049 162.67 262.661C162.67 263.239 163.129 263.715 163.758 263.715H163.843ZM161.599 266.486H163.01V274H164.574V265.211H161.599V266.486ZM166.942 274.748C167.18 276.244 168.489 277.502 170.801 277.502C173.487 277.502 175.017 276.006 175.017 273.337V265.211H173.521V266.792H173.504C172.994 265.67 171.991 264.973 170.495 264.973C168.081 264.973 166.67 266.894 166.67 269.342C166.67 271.824 168.115 273.745 170.495 273.745C171.923 273.745 172.892 273.082 173.436 271.994H173.453V273.422C173.453 275.224 172.62 276.261 170.801 276.261C169.339 276.261 168.676 275.462 168.523 274.748H166.942ZM168.234 269.138C168.234 267.319 169.424 266.282 170.852 266.282C172.28 266.282 173.453 267.37 173.453 269.138V269.58C173.453 271.365 172.28 272.453 170.852 272.453C169.424 272.453 168.234 271.399 168.234 269.58V269.138ZM179.203 268.849C179.203 267.115 180.325 266.299 181.549 266.299C182.722 266.299 183.725 267.064 183.725 268.645V274H185.289V268.509C185.289 266.197 183.844 264.973 182.008 264.973C180.75 264.973 179.696 265.517 179.186 266.622H179.169V261.386H177.639V274H179.203V268.849ZM191.539 274.238C193.664 274.238 195.092 273.082 195.415 271.45H193.834C193.698 272.215 192.933 273.014 191.573 273.014C190.009 273.014 188.853 271.858 188.853 270.005V269.954H195.585V269.393C195.585 266.894 194.123 264.973 191.488 264.973C188.87 264.973 187.289 266.979 187.289 269.597C187.289 272.198 188.785 274.238 191.539 274.238ZM191.488 266.18C192.916 266.18 193.936 267.132 194.004 268.832H188.87C189.006 267.166 190.128 266.18 191.488 266.18ZM196.981 271.433C197.032 273.133 198.477 274.255 200.772 274.255C202.948 274.255 204.478 273.218 204.478 271.501C204.478 270.005 203.407 269.189 201.673 268.951L200.33 268.764C199.327 268.611 198.817 268.237 198.817 267.489C198.817 266.69 199.548 266.129 200.738 266.129C201.962 266.129 202.642 266.707 202.693 267.591H204.274C204.206 266.163 202.999 264.939 200.772 264.939C198.715 264.939 197.253 265.976 197.253 267.608C197.253 269.121 198.29 269.869 199.82 270.09L201.163 270.277C202.234 270.43 202.897 270.787 202.897 271.62C202.897 272.521 202.064 273.065 200.823 273.065C199.548 273.065 198.63 272.538 198.596 271.433H196.981ZM205.241 265.211V266.503H207.247V271.909C207.247 273.303 207.91 274 209.406 274H211.701V272.708H209.695C209.066 272.708 208.811 272.436 208.811 271.807V266.503H211.684V265.211H208.811V262.576H207.247V265.211H205.241ZM218.81 263.715C219.422 263.715 219.881 263.239 219.881 262.661C219.881 262.049 219.422 261.607 218.81 261.607H218.725C218.096 261.607 217.637 262.049 217.637 262.661C217.637 263.239 218.096 263.715 218.725 263.715H218.81ZM216.566 266.486H217.977V274H219.541V265.211H216.566V266.486ZM223.728 268.849C223.728 267.115 224.85 266.299 226.074 266.299C227.247 266.299 228.25 267.064 228.25 268.645V274H229.814V268.509C229.814 266.197 228.369 264.973 226.533 264.973C225.241 264.973 224.17 265.534 223.66 266.707H223.643V265.211H222.164V274H223.728V268.849ZM235.174 265.211V266.503H237.18V271.909C237.18 273.303 237.843 274 239.339 274H241.634V272.708H239.628C238.999 272.708 238.744 272.436 238.744 271.807V266.503H241.617V265.211H238.744V262.576H237.18V265.211H235.174ZM245.095 268.849C245.095 267.115 246.217 266.299 247.441 266.299C248.614 266.299 249.617 267.064 249.617 268.645V274H251.181V268.509C251.181 266.197 249.736 264.973 247.9 264.973C246.642 264.973 245.588 265.517 245.078 266.622H245.061V261.386H243.531V274H245.095V268.849ZM257.43 274.238C259.555 274.238 260.983 273.082 261.306 271.45H259.725C259.589 272.215 258.824 273.014 257.464 273.014C255.9 273.014 254.744 271.858 254.744 270.005V269.954H261.476V269.393C261.476 266.894 260.014 264.973 257.379 264.973C254.761 264.973 253.18 266.979 253.18 269.597C253.18 272.198 254.676 274.238 257.43 274.238ZM257.379 266.18C258.807 266.18 259.827 267.132 259.895 268.832H254.761C254.897 267.166 256.019 266.18 257.379 266.18ZM67.346 293.274C67.346 291.421 68.519 290.282 69.998 290.282C71.29 290.282 72.004 291.047 72.242 291.948H73.789C73.466 290.163 72.089 288.973 70.015 288.973C67.329 288.973 65.782 290.945 65.782 293.597C65.782 296.232 67.295 298.238 70.015 298.238C72.089 298.238 73.449 297.031 73.789 295.212H72.259C72.004 296.164 71.256 296.929 69.998 296.929C68.519 296.929 67.346 295.773 67.346 293.937V293.274ZM79.5285 298.238C82.2485 298.238 83.7955 296.198 83.7955 293.597C83.7955 290.996 82.1975 288.973 79.5285 288.973C76.8425 288.973 75.2615 290.996 75.2615 293.597C75.2615 296.198 76.8085 298.238 79.5285 298.238ZM82.2145 293.92C82.2145 295.824 81.0075 296.929 79.5285 296.929C78.0495 296.929 76.8255 295.756 76.8255 293.92V293.274C76.8255 291.421 78.0495 290.282 79.5285 290.282C81.0075 290.282 82.2145 291.387 82.2145 293.274V293.92ZM85.8822 298H87.4462V292.628C87.4462 291.047 88.4492 290.299 89.5542 290.299C90.6252 290.299 91.5432 290.996 91.5432 292.424V298H93.1072V292.628C93.1072 291.047 94.1102 290.299 95.2322 290.299C96.2862 290.299 97.2042 290.996 97.2042 292.424V298H98.7682V292.288C98.7682 290.146 97.4082 288.973 95.6742 288.973C94.4162 288.973 93.3282 289.568 92.8352 290.792H92.8182C92.3592 289.585 91.3052 288.973 90.0132 288.973C88.8232 288.973 87.8372 289.5 87.3782 290.554H87.3612V289.211H85.8822V298ZM101.288 289.211V301.264H102.852V296.436H102.869C103.413 297.558 104.433 298.238 105.844 298.238C108.275 298.238 109.737 296.215 109.737 293.597C109.737 290.996 108.309 288.973 105.844 288.973C104.365 288.973 103.311 289.687 102.801 290.877H102.784V289.211H101.288ZM108.156 293.274V293.92C108.156 295.807 106.966 296.929 105.504 296.929C104.042 296.929 102.852 295.773 102.852 293.92V293.274C102.852 291.421 104.042 290.265 105.504 290.265C106.966 290.265 108.156 291.37 108.156 293.274ZM111.459 291.659H113.006C113.108 290.724 113.771 290.163 115.029 290.163C116.423 290.163 116.899 290.877 116.899 291.574C116.899 292.254 116.44 292.543 115.539 292.696L114.213 292.917C112.36 293.206 111.136 294.022 111.136 295.637C111.136 297.286 112.411 298.238 114.145 298.238C115.624 298.238 116.712 297.49 117.137 296.402H117.154V296.572C117.137 297.507 117.579 298 118.684 298H119.687V296.742H119.143C118.718 296.742 118.497 296.606 118.497 296.062V291.897C118.497 289.908 117.069 288.973 115.063 288.973C112.853 288.973 111.612 290.078 111.459 291.659ZM116.95 294.345C116.95 295.943 115.913 297.014 114.434 297.014C113.38 297.014 112.666 296.504 112.666 295.586V295.484C112.666 294.634 113.363 294.175 114.485 293.988L115.777 293.767C116.389 293.665 116.78 293.427 116.95 293.189V294.345ZM122.758 292.849C122.758 291.115 123.88 290.299 125.104 290.299C126.277 290.299 127.28 291.064 127.28 292.645V298H128.844V292.509C128.844 290.197 127.399 288.973 125.563 288.973C124.271 288.973 123.2 289.534 122.69 290.707H122.673V289.211H121.194V298H122.758V292.849ZM134.742 298.986L138.55 289.211H136.952L134.419 295.96H134.402L131.801 289.211H130.084L133.569 297.762L133.178 298.765C132.787 299.751 132.515 299.955 131.597 299.955H130.135V301.264H131.648C133.399 301.264 134.113 300.618 134.742 298.986ZM69.25 335.443V346H70.865V335.443H74.877V334.032H65.238V335.443H69.25ZM77.9834 340.849C77.9834 339.115 79.1054 338.299 80.3294 338.299C81.5024 338.299 82.5054 339.064 82.5054 340.645V346H84.0694V340.509C84.0694 338.197 82.6244 336.973 80.7884 336.973C79.5304 336.973 78.4764 337.517 77.9664 338.622H77.9494V333.386H76.4194V346H77.9834V340.849ZM87.9901 335.715C88.6021 335.715 89.0611 335.239 89.0611 334.661C89.0611 334.049 88.6021 333.607 87.9901 333.607H87.9051C87.2761 333.607 86.8171 334.049 86.8171 334.661C86.8171 335.239 87.2761 335.715 87.9051 335.715H87.9901ZM85.7461 338.486H87.1571V346H88.7211V337.211H85.7461V338.486ZM90.6642 343.433C90.7152 345.133 92.1602 346.255 94.4552 346.255C96.6312 346.255 98.1612 345.218 98.1612 343.501C98.1612 342.005 97.0902 341.189 95.3562 340.951L94.0132 340.764C93.0102 340.611 92.5002 340.237 92.5002 339.489C92.5002 338.69 93.2312 338.129 94.4212 338.129C95.6452 338.129 96.3252 338.707 96.3762 339.591H97.9572C97.8892 338.163 96.6822 336.939 94.4552 336.939C92.3982 336.939 90.9362 337.976 90.9362 339.608C90.9362 341.121 91.9732 341.869 93.5032 342.09L94.8462 342.277C95.9172 342.43 96.5802 342.787 96.5802 343.62C96.5802 344.521 95.7472 345.065 94.5062 345.065C93.2312 345.065 92.3132 344.538 92.2792 343.433H90.6642ZM102.908 337.211L105.781 346.017H107.362L109.487 339.115H109.504L111.663 346.017H113.278L116.032 337.211H114.519L112.496 344.011H112.479L110.337 337.194H108.756L106.665 344.045H106.648L104.557 337.211H102.908ZM117.02 339.659H118.567C118.669 338.724 119.332 338.163 120.59 338.163C121.984 338.163 122.46 338.877 122.46 339.574C122.46 340.254 122.001 340.543 121.1 340.696L119.774 340.917C117.921 341.206 116.697 342.022 116.697 343.637C116.697 345.286 117.972 346.238 119.706 346.238C121.185 346.238 122.273 345.49 122.698 344.402H122.715V344.572C122.698 345.507 123.14 346 124.245 346H125.248V344.742H124.704C124.279 344.742 124.058 344.606 124.058 344.062V339.897C124.058 337.908 122.63 336.973 120.624 336.973C118.414 336.973 117.173 338.078 117.02 339.659ZM122.511 342.345C122.511 343.943 121.474 345.014 119.995 345.014C118.941 345.014 118.227 344.504 118.227 343.586V343.484C118.227 342.634 118.924 342.175 120.046 341.988L121.338 341.767C121.95 341.665 122.341 341.427 122.511 341.189V342.345ZM126.142 343.433C126.193 345.133 127.638 346.255 129.933 346.255C132.109 346.255 133.639 345.218 133.639 343.501C133.639 342.005 132.568 341.189 130.834 340.951L129.491 340.764C128.488 340.611 127.978 340.237 127.978 339.489C127.978 338.69 128.709 338.129 129.899 338.129C131.123 338.129 131.803 338.707 131.854 339.591H133.435C133.367 338.163 132.16 336.939 129.933 336.939C127.876 336.939 126.414 337.976 126.414 339.608C126.414 341.121 127.451 341.869 128.981 342.09L130.324 342.277C131.395 342.43 132.058 342.787 132.058 343.62C132.058 344.521 131.225 345.065 129.984 345.065C128.709 345.065 127.791 344.538 127.757 343.433H126.142ZM139.15 339.659H140.697C140.799 338.724 141.462 338.163 142.72 338.163C144.114 338.163 144.59 338.877 144.59 339.574C144.59 340.254 144.131 340.543 143.23 340.696L141.904 340.917C140.051 341.206 138.827 342.022 138.827 343.637C138.827 345.286 140.102 346.238 141.836 346.238C143.315 346.238 144.403 345.49 144.828 344.402H144.845V344.572C144.828 345.507 145.27 346 146.375 346H147.378V344.742H146.834C146.409 344.742 146.188 344.606 146.188 344.062V339.897C146.188 337.908 144.76 336.973 142.754 336.973C140.544 336.973 139.303 338.078 139.15 339.659ZM144.641 342.345C144.641 343.943 143.604 345.014 142.125 345.014C141.071 345.014 140.357 344.504 140.357 343.586V343.484C140.357 342.634 141.054 342.175 142.176 341.988L143.468 341.767C144.08 341.665 144.471 341.427 144.641 341.189V342.345ZM154.317 333.386H152.753V346H154.317V333.386ZM160.25 337.211H158.329L154.317 341.274L158.584 346H160.59L156.221 341.206L160.25 337.211ZM164.993 346.238C167.118 346.238 168.546 345.082 168.869 343.45H167.288C167.152 344.215 166.387 345.014 165.027 345.014C163.463 345.014 162.307 343.858 162.307 342.005V341.954H169.039V341.393C169.039 338.894 167.577 336.973 164.942 336.973C162.324 336.973 160.743 338.979 160.743 341.597C160.743 344.198 162.239 346.238 164.993 346.238ZM164.942 338.18C166.37 338.18 167.39 339.132 167.458 340.832H162.324C162.46 339.166 163.582 338.18 164.942 338.18ZM174.453 346.986L178.261 337.211H176.663L174.13 343.96H174.113L171.512 337.211H169.795L173.28 345.762L172.889 346.765C172.498 347.751 172.226 347.955 171.308 347.955H169.846V349.264H171.359C173.11 349.264 173.824 348.618 174.453 346.986ZM183.582 337.211V349.264H185.146V344.436H185.163C185.707 345.558 186.727 346.238 188.138 346.238C190.569 346.238 192.031 344.215 192.031 341.597C192.031 338.996 190.603 336.973 188.138 336.973C186.659 336.973 185.605 337.687 185.095 338.877H185.078V337.211H183.582ZM190.45 341.274V341.92C190.45 343.807 189.26 344.929 187.798 344.929C186.336 344.929 185.146 343.773 185.146 341.92V341.274C185.146 339.421 186.336 338.265 187.798 338.265C189.26 338.265 190.45 339.37 190.45 341.274ZM194.108 346H195.672V340.9C195.672 339.608 196.148 338.605 197.814 338.605H199.276V337.16H198.103C196.607 337.16 195.893 337.908 195.621 338.69H195.604V337.211H194.108V346ZM204.322 346.238C207.042 346.238 208.589 344.198 208.589 341.597C208.589 338.996 206.991 336.973 204.322 336.973C201.636 336.973 200.055 338.996 200.055 341.597C200.055 344.198 201.602 346.238 204.322 346.238ZM207.008 341.92C207.008 343.824 205.801 344.929 204.322 344.929C202.843 344.929 201.619 343.756 201.619 341.92V341.274C201.619 339.421 202.843 338.282 204.322 338.282C205.801 338.282 207.008 339.387 207.008 341.274V341.92ZM210.676 346H212.172V344.334H212.189C212.699 345.507 213.753 346.238 215.232 346.238C217.697 346.238 219.125 344.215 219.125 341.597C219.125 338.996 217.663 336.973 215.232 336.973C213.821 336.973 212.801 337.653 212.257 338.775H212.24V333.386H210.676V346ZM217.544 341.937C217.544 343.841 216.354 344.929 214.892 344.929C213.43 344.929 212.24 343.773 212.24 341.937V341.291C212.24 339.421 213.43 338.282 214.892 338.282C216.354 338.282 217.544 339.387 217.544 341.291V341.937ZM221.117 343.909C221.117 345.303 221.797 346 223.276 346H225.197V344.691H223.65C222.97 344.691 222.681 344.402 222.681 343.722V333.386H221.117V343.909ZM230.27 346.238C232.395 346.238 233.823 345.082 234.146 343.45H232.565C232.429 344.215 231.664 345.014 230.304 345.014C228.74 345.014 227.584 343.858 227.584 342.005V341.954H234.316V341.393C234.316 338.894 232.854 336.973 230.219 336.973C227.601 336.973 226.02 338.979 226.02 341.597C226.02 344.198 227.516 346.238 230.27 346.238ZM230.219 338.18C231.647 338.18 232.667 339.132 232.735 340.832H227.601C227.737 339.166 228.859 338.18 230.219 338.18ZM236.392 346H237.956V340.628C237.956 339.047 238.959 338.299 240.064 338.299C241.135 338.299 242.053 338.996 242.053 340.424V346H243.617V340.628C243.617 339.047 244.62 338.299 245.742 338.299C246.796 338.299 247.714 338.996 247.714 340.424V346H249.278V340.288C249.278 338.146 247.918 336.973 246.184 336.973C244.926 336.973 243.838 337.568 243.345 338.792H243.328C242.869 337.585 241.815 336.973 240.523 336.973C239.333 336.973 238.347 337.5 237.888 338.554H237.871V337.211H236.392V346ZM254.631 337.211V338.503H256.637V343.909C256.637 345.303 257.3 346 258.796 346H261.091V344.708H259.085C258.456 344.708 258.201 344.436 258.201 343.807V338.503H261.074V337.211H258.201V334.576H256.637V337.211H254.631ZM266.495 346.238C269.215 346.238 270.762 344.198 270.762 341.597C270.762 338.996 269.164 336.973 266.495 336.973C263.809 336.973 262.228 338.996 262.228 341.597C262.228 344.198 263.775 346.238 266.495 346.238ZM269.181 341.92C269.181 343.824 267.974 344.929 266.495 344.929C265.016 344.929 263.792 343.756 263.792 341.92V341.274C263.792 339.421 265.016 338.282 266.495 338.282C267.974 338.282 269.181 339.387 269.181 341.274V341.92ZM65.323 361.211V362.503H67.329V367.909C67.329 369.303 67.992 370 69.488 370H71.783V368.708H69.777C69.148 368.708 68.893 368.436 68.893 367.807V362.503H71.766V361.211H68.893V358.576H67.329V361.211H65.323ZM73.2421 363.659H74.7891C74.8911 362.724 75.5541 362.163 76.8121 362.163C78.2061 362.163 78.6821 362.877 78.6821 363.574C78.6821 364.254 78.2231 364.543 77.3221 364.696L75.9961 364.917C74.1431 365.206 72.9191 366.022 72.9191 367.637C72.9191 369.286 74.1941 370.238 75.9281 370.238C77.4071 370.238 78.4951 369.49 78.9201 368.402H78.9371V368.572C78.9201 369.507 79.3621 370 80.4671 370H81.4701V368.742H80.9261C80.5011 368.742 80.2801 368.606 80.2801 368.062V363.897C80.2801 361.908 78.8521 360.973 76.8461 360.973C74.6361 360.973 73.3951 362.078 73.2421 363.659ZM78.7331 366.345C78.7331 367.943 77.6961 369.014 76.2171 369.014C75.1631 369.014 74.4491 368.504 74.4491 367.586V367.484C74.4491 366.634 75.1461 366.175 76.2681 365.988L77.5601 365.767C78.1721 365.665 78.5631 365.427 78.7331 365.189V366.345ZM84.0306 365.274C84.0306 363.421 85.2036 362.282 86.6826 362.282C87.9746 362.282 88.6886 363.047 88.9266 363.948H90.4736C90.1506 362.163 88.7736 360.973 86.6996 360.973C84.0136 360.973 82.4666 362.945 82.4666 365.597C82.4666 368.232 83.9796 370.238 86.6996 370.238C88.7736 370.238 90.1336 369.031 90.4736 367.212H88.9436C88.6886 368.164 87.9406 368.929 86.6826 368.929C85.2036 368.929 84.0306 367.773 84.0306 365.937V365.274ZM94.0371 357.386H92.4731V370H94.0371V357.386ZM99.9701 361.211H98.0491L94.0371 365.274L98.3041 370H100.31L95.9411 365.206L99.9701 361.211ZM101.469 367.909C101.469 369.303 102.149 370 103.628 370H105.549V368.691H104.002C103.322 368.691 103.033 368.402 103.033 367.722V357.386H101.469V367.909ZM110.623 370.238C112.748 370.238 114.176 369.082 114.499 367.45H112.918C112.782 368.215 112.017 369.014 110.657 369.014C109.093 369.014 107.937 367.858 107.937 366.005V365.954H114.669V365.393C114.669 362.894 113.207 360.973 110.572 360.973C107.954 360.973 106.373 362.979 106.373 365.597C106.373 368.198 107.869 370.238 110.623 370.238ZM110.572 362.18C112 362.18 113.02 363.132 113.088 364.832H107.954C108.09 363.166 109.212 362.18 110.572 362.18ZM121.549 370H123.113V362.503H126.156V361.211H123.096V359.511C123.096 358.882 123.351 358.627 123.98 358.627H126.173V357.369H123.708C122.212 357.369 121.549 358.066 121.549 359.46V361.211H119.56V362.503H121.549V370ZM129.162 359.715C129.774 359.715 130.233 359.239 130.233 358.661C130.233 358.049 129.774 357.607 129.162 357.607H129.077C128.448 357.607 127.989 358.049 127.989 358.661C127.989 359.239 128.448 359.715 129.077 359.715H129.162ZM126.918 362.486H128.329V370H129.893V361.211H126.918V362.486ZM132.516 370H134.08V364.9C134.08 363.608 134.556 362.605 136.222 362.605H137.684V361.16H136.511C135.015 361.16 134.301 361.908 134.029 362.69H134.012V361.211H132.516V370ZM138.56 367.433C138.611 369.133 140.056 370.255 142.351 370.255C144.527 370.255 146.057 369.218 146.057 367.501C146.057 366.005 144.986 365.189 143.252 364.951L141.909 364.764C140.906 364.611 140.396 364.237 140.396 363.489C140.396 362.69 141.127 362.129 142.317 362.129C143.541 362.129 144.221 362.707 144.272 363.591H145.853C145.785 362.163 144.578 360.939 142.351 360.939C140.294 360.939 138.832 361.976 138.832 363.608C138.832 365.121 139.869 365.869 141.399 366.09L142.742 366.277C143.813 366.43 144.476 366.787 144.476 367.62C144.476 368.521 143.643 369.065 142.402 369.065C141.127 369.065 140.209 368.538 140.175 367.433H138.56ZM146.82 361.211V362.503H148.826V367.909C148.826 369.303 149.489 370 150.985 370H153.28V368.708H151.274C150.645 368.708 150.39 368.436 150.39 367.807V362.503H153.263V361.211H150.39V358.576H148.826V361.211H146.82Z" fill="white"/>
<path d="M65 228.057H205.29V229.162H65V228.057Z" fill="white"/>
<rect x="376" width="376" height="423" fill="white"/>
<path d="M445.185 52.141C435.913 52.141 430.118 58.119 430.118 67.818V81.055C430.118 90.998 435.974 96.854 445.185 96.854C454.457 96.854 460.191 90.998 460.191 81.055V67.818C460.191 58.119 454.518 52.141 445.185 52.141ZM445.185 91.791C439.268 91.791 435.852 87.704 435.852 81.055V67.879C435.852 61.352 439.268 57.204 445.185 57.204C451.102 57.204 454.457 61.352 454.457 67.879V81.055C454.457 87.704 451.041 91.791 445.185 91.791ZM463.308 96H469.591L478.436 83.8H478.497L487.342 96H493.869L481.974 79.774L493.32 64.463H486.976L478.68 75.809H478.619L470.384 64.463H463.857L475.142 79.896L463.308 96ZM497.81 96H503.178V90.022H503.239C505.13 94.231 508.851 96.854 514.158 96.854C523.003 96.854 528.127 89.595 528.127 80.201C528.127 70.868 522.881 63.609 514.158 63.609C509.095 63.609 505.435 66.049 503.483 70.075H503.422V50.738H497.81V96ZM522.454 81.421C522.454 88.253 518.184 92.157 512.938 92.157C507.692 92.157 503.422 88.009 503.422 81.421V79.103C503.422 72.393 507.692 68.306 512.938 68.306C518.184 68.306 522.454 72.271 522.454 79.103V81.421ZM537.518 79.042C537.518 72.393 541.727 68.306 547.095 68.306C551.731 68.306 554.293 71.051 555.086 74.284H560.637C559.539 67.879 554.598 63.609 547.095 63.609C537.457 63.609 531.906 70.685 531.906 80.201C531.906 89.656 537.335 96.854 547.095 96.854C554.537 96.854 559.417 92.523 560.698 85.996H555.147C554.293 89.412 551.609 92.157 547.095 92.157C541.727 92.157 537.518 88.009 537.518 81.421V79.042ZM565.898 96H571.266V90.022H571.327C573.218 94.231 576.939 96.854 582.246 96.854C591.091 96.854 596.215 89.595 596.215 80.201C596.215 70.868 590.969 63.609 582.246 63.609C577.183 63.609 573.523 66.049 571.571 70.075H571.51V50.738H565.898V96ZM590.542 81.421C590.542 88.253 586.272 92.157 581.026 92.157C575.78 92.157 571.51 88.009 571.51 81.421V79.103C571.51 72.393 575.78 68.306 581.026 68.306C586.272 68.306 590.542 72.271 590.542 79.103V81.421ZM630.861 81.909C630.861 73.247 624.883 67.269 617.075 67.269C614.269 67.269 612.317 68.062 610.67 69.343H610.609L622.565 53.056H616.038L605.058 68.428C601.703 73.064 600.239 76.968 600.239 81.665C600.239 90.266 606.522 96.854 615.428 96.854C624.517 96.854 630.861 90.449 630.861 81.909ZM605.973 81.482C605.973 76.053 609.877 71.783 615.611 71.783C621.955 71.783 625.127 76.175 625.127 81.482V82.214C625.127 87.582 621.711 92.218 615.611 92.218C609.633 92.218 605.973 87.399 605.973 82.214V81.482ZM640.277 79.042C640.277 72.393 644.486 68.306 649.854 68.306C654.49 68.306 657.052 71.051 657.845 74.284H663.396C662.298 67.879 657.357 63.609 649.854 63.609C640.216 63.609 634.665 70.685 634.665 80.201C634.665 89.656 640.094 96.854 649.854 96.854C657.296 96.854 662.176 92.523 663.457 85.996H657.906C657.052 89.412 654.368 92.157 649.854 92.157C644.486 92.157 640.277 88.009 640.277 81.421V79.042ZM682.87 52.141C673.598 52.141 667.803 58.119 667.803 67.818V81.055C667.803 90.998 673.659 96.854 682.87 96.854C692.142 96.854 697.876 90.998 697.876 81.055V67.818C697.876 58.119 692.203 52.141 682.87 52.141ZM682.87 91.791C676.953 91.791 673.537 87.704 673.537 81.055V67.879C673.537 61.352 676.953 57.204 682.87 57.204C688.787 57.204 692.142 61.352 692.142 67.879V81.055C692.142 87.704 688.726 91.791 682.87 91.791ZM426.602 145.029H431.726C433.251 141.552 436.179 139.478 440.327 139.478C446.305 139.478 449.05 143.748 449.05 149.299V149.97C449.05 155.582 446 160.096 439.778 160.096C434.227 160.096 431.116 156.497 430.811 152.349H425.016C425.565 159.73 431.238 164.854 439.656 164.854C449.233 164.854 454.906 158.266 454.906 149.604C454.906 141.003 449.965 134.842 441.608 134.842C437.582 134.842 433.861 136.245 431.787 140.149H431.726V125.875H452.588V121.056H426.602V145.029ZM474.095 164.854C481.659 164.854 486.783 160.706 487.942 154.85H482.269C481.781 157.595 479.036 160.462 474.156 160.462C468.605 160.462 464.457 156.314 464.457 149.665V149.482H488.552V147.225C488.552 138.38 483.306 131.609 474.034 131.609C464.457 131.609 458.784 138.807 458.784 148.201C458.784 157.534 464.152 164.854 474.095 164.854ZM474.034 135.94C479.097 135.94 482.757 139.417 482.879 145.456H464.518C465.006 139.478 469.032 135.94 474.034 135.94ZM507.633 164.854C515.197 164.854 520.321 160.706 521.48 154.85H515.807C515.319 157.595 512.574 160.462 507.694 160.462C502.143 160.462 497.995 156.314 497.995 149.665V149.482H522.09V147.225C522.09 138.38 516.844 131.609 507.572 131.609C497.995 131.609 492.322 138.807 492.322 148.201C492.322 157.534 497.69 164.854 507.633 164.854ZM507.572 135.94C512.635 135.94 516.295 139.417 516.417 145.456H498.056C498.544 139.478 502.57 135.94 507.572 135.94ZM535.753 164H541.487V121.056H535.753V128.498H525.2V133.256H535.753V164ZM578.396 164V118.738H572.784V138.075H572.723C570.771 134.049 567.111 131.609 561.987 131.609C553.325 131.609 548.079 138.868 548.079 148.201C548.079 157.595 553.203 164.854 561.987 164.854C567.355 164.854 571.076 162.231 572.967 158.022H573.028V164H578.396ZM553.752 149.421V147.103C553.752 140.271 558.022 136.306 563.268 136.306C568.453 136.306 572.784 140.393 572.784 147.103V149.421C572.784 156.009 568.453 160.157 563.268 160.157C558.022 160.157 553.752 156.253 553.752 149.421ZM584.677 141.247H590.228C590.533 137.892 592.973 135.879 597.487 135.879C602.489 135.879 604.197 138.441 604.197 140.942C604.197 143.382 602.55 144.419 599.317 144.968L594.559 145.761C587.91 146.798 583.518 149.726 583.518 155.521C583.518 161.438 588.093 164.854 594.315 164.854C599.622 164.854 603.526 162.17 605.051 158.266H605.112V158.876C605.051 162.231 606.637 164 610.602 164H614.201V159.486H612.249C610.724 159.486 609.931 158.998 609.931 157.046V142.101C609.931 134.964 604.807 131.609 597.609 131.609C589.679 131.609 585.226 135.574 584.677 141.247ZM604.38 150.885C604.38 156.619 600.659 160.462 595.352 160.462C591.57 160.462 589.008 158.632 589.008 155.338V154.972C589.008 151.922 591.509 150.275 595.535 149.604L600.171 148.811C602.367 148.445 603.77 147.591 604.38 146.737V150.885ZM624.811 164H630.545V121.056H624.811V128.498H614.258V133.256H624.811V164ZM659.341 141.308C664.099 140.21 667.088 136.428 667.088 131.731C667.088 124.96 661.354 120.141 652.936 120.141C644.457 120.141 638.723 124.96 638.723 131.731C638.723 136.428 641.712 140.21 646.47 141.308V141.369C641.346 142.467 637.503 146.432 637.503 152.41C637.503 159.608 643.664 164.854 652.936 164.854C662.147 164.854 668.308 159.608 668.308 152.41C668.308 146.432 664.465 142.467 659.341 141.369V141.308ZM644.274 131.792C644.274 127.766 647.69 124.777 652.936 124.777C658.121 124.777 661.537 127.766 661.537 131.792V132.402C661.537 136.245 657.999 139.356 652.936 139.356C647.812 139.356 644.274 136.245 644.274 132.402V131.792ZM643.237 151.556C643.237 147.103 646.958 143.626 652.936 143.626C658.853 143.626 662.574 147.103 662.574 151.556V152.288C662.574 156.863 658.792 160.279 652.936 160.279C647.08 160.279 643.237 156.863 643.237 152.288V151.556ZM703.328 149.909C703.328 141.247 697.35 135.269 689.542 135.269C686.736 135.269 684.784 136.062 683.137 137.343H683.076L695.032 121.056H688.505L677.525 136.428C674.17 141.064 672.706 144.968 672.706 149.665C672.706 158.266 678.989 164.854 687.895 164.854C696.984 164.854 703.328 158.449 703.328 149.909ZM678.44 149.482C678.44 144.053 682.344 139.783 688.078 139.783C694.422 139.783 697.594 144.175 697.594 149.482V150.214C697.594 155.582 694.178 160.218 688.078 160.218C682.1 160.218 678.44 155.399 678.44 150.214V149.482ZM433.184 213.029H438.308C439.833 209.552 442.761 207.478 446.909 207.478C452.887 207.478 455.632 211.748 455.632 217.299V217.97C455.632 223.582 452.582 228.096 446.36 228.096C440.809 228.096 437.698 224.497 437.393 220.349H431.598C432.147 227.73 437.82 232.854 446.238 232.854C455.815 232.854 461.488 226.266 461.488 217.604C461.488 209.003 456.547 202.842 448.19 202.842C444.164 202.842 440.443 204.245 438.369 208.149H438.308V193.875H459.17V189.056H433.184V213.029ZM470.978 215.042C470.978 208.393 475.187 204.306 480.555 204.306C485.191 204.306 487.753 207.051 488.546 210.284H494.097C492.999 203.879 488.058 199.609 480.555 199.609C470.917 199.609 465.366 206.685 465.366 216.201C465.366 225.656 470.795 232.854 480.555 232.854C487.997 232.854 492.877 228.523 494.158 221.996H488.607C487.753 225.412 485.069 228.157 480.555 228.157C475.187 228.157 470.978 224.009 470.978 217.421V215.042ZM513.083 232.854C520.647 232.854 525.771 228.706 526.93 222.85H521.257C520.769 225.595 518.024 228.462 513.144 228.462C507.593 228.462 503.445 224.314 503.445 217.665V217.482H527.54V215.225C527.54 206.38 522.294 199.609 513.022 199.609C503.445 199.609 497.772 206.807 497.772 216.201C497.772 225.534 503.14 232.854 513.083 232.854ZM513.022 203.94C518.085 203.94 521.745 207.417 521.867 213.456H503.506C503.994 207.478 508.02 203.94 513.022 203.94ZM547.109 188.141C537.837 188.141 532.042 194.119 532.042 203.818V217.055C532.042 226.998 537.898 232.854 547.109 232.854C556.381 232.854 562.115 226.998 562.115 217.055V203.818C562.115 194.119 556.442 188.141 547.109 188.141ZM547.109 227.791C541.192 227.791 537.776 223.704 537.776 217.055V203.879C537.776 197.352 541.192 193.204 547.109 193.204C553.026 193.204 556.381 197.352 556.381 203.879V217.055C556.381 223.704 552.965 227.791 547.109 227.791ZM567.931 232H574.031L593.856 193.814V189.056H565.125V193.936H587.817L567.931 232ZM598.424 232H603.792V226.022H603.853C605.744 230.231 609.465 232.854 614.772 232.854C623.617 232.854 628.741 225.595 628.741 216.201C628.741 206.868 623.495 199.609 614.772 199.609C609.709 199.609 606.049 202.049 604.097 206.075H604.036V186.738H598.424V232ZM623.068 217.421C623.068 224.253 618.798 228.157 613.552 228.157C608.306 228.157 604.036 224.009 604.036 217.421V215.103C604.036 208.393 608.306 204.306 613.552 204.306C618.798 204.306 623.068 208.271 623.068 215.103V217.421ZM632.947 232H661.312V227.12H638.559V226.754C638.559 223.399 640.206 221.325 643.866 218.702L652.284 213.029C658.506 208.82 660.519 204.916 660.519 200.158C660.519 193.326 655.273 188.141 646.916 188.141C638.925 188.141 633.069 193.021 632.947 201.256H638.559C638.62 195.888 641.853 192.838 646.916 192.838C652.162 192.838 654.724 196.01 654.724 199.975V200.768C654.724 203.452 653.626 205.953 649.295 208.942L641.365 214.249C635.57 218.092 632.947 221.569 632.947 226.937V232ZM687.428 209.308C692.186 208.21 695.175 204.428 695.175 199.731C695.175 192.96 689.441 188.141 681.023 188.141C672.544 188.141 666.81 192.96 666.81 199.731C666.81 204.428 669.799 208.21 674.557 209.308V209.369C669.433 210.467 665.59 214.432 665.59 220.41C665.59 227.608 671.751 232.854 681.023 232.854C690.234 232.854 696.395 227.608 696.395 220.41C696.395 214.432 692.552 210.467 687.428 209.369V209.308ZM672.361 199.792C672.361 195.766 675.777 192.777 681.023 192.777C686.208 192.777 689.624 195.766 689.624 199.792V200.402C689.624 204.245 686.086 207.356 681.023 207.356C675.899 207.356 672.361 204.245 672.361 200.402V199.792ZM671.324 219.556C671.324 215.103 675.045 211.626 681.023 211.626C686.94 211.626 690.661 215.103 690.661 219.556V220.288C690.661 224.863 686.879 228.279 681.023 228.279C675.167 228.279 671.324 224.863 671.324 220.288V219.556ZM431.833 300H437.567V257.056H431.833V264.498H421.28V269.256H431.833V300ZM459.958 256.141C450.686 256.141 444.891 262.119 444.891 271.818V285.055C444.891 294.998 450.747 300.854 459.958 300.854C469.23 300.854 474.964 294.998 474.964 285.055V271.818C474.964 262.119 469.291 256.141 459.958 256.141ZM459.958 295.791C454.041 295.791 450.625 291.704 450.625 285.055V271.879C450.625 265.352 454.041 261.204 459.958 261.204C465.875 261.204 469.23 265.352 469.23 271.879V285.055C469.23 291.704 465.814 295.791 459.958 295.791ZM485.096 283.042C485.096 276.393 489.305 272.306 494.673 272.306C499.309 272.306 501.871 275.051 502.664 278.284H508.215C507.117 271.879 502.176 267.609 494.673 267.609C485.035 267.609 479.484 274.685 479.484 284.201C479.484 293.656 484.913 300.854 494.673 300.854C502.115 300.854 506.995 296.523 508.276 289.996H502.725C501.871 293.412 499.187 296.157 494.673 296.157C489.305 296.157 485.096 292.009 485.096 285.421V283.042ZM542.208 300V254.738H536.596V274.075H536.535C534.583 270.049 530.923 267.609 525.799 267.609C517.137 267.609 511.891 274.868 511.891 284.201C511.891 293.595 517.015 300.854 525.799 300.854C531.167 300.854 534.888 298.231 536.779 294.022H536.84V300H542.208ZM517.564 285.421V283.103C517.564 276.271 521.834 272.306 527.08 272.306C532.265 272.306 536.596 276.393 536.596 283.103V285.421C536.596 292.009 532.265 296.157 527.08 296.157C521.834 296.157 517.564 292.253 517.564 285.421ZM549.525 281.029H554.649C556.174 277.552 559.102 275.478 563.25 275.478C569.228 275.478 571.973 279.748 571.973 285.299V285.97C571.973 291.582 568.923 296.096 562.701 296.096C557.15 296.096 554.039 292.497 553.734 288.349H547.939C548.488 295.73 554.161 300.854 562.579 300.854C572.156 300.854 577.829 294.266 577.829 285.604C577.829 277.003 572.888 270.842 564.531 270.842C560.505 270.842 556.784 272.245 554.71 276.149H554.649V261.875H575.511V257.056H549.525V281.029ZM597.506 256.141C588.234 256.141 582.439 262.119 582.439 271.818V285.055C582.439 294.998 588.295 300.854 597.506 300.854C606.778 300.854 612.512 294.998 612.512 285.055V271.818C612.512 262.119 606.839 256.141 597.506 256.141ZM597.506 295.791C591.589 295.791 588.173 291.704 588.173 285.055V271.879C588.173 265.352 591.589 261.204 597.506 261.204C603.423 261.204 606.778 265.352 606.778 271.879V285.055C606.778 291.704 603.362 295.791 597.506 295.791ZM647.898 285.909C647.898 277.247 641.92 271.269 634.112 271.269C631.306 271.269 629.354 272.062 627.707 273.343H627.646L639.602 257.056H633.075L622.095 272.428C618.74 277.064 617.276 280.968 617.276 285.665C617.276 294.266 623.559 300.854 632.465 300.854C641.554 300.854 647.898 294.449 647.898 285.909ZM623.01 285.482C623.01 280.053 626.914 275.783 632.648 275.783C638.992 275.783 642.164 280.175 642.164 285.482V286.214C642.164 291.582 638.748 296.218 632.648 296.218C626.67 296.218 623.01 291.399 623.01 286.214V285.482ZM651.95 300H680.315V295.12H657.562V294.754C657.562 291.399 659.209 289.325 662.869 286.702L671.287 281.029C677.509 276.82 679.522 272.916 679.522 268.158C679.522 261.326 674.276 256.141 665.919 256.141C657.928 256.141 652.072 261.021 651.95 269.256H657.562C657.623 263.888 660.856 260.838 665.919 260.838C671.165 260.838 673.727 264.01 673.727 267.975V268.768C673.727 271.452 672.629 273.953 668.298 276.942L660.368 282.249C654.573 286.092 651.95 289.569 651.95 294.937V300ZM690.92 300H696.532V273.099H707.512V268.463H696.532V262.363C696.532 260.106 697.386 259.191 699.704 259.191H707.573V254.677H698.667C693.36 254.677 690.92 257.178 690.92 262.18V268.463H683.783V273.099H690.92V300ZM437.644 368H443.012V362.022H443.073C444.964 366.231 448.685 368.854 453.992 368.854C462.837 368.854 467.961 361.595 467.961 352.201C467.961 342.868 462.715 335.609 453.992 335.609C448.929 335.609 445.269 338.049 443.317 342.075H443.256V322.738H437.644V368ZM462.288 353.421C462.288 360.253 458.018 364.157 452.772 364.157C447.526 364.157 443.256 360.009 443.256 353.421V351.103C443.256 344.393 447.526 340.306 452.772 340.306C458.018 340.306 462.288 344.271 462.288 351.103V353.421ZM473.692 349.029H478.816C480.341 345.552 483.269 343.478 487.417 343.478C493.395 343.478 496.14 347.748 496.14 353.299V353.97C496.14 359.582 493.09 364.096 486.868 364.096C481.317 364.096 478.206 360.497 477.901 356.349H472.106C472.655 363.73 478.328 368.854 486.746 368.854C496.323 368.854 501.996 362.266 501.996 353.604C501.996 345.003 497.055 338.842 488.698 338.842C484.672 338.842 480.951 340.245 478.877 344.149H478.816V329.875H499.678V325.056H473.692V349.029ZM516.244 368H521.978V325.056H516.244V332.498H505.691V337.256H516.244V368ZM559.436 353.909C559.436 345.247 553.458 339.269 545.65 339.269C542.844 339.269 540.892 340.062 539.245 341.343H539.184L551.14 325.056H544.613L533.633 340.428C530.278 345.064 528.814 348.968 528.814 353.665C528.814 362.266 535.097 368.854 544.003 368.854C553.092 368.854 559.436 362.449 559.436 353.909ZM534.548 353.482C534.548 348.053 538.452 343.783 544.186 343.783C550.53 343.783 553.702 348.175 553.702 353.482V354.214C553.702 359.582 550.286 364.218 544.186 364.218C538.208 364.218 534.548 359.399 534.548 354.214V353.482ZM585.444 345.308C590.202 344.21 593.191 340.428 593.191 335.731C593.191 328.96 587.457 324.141 579.039 324.141C570.56 324.141 564.826 328.96 564.826 335.731C564.826 340.428 567.815 344.21 572.573 345.308V345.369C567.449 346.467 563.606 350.432 563.606 356.41C563.606 363.608 569.767 368.854 579.039 368.854C588.25 368.854 594.411 363.608 594.411 356.41C594.411 350.432 590.568 346.467 585.444 345.369V345.308ZM570.377 335.792C570.377 331.766 573.793 328.777 579.039 328.777C584.224 328.777 587.64 331.766 587.64 335.792V336.402C587.64 340.245 584.102 343.356 579.039 343.356C573.915 343.356 570.377 340.245 570.377 336.402V335.792ZM569.34 355.556C569.34 351.103 573.061 347.626 579.039 347.626C584.956 347.626 588.677 351.103 588.677 355.556V356.288C588.677 360.863 584.895 364.279 579.039 364.279C573.183 364.279 569.34 360.863 569.34 356.288V355.556ZM604.177 351.042C604.177 344.393 608.386 340.306 613.754 340.306C618.39 340.306 620.952 343.051 621.745 346.284H627.296C626.198 339.879 621.257 335.609 613.754 335.609C604.116 335.609 598.565 342.685 598.565 352.201C598.565 361.656 603.994 368.854 613.754 368.854C621.196 368.854 626.076 364.523 627.357 357.996H621.806C620.952 361.412 618.268 364.157 613.754 364.157C608.386 364.157 604.177 360.009 604.177 353.421V351.042ZM631.827 345.247H637.378C637.683 341.892 640.123 339.879 644.637 339.879C649.639 339.879 651.347 342.441 651.347 344.942C651.347 347.382 649.7 348.419 646.467 348.968L641.709 349.761C635.06 350.798 630.668 353.726 630.668 359.521C630.668 365.438 635.243 368.854 641.465 368.854C646.772 368.854 650.676 366.17 652.201 362.266H652.262V362.876C652.201 366.231 653.787 368 657.752 368H661.351V363.486H659.399C657.874 363.486 657.081 362.998 657.081 361.046V346.101C657.081 338.964 651.957 335.609 644.759 335.609C636.829 335.609 632.376 339.574 631.827 345.247ZM651.53 354.885C651.53 360.619 647.809 364.462 642.502 364.462C638.72 364.462 636.158 362.632 636.158 359.338V358.972C636.158 355.922 638.659 354.275 642.685 353.604L647.321 352.811C649.517 352.445 650.92 351.591 651.53 350.737V354.885ZM668.93 351.042C668.93 344.393 673.139 340.306 678.507 340.306C683.143 340.306 685.705 343.051 686.498 346.284H692.049C690.951 339.879 686.01 335.609 678.507 335.609C668.869 335.609 663.318 342.685 663.318 352.201C663.318 361.656 668.747 368.854 678.507 368.854C685.949 368.854 690.829 364.523 692.11 357.996H686.559C685.705 361.412 683.021 364.157 678.507 364.157C673.139 364.157 668.93 360.009 668.93 353.421V351.042Z" fill="#F25138"/>
</svg>
