<svg width="752" height="423" viewBox="0 0 752 423" fill="none" xmlns="http://www.w3.org/2000/svg">
<rect width="752" height="423" fill="#0A0B0D"/>
<path d="M72.9773 43.2727V52H71.9545L67.1989 45.1477H67.1136V52H66.0568V43.2727H67.0795L71.8523 50.142H71.9375V43.2727H72.9773ZM77.6147 52.1364C77.0238 52.1364 76.5053 51.9957 76.0593 51.7145C75.6161 51.4332 75.2695 51.0398 75.0195 50.5341C74.7724 50.0284 74.6488 49.4375 74.6488 48.7614C74.6488 48.0795 74.7724 47.4844 75.0195 46.9759C75.2695 46.4673 75.6161 46.0724 76.0593 45.7912C76.5053 45.5099 77.0238 45.3693 77.6147 45.3693C78.2056 45.3693 78.7227 45.5099 79.1658 45.7912C79.6119 46.0724 79.9585 46.4673 80.2056 46.9759C80.4556 47.4844 80.5806 48.0795 80.5806 48.7614C80.5806 49.4375 80.4556 50.0284 80.2056 50.5341C79.9585 51.0398 79.6119 51.4332 79.1658 51.7145C78.7227 51.9957 78.2056 52.1364 77.6147 52.1364ZM77.6147 51.233C78.0636 51.233 78.4329 51.1179 78.7227 50.8878C79.0124 50.6577 79.2269 50.3551 79.3661 49.9801C79.5053 49.6051 79.5749 49.1989 79.5749 48.7614C79.5749 48.3239 79.5053 47.9162 79.3661 47.5384C79.2269 47.1605 79.0124 46.8551 78.7227 46.6222C78.4329 46.3892 78.0636 46.2727 77.6147 46.2727C77.1658 46.2727 76.7965 46.3892 76.5067 46.6222C76.217 46.8551 76.0025 47.1605 75.8633 47.5384C75.7241 47.9162 75.6545 48.3239 75.6545 48.7614C75.6545 49.1989 75.7241 49.6051 75.8633 49.9801C76.0025 50.3551 76.217 50.6577 76.5067 50.8878C76.7965 51.1179 77.1658 51.233 77.6147 51.233ZM82.1158 52V45.4545H83.0874V46.4432H83.1555C83.2749 46.1193 83.4908 45.8565 83.8033 45.6548C84.1158 45.4531 84.468 45.3523 84.8601 45.3523C84.9339 45.3523 85.0263 45.3537 85.1371 45.3565C85.2479 45.3594 85.3317 45.3636 85.3885 45.3693V46.392C85.3544 46.3835 85.2763 46.3707 85.1541 46.3537C85.0348 46.3338 84.9084 46.3239 84.7749 46.3239C84.4567 46.3239 84.1726 46.3906 83.9226 46.5241C83.6754 46.6548 83.4794 46.8366 83.3345 47.0696C83.1925 47.2997 83.1214 47.5625 83.1214 47.858V52H82.1158ZM89.8374 45.4545V46.3068H86.4453V45.4545H89.8374ZM87.4339 43.8864H88.4396V50.125C88.4396 50.4091 88.4808 50.6222 88.5632 50.7642C88.6484 50.9034 88.7564 50.9972 88.8871 51.0455C89.0206 51.0909 89.1612 51.1136 89.3089 51.1136C89.4197 51.1136 89.5107 51.108 89.5817 51.0966C89.6527 51.0824 89.7095 51.071 89.7521 51.0625L89.9567 51.9659C89.8885 51.9915 89.7933 52.017 89.6712 52.0426C89.549 52.071 89.3942 52.0852 89.2067 52.0852C88.9226 52.0852 88.6442 52.0241 88.3714 51.902C88.1016 51.7798 87.8771 51.5938 87.6982 51.3438C87.522 51.0938 87.4339 50.7784 87.4339 50.3977V43.8864ZM92.4964 48.0625V52H91.4908V43.2727H92.4964V46.4773H92.5817C92.7351 46.1392 92.9652 45.8707 93.272 45.6719C93.5817 45.4702 93.9936 45.3693 94.5078 45.3693C94.9538 45.3693 95.3445 45.4588 95.6797 45.6378C96.0149 45.8139 96.2749 46.0852 96.4595 46.4517C96.647 46.8153 96.7408 47.2784 96.7408 47.8409V52H95.7351V47.9091C95.7351 47.3892 95.6001 46.9872 95.3303 46.7031C95.0632 46.4162 94.6925 46.2727 94.218 46.2727C93.8885 46.2727 93.593 46.3423 93.3317 46.4815C93.0732 46.6207 92.8686 46.8239 92.718 47.0909C92.5703 47.358 92.4964 47.6818 92.4964 48.0625ZM103.217 46.9205L102.314 47.1761C102.257 47.0256 102.173 46.8793 102.062 46.7372C101.954 46.5923 101.806 46.473 101.619 46.3793C101.431 46.2855 101.191 46.2386 100.899 46.2386C100.498 46.2386 100.164 46.331 99.8974 46.5156C99.6332 46.6974 99.5011 46.929 99.5011 47.2102C99.5011 47.4602 99.592 47.6577 99.7738 47.8026C99.9556 47.9474 100.24 48.0682 100.626 48.1648L101.598 48.4034C102.183 48.5455 102.619 48.7628 102.906 49.0554C103.193 49.3452 103.336 49.7187 103.336 50.1761C103.336 50.5511 103.228 50.8864 103.012 51.1818C102.799 51.4773 102.501 51.7102 102.118 51.8807C101.734 52.0511 101.288 52.1364 100.779 52.1364C100.112 52.1364 99.5593 51.9915 99.1218 51.7017C98.6843 51.4119 98.4073 50.9886 98.2908 50.4318L99.2454 50.1932C99.3363 50.5455 99.5082 50.8097 99.761 50.9858C100.017 51.1619 100.35 51.25 100.762 51.25C101.231 51.25 101.603 51.1506 101.879 50.9517C102.157 50.75 102.297 50.5085 102.297 50.2273C102.297 50 102.217 49.8097 102.058 49.6562C101.899 49.5 101.654 49.3835 101.325 49.3068L100.234 49.0511C99.6346 48.9091 99.1942 48.6889 98.913 48.3906C98.6346 48.0895 98.4954 47.7131 98.4954 47.2614C98.4954 46.892 98.5991 46.5653 98.8065 46.2812C99.0167 45.9972 99.3022 45.7741 99.663 45.6122C100.027 45.4503 100.439 45.3693 100.899 45.3693C101.547 45.3693 102.055 45.5114 102.424 45.7955C102.797 46.0795 103.061 46.4545 103.217 46.9205ZM107.697 45.4545V46.3068H104.305V45.4545H107.697ZM105.293 43.8864H106.299V50.125C106.299 50.4091 106.34 50.6222 106.423 50.7642C106.508 50.9034 106.616 50.9972 106.746 51.0455C106.88 51.0909 107.021 51.1136 107.168 51.1136C107.279 51.1136 107.37 51.108 107.441 51.0966C107.512 51.0824 107.569 51.071 107.612 51.0625L107.816 51.9659C107.748 51.9915 107.653 52.017 107.531 52.0426C107.408 52.071 107.254 52.0852 107.066 52.0852C106.782 52.0852 106.504 52.0241 106.231 51.902C105.961 51.7798 105.737 51.5938 105.558 51.3438C105.381 51.0938 105.293 50.7784 105.293 50.3977V43.8864ZM111.136 52.1534C110.721 52.1534 110.344 52.0753 110.006 51.919C109.668 51.7599 109.4 51.5312 109.201 51.233C109.002 50.9318 108.903 50.5682 108.903 50.142C108.903 49.767 108.977 49.4631 109.124 49.2301C109.272 48.9943 109.469 48.8097 109.717 48.6761C109.964 48.5426 110.237 48.4432 110.535 48.3778C110.836 48.3097 111.138 48.2557 111.442 48.2159C111.84 48.1648 112.163 48.1264 112.41 48.1009C112.66 48.0724 112.842 48.0256 112.955 47.9602C113.072 47.8949 113.13 47.7812 113.13 47.6193V47.5852C113.13 47.1648 113.015 46.8381 112.785 46.6051C112.558 46.3722 112.212 46.2557 111.749 46.2557C111.269 46.2557 110.893 46.3608 110.62 46.571C110.347 46.7812 110.156 47.0057 110.045 47.2443L109.09 46.9034C109.261 46.5057 109.488 46.196 109.772 45.9744C110.059 45.75 110.371 45.5937 110.71 45.5057C111.05 45.4148 111.386 45.3693 111.715 45.3693C111.925 45.3693 112.167 45.3949 112.44 45.446C112.715 45.4943 112.981 45.5952 113.237 45.7486C113.495 45.902 113.71 46.1335 113.88 46.4432C114.05 46.7528 114.136 47.1676 114.136 47.6875V52H113.13V51.1136H113.079C113.011 51.2557 112.897 51.4077 112.738 51.5696C112.579 51.7315 112.367 51.8693 112.103 51.983C111.839 52.0966 111.516 52.1534 111.136 52.1534ZM111.289 51.25C111.687 51.25 112.022 51.1719 112.295 51.0156C112.57 50.8594 112.778 50.6577 112.917 50.4105C113.059 50.1634 113.13 49.9034 113.13 49.6307V48.7102C113.087 48.7614 112.994 48.8082 112.849 48.8509C112.707 48.8906 112.542 48.9261 112.354 48.9574C112.17 48.9858 111.989 49.0114 111.813 49.0341C111.64 49.054 111.499 49.071 111.391 49.0852C111.13 49.1193 110.886 49.1747 110.658 49.2514C110.434 49.3253 110.252 49.4375 110.113 49.5881C109.977 49.7358 109.908 49.9375 109.908 50.1932C109.908 50.5426 110.038 50.8068 110.296 50.9858C110.558 51.1619 110.888 51.25 111.289 51.25ZM115.971 52V45.4545H116.943V46.4432H117.011C117.13 46.1193 117.346 45.8565 117.659 45.6548C117.971 45.4531 118.324 45.3523 118.716 45.3523C118.789 45.3523 118.882 45.3537 118.993 45.3565C119.103 45.3594 119.187 45.3636 119.244 45.3693V46.392C119.21 46.3835 119.132 46.3707 119.01 46.3537C118.89 46.3338 118.764 46.3239 118.63 46.3239C118.312 46.3239 118.028 46.3906 117.778 46.5241C117.531 46.6548 117.335 46.8366 117.19 47.0696C117.048 47.2997 116.977 47.5625 116.977 47.858V52H115.971Z" fill="white"/>
<path d="M69.087 90.056V133H74.882V113.297H97.391V133H103.186V90.056H97.391V108.234H74.882V90.056H69.087ZM124.497 133.854C134.257 133.854 139.808 126.534 139.808 117.201C139.808 107.868 134.135 100.609 124.497 100.609C114.92 100.609 109.186 107.868 109.186 117.201C109.186 126.534 114.737 133.854 124.497 133.854ZM134.196 118.36C134.196 125.192 129.804 129.157 124.497 129.157C119.19 129.157 114.859 124.948 114.859 118.36V116.042C114.859 109.393 119.19 105.306 124.497 105.306C129.804 105.306 134.196 109.271 134.196 116.042V118.36ZM141.023 101.463L151.332 133.061H156.944L164.63 108.295H164.691L172.438 133.061H178.172L188.115 101.463H182.686L175.366 125.863H175.305L167.619 101.402H162.007L154.504 125.985H154.443L146.94 101.463H141.023ZM206.357 116.042C206.357 109.393 210.566 105.306 215.934 105.306C220.57 105.306 223.132 108.051 223.925 111.284H229.476C228.378 104.879 223.437 100.609 215.934 100.609C206.296 100.609 200.745 107.685 200.745 117.201C200.745 126.656 206.174 133.854 215.934 133.854C223.376 133.854 228.256 129.523 229.537 122.996H223.986C223.132 126.412 220.448 129.157 215.934 129.157C210.566 129.157 206.357 125.009 206.357 118.421V116.042ZM234.007 110.247H239.558C239.863 106.892 242.303 104.879 246.817 104.879C251.819 104.879 253.527 107.441 253.527 109.942C253.527 112.382 251.88 113.419 248.647 113.968L243.889 114.761C237.24 115.798 232.848 118.726 232.848 124.521C232.848 130.438 237.423 133.854 243.645 133.854C248.952 133.854 252.856 131.17 254.381 127.266H254.442V127.876C254.381 131.231 255.967 133 259.932 133H263.531V128.486H261.579C260.054 128.486 259.261 127.998 259.261 126.046V111.101C259.261 103.964 254.137 100.609 246.939 100.609C239.009 100.609 234.556 104.574 234.007 110.247ZM253.71 119.885C253.71 125.619 249.989 129.462 244.682 129.462C240.9 129.462 238.338 127.632 238.338 124.338V123.972C238.338 120.922 240.839 119.275 244.865 118.604L249.501 117.811C251.697 117.445 253.1 116.591 253.71 115.737V119.885ZM272.637 114.517C272.637 108.295 276.663 105.367 281.055 105.367C285.264 105.367 288.863 108.112 288.863 113.785V133H294.475V113.297C294.475 105.001 289.29 100.609 282.702 100.609C278.066 100.609 274.223 102.622 272.393 106.831H272.332V101.463H267.025V133H272.637V114.517ZM308.356 101.463L318.665 133.061H324.277L331.963 108.295H332.024L339.771 133.061H345.505L355.448 101.463H350.019L342.699 125.863H342.638L334.952 101.402H329.34L321.837 125.985H321.776L314.273 101.463H308.356ZM371.773 133.854C379.337 133.854 384.461 129.706 385.62 123.85H379.947C379.459 126.595 376.714 129.462 371.834 129.462C366.283 129.462 362.135 125.314 362.135 118.665V118.482H386.23V116.225C386.23 107.38 380.984 100.609 371.712 100.609C362.135 100.609 356.462 107.807 356.462 117.201C356.462 126.534 361.83 133.854 371.773 133.854ZM371.712 104.94C376.775 104.94 380.435 108.417 380.557 114.456H362.196C362.684 108.478 366.71 104.94 371.712 104.94ZM407.444 114.517C407.444 108.295 411.47 105.367 415.862 105.367C420.071 105.367 423.67 108.112 423.67 113.785V133H429.282V113.297C429.282 105.001 424.097 100.609 417.509 100.609C412.995 100.609 409.213 102.561 407.383 106.526H407.322V87.738H401.832V133H407.444V114.517ZM449.632 133.854C457.196 133.854 462.32 129.706 463.479 123.85H457.806C457.318 126.595 454.573 129.462 449.693 129.462C444.142 129.462 439.994 125.314 439.994 118.665V118.482H464.089V116.225C464.089 107.38 458.843 100.609 449.571 100.609C439.994 100.609 434.321 107.807 434.321 117.201C434.321 126.534 439.689 133.854 449.632 133.854ZM449.571 104.94C454.634 104.94 458.294 108.417 458.416 114.456H440.055C440.543 108.478 444.569 104.94 449.571 104.94ZM469.445 125.497C469.445 130.499 471.824 133 477.192 133H484.085V128.303H478.473C476.033 128.303 475.057 127.266 475.057 124.826V87.738H469.445V125.497ZM488.09 101.463V144.712H493.702V127.388H493.763C495.715 131.414 499.375 133.854 504.438 133.854C513.161 133.854 518.407 126.595 518.407 117.201C518.407 107.868 513.283 100.609 504.438 100.609C499.131 100.609 495.41 103.171 493.519 107.441H493.458V101.463H488.09ZM512.734 116.042V118.36C512.734 125.131 508.464 129.157 503.218 129.157C497.972 129.157 493.702 125.009 493.702 118.36V116.042C493.702 109.393 497.972 105.245 503.218 105.245C508.464 105.245 512.734 109.21 512.734 116.042ZM68.477 169.463V212.712H74.089V195.388H74.15C76.102 199.414 79.762 201.854 84.825 201.854C93.548 201.854 98.794 194.595 98.794 185.201C98.794 175.868 93.67 168.609 84.825 168.609C79.518 168.609 75.797 171.171 73.906 175.441H73.845V169.463H68.477ZM93.121 184.042V186.36C93.121 193.131 88.851 197.157 83.605 197.157C78.359 197.157 74.089 193.009 74.089 186.36V184.042C74.089 177.393 78.359 173.245 83.605 173.245C88.851 173.245 93.121 177.21 93.121 184.042ZM117.885 201.854C125.449 201.854 130.573 197.706 131.732 191.85H126.059C125.571 194.595 122.826 197.462 117.946 197.462C112.395 197.462 108.247 193.314 108.247 186.665V186.482H132.342V184.225C132.342 175.38 127.096 168.609 117.824 168.609C108.247 168.609 102.574 175.807 102.574 185.201C102.574 194.534 107.942 201.854 117.885 201.854ZM117.824 172.94C122.887 172.94 126.547 176.417 126.669 182.456H108.308C108.796 176.478 112.822 172.94 117.824 172.94ZM151.423 201.854C161.183 201.854 166.734 194.534 166.734 185.201C166.734 175.868 161.061 168.609 151.423 168.609C141.846 168.609 136.112 175.868 136.112 185.201C136.112 194.534 141.663 201.854 151.423 201.854ZM161.122 186.36C161.122 193.192 156.73 197.157 151.423 197.157C146.116 197.157 141.785 192.948 141.785 186.36V184.042C141.785 177.393 146.116 173.306 151.423 173.306C156.73 173.306 161.122 177.271 161.122 184.042V186.36ZM172.129 169.463V212.712H177.741V195.388H177.802C179.754 199.414 183.414 201.854 188.477 201.854C197.2 201.854 202.446 194.595 202.446 185.201C202.446 175.868 197.322 168.609 188.477 168.609C183.17 168.609 179.449 171.171 177.558 175.441H177.497V169.463H172.129ZM196.773 184.042V186.36C196.773 193.131 192.503 197.157 187.257 197.157C182.011 197.157 177.741 193.009 177.741 186.36V184.042C177.741 177.393 182.011 173.245 187.257 173.245C192.503 173.245 196.773 177.21 196.773 184.042ZM207.812 193.497C207.812 198.499 210.191 201 215.559 201H222.452V196.303H216.84C214.4 196.303 213.424 195.266 213.424 192.826V155.738H207.812V193.497ZM239.051 201.854C246.615 201.854 251.739 197.706 252.898 191.85H247.225C246.737 194.595 243.992 197.462 239.112 197.462C233.561 197.462 229.413 193.314 229.413 186.665V186.482H253.508V184.225C253.508 175.38 248.262 168.609 238.99 168.609C229.413 168.609 223.74 175.807 223.74 185.201C223.74 194.534 229.108 201.854 239.051 201.854ZM238.99 172.94C244.053 172.94 247.713 176.417 247.835 182.456H229.474C229.962 176.478 233.988 172.94 238.99 172.94ZM266.792 191.789C266.975 197.889 272.16 201.915 280.395 201.915C288.142 201.915 293.632 198.194 293.632 192.033C293.632 186.665 289.789 183.737 283.628 182.883L278.809 182.212C275.21 181.663 273.38 180.321 273.38 177.637C273.38 174.77 276.003 172.757 280.273 172.757C284.665 172.757 287.105 174.831 287.288 178.003H292.961C292.717 172.879 288.325 168.487 280.334 168.487C273.014 168.487 267.768 172.208 267.768 178.064C267.768 183.493 271.489 186.177 276.979 186.97L281.798 187.641C285.641 188.19 288.02 189.471 288.02 192.46C288.02 195.693 285.031 197.645 280.578 197.645C275.942 197.645 272.709 195.754 272.526 191.789H266.792ZM312.322 201.854C319.886 201.854 325.01 197.706 326.169 191.85H320.496C320.008 194.595 317.263 197.462 312.383 197.462C306.832 197.462 302.684 193.314 302.684 186.665V186.482H326.779V184.225C326.779 175.38 321.533 168.609 312.261 168.609C302.684 168.609 297.011 175.807 297.011 185.201C297.011 194.534 302.379 201.854 312.322 201.854ZM312.261 172.94C317.324 172.94 320.984 176.417 321.106 182.456H302.745C303.233 176.478 307.259 172.94 312.261 172.94ZM337.747 182.517C337.747 176.295 341.773 173.367 346.165 173.367C350.374 173.367 353.973 176.112 353.973 181.785V201H359.585V181.297C359.585 173.001 354.4 168.609 347.812 168.609C343.176 168.609 339.333 170.622 337.503 174.831H337.442V169.463H332.135V201H337.747V182.517ZM394.94 201V155.738H389.328V175.075H389.267C387.315 171.049 383.655 168.609 378.531 168.609C369.869 168.609 364.623 175.868 364.623 185.201C364.623 194.595 369.747 201.854 378.531 201.854C383.899 201.854 387.62 199.231 389.511 195.022H389.572V201H394.94ZM370.296 186.421V184.103C370.296 177.271 374.566 173.306 379.812 173.306C384.997 173.306 389.328 177.393 389.328 184.103V186.421C389.328 193.009 384.997 197.157 379.812 197.157C374.566 197.157 370.296 193.253 370.296 186.421ZM411.467 178.247H417.018C417.323 174.892 419.763 172.879 424.277 172.879C429.279 172.879 430.987 175.441 430.987 177.942C430.987 180.382 429.34 181.419 426.107 181.968L421.349 182.761C414.7 183.798 410.308 186.726 410.308 192.521C410.308 198.438 414.883 201.854 421.105 201.854C426.412 201.854 430.316 199.17 431.841 195.266H431.902V195.876C431.841 199.231 433.427 201 437.392 201H440.991V196.486H439.039C437.514 196.486 436.721 195.998 436.721 194.046V179.101C436.721 171.964 431.597 168.609 424.399 168.609C416.469 168.609 412.016 172.574 411.467 178.247ZM431.17 187.885C431.17 193.619 427.449 197.462 422.142 197.462C418.36 197.462 415.798 195.632 415.798 192.338V191.972C415.798 188.922 418.299 187.275 422.325 186.604L426.961 185.811C429.157 185.445 430.56 184.591 431.17 183.737V187.885ZM450.097 182.517C450.097 176.295 454.123 173.367 458.515 173.367C462.724 173.367 466.323 176.112 466.323 181.785V201H471.935V181.297C471.935 173.001 466.75 168.609 460.162 168.609C455.526 168.609 451.683 170.622 449.853 174.831H449.792V169.463H444.485V201H450.097V182.517ZM507.29 201V155.738H501.678V175.075H501.617C499.665 171.049 496.005 168.609 490.881 168.609C482.219 168.609 476.973 175.868 476.973 185.201C476.973 194.595 482.097 201.854 490.881 201.854C496.249 201.854 499.97 199.231 501.861 195.022H501.922V201H507.29ZM482.646 186.421V184.103C482.646 177.271 486.916 173.306 492.162 173.306C497.347 173.306 501.678 177.393 501.678 184.103V186.421C501.678 193.009 497.347 197.157 492.162 197.157C486.916 197.157 482.646 193.253 482.646 186.421ZM66.159 259.789C66.342 265.889 71.527 269.915 79.762 269.915C87.509 269.915 92.999 266.194 92.999 260.033C92.999 254.665 89.156 251.737 82.995 250.883L78.176 250.212C74.577 249.663 72.747 248.321 72.747 245.637C72.747 242.77 75.37 240.757 79.64 240.757C84.032 240.757 86.472 242.831 86.655 246.003H92.328C92.084 240.879 87.692 236.487 79.701 236.487C72.381 236.487 67.135 240.208 67.135 246.064C67.135 251.493 70.856 254.177 76.346 254.97L81.165 255.641C85.008 256.19 87.387 257.471 87.387 260.46C87.387 263.693 84.398 265.645 79.945 265.645C75.309 265.645 72.076 263.754 71.893 259.789H66.159ZM97.9047 237.463V280.712H103.517V263.388H103.578C105.53 267.414 109.19 269.854 114.253 269.854C122.976 269.854 128.222 262.595 128.222 253.201C128.222 243.868 123.098 236.609 114.253 236.609C108.946 236.609 105.225 239.171 103.334 243.441H103.273V237.463H97.9047ZM122.549 252.042V254.36C122.549 261.131 118.279 265.157 113.033 265.157C107.787 265.157 103.517 261.009 103.517 254.36V252.042C103.517 245.393 107.787 241.245 113.033 241.245C118.279 241.245 122.549 245.21 122.549 252.042ZM147.312 269.854C154.876 269.854 160 265.706 161.159 259.85H155.486C154.998 262.595 152.253 265.462 147.373 265.462C141.822 265.462 137.674 261.314 137.674 254.665V254.482H161.769V252.225C161.769 243.38 156.523 236.609 147.251 236.609C137.674 236.609 132.001 243.807 132.001 253.201C132.001 262.534 137.369 269.854 147.312 269.854ZM147.251 240.94C152.314 240.94 155.974 244.417 156.096 250.456H137.735C138.223 244.478 142.249 240.94 147.251 240.94ZM172.737 250.517C172.737 244.295 176.763 241.367 181.155 241.367C185.364 241.367 188.963 244.112 188.963 249.785V269H194.575V249.297C194.575 241.001 189.39 236.609 182.802 236.609C178.166 236.609 174.323 238.622 172.493 242.831H172.432V237.463H167.125V269H172.737V250.517ZM229.931 269V223.738H224.319V243.075H224.258C222.306 239.049 218.646 236.609 213.522 236.609C204.86 236.609 199.614 243.868 199.614 253.201C199.614 262.595 204.738 269.854 213.522 269.854C218.89 269.854 222.611 267.231 224.502 263.022H224.563V269H229.931ZM205.287 254.421V252.103C205.287 245.271 209.557 241.306 214.803 241.306C219.988 241.306 224.319 245.393 224.319 252.103V254.421C224.319 261.009 219.988 265.157 214.803 265.157C209.557 265.157 205.287 261.253 205.287 254.421ZM244.383 237.463V242.099H251.642V261.497C251.642 266.499 254.021 269 259.389 269H267.624V264.364H260.426C258.169 264.364 257.254 263.388 257.254 261.131V242.099H267.563V237.463H257.254V228.008H251.642V237.463H244.383ZM278.236 250.517C278.236 244.295 282.262 241.367 286.654 241.367C290.863 241.367 294.462 244.112 294.462 249.785V269H300.074V249.297C300.074 241.001 294.889 236.609 288.301 236.609C283.787 236.609 280.005 238.561 278.175 242.526H278.114V223.738H272.624V269H278.236V250.517ZM320.424 269.854C327.988 269.854 333.112 265.706 334.271 259.85H328.598C328.11 262.595 325.365 265.462 320.485 265.462C314.934 265.462 310.786 261.314 310.786 254.665V254.482H334.881V252.225C334.881 243.38 329.635 236.609 320.363 236.609C310.786 236.609 305.113 243.807 305.113 253.201C305.113 262.534 310.481 269.854 320.424 269.854ZM320.363 240.94C325.426 240.94 329.086 244.417 329.208 250.456H310.847C311.335 244.478 315.361 240.94 320.363 240.94ZM345.727 232.095C347.923 232.095 349.57 230.387 349.57 228.313C349.57 226.117 347.923 224.531 345.727 224.531H345.422C343.226 224.531 341.579 226.117 341.579 228.313C341.579 230.387 343.226 232.095 345.422 232.095H345.727ZM337.736 242.038H342.738V269H348.35V237.463H337.736V242.038ZM355.308 269H360.92V250.7C360.92 246.064 362.628 242.465 368.606 242.465H373.913V237.28H369.643C364.275 237.28 361.713 239.964 360.737 242.77H360.676V237.463H355.308V269ZM392.336 252.042C392.336 245.393 396.545 241.306 401.913 241.306C406.549 241.306 409.111 244.051 409.904 247.284H415.455C414.357 240.879 409.416 236.609 401.913 236.609C392.275 236.609 386.724 243.685 386.724 253.201C386.724 262.656 392.153 269.854 401.913 269.854C409.355 269.854 414.235 265.523 415.516 258.996H409.965C409.111 262.412 406.427 265.157 401.913 265.157C396.545 265.157 392.336 261.009 392.336 254.421V252.042ZM420.716 269H426.328V250.7C426.328 246.064 428.036 242.465 434.014 242.465H439.321V237.28H435.051C429.683 237.28 427.121 239.964 426.145 242.77H426.084V237.463H420.716V269ZM457.73 272.538L471.394 237.463H465.66L456.571 261.68H456.51L447.177 237.463H441.016L453.521 268.146L452.118 271.745C450.715 275.283 449.739 276.015 446.445 276.015H441.199V280.712H446.628C452.911 280.712 455.473 278.394 457.73 272.538ZM475.223 237.463V280.712H480.835V263.388H480.896C482.848 267.414 486.508 269.854 491.571 269.854C500.294 269.854 505.54 262.595 505.54 253.201C505.54 243.868 500.416 236.609 491.571 236.609C486.264 236.609 482.543 239.171 480.652 243.441H480.591V237.463H475.223ZM499.867 252.042V254.36C499.867 261.131 495.597 265.157 490.351 265.157C485.105 265.157 480.835 261.009 480.835 254.36V252.042C480.835 245.393 485.105 241.245 490.351 241.245C495.597 241.245 499.867 245.21 499.867 252.042ZM506.969 237.463V242.099H514.228V261.497C514.228 266.499 516.607 269 521.975 269H530.21V264.364H523.012C520.755 264.364 519.84 263.388 519.84 261.131V242.099H530.149V237.463H519.84V228.008H514.228V237.463H506.969ZM548.101 269.854C557.861 269.854 563.412 262.534 563.412 253.201C563.412 243.868 557.739 236.609 548.101 236.609C538.524 236.609 532.79 243.868 532.79 253.201C532.79 262.534 538.341 269.854 548.101 269.854ZM557.8 254.36C557.8 261.192 553.408 265.157 548.101 265.157C542.794 265.157 538.463 260.948 538.463 254.36V252.042C538.463 245.393 542.794 241.306 548.101 241.306C553.408 241.306 557.8 245.271 557.8 252.042V254.36ZM65.488 305.463L75.797 337.061H81.409L89.095 312.295H89.156L96.903 337.061H102.637L112.58 305.463H107.151L99.831 329.863H99.77L92.084 305.402H86.472L78.969 329.985H78.908L71.405 305.463H65.488ZM122.162 318.517C122.162 312.295 126.188 309.367 130.58 309.367C134.789 309.367 138.388 312.112 138.388 317.785V337H144V317.297C144 309.001 138.815 304.609 132.227 304.609C127.713 304.609 123.931 306.561 122.101 310.526H122.04V291.738H116.55V337H122.162V318.517ZM164.349 337.854C171.913 337.854 177.037 333.706 178.196 327.85H172.523C172.035 330.595 169.29 333.462 164.41 333.462C158.859 333.462 154.711 329.314 154.711 322.665V322.482H178.806V320.225C178.806 311.38 173.56 304.609 164.288 304.609C154.711 304.609 149.038 311.807 149.038 321.201C149.038 330.534 154.406 337.854 164.349 337.854ZM164.288 308.94C169.351 308.94 173.011 312.417 173.133 318.456H154.772C155.26 312.478 159.286 308.94 164.288 308.94ZM184.163 337H189.775V318.7C189.775 314.064 191.483 310.465 197.461 310.465H202.768V305.28H198.498C193.13 305.28 190.568 307.964 189.592 310.77H189.531V305.463H184.163V337ZM234.902 305.463H229.168L219.957 330.473H219.896L210.624 305.463H204.463L216.907 337.061H222.763L234.902 305.463ZM250.965 337.854C258.529 337.854 263.653 333.706 264.812 327.85H259.139C258.651 330.595 255.906 333.462 251.026 333.462C245.475 333.462 241.327 329.314 241.327 322.665V322.482H265.422V320.225C265.422 311.38 260.176 304.609 250.904 304.609C241.327 304.609 235.654 311.807 235.654 321.201C235.654 330.534 241.022 337.854 250.965 337.854ZM250.904 308.94C255.967 308.94 259.627 312.417 259.749 318.456H241.388C241.876 312.478 245.902 308.94 250.904 308.94ZM270.778 337H276.39V318.7C276.39 314.064 278.098 310.465 284.076 310.465H289.383V305.28H285.113C279.745 305.28 277.183 307.964 276.207 310.77H276.146V305.463H270.778V337ZM301.035 305.463V310.099H308.294V329.497C308.294 334.499 310.673 337 316.041 337H324.276V332.364H317.078C314.821 332.364 313.906 331.388 313.906 329.131V310.099H324.215V305.463H313.906V296.008H308.294V305.463H301.035ZM334.888 318.517C334.888 312.295 338.914 309.367 343.306 309.367C347.515 309.367 351.114 312.112 351.114 317.785V337H356.726V317.297C356.726 309.001 351.541 304.609 344.953 304.609C340.439 304.609 336.657 306.561 334.827 310.526H334.766V291.738H329.276V337H334.888V318.517ZM377.075 337.854C384.639 337.854 389.763 333.706 390.922 327.85H385.249C384.761 330.595 382.016 333.462 377.136 333.462C371.585 333.462 367.437 329.314 367.437 322.665V322.482H391.532V320.225C391.532 311.38 386.286 304.609 377.014 304.609C367.437 304.609 361.764 311.807 361.764 321.201C361.764 330.534 367.132 337.854 377.075 337.854ZM377.014 308.94C382.077 308.94 385.737 312.417 385.859 318.456H367.498C367.986 312.478 372.012 308.94 377.014 308.94ZM409.478 340.538L423.142 305.463H417.408L408.319 329.68H408.258L398.925 305.463H392.764L405.269 336.146L403.866 339.745C402.463 343.283 401.487 344.015 398.193 344.015H392.947V348.712H398.376C404.659 348.712 407.221 346.394 409.478 340.538ZM436.368 314.247H441.919C442.224 310.892 444.664 308.879 449.178 308.879C454.18 308.879 455.888 311.441 455.888 313.942C455.888 316.382 454.241 317.419 451.008 317.968L446.25 318.761C439.601 319.798 435.209 322.726 435.209 328.521C435.209 334.438 439.784 337.854 446.006 337.854C451.313 337.854 455.217 335.17 456.742 331.266H456.803V331.876C456.742 335.231 458.328 337 462.293 337H465.892V332.486H463.94C462.415 332.486 461.622 331.998 461.622 330.046V315.101C461.622 307.964 456.498 304.609 449.3 304.609C441.37 304.609 436.917 308.574 436.368 314.247ZM456.071 323.885C456.071 329.619 452.35 333.462 447.043 333.462C443.261 333.462 440.699 331.632 440.699 328.338V327.972C440.699 324.922 443.2 323.275 447.226 322.604L451.862 321.811C454.058 321.445 455.461 320.591 456.071 319.737V323.885ZM469.385 337H474.997V318.7C474.997 314.064 476.705 310.465 482.683 310.465H487.99V305.28H483.72C478.352 305.28 475.79 307.964 474.814 310.77H474.753V305.463H469.385V337ZM504.556 337.854C512.12 337.854 517.244 333.706 518.403 327.85H512.73C512.242 330.595 509.497 333.462 504.617 333.462C499.066 333.462 494.918 329.314 494.918 322.665V322.482H519.013V320.225C519.013 311.38 513.767 304.609 504.495 304.609C494.918 304.609 489.245 311.807 489.245 321.201C489.245 330.534 494.613 337.854 504.556 337.854ZM504.495 308.94C509.558 308.94 513.218 312.417 513.34 318.456H494.979C495.467 312.478 499.493 308.94 504.495 308.94ZM537.262 323.092C537.262 313.82 549.096 315.101 549.096 304.548C549.096 298.143 544.277 293.141 535.615 293.141C527.319 293.141 522.012 298.143 521.89 305.219H527.441C527.685 301.132 530.247 297.838 535.615 297.838C540.861 297.838 543.362 300.949 543.362 304.67C543.362 312.417 531.955 311.685 532.077 323.092H537.262ZM534.761 337.549C537.079 337.549 538.848 335.78 538.848 333.462C538.848 331.205 537.079 329.436 534.761 329.436C532.504 329.436 530.735 331.205 530.735 333.462C530.735 335.78 532.504 337.549 534.761 337.549Z" fill="white"/>
</svg>
