<svg width="752" height="423" viewBox="0 0 752 423" fill="none" xmlns="http://www.w3.org/2000/svg">
<rect width="752" height="423" fill="white"/>
<path d="M71.7841 43.2727H72.8409V49.0511C72.8409 49.6477 72.7003 50.1804 72.419 50.6491C72.1406 51.1151 71.7472 51.483 71.2386 51.7528C70.7301 52.0199 70.1335 52.1534 69.4489 52.1534C68.7642 52.1534 68.1676 52.0199 67.6591 51.7528C67.1506 51.483 66.7557 51.1151 66.4744 50.6491C66.196 50.1804 66.0568 49.6477 66.0568 49.0511V43.2727H67.1136V48.9659C67.1136 49.392 67.2074 49.7713 67.3949 50.1037C67.5824 50.4332 67.8494 50.6932 68.196 50.8835C68.5455 51.071 68.9631 51.1648 69.4489 51.1648C69.9347 51.1648 70.3523 51.071 70.7017 50.8835C71.0511 50.6932 71.3182 50.4332 71.5028 50.1037C71.6903 49.7713 71.7841 49.392 71.7841 48.9659V43.2727ZM74.815 54.4545V45.4545H75.7866V46.4943H75.9059C75.9798 46.3807 76.082 46.2358 76.2127 46.0597C76.3462 45.8807 76.5366 45.7216 76.7837 45.5824C77.0337 45.4403 77.3718 45.3693 77.7979 45.3693C78.3491 45.3693 78.8349 45.5071 79.2553 45.7827C79.6758 46.0582 80.0039 46.4489 80.2397 46.9545C80.4755 47.4602 80.5934 48.0568 80.5934 48.7443C80.5934 49.4375 80.4755 50.0384 80.2397 50.5469C80.0039 51.0526 79.6772 51.4446 79.2596 51.723C78.842 51.9986 78.3604 52.1364 77.815 52.1364C77.3945 52.1364 77.0579 52.0668 76.805 51.9276C76.5522 51.7855 76.3576 51.625 76.2212 51.446C76.0849 51.2642 75.9798 51.1136 75.9059 50.9943H75.8207V54.4545H74.815ZM75.8036 48.7273C75.8036 49.2216 75.8761 49.6577 76.021 50.0355C76.1658 50.4105 76.3775 50.7045 76.6559 50.9176C76.9343 51.1278 77.2752 51.233 77.6786 51.233C78.0991 51.233 78.4499 51.1222 78.7312 50.9006C79.0153 50.6761 79.2283 50.375 79.3704 49.9972C79.5153 49.6165 79.5877 49.1932 79.5877 48.7273C79.5877 48.267 79.5167 47.8523 79.3746 47.483C79.2354 47.1108 79.0238 46.8168 78.7397 46.6009C78.4585 46.3821 78.1048 46.2727 77.6786 46.2727C77.2695 46.2727 76.9258 46.3764 76.6474 46.5838C76.369 46.7884 76.1587 47.0753 76.0167 47.4446C75.8746 47.8111 75.8036 48.2386 75.8036 48.7273ZM84.7695 54.5909C84.2837 54.5909 83.8661 54.5284 83.5167 54.4034C83.1673 54.2812 82.8761 54.1193 82.6431 53.9176C82.413 53.7188 82.2298 53.5057 82.0934 53.2784L82.8945 52.7159C82.9854 52.8352 83.1005 52.9716 83.2397 53.125C83.3789 53.2812 83.5692 53.4162 83.8107 53.5298C84.055 53.6463 84.3746 53.7045 84.7695 53.7045C85.2979 53.7045 85.734 53.5767 86.0778 53.321C86.4215 53.0653 86.5934 52.6648 86.5934 52.1193V50.7898H86.5082C86.4343 50.9091 86.3292 51.0568 86.1928 51.233C86.0593 51.4062 85.8661 51.5611 85.6133 51.6974C85.3633 51.831 85.0252 51.8977 84.5991 51.8977C84.0707 51.8977 83.5962 51.7727 83.1758 51.5227C82.7582 51.2727 82.4272 50.9091 82.1829 50.4318C81.9414 49.9545 81.8207 49.375 81.8207 48.6932C81.8207 48.0227 81.9386 47.4389 82.1744 46.9418C82.4102 46.4418 82.7383 46.0554 83.1587 45.7827C83.5792 45.5071 84.065 45.3693 84.6161 45.3693C85.0423 45.3693 85.3803 45.4403 85.6303 45.5824C85.8832 45.7216 86.0763 45.8807 86.2099 46.0597C86.3462 46.2358 86.4513 46.3807 86.5252 46.4943H86.6275V45.4545H87.5991V52.1875C87.5991 52.75 87.4712 53.2074 87.2156 53.5597C86.9627 53.9148 86.6218 54.1747 86.1928 54.3395C85.7667 54.5071 85.2923 54.5909 84.7695 54.5909ZM84.7354 50.9943C85.1388 50.9943 85.4798 50.902 85.7582 50.7173C86.0366 50.5327 86.2482 50.267 86.3931 49.9205C86.538 49.5739 86.6104 49.1591 86.6104 48.6761C86.6104 48.2045 86.5394 47.7884 86.3974 47.4276C86.2553 47.0668 86.0451 46.7841 85.7667 46.5795C85.4883 46.375 85.1445 46.2727 84.7354 46.2727C84.3093 46.2727 83.9542 46.3807 83.6701 46.5966C83.3888 46.8125 83.1772 47.1023 83.0352 47.4659C82.896 47.8295 82.8263 48.233 82.8263 48.6761C82.8263 49.1307 82.8974 49.5327 83.0394 49.8821C83.1843 50.2287 83.3974 50.5014 83.6786 50.7003C83.9627 50.8963 84.315 50.9943 84.7354 50.9943ZM89.44 52V45.4545H90.4116V46.4432H90.4798C90.5991 46.1193 90.815 45.8565 91.1275 45.6548C91.44 45.4531 91.7923 45.3523 92.1843 45.3523C92.2582 45.3523 92.3505 45.3537 92.4613 45.3565C92.5721 45.3594 92.6559 45.3636 92.7127 45.3693V46.392C92.6786 46.3835 92.6005 46.3707 92.4783 46.3537C92.359 46.3338 92.2326 46.3239 92.0991 46.3239C91.7809 46.3239 91.4968 46.3906 91.2468 46.5241C90.9996 46.6548 90.8036 46.8366 90.6587 47.0696C90.5167 47.2997 90.4457 47.5625 90.4457 47.858V52H89.44ZM95.831 52.1534C95.4162 52.1534 95.0398 52.0753 94.7017 51.919C94.3636 51.7599 94.0952 51.5312 93.8963 51.233C93.6974 50.9318 93.598 50.5682 93.598 50.142C93.598 49.767 93.6719 49.4631 93.8196 49.2301C93.9673 48.9943 94.1648 48.8097 94.4119 48.6761C94.6591 48.5426 94.9318 48.4432 95.2301 48.3778C95.5313 48.3097 95.8338 48.2557 96.1378 48.2159C96.5355 48.1648 96.858 48.1264 97.1051 48.1009C97.3551 48.0724 97.5369 48.0256 97.6506 47.9602C97.767 47.8949 97.8253 47.7812 97.8253 47.6193V47.5852C97.8253 47.1648 97.7102 46.8381 97.4801 46.6051C97.2528 46.3722 96.9077 46.2557 96.4446 46.2557C95.9645 46.2557 95.5881 46.3608 95.3153 46.571C95.0426 46.7812 94.8509 47.0057 94.7401 47.2443L93.7855 46.9034C93.956 46.5057 94.1832 46.196 94.4673 45.9744C94.7543 45.75 95.0668 45.5937 95.4048 45.5057C95.7457 45.4148 96.081 45.3693 96.4105 45.3693C96.6207 45.3693 96.8622 45.3949 97.1349 45.446C97.4105 45.4943 97.6761 45.5952 97.9318 45.7486C98.1903 45.902 98.4048 46.1335 98.5753 46.4432C98.7457 46.7528 98.831 47.1676 98.831 47.6875V52H97.8253V51.1136H97.7741C97.706 51.2557 97.5923 51.4077 97.4332 51.5696C97.2741 51.7315 97.0625 51.8693 96.7983 51.983C96.5341 52.0966 96.2116 52.1534 95.831 52.1534ZM95.9844 51.25C96.3821 51.25 96.7173 51.1719 96.9901 51.0156C97.2656 50.8594 97.473 50.6577 97.6122 50.4105C97.7543 50.1634 97.8253 49.9034 97.8253 49.6307V48.7102C97.7827 48.7614 97.6889 48.8082 97.544 48.8509C97.402 48.8906 97.2372 48.9261 97.0497 48.9574C96.8651 48.9858 96.6847 49.0114 96.5085 49.0341C96.3352 49.054 96.1946 49.071 96.0866 49.0852C95.8253 49.1193 95.581 49.1747 95.3537 49.2514C95.1293 49.3253 94.9474 49.4375 94.8082 49.5881C94.6719 49.7358 94.6037 49.9375 94.6037 50.1932C94.6037 50.5426 94.733 50.8068 94.9915 50.9858C95.2528 51.1619 95.5838 51.25 95.9844 51.25ZM103.138 52.1364C102.593 52.1364 102.111 51.9986 101.694 51.723C101.276 51.4446 100.949 51.0526 100.713 50.5469C100.478 50.0384 100.36 49.4375 100.36 48.7443C100.36 48.0568 100.478 47.4602 100.713 46.9545C100.949 46.4489 101.277 46.0582 101.698 45.7827C102.118 45.5071 102.604 45.3693 103.155 45.3693C103.581 45.3693 103.918 45.4403 104.165 45.5824C104.415 45.7216 104.605 45.8807 104.736 46.0597C104.87 46.2358 104.973 46.3807 105.047 46.4943H105.132V43.2727H106.138V52H105.167V50.9943H105.047C104.973 51.1136 104.868 51.2642 104.732 51.446C104.596 51.625 104.401 51.7855 104.148 51.9276C103.895 52.0668 103.559 52.1364 103.138 52.1364ZM103.275 51.233C103.678 51.233 104.019 51.1278 104.297 50.9176C104.576 50.7045 104.787 50.4105 104.932 50.0355C105.077 49.6577 105.15 49.2216 105.15 48.7273C105.15 48.2386 105.078 47.8111 104.936 47.4446C104.794 47.0753 104.584 46.7884 104.306 46.5838C104.027 46.3764 103.684 46.2727 103.275 46.2727C102.848 46.2727 102.493 46.3821 102.209 46.6009C101.928 46.8168 101.716 47.1108 101.574 47.483C101.435 47.8523 101.365 48.267 101.365 48.7273C101.365 49.1932 101.436 49.6165 101.578 49.9972C101.723 50.375 101.936 50.6761 102.218 50.9006C102.502 51.1222 102.854 51.233 103.275 51.233ZM110.864 52.1364C110.233 52.1364 109.689 51.9972 109.232 51.7188C108.777 51.4375 108.426 51.0455 108.179 50.5426C107.935 50.0369 107.813 49.4489 107.813 48.7784C107.813 48.108 107.935 47.517 108.179 47.0057C108.426 46.4915 108.77 46.0909 109.211 45.804C109.654 45.5142 110.171 45.3693 110.762 45.3693C111.103 45.3693 111.439 45.4261 111.772 45.5398C112.104 45.6534 112.407 45.8381 112.679 46.0938C112.952 46.3466 113.169 46.6818 113.331 47.0994C113.493 47.517 113.574 48.0312 113.574 48.642V49.0682H108.529V48.1989H112.551C112.551 47.8295 112.478 47.5 112.33 47.2102C112.185 46.9205 111.978 46.6918 111.708 46.5241C111.441 46.3565 111.125 46.2727 110.762 46.2727C110.361 46.2727 110.015 46.3722 109.722 46.571C109.432 46.767 109.209 47.0227 109.053 47.3381C108.897 47.6534 108.819 47.9915 108.819 48.3523V48.9318C108.819 49.4261 108.904 49.8452 109.074 50.1889C109.248 50.5298 109.488 50.7898 109.794 50.9688C110.101 51.1449 110.458 51.233 110.864 51.233C111.128 51.233 111.367 51.196 111.58 51.1222C111.796 51.0455 111.982 50.9318 112.138 50.7812C112.294 50.6278 112.415 50.4375 112.5 50.2102L113.472 50.483C113.37 50.8125 113.198 51.1023 112.956 51.3523C112.715 51.5994 112.417 51.7926 112.061 51.9318C111.706 52.0682 111.307 52.1364 110.864 52.1364ZM121.53 43.2727V52H120.473V44.3807H120.422L118.292 45.7955V44.7216L120.473 43.2727H121.53Z" fill="black"/>
<path d="M67.479 77.952V104H84.277V100.929H70.994V77.952H67.479ZM86.4958 104H103.701V101.04H89.8998V100.818C89.8998 98.783 90.8988 97.525 93.1188 95.934L98.2248 92.493C101.999 89.94 103.22 87.572 103.22 84.686C103.22 80.542 100.038 77.397 94.9688 77.397C90.1218 77.397 86.5698 80.357 86.4958 85.352H89.8998C89.9368 82.096 91.8978 80.246 94.9688 80.246C98.1508 80.246 99.7048 82.17 99.7048 84.575V85.056C99.7048 86.684 99.0388 88.201 96.4118 90.014L91.6018 93.233C88.0868 95.564 86.4958 97.673 86.4958 100.929V104ZM111.845 98.413C111.956 102.113 115.101 104.555 120.096 104.555C124.795 104.555 128.125 102.298 128.125 98.561C128.125 95.305 125.794 93.529 122.057 93.011L119.134 92.604C116.951 92.271 115.841 91.457 115.841 89.829C115.841 88.09 117.432 86.869 120.022 86.869C122.686 86.869 124.166 88.127 124.277 90.051H127.718C127.57 86.943 124.906 84.279 120.059 84.279C115.619 84.279 112.437 86.536 112.437 90.088C112.437 93.381 114.694 95.009 118.024 95.49L120.947 95.897C123.278 96.23 124.721 97.007 124.721 98.82C124.721 100.781 122.908 101.965 120.207 101.965C117.395 101.965 115.434 100.818 115.323 98.413H111.845ZM144.161 96.082C144.161 99.856 141.719 101.632 139.055 101.632C136.502 101.632 134.319 99.967 134.319 96.526V84.871H130.915V96.822C130.915 101.854 134.06 104.518 138.056 104.518C140.868 104.518 143.199 103.297 144.309 100.744H144.346V104H147.565V84.871H144.161V96.082ZM151.768 84.871V111.104H155.172V100.596H155.209C156.393 103.038 158.613 104.518 161.684 104.518C166.975 104.518 170.157 100.115 170.157 94.417C170.157 88.756 167.049 84.353 161.684 84.353C158.465 84.353 156.208 85.907 155.061 88.497H155.024V84.871H151.768ZM166.716 93.714V95.12C166.716 99.227 164.126 101.669 160.944 101.669C157.762 101.669 155.172 99.153 155.172 95.12V93.714C155.172 89.681 157.762 87.165 160.944 87.165C164.126 87.165 166.716 89.57 166.716 93.714ZM173.412 84.871V111.104H176.816V100.596H176.853C178.037 103.038 180.257 104.518 183.328 104.518C188.619 104.518 191.801 100.115 191.801 94.417C191.801 88.756 188.693 84.353 183.328 84.353C180.109 84.353 177.852 85.907 176.705 88.497H176.668V84.871H173.412ZM188.36 93.714V95.12C188.36 99.227 185.77 101.669 182.588 101.669C179.406 101.669 176.816 99.153 176.816 95.12V93.714C176.816 89.681 179.406 87.165 182.588 87.165C185.77 87.165 188.36 89.57 188.36 93.714ZM203.38 104.518C209.3 104.518 212.667 100.078 212.667 94.417C212.667 88.756 209.226 84.353 203.38 84.353C197.571 84.353 194.093 88.756 194.093 94.417C194.093 100.078 197.46 104.518 203.38 104.518ZM209.263 95.12C209.263 99.264 206.599 101.669 203.38 101.669C200.161 101.669 197.534 99.116 197.534 95.12V93.714C197.534 89.681 200.161 87.202 203.38 87.202C206.599 87.202 209.263 89.607 209.263 93.714V95.12ZM215.94 104H219.344V92.9C219.344 90.088 220.38 87.905 224.006 87.905H227.225V84.76H224.635C221.379 84.76 219.825 86.388 219.233 88.09H219.196V84.871H215.94V104ZM228.295 84.871V87.683H232.698V99.449C232.698 102.483 234.141 104 237.397 104H242.392V101.188H238.026C236.657 101.188 236.102 100.596 236.102 99.227V87.683H242.355V84.871H236.102V79.136H232.698V84.871H228.295Z" fill="black"/>
<path d="M66.288 132.144V142H67.632V132.144H66.288ZM71.2898 137.758C71.2898 136.33 72.2138 135.658 73.2218 135.658C74.1878 135.658 75.0138 136.288 75.0138 137.59V142H76.3018V137.478C76.3018 135.574 75.1118 134.566 73.5998 134.566C72.5358 134.566 71.6538 135.028 71.2338 135.994H71.2198V134.762H70.0018V142H71.2898V137.758ZM81.0932 142H87.6032V140.88H82.3812V140.796C82.3812 140.026 82.7592 139.55 83.6132 138.948L85.5452 137.646C86.9592 136.68 87.4212 135.784 87.4212 134.692C87.4212 133.124 86.2172 131.934 84.3132 131.934C82.4792 131.934 81.1212 133.054 81.0932 134.944H82.3812C82.3952 133.712 83.1372 133.012 84.3132 133.012C85.5172 133.012 86.1052 133.74 86.1052 134.65V134.832C86.1052 135.448 85.8532 136.022 84.8452 136.708L83.0252 137.926C81.6952 138.808 81.0932 139.606 81.0932 140.838V142ZM92.6356 131.934C90.4936 131.934 89.1776 133.306 89.1776 135.532V138.57C89.1776 140.852 90.5076 142.196 92.6356 142.196C94.7636 142.196 96.0796 140.852 96.0796 138.57V135.532C96.0796 133.306 94.7776 131.934 92.6356 131.934ZM92.6356 141.034C91.2776 141.034 90.4936 140.096 90.4936 138.57V135.546C90.4936 134.048 91.2776 133.096 92.6356 133.096C93.9936 133.096 94.7636 134.048 94.7636 135.546V138.57C94.7636 140.096 93.9796 141.034 92.6356 141.034ZM97.5542 142H104.064V140.88H98.8422V140.796C98.8422 140.026 99.2202 139.55 100.074 138.948L102.006 137.646C103.42 136.68 103.882 135.784 103.882 134.692C103.882 133.124 102.678 131.934 100.774 131.934C98.9402 131.934 97.5822 133.054 97.5542 134.944H98.8422C98.8562 133.712 99.5982 133.012 100.774 133.012C101.978 133.012 102.566 133.74 102.566 134.65V134.832C102.566 135.448 102.314 136.022 101.306 136.708L99.4862 137.926C98.1562 138.808 97.5542 139.606 97.5542 140.838V142ZM109.097 131.934C106.955 131.934 105.639 133.306 105.639 135.532V138.57C105.639 140.852 106.969 142.196 109.097 142.196C111.225 142.196 112.541 140.852 112.541 138.57V135.532C112.541 133.306 111.239 131.934 109.097 131.934ZM109.097 141.034C107.739 141.034 106.955 140.096 106.955 138.57V135.546C106.955 134.048 107.739 133.096 109.097 133.096C110.455 133.096 111.225 134.048 111.225 135.546V138.57C111.225 140.096 110.441 141.034 109.097 141.034ZM116.74 134.762L119.106 142.014H120.408L122.158 136.33H122.172L123.95 142.014H125.28L127.548 134.762H126.302L124.636 140.362H124.622L122.858 134.748H121.556L119.834 140.39H119.82L118.098 134.762H116.74ZM131.72 142.196C133.47 142.196 134.646 141.244 134.912 139.9H133.61C133.498 140.53 132.868 141.188 131.748 141.188C130.46 141.188 129.508 140.236 129.508 138.71V138.668H135.052V138.206C135.052 136.148 133.848 134.566 131.678 134.566C129.522 134.566 128.22 136.218 128.22 138.374C128.22 140.516 129.452 142.196 131.72 142.196ZM131.678 135.56C132.854 135.56 133.694 136.344 133.75 137.744H129.522C129.634 136.372 130.558 135.56 131.678 135.56ZM139.346 139.886C139.388 141.286 140.578 142.21 142.468 142.21C144.26 142.21 145.52 141.356 145.52 139.942C145.52 138.71 144.638 138.038 143.21 137.842L142.104 137.688C141.278 137.562 140.858 137.254 140.858 136.638C140.858 135.98 141.46 135.518 142.44 135.518C143.448 135.518 144.008 135.994 144.05 136.722H145.352C145.296 135.546 144.302 134.538 142.468 134.538C140.774 134.538 139.57 135.392 139.57 136.736C139.57 137.982 140.424 138.598 141.684 138.78L142.79 138.934C143.672 139.06 144.218 139.354 144.218 140.04C144.218 140.782 143.532 141.23 142.51 141.23C141.46 141.23 140.704 140.796 140.676 139.886H139.346ZM146.915 136.778H148.189C148.273 136.008 148.819 135.546 149.855 135.546C151.003 135.546 151.395 136.134 151.395 136.708C151.395 137.268 151.017 137.506 150.275 137.632L149.183 137.814C147.657 138.052 146.649 138.724 146.649 140.054C146.649 141.412 147.699 142.196 149.127 142.196C150.345 142.196 151.241 141.58 151.591 140.684H151.605V140.824C151.591 141.594 151.955 142 152.865 142H153.691V140.964H153.243C152.893 140.964 152.711 140.852 152.711 140.404V136.974C152.711 135.336 151.535 134.566 149.883 134.566C148.063 134.566 147.041 135.476 146.915 136.778ZM151.437 138.99C151.437 140.306 150.583 141.188 149.365 141.188C148.497 141.188 147.909 140.768 147.909 140.012V139.928C147.909 139.228 148.483 138.85 149.407 138.696L150.471 138.514C150.975 138.43 151.297 138.234 151.437 138.038V138.99ZM153.708 134.762L156.074 142.014H157.376L159.126 136.33H159.14L160.918 142.014H162.248L164.516 134.762H163.27L161.604 140.362H161.59L159.826 134.748H158.524L156.802 140.39H156.788L155.066 134.762H153.708ZM168.161 134.762V135.826H169.813V140.278C169.813 141.426 170.359 142 171.591 142H173.481V140.936H171.829C171.311 140.936 171.101 140.712 171.101 140.194V135.826H173.467V134.762H171.101V132.592H169.813V134.762H168.161ZM176.331 137.758C176.331 136.33 177.255 135.658 178.263 135.658C179.229 135.658 180.055 136.288 180.055 137.59V142H181.343V137.478C181.343 135.574 180.153 134.566 178.641 134.566C177.605 134.566 176.737 135.014 176.317 135.924H176.303V131.612H175.043V142H176.331V137.758ZM186.49 142.196C188.24 142.196 189.416 141.244 189.682 139.9H188.38C188.268 140.53 187.638 141.188 186.518 141.188C185.23 141.188 184.278 140.236 184.278 138.71V138.668H189.822V138.206C189.822 136.148 188.618 134.566 186.448 134.566C184.292 134.566 182.99 136.218 182.99 138.374C182.99 140.516 184.222 142.196 186.49 142.196ZM186.448 135.56C187.624 135.56 188.464 136.344 188.52 137.744H184.292C184.404 136.372 185.328 135.56 186.448 135.56ZM194.452 136.778H195.726C195.81 136.008 196.356 135.546 197.392 135.546C198.54 135.546 198.932 136.134 198.932 136.708C198.932 137.268 198.554 137.506 197.812 137.632L196.72 137.814C195.194 138.052 194.186 138.724 194.186 140.054C194.186 141.412 195.236 142.196 196.664 142.196C197.882 142.196 198.778 141.58 199.128 140.684H199.142V140.824C199.128 141.594 199.492 142 200.402 142H201.228V140.964H200.78C200.43 140.964 200.248 140.852 200.248 140.404V136.974C200.248 135.336 199.072 134.566 197.42 134.566C195.6 134.566 194.578 135.476 194.452 136.778ZM198.974 138.99C198.974 140.306 198.12 141.188 196.902 141.188C196.034 141.188 195.446 140.768 195.446 140.012V139.928C195.446 139.228 196.02 138.85 196.944 138.696L198.008 138.514C198.512 138.43 198.834 138.234 198.974 138.038V138.99ZM209.006 142V131.612H207.718V136.05H207.704C207.256 135.126 206.416 134.566 205.24 134.566C203.252 134.566 202.048 136.232 202.048 138.374C202.048 140.53 203.224 142.196 205.24 142.196C206.472 142.196 207.326 141.594 207.76 140.628H207.774V142H209.006ZM203.336 138.654V138.122C203.336 136.554 204.33 135.644 205.52 135.644C206.724 135.644 207.718 136.582 207.718 138.122V138.654C207.718 140.166 206.724 141.118 205.52 141.118C204.33 141.118 203.336 140.222 203.336 138.654ZM214.23 142.196C216.47 142.196 217.744 140.516 217.744 138.374C217.744 136.232 216.428 134.566 214.23 134.566C212.018 134.566 210.716 136.232 210.716 138.374C210.716 140.516 211.99 142.196 214.23 142.196ZM216.442 138.64C216.442 140.208 215.448 141.118 214.23 141.118C213.012 141.118 212.004 140.152 212.004 138.64V138.108C212.004 136.582 213.012 135.644 214.23 135.644C215.448 135.644 216.442 136.554 216.442 138.108V138.64ZM219.463 134.762V144.688H220.751V140.712H220.765C221.213 141.636 222.053 142.196 223.215 142.196C225.217 142.196 226.421 140.53 226.421 138.374C226.421 136.232 225.245 134.566 223.215 134.566C221.997 134.566 221.129 135.154 220.709 136.134H220.695V134.762H219.463ZM225.119 138.108V138.64C225.119 140.194 224.139 141.118 222.935 141.118C221.731 141.118 220.751 140.166 220.751 138.64V138.108C220.751 136.582 221.731 135.63 222.935 135.63C224.139 135.63 225.119 136.54 225.119 138.108ZM227.045 134.762V135.826H228.697V140.278C228.697 141.426 229.243 142 230.475 142H232.365V140.936H230.713C230.195 140.936 229.985 140.712 229.985 140.194V135.826H232.351V134.762H229.985V132.592H228.697V134.762H227.045ZM235.076 133.53C235.58 133.53 235.958 133.138 235.958 132.662C235.958 132.158 235.58 131.794 235.076 131.794H235.006C234.488 131.794 234.11 132.158 234.11 132.662C234.11 133.138 234.488 133.53 235.006 133.53H235.076ZM233.228 135.812H234.39V142H235.678V134.762H233.228V135.812ZM240.918 142.196C243.158 142.196 244.432 140.516 244.432 138.374C244.432 136.232 243.116 134.566 240.918 134.566C238.706 134.566 237.404 136.232 237.404 138.374C237.404 140.516 238.678 142.196 240.918 142.196ZM243.13 138.64C243.13 140.208 242.136 141.118 240.918 141.118C239.7 141.118 238.692 140.152 238.692 138.64V138.108C238.692 136.582 239.7 135.644 240.918 135.644C242.136 135.644 243.13 136.554 243.13 138.108V138.64ZM247.438 137.758C247.438 136.33 248.362 135.658 249.37 135.658C250.336 135.658 251.162 136.288 251.162 137.59V142H252.45V137.478C252.45 135.574 251.26 134.566 249.748 134.566C248.684 134.566 247.802 135.028 247.382 135.994H247.368V134.762H246.15V142H247.438V137.758ZM260.756 142.196C262.996 142.196 264.27 140.516 264.27 138.374C264.27 136.232 262.954 134.566 260.756 134.566C258.544 134.566 257.242 136.232 257.242 138.374C257.242 140.516 258.516 142.196 260.756 142.196ZM262.968 138.64C262.968 140.208 261.974 141.118 260.756 141.118C259.538 141.118 258.53 140.152 258.53 138.64V138.108C258.53 136.582 259.538 135.644 260.756 135.644C261.974 135.644 262.968 136.554 262.968 138.108V138.64ZM266.595 142H267.883V135.826H270.389V134.762H267.869V133.362C267.869 132.844 268.079 132.634 268.597 132.634H270.403V131.598H268.373C267.141 131.598 266.595 132.172 266.595 133.32V134.762H264.957V135.826H266.595V142ZM66.288 152.144V162H72.658V160.838H67.632V152.144H66.288ZM73.5463 162H80.0563V160.88H74.8343V160.796C74.8343 160.026 75.2123 159.55 76.0663 158.948L77.9983 157.646C79.4123 156.68 79.8743 155.784 79.8743 154.692C79.8743 153.124 78.6703 151.934 76.7663 151.934C74.9323 151.934 73.5743 153.054 73.5463 154.944H74.8343C74.8483 153.712 75.5903 153.012 76.7663 153.012C77.9703 153.012 78.5583 153.74 78.5583 154.65V154.832C78.5583 155.448 78.3063 156.022 77.2983 156.708L75.4783 157.926C74.1483 158.808 73.5463 159.606 73.5463 160.838V162ZM85.9086 158.108C85.9086 156.582 86.8746 155.644 88.0926 155.644C89.1566 155.644 89.7446 156.274 89.9406 157.016H91.2146C90.9486 155.546 89.8146 154.566 88.1066 154.566C85.8946 154.566 84.6206 156.19 84.6206 158.374C84.6206 160.544 85.8666 162.196 88.1066 162.196C89.8146 162.196 90.9346 161.202 91.2146 159.704H89.9546C89.7446 160.488 89.1286 161.118 88.0926 161.118C86.8746 161.118 85.9086 160.166 85.9086 158.654V158.108ZM94.1492 157.758C94.1492 156.33 95.0732 155.658 96.0812 155.658C97.0472 155.658 97.8732 156.288 97.8732 157.59V162H99.1612V157.478C99.1612 155.574 97.9712 154.566 96.4592 154.566C95.4232 154.566 94.5552 155.014 94.1352 155.924H94.1212V151.612H92.8612V162H94.1492V157.758ZM101.018 156.778H102.292C102.376 156.008 102.922 155.546 103.958 155.546C105.106 155.546 105.498 156.134 105.498 156.708C105.498 157.268 105.12 157.506 104.378 157.632L103.286 157.814C101.76 158.052 100.752 158.724 100.752 160.054C100.752 161.412 101.802 162.196 103.23 162.196C104.448 162.196 105.344 161.58 105.694 160.684H105.708V160.824C105.694 161.594 106.058 162 106.968 162H107.794V160.964H107.346C106.996 160.964 106.814 160.852 106.814 160.404V156.974C106.814 155.336 105.638 154.566 103.986 154.566C102.166 154.566 101.144 155.476 101.018 156.778ZM105.54 158.99C105.54 160.306 104.686 161.188 103.468 161.188C102.6 161.188 102.012 160.768 102.012 160.012V159.928C102.012 159.228 102.586 158.85 103.51 158.696L104.574 158.514C105.078 158.43 105.4 158.234 105.54 158.038V158.99ZM110.306 153.53C110.81 153.53 111.188 153.138 111.188 152.662C111.188 152.158 110.81 151.794 110.306 151.794H110.236C109.718 151.794 109.34 152.158 109.34 152.662C109.34 153.138 109.718 153.53 110.236 153.53H110.306ZM108.458 155.812H109.62V162H110.908V154.762H108.458V155.812ZM114.356 157.758C114.356 156.33 115.28 155.658 116.288 155.658C117.254 155.658 118.08 156.288 118.08 157.59V162H119.368V157.478C119.368 155.574 118.178 154.566 116.666 154.566C115.602 154.566 114.72 155.028 114.3 155.994H114.286V154.762H113.068V162H114.356V157.758ZM120.889 159.886C120.931 161.286 122.121 162.21 124.011 162.21C125.803 162.21 127.063 161.356 127.063 159.942C127.063 158.71 126.181 158.038 124.753 157.842L123.647 157.688C122.821 157.562 122.401 157.254 122.401 156.638C122.401 155.98 123.003 155.518 123.983 155.518C124.991 155.518 125.551 155.994 125.593 156.722H126.895C126.839 155.546 125.845 154.538 124.011 154.538C122.317 154.538 121.113 155.392 121.113 156.736C121.113 157.982 121.967 158.598 123.227 158.78L124.333 158.934C125.215 159.06 125.761 159.354 125.761 160.04C125.761 160.782 125.075 161.23 124.053 161.23C123.003 161.23 122.247 160.796 122.219 159.886H120.889ZM131.756 160.278C131.756 161.426 132.316 162 133.534 162H135.116V160.922H133.842C133.282 160.922 133.044 160.684 133.044 160.124V151.612H131.756V160.278ZM137.363 153.53C137.867 153.53 138.245 153.138 138.245 152.662C138.245 152.158 137.867 151.794 137.363 151.794H137.293C136.775 151.794 136.397 152.158 136.397 152.662C136.397 153.138 136.775 153.53 137.293 153.53H137.363ZM135.515 155.812H136.677V162H137.965V154.762H135.515V155.812ZM141.413 151.612H140.125V162H141.413V151.612ZM146.299 154.762H144.717L141.413 158.108L144.927 162H146.579L142.981 158.052L146.299 154.762ZM150.205 162.196C151.955 162.196 153.131 161.244 153.397 159.9H152.095C151.983 160.53 151.353 161.188 150.233 161.188C148.945 161.188 147.993 160.236 147.993 158.71V158.668H153.537V158.206C153.537 156.148 152.333 154.566 150.163 154.566C148.007 154.566 146.705 156.218 146.705 158.374C146.705 160.516 147.937 162.196 150.205 162.196ZM150.163 155.56C151.339 155.56 152.179 156.344 152.235 157.744H148.007C148.119 156.372 149.043 155.56 150.163 155.56ZM158.601 162H159.945V157.912H162.801C164.887 157.912 166.062 156.75 166.062 155.028C166.062 153.306 164.887 152.144 162.801 152.144H158.601V162ZM164.704 155.112C164.704 156.12 164.061 156.764 162.759 156.764H159.945V153.292H162.759C164.061 153.292 164.704 153.922 164.704 154.944V155.112ZM170.439 162.196C172.679 162.196 173.953 160.516 173.953 158.374C173.953 156.232 172.637 154.566 170.439 154.566C168.227 154.566 166.925 156.232 166.925 158.374C166.925 160.516 168.199 162.196 170.439 162.196ZM172.651 158.64C172.651 160.208 171.657 161.118 170.439 161.118C169.221 161.118 168.213 160.152 168.213 158.64V158.108C168.213 156.582 169.221 155.644 170.439 155.644C171.657 155.644 172.651 156.554 172.651 158.108V158.64ZM175.602 160.278C175.602 161.426 176.162 162 177.38 162H178.962V160.922H177.688C177.128 160.922 176.89 160.684 176.89 160.124V151.612H175.602V160.278ZM182.7 162.812L185.836 154.762H184.52L182.434 160.32H182.42L180.278 154.762H178.864L181.734 161.804L181.412 162.63C181.09 163.442 180.866 163.61 180.11 163.61H178.906V164.688H180.152C181.594 164.688 182.182 164.156 182.7 162.812ZM186.632 162.616C186.828 163.848 187.906 164.884 189.81 164.884C192.022 164.884 193.282 163.652 193.282 161.454V154.762H192.05V156.064H192.036C191.616 155.14 190.79 154.566 189.558 154.566C187.57 154.566 186.408 156.148 186.408 158.164C186.408 160.208 187.598 161.79 189.558 161.79C190.734 161.79 191.532 161.244 191.98 160.348H191.994V161.524C191.994 163.008 191.308 163.862 189.81 163.862C188.606 163.862 188.06 163.204 187.934 162.616H186.632ZM187.696 157.996C187.696 156.498 188.676 155.644 189.852 155.644C191.028 155.644 191.994 156.54 191.994 157.996V158.36C191.994 159.83 191.028 160.726 189.852 160.726C188.676 160.726 187.696 159.858 187.696 158.36V157.996ZM198.521 162.196C200.761 162.196 202.035 160.516 202.035 158.374C202.035 156.232 200.719 154.566 198.521 154.566C196.309 154.566 195.007 156.232 195.007 158.374C195.007 160.516 196.281 162.196 198.521 162.196ZM200.733 158.64C200.733 160.208 199.739 161.118 198.521 161.118C197.303 161.118 196.295 160.152 196.295 158.64V158.108C196.295 156.582 197.303 155.644 198.521 155.644C199.739 155.644 200.733 156.554 200.733 158.108V158.64ZM205.042 157.758C205.042 156.33 205.966 155.658 206.974 155.658C207.94 155.658 208.766 156.288 208.766 157.59V162H210.054V157.478C210.054 155.574 208.864 154.566 207.352 154.566C206.288 154.566 205.406 155.028 204.986 155.994H204.972V154.762H203.754V162H205.042V157.758ZM218.345 162.196C220.095 162.196 221.271 161.244 221.537 159.9H220.235C220.123 160.53 219.493 161.188 218.373 161.188C217.085 161.188 216.133 160.236 216.133 158.71V158.668H221.677V158.206C221.677 156.148 220.473 154.566 218.303 154.566C216.147 154.566 214.845 156.218 214.845 158.374C214.845 160.516 216.077 162.196 218.345 162.196ZM218.303 155.56C219.479 155.56 220.319 156.344 220.375 157.744H216.147C216.259 156.372 217.183 155.56 218.303 155.56ZM222.011 162H223.467L225.497 159.2H225.511L227.541 162H229.039L226.295 158.276L228.899 154.762H227.443L225.553 157.366H225.525L223.649 154.762H222.151L224.741 158.304L222.011 162ZM230.236 154.762V164.688H231.524V160.712H231.538C231.986 161.636 232.826 162.196 233.988 162.196C235.99 162.196 237.194 160.53 237.194 158.374C237.194 156.232 236.018 154.566 233.988 154.566C232.77 154.566 231.902 155.154 231.482 156.134H231.468V154.762H230.236ZM235.892 158.108V158.64C235.892 160.194 234.912 161.118 233.708 161.118C232.504 161.118 231.524 160.166 231.524 158.64V158.108C231.524 156.582 232.504 155.63 233.708 155.63C234.912 155.63 235.892 156.54 235.892 158.108ZM238.834 160.278C238.834 161.426 239.394 162 240.612 162H242.194V160.922H240.92C240.36 160.922 240.122 160.684 240.122 160.124V151.612H238.834V160.278ZM246.387 162.196C248.627 162.196 249.901 160.516 249.901 158.374C249.901 156.232 248.585 154.566 246.387 154.566C244.175 154.566 242.873 156.232 242.873 158.374C242.873 160.516 244.147 162.196 246.387 162.196ZM248.599 158.64C248.599 160.208 247.605 161.118 246.387 161.118C245.169 161.118 244.161 160.152 244.161 158.64V158.108C244.161 156.582 245.169 155.644 246.387 155.644C247.605 155.644 248.599 156.554 248.599 158.108V158.64ZM258.143 162V151.612H256.855V156.05H256.841C256.393 155.126 255.553 154.566 254.377 154.566C252.389 154.566 251.185 156.232 251.185 158.374C251.185 160.53 252.361 162.196 254.377 162.196C255.609 162.196 256.463 161.594 256.897 160.628H256.911V162H258.143ZM252.473 158.654V158.122C252.473 156.554 253.467 155.644 254.657 155.644C255.861 155.644 256.855 156.582 256.855 158.122V158.654C256.855 160.166 255.861 161.118 254.657 161.118C253.467 161.118 252.473 160.222 252.473 158.654ZM263.353 162.196C265.103 162.196 266.279 161.244 266.545 159.9H265.243C265.131 160.53 264.501 161.188 263.381 161.188C262.093 161.188 261.141 160.236 261.141 158.71V158.668H266.685V158.206C266.685 156.148 265.481 154.566 263.311 154.566C261.155 154.566 259.853 156.218 259.853 158.374C259.853 160.516 261.085 162.196 263.353 162.196ZM263.311 155.56C264.487 155.56 265.327 156.344 265.383 157.744H261.155C261.267 156.372 262.191 155.56 263.311 155.56ZM272.687 153.53C273.191 153.53 273.569 153.138 273.569 152.662C273.569 152.158 273.191 151.794 272.687 151.794H272.617C272.099 151.794 271.721 152.158 271.721 152.662C271.721 153.138 272.099 153.53 272.617 153.53H272.687ZM270.839 155.812H272.001V162H273.289V154.762H270.839V155.812ZM276.737 157.758C276.737 156.33 277.661 155.658 278.669 155.658C279.635 155.658 280.461 156.288 280.461 157.59V162H281.749V157.478C281.749 155.574 280.559 154.566 279.047 154.566C277.983 154.566 277.101 155.028 276.681 155.994H276.667V154.762H275.449V162H276.737V157.758ZM71.02 179.004C71.02 180.432 70.096 181.104 69.088 181.104C68.122 181.104 67.296 180.474 67.296 179.172V174.762H66.008V179.284C66.008 181.188 67.198 182.196 68.71 182.196C69.774 182.196 70.656 181.734 71.076 180.768H71.09V182H72.308V174.762H71.02V179.004ZM73.8989 179.886C73.9409 181.286 75.1309 182.21 77.0209 182.21C78.8129 182.21 80.0729 181.356 80.0729 179.942C80.0729 178.71 79.1909 178.038 77.7629 177.842L76.6569 177.688C75.8309 177.562 75.4109 177.254 75.4109 176.638C75.4109 175.98 76.0129 175.518 76.9929 175.518C78.0009 175.518 78.5609 175.994 78.6029 176.722H79.9049C79.8489 175.546 78.8549 174.538 77.0209 174.538C75.3269 174.538 74.1229 175.392 74.1229 176.736C74.1229 177.982 74.9769 178.598 76.2369 178.78L77.3429 178.934C78.2249 179.06 78.7709 179.354 78.7709 180.04C78.7709 180.782 78.0849 181.23 77.0629 181.23C76.0129 181.23 75.2569 180.796 75.2289 179.886H73.8989ZM81.4673 176.778H82.7413C82.8253 176.008 83.3713 175.546 84.4073 175.546C85.5553 175.546 85.9473 176.134 85.9473 176.708C85.9473 177.268 85.5693 177.506 84.8273 177.632L83.7353 177.814C82.2093 178.052 81.2013 178.724 81.2013 180.054C81.2013 181.412 82.2513 182.196 83.6793 182.196C84.8973 182.196 85.7933 181.58 86.1433 180.684H86.1573V180.824C86.1433 181.594 86.5073 182 87.4173 182H88.2433V180.964H87.7953C87.4453 180.964 87.2633 180.852 87.2633 180.404V176.974C87.2633 175.336 86.0873 174.566 84.4353 174.566C82.6153 174.566 81.5933 175.476 81.4673 176.778ZM85.9893 178.99C85.9893 180.306 85.1353 181.188 83.9173 181.188C83.0493 181.188 82.4613 180.768 82.4613 180.012V179.928C82.4613 179.228 83.0353 178.85 83.9593 178.696L85.0233 178.514C85.5273 178.43 85.8493 178.234 85.9893 178.038V178.99ZM89.3016 182.616C89.4976 183.848 90.5756 184.884 92.4796 184.884C94.6916 184.884 95.9516 183.652 95.9516 181.454V174.762H94.7196V176.064H94.7056C94.2856 175.14 93.4596 174.566 92.2276 174.566C90.2396 174.566 89.0776 176.148 89.0776 178.164C89.0776 180.208 90.2676 181.79 92.2276 181.79C93.4036 181.79 94.2016 181.244 94.6496 180.348H94.6636V181.524C94.6636 183.008 93.9776 183.862 92.4796 183.862C91.2756 183.862 90.7296 183.204 90.6036 182.616H89.3016ZM90.3656 177.996C90.3656 176.498 91.3456 175.644 92.5216 175.644C93.6976 175.644 94.6636 176.54 94.6636 177.996V178.36C94.6636 179.83 93.6976 180.726 92.5216 180.726C91.3456 180.726 90.3656 179.858 90.3656 178.36V177.996ZM101.177 182.196C102.927 182.196 104.103 181.244 104.369 179.9H103.067C102.955 180.53 102.325 181.188 101.205 181.188C99.9172 181.188 98.9652 180.236 98.9652 178.71V178.668H104.509V178.206C104.509 176.148 103.305 174.566 101.135 174.566C98.9792 174.566 97.6772 176.218 97.6772 178.374C97.6772 180.516 98.9092 182.196 101.177 182.196ZM101.135 175.56C102.311 175.56 103.151 176.344 103.207 177.744H98.9792C99.0912 176.372 100.015 175.56 101.135 175.56ZM109.139 176.778H110.413C110.497 176.008 111.043 175.546 112.079 175.546C113.227 175.546 113.619 176.134 113.619 176.708C113.619 177.268 113.241 177.506 112.499 177.632L111.407 177.814C109.881 178.052 108.873 178.724 108.873 180.054C108.873 181.412 109.923 182.196 111.351 182.196C112.569 182.196 113.465 181.58 113.815 180.684H113.829V180.824C113.815 181.594 114.179 182 115.089 182H115.915V180.964H115.467C115.117 180.964 114.935 180.852 114.935 180.404V176.974C114.935 175.336 113.759 174.566 112.107 174.566C110.287 174.566 109.265 175.476 109.139 176.778ZM113.661 178.99C113.661 180.306 112.807 181.188 111.589 181.188C110.721 181.188 110.133 180.768 110.133 180.012V179.928C110.133 179.228 110.707 178.85 111.631 178.696L112.695 178.514C113.199 178.43 113.521 178.234 113.661 178.038V178.99ZM116.651 179.886C116.693 181.286 117.883 182.21 119.773 182.21C121.565 182.21 122.825 181.356 122.825 179.942C122.825 178.71 121.943 178.038 120.515 177.842L119.409 177.688C118.583 177.562 118.163 177.254 118.163 176.638C118.163 175.98 118.765 175.518 119.745 175.518C120.753 175.518 121.313 175.994 121.355 176.722H122.657C122.601 175.546 121.607 174.538 119.773 174.538C118.079 174.538 116.875 175.392 116.875 176.736C116.875 177.982 117.729 178.598 118.989 178.78L120.095 178.934C120.977 179.06 121.523 179.354 121.523 180.04C121.523 180.782 120.837 181.23 119.815 181.23C118.765 181.23 118.009 180.796 117.981 179.886H116.651ZM127.378 182.616C127.574 183.848 128.652 184.884 130.556 184.884C132.768 184.884 134.028 183.652 134.028 181.454V174.762H132.796V176.064H132.782C132.362 175.14 131.536 174.566 130.304 174.566C128.316 174.566 127.154 176.148 127.154 178.164C127.154 180.208 128.344 181.79 130.304 181.79C131.48 181.79 132.278 181.244 132.726 180.348H132.74V181.524C132.74 183.008 132.054 183.862 130.556 183.862C129.352 183.862 128.806 183.204 128.68 182.616H127.378ZM128.442 177.996C128.442 176.498 129.422 175.644 130.598 175.644C131.774 175.644 132.74 176.54 132.74 177.996V178.36C132.74 179.83 131.774 180.726 130.598 180.726C129.422 180.726 128.442 179.858 128.442 178.36V177.996ZM135.963 176.778H137.237C137.321 176.008 137.867 175.546 138.903 175.546C140.051 175.546 140.443 176.134 140.443 176.708C140.443 177.268 140.065 177.506 139.323 177.632L138.231 177.814C136.705 178.052 135.697 178.724 135.697 180.054C135.697 181.412 136.747 182.196 138.175 182.196C139.393 182.196 140.289 181.58 140.639 180.684H140.653V180.824C140.639 181.594 141.003 182 141.913 182H142.739V180.964H142.291C141.941 180.964 141.759 180.852 141.759 180.404V176.974C141.759 175.336 140.583 174.566 138.931 174.566C137.111 174.566 136.089 175.476 135.963 176.778ZM140.485 178.99C140.485 180.306 139.631 181.188 138.413 181.188C137.545 181.188 136.957 180.768 136.957 180.012V179.928C136.957 179.228 137.531 178.85 138.455 178.696L139.519 178.514C140.023 178.43 140.345 178.234 140.485 178.038V178.99ZM143.475 179.886C143.517 181.286 144.707 182.21 146.597 182.21C148.389 182.21 149.649 181.356 149.649 179.942C149.649 178.71 148.767 178.038 147.339 177.842L146.233 177.688C145.407 177.562 144.987 177.254 144.987 176.638C144.987 175.98 145.589 175.518 146.569 175.518C147.577 175.518 148.137 175.994 148.179 176.722H149.481C149.425 175.546 148.431 174.538 146.597 174.538C144.903 174.538 143.699 175.392 143.699 176.736C143.699 177.982 144.553 178.598 145.813 178.78L146.919 178.934C147.801 179.06 148.347 179.354 148.347 180.04C148.347 180.782 147.661 181.23 146.639 181.23C145.589 181.23 144.833 180.796 144.805 179.886H143.475ZM155.224 182H156.512V175.826H159.018V174.762H156.498V173.362C156.498 172.844 156.708 172.634 157.226 172.634H159.032V171.598H157.002C155.77 171.598 155.224 172.172 155.224 173.32V174.762H153.586V175.826H155.224V182ZM163.083 182.196C164.833 182.196 166.009 181.244 166.275 179.9H164.973C164.861 180.53 164.231 181.188 163.111 181.188C161.823 181.188 160.871 180.236 160.871 178.71V178.668H166.415V178.206C166.415 176.148 165.211 174.566 163.041 174.566C160.885 174.566 159.583 176.218 159.583 178.374C159.583 180.516 160.815 182.196 163.083 182.196ZM163.041 175.56C164.217 175.56 165.057 176.344 165.113 177.744H160.885C160.997 176.372 161.921 175.56 163.041 175.56ZM171.191 182.196C172.941 182.196 174.117 181.244 174.383 179.9H173.081C172.969 180.53 172.339 181.188 171.219 181.188C169.931 181.188 168.979 180.236 168.979 178.71V178.668H174.523V178.206C174.523 176.148 173.319 174.566 171.149 174.566C168.993 174.566 167.691 176.218 167.691 178.374C167.691 180.516 168.923 182.196 171.191 182.196ZM171.149 175.56C172.325 175.56 173.165 176.344 173.221 177.744H168.993C169.105 176.372 170.029 175.56 171.149 175.56ZM175.672 179.886C175.714 181.286 176.904 182.21 178.794 182.21C180.586 182.21 181.846 181.356 181.846 179.942C181.846 178.71 180.964 178.038 179.536 177.842L178.43 177.688C177.604 177.562 177.184 177.254 177.184 176.638C177.184 175.98 177.786 175.518 178.766 175.518C179.774 175.518 180.334 175.994 180.376 176.722H181.678C181.622 175.546 180.628 174.538 178.794 174.538C177.1 174.538 175.896 175.392 175.896 176.736C175.896 177.982 176.75 178.598 178.01 178.78L179.116 178.934C179.998 179.06 180.544 179.354 180.544 180.04C180.544 180.782 179.858 181.23 178.836 181.23C177.786 181.23 177.03 180.796 177.002 179.886H175.672ZM186.385 176.778H187.659C187.743 176.008 188.289 175.546 189.325 175.546C190.473 175.546 190.865 176.134 190.865 176.708C190.865 177.268 190.487 177.506 189.745 177.632L188.653 177.814C187.127 178.052 186.119 178.724 186.119 180.054C186.119 181.412 187.169 182.196 188.597 182.196C189.815 182.196 190.711 181.58 191.061 180.684H191.075V180.824C191.061 181.594 191.425 182 192.335 182H193.161V180.964H192.713C192.363 180.964 192.181 180.852 192.181 180.404V176.974C192.181 175.336 191.005 174.566 189.353 174.566C187.533 174.566 186.511 175.476 186.385 176.778ZM190.907 178.99C190.907 180.306 190.053 181.188 188.835 181.188C187.967 181.188 187.379 180.768 187.379 180.012V179.928C187.379 179.228 187.953 178.85 188.877 178.696L189.941 178.514C190.445 178.43 190.767 178.234 190.907 178.038V178.99ZM195.27 178.108C195.27 176.582 196.236 175.644 197.454 175.644C198.518 175.644 199.106 176.274 199.302 177.016H200.576C200.31 175.546 199.176 174.566 197.468 174.566C195.256 174.566 193.982 176.19 193.982 178.374C193.982 180.544 195.228 182.196 197.468 182.196C199.176 182.196 200.296 181.202 200.576 179.704H199.316C199.106 180.488 198.49 181.118 197.454 181.118C196.236 181.118 195.27 180.166 195.27 178.654V178.108ZM202.223 182H203.511V177.8C203.511 176.736 203.903 175.91 205.275 175.91H206.479V174.72H205.513C204.281 174.72 203.693 175.336 203.469 175.98H203.455V174.762H202.223V182ZM210.635 182.196C212.875 182.196 214.149 180.516 214.149 178.374C214.149 176.232 212.833 174.566 210.635 174.566C208.423 174.566 207.121 176.232 207.121 178.374C207.121 180.516 208.395 182.196 210.635 182.196ZM212.847 178.64C212.847 180.208 211.853 181.118 210.635 181.118C209.417 181.118 208.409 180.152 208.409 178.64V178.108C208.409 176.582 209.417 175.644 210.635 175.644C211.853 175.644 212.847 176.554 212.847 178.108V178.64ZM215.307 179.886C215.349 181.286 216.539 182.21 218.429 182.21C220.221 182.21 221.481 181.356 221.481 179.942C221.481 178.71 220.599 178.038 219.171 177.842L218.065 177.688C217.239 177.562 216.819 177.254 216.819 176.638C216.819 175.98 217.421 175.518 218.401 175.518C219.409 175.518 219.969 175.994 220.011 176.722H221.313C221.257 175.546 220.263 174.538 218.429 174.538C216.735 174.538 215.531 175.392 215.531 176.736C215.531 177.982 216.385 178.598 217.645 178.78L218.751 178.934C219.633 179.06 220.179 179.354 220.179 180.04C220.179 180.782 219.493 181.23 218.471 181.23C217.421 181.23 216.665 180.796 216.637 179.886H215.307ZM222.539 179.886C222.581 181.286 223.771 182.21 225.661 182.21C227.453 182.21 228.713 181.356 228.713 179.942C228.713 178.71 227.831 178.038 226.403 177.842L225.297 177.688C224.471 177.562 224.051 177.254 224.051 176.638C224.051 175.98 224.653 175.518 225.633 175.518C226.641 175.518 227.201 175.994 227.243 176.722H228.545C228.489 175.546 227.495 174.538 225.661 174.538C223.967 174.538 222.763 175.392 222.763 176.736C222.763 177.982 223.617 178.598 224.877 178.78L225.983 178.934C226.865 179.06 227.411 179.354 227.411 180.04C227.411 180.782 226.725 181.23 225.703 181.23C224.653 181.23 223.897 180.796 223.869 179.886H222.539ZM69.144 202.196C70.894 202.196 72.07 201.244 72.336 199.9H71.034C70.922 200.53 70.292 201.188 69.172 201.188C67.884 201.188 66.932 200.236 66.932 198.71V198.668H72.476V198.206C72.476 196.148 71.272 194.566 69.102 194.566C66.946 194.566 65.644 196.218 65.644 198.374C65.644 200.516 66.876 202.196 69.144 202.196ZM69.102 195.56C70.278 195.56 71.118 196.344 71.174 197.744H66.946C67.058 196.372 67.982 195.56 69.102 195.56ZM75.4734 197.758C75.4734 196.33 76.3974 195.658 77.4054 195.658C78.3714 195.658 79.1974 196.288 79.1974 197.59V202H80.4854V197.478C80.4854 195.574 79.2954 194.566 77.7834 194.566C76.7474 194.566 75.8794 195.014 75.4594 195.924H75.4454V191.612H74.1854V202H75.4734V197.758ZM85.6323 202.196C87.3823 202.196 88.5583 201.244 88.8243 199.9H87.5223C87.4103 200.53 86.7803 201.188 85.6603 201.188C84.3723 201.188 83.4203 200.236 83.4203 198.71V198.668H88.9643V198.206C88.9643 196.148 87.7603 194.566 85.5903 194.566C83.4343 194.566 82.1323 196.218 82.1323 198.374C82.1323 200.516 83.3643 202.196 85.6323 202.196ZM85.5903 195.56C86.7663 195.56 87.6063 196.344 87.6623 197.744H83.4343C83.5463 196.372 84.4703 195.56 85.5903 195.56ZM90.6737 202H91.9617V197.8C91.9617 196.736 92.3537 195.91 93.7257 195.91H94.9297V194.72H93.9637C92.7317 194.72 92.1437 195.336 91.9197 195.98H91.9057V194.762H90.6737V202ZM99.0717 202.196C100.822 202.196 101.998 201.244 102.264 199.9H100.962C100.85 200.53 100.22 201.188 99.0997 201.188C97.8117 201.188 96.8597 200.236 96.8597 198.71V198.668H102.404V198.206C102.404 196.148 101.2 194.566 99.0297 194.566C96.8737 194.566 95.5717 196.218 95.5717 198.374C95.5717 200.516 96.8037 202.196 99.0717 202.196ZM99.0297 195.56C100.206 195.56 101.046 196.344 101.102 197.744H96.8737C96.9857 196.372 97.9097 195.56 99.0297 195.56ZM109.055 199.004C109.055 200.432 108.131 201.104 107.123 201.104C106.157 201.104 105.331 200.474 105.331 199.172V194.762H104.043V199.284C104.043 201.188 105.233 202.196 106.745 202.196C107.809 202.196 108.691 201.734 109.111 200.768H109.125V202H110.343V194.762H109.055V199.004ZM112.494 202H113.782V197.576C113.782 196.274 114.608 195.658 115.518 195.658C116.4 195.658 117.156 196.232 117.156 197.408V202H118.444V197.576C118.444 196.274 119.27 195.658 120.194 195.658C121.062 195.658 121.818 196.232 121.818 197.408V202H123.106V197.296C123.106 195.532 121.986 194.566 120.558 194.566C119.522 194.566 118.626 195.056 118.22 196.064H118.206C117.828 195.07 116.96 194.566 115.896 194.566C114.916 194.566 114.104 195 113.726 195.868H113.712V194.762H112.494V202ZM127.766 199.886C127.808 201.286 128.998 202.21 130.888 202.21C132.68 202.21 133.94 201.356 133.94 199.942C133.94 198.71 133.058 198.038 131.63 197.842L130.524 197.688C129.698 197.562 129.278 197.254 129.278 196.638C129.278 195.98 129.88 195.518 130.86 195.518C131.868 195.518 132.428 195.994 132.47 196.722H133.772C133.716 195.546 132.722 194.538 130.888 194.538C129.194 194.538 127.99 195.392 127.99 196.736C127.99 197.982 128.844 198.598 130.104 198.78L131.21 198.934C132.092 199.06 132.638 199.354 132.638 200.04C132.638 200.782 131.952 201.23 130.93 201.23C129.88 201.23 129.124 200.796 129.096 199.886H127.766ZM136.846 191.612H135.558V202H136.846V191.612ZM141.732 194.762H140.15L136.846 198.108L140.36 202H142.012L138.414 198.052L141.732 194.762ZM146.046 202.812L149.182 194.762H147.866L145.78 200.32H145.766L143.624 194.762H142.21L145.08 201.804L144.758 202.63C144.436 203.442 144.212 203.61 143.456 203.61H142.252V204.688H143.498C144.94 204.688 145.528 204.156 146.046 202.812ZM150.461 202H151.749V197.8C151.749 196.736 152.141 195.91 153.513 195.91H154.717V194.72H153.751C152.519 194.72 151.931 195.336 151.707 195.98H151.693V194.762H150.461V202ZM158.873 202.196C161.113 202.196 162.387 200.516 162.387 198.374C162.387 196.232 161.071 194.566 158.873 194.566C156.661 194.566 155.359 196.232 155.359 198.374C155.359 200.516 156.633 202.196 158.873 202.196ZM161.085 198.64C161.085 200.208 160.091 201.118 158.873 201.118C157.655 201.118 156.647 200.152 156.647 198.64V198.108C156.647 196.582 157.655 195.644 158.873 195.644C160.091 195.644 161.085 196.554 161.085 198.108V198.64ZM164.959 198.108C164.959 196.582 165.925 195.644 167.143 195.644C168.207 195.644 168.795 196.274 168.991 197.016H170.265C169.999 195.546 168.865 194.566 167.157 194.566C164.945 194.566 163.671 196.19 163.671 198.374C163.671 200.544 164.917 202.196 167.157 202.196C168.865 202.196 169.985 201.202 170.265 199.704H169.005C168.795 200.488 168.179 201.118 167.143 201.118C165.925 201.118 164.959 200.166 164.959 198.654V198.108ZM173.2 191.612H171.912V202H173.2V191.612ZM178.086 194.762H176.504L173.2 198.108L176.714 202H178.366L174.768 198.052L178.086 194.762ZM181.992 202.196C183.742 202.196 184.918 201.244 185.184 199.9H183.882C183.77 200.53 183.14 201.188 182.02 201.188C180.732 201.188 179.78 200.236 179.78 198.71V198.668H185.324V198.206C185.324 196.148 184.12 194.566 181.95 194.566C179.794 194.566 178.492 196.218 178.492 198.374C178.492 200.516 179.724 202.196 181.992 202.196ZM181.95 195.56C183.126 195.56 183.966 196.344 184.022 197.744H179.794C179.906 196.372 180.83 195.56 181.95 195.56ZM185.961 194.762V195.826H187.613V200.278C187.613 201.426 188.159 202 189.391 202H191.281V200.936H189.629C189.111 200.936 188.901 200.712 188.901 200.194V195.826H191.267V194.762H188.901V192.592H187.613V194.762H185.961Z" fill="black"/>
<rect x="385" y="18" width="347" height="388" rx="20" fill="#FFD200"/>
<path d="M409.034 48.2871C406.419 48.2871 404.3 46.1766 404.294 43.5637C404.294 40.9507 406.407 38.8343 409.022 38.8284C411.407 38.8284 413.425 40.6019 413.721 42.9666H418.455C418.135 37.7525 413.638 33.7917 408.419 34.1168C403.2 34.442 399.235 38.9348 399.56 44.1489C399.886 49.363 404.383 53.3238 409.602 52.9987C414.366 52.7031 418.159 48.9078 418.461 44.1489H413.727C413.431 46.5136 411.419 48.2871 409.034 48.2871Z" fill="white"/>
<path d="M692.665 46.9004H690.617V40.8571H692.706C693.306 40.8571 693.822 40.9781 694.253 41.2201C694.685 41.4601 695.018 41.8053 695.25 42.2558C695.482 42.7063 695.598 43.2453 695.598 43.8729C695.598 44.5024 695.481 45.0433 695.247 45.4958C695.015 45.9483 694.68 46.2955 694.241 46.5374C693.804 46.7794 693.279 46.9004 692.665 46.9004ZM691.712 45.9532H692.612C693.033 45.9532 693.384 45.8765 693.665 45.723C693.947 45.5676 694.158 45.3365 694.3 45.0296C694.442 44.7207 694.512 44.3352 694.512 43.8729C694.512 43.4106 694.442 43.027 694.3 42.722C694.158 42.4152 693.949 42.186 693.671 42.0345C693.396 41.8811 693.054 41.8043 692.644 41.8043H691.712V45.9532ZM702.038 43.8788C702.038 44.5299 701.916 45.0876 701.672 45.5519C701.431 46.0142 701.1 46.3683 700.681 46.6142C700.264 46.8601 699.791 46.983 699.262 46.983C698.732 46.983 698.258 46.8601 697.839 46.6142C697.422 46.3663 697.092 46.0112 696.848 45.5489C696.606 45.0847 696.485 44.5279 696.485 43.8788C696.485 43.2276 696.606 42.6709 696.848 42.2086C697.092 41.7443 697.422 41.3893 697.839 41.1434C698.258 40.8975 698.732 40.7745 699.262 40.7745C699.791 40.7745 700.264 40.8975 700.681 41.1434C701.1 41.3893 701.431 41.7443 701.672 42.2086C701.916 42.6709 702.038 43.2276 702.038 43.8788ZM700.938 43.8788C700.938 43.4204 700.866 43.0338 700.722 42.7191C700.581 42.4024 700.384 42.1634 700.132 42.002C699.88 41.8388 699.59 41.7571 699.262 41.7571C698.933 41.7571 698.643 41.8388 698.391 42.002C698.139 42.1634 697.942 42.4024 697.798 42.7191C697.656 43.0338 697.586 43.4204 697.586 43.8788C697.586 44.3371 697.656 44.7247 697.798 45.0414C697.942 45.3561 698.139 45.5951 698.391 45.7584C698.643 45.9197 698.933 46.0004 699.262 46.0004C699.59 46.0004 699.88 45.9197 700.132 45.7584C700.384 45.5951 700.581 45.3561 700.722 45.0414C700.866 44.7247 700.938 44.3371 700.938 43.8788ZM707.122 42.787C707.073 42.6276 707.005 42.485 706.918 42.3591C706.834 42.2312 706.731 42.122 706.611 42.0315C706.493 41.9411 706.358 41.8732 706.204 41.8279C706.051 41.7807 705.884 41.7571 705.703 41.7571C705.378 41.7571 705.089 41.8388 704.835 42.002C704.581 42.1653 704.382 42.4053 704.236 42.722C704.092 43.0368 704.021 43.4204 704.021 43.8729C704.021 44.3292 704.092 44.7158 704.236 45.0325C704.38 45.3492 704.579 45.5902 704.835 45.7555C705.091 45.9188 705.388 46.0004 705.726 46.0004C706.033 46.0004 706.299 45.9414 706.523 45.8233C706.749 45.7053 706.923 45.5381 707.045 45.3217C707.167 45.1033 707.228 44.8476 707.228 44.5545L707.476 44.5929H705.835V43.7371H708.287V44.463C708.287 44.9804 708.177 45.4279 707.957 45.8056C707.737 46.1833 707.434 46.4745 707.048 46.6791C706.663 46.8817 706.22 46.983 705.72 46.983C705.164 46.983 704.675 46.8581 704.254 46.6083C703.835 46.3565 703.507 45.9994 703.271 45.5371C703.037 45.0729 702.92 44.522 702.92 43.8847C702.92 43.3968 702.989 42.9611 703.126 42.5774C703.266 42.1938 703.461 41.8683 703.711 41.6007C703.961 41.3312 704.254 41.1266 704.59 40.987C704.926 40.8453 705.292 40.7745 705.688 40.7745C706.022 40.7745 706.334 40.8237 706.623 40.922C706.912 41.0184 707.169 41.1561 707.393 41.3352C707.62 41.5142 707.805 41.7266 707.951 41.9725C708.097 42.2184 708.192 42.4899 708.237 42.787H707.122ZM709.346 46.9004V40.8571H713.277V41.7748H710.441V43.4155H713.073V44.3332H710.441V45.9827H713.3V46.9004H709.346Z" fill="white"/>
</svg>
