<svg version="1.1" viewBox="0.0 0.0 960.0 540.0" fill="none" stroke="none" stroke-linecap="square" stroke-miterlimit="10" xmlns:xlink="http://www.w3.org/1999/xlink" xmlns="http://www.w3.org/2000/svg"><clipPath id="g6c07738f61_0_1104.0"><path d="m0 0l960.0 0l0 540.0l-960.0 0l0 -540.0z" clip-rule="nonzero"/></clipPath><g clip-path="url(#g6c07738f61_0_1104.0)"><path fill="#000000" d="m0 0l960.0 0l0 540.0l-960.0 0z" fill-rule="evenodd"/><path fill="#000000" fill-opacity="0.0" d="m36.09449 41.244095l443.90552 0l0 43.244095l-443.90552 0z" fill-rule="evenodd"/><path fill="#ffffff" d="m46.610115 68.16409l0 -12.34375l1.625 0l7.625 10.390625l0 -10.390625l1.390625 0l0 12.34375l-1.609375 0l-7.640625 -10.421875l0 10.421875l-1.390625 0zm17.425034 0.15625q-1.421875 0 -2.46875 -0.640625q-1.046875 -0.65625 -1.609375 -1.75q-0.546875 -1.109375 -0.546875 -2.4375q0 -1.328125 0.546875 -2.421875q0.5625 -1.09375 1.609375 -1.734375q1.046875 -0.65625 2.46875 -0.65625q1.4375 0 2.46875 0.65625q1.03125 0.640625 1.59375 1.734375q0.5625 1.09375 0.5625 2.421875q0 1.328125 -0.5625 2.4375q-0.5625 1.09375 -1.59375 1.75q-1.03125 0.640625 -2.46875 0.640625zm0 -1.28125q1.046875 0 1.765625 -0.484375q0.71875 -0.484375 1.078125 -1.296875q0.375 -0.8125 0.375 -1.765625q0 -0.96875 -0.375 -1.765625q-0.359375 -0.796875 -1.078125 -1.28125q-0.71875 -0.484375 -1.765625 -0.484375q-1.03125 0 -1.765625 0.484375q-0.71875 0.484375 -1.09375 1.28125q-0.375 0.796875 -0.375 1.765625q0 0.953125 0.375 1.765625q0.375 0.8125 1.09375 1.296875q0.734375 0.484375 1.765625 0.484375zm6.4752502 1.125l0 -9.328125l1.390625 0l0 2.296875q0.078125 -0.25 0.28125 -0.640625q0.21875 -0.40625 0.625 -0.8125q0.421875 -0.421875 1.046875 -0.703125q0.625 -0.296875 1.484375 -0.296875l0.09375 0l0 1.40625l-0.171875 0q-1.046875 0 -1.796875 0.578125q-0.75 0.5625 -1.15625 1.46875q-0.40625 0.90625 -0.40625 1.921875l0 4.109375l-1.390625 0zm7.4364014 0l0 -8.09375l-1.90625 0l0 -1.234375l1.90625 0l0 -3.34375l1.40625 0l0 3.34375l2.140625 0l0 1.234375l-2.140625 0l0 8.09375l-1.40625 0zm5.0819397 0l0 -13.0625l1.390625 0l0 5.1875q0.5 -0.671875 1.234375 -1.140625q0.734375 -0.46875 1.859375 -0.46875q0.96875 0 1.8125 0.46875q0.859375 0.453125 1.390625 1.359375q0.53125 0.90625 0.53125 2.234375l0 5.421875l-1.390625 0l0 -5.390625q0 -1.265625 -0.734375 -2.03125q-0.734375 -0.78125 -1.890625 -0.78125q-0.78125 0 -1.421875 0.359375q-0.625 0.34375 -1.015625 0.984375q-0.375 0.640625 -0.375 1.484375l0 5.375l-1.390625 0zm13.950058 0.15625q-1.28125 0 -2.171875 -0.421875q-0.890625 -0.4375 -1.359375 -1.140625q-0.46875 -0.703125 -0.515625 -1.515625l1.453125 0q0.0625 0.453125 0.328125 0.90625q0.265625 0.4375 0.828125 0.703125q0.5625 0.265625 1.453125 0.265625q0.28125 0 0.6875 -0.046875q0.421875 -0.0625 0.796875 -0.203125q0.390625 -0.15625 0.640625 -0.453125q0.265625 -0.296875 0.265625 -0.765625q0 -0.578125 -0.453125 -0.890625q-0.4375 -0.328125 -1.15625 -0.5q-0.703125 -0.171875 -1.5 -0.34375q-0.796875 -0.171875 -1.5 -0.4375q-0.703125 -0.28125 -1.15625 -0.765625q-0.453125 -0.5 -0.453125 -1.359375q0 -1.265625 0.921875 -1.96875q0.9375 -0.703125 2.734375 -0.703125q1.234375 0 2.0 0.390625q0.78125 0.375 1.1875 0.984375q0.40625 0.59375 0.46875 1.28125l-1.40625 0q-0.078125 -0.59375 -0.59375 -1.015625q-0.515625 -0.4375 -1.6875 -0.4375q-2.21875 0 -2.21875 1.34375q0 0.5625 0.4375 0.859375q0.453125 0.296875 1.15625 0.484375q0.71875 0.171875 1.5 0.328125q0.796875 0.15625 1.5 0.4375q0.71875 0.28125 1.15625 0.796875q0.453125 0.5 0.453125 1.375q0 1.375 -1.03125 2.09375q-1.03125 0.71875 -2.765625 0.71875zm6.6016846 -0.15625l0 -8.09375l-1.90625 0l0 -1.234375l1.90625 0l0 -3.34375l1.40625 0l0 3.34375l2.140625 0l0 1.234375l-2.140625 0l0 8.09375l-1.40625 0zm8.832779 0.15625q-1.375 0 -2.390625 -0.640625q-1.015625 -0.65625 -1.578125 -1.75q-0.546875 -1.109375 -0.546875 -2.4375q0 -1.328125 0.546875 -2.421875q0.5625 -1.09375 1.578125 -1.734375q1.015625 -0.65625 2.390625 -0.65625q1.15625 0 1.984375 0.453125q0.828125 0.453125 1.34375 1.21875l0 -1.515625l1.40625 0l0 9.328125l-1.40625 0l0 -1.5q-0.515625 0.75 -1.34375 1.203125q-0.828125 0.453125 -1.984375 0.453125zm0.171875 -1.28125q1.046875 0 1.765625 -0.484375q0.71875 -0.484375 1.09375 -1.296875q0.375 -0.8125 0.375 -1.765625q0 -0.96875 -0.375 -1.765625q-0.375 -0.796875 -1.09375 -1.28125q-0.71875 -0.484375 -1.765625 -0.484375q-1.015625 0 -1.765625 0.484375q-0.75 0.484375 -1.140625 1.28125q-0.390625 0.796875 -0.390625 1.765625q0 0.953125 0.390625 1.765625q0.390625 0.8125 1.140625 1.296875q0.75 0.484375 1.765625 0.484375zm6.991089 1.125l0 -9.328125l1.390625 0l0 2.296875q0.078125 -0.25 0.28125 -0.640625q0.21875 -0.40625 0.625 -0.8125q0.421875 -0.421875 1.046875 -0.703125q0.625 -0.296875 1.484375 -0.296875l0.09375 0l0 1.40625l-0.171875 0q-1.046875 0 -1.796875 0.578125q-0.75 0.5625 -1.15625 1.46875q-0.40625 0.90625 -0.40625 1.921875l0 4.109375l-1.390625 0z" fill-rule="nonzero"/><path fill="#000000" fill-opacity="0.0" d="m36.09449 91.37533l443.90552 0l0 362.96063l-443.90552 0z" fill-rule="evenodd"/><path fill="#ffffff" d="m48.985115 146.45532l0 -33.781242l5.59375 0l0 14.125l16.484375 0l0 -14.125l5.59375 0l0 33.781242l-5.59375 0l0 -14.15625l-16.484375 0l0 14.15625l-5.59375 0zm44.096695 0.390625q-3.921875 0 -6.859375 -1.796875q-2.921875 -1.8125 -4.484375 -4.875q-1.5625 -3.078125 -1.5625 -6.71875q0 -3.6875 1.5625 -6.7343674q1.5625 -3.046875 4.484375 -4.84375q2.9375 -1.8125 6.859375 -1.8125q3.984375 0 6.890625 1.8125q2.90625 1.796875 4.453125 4.84375q1.5625 3.0468674 1.5625 6.7343674q0 3.640625 -1.5625 6.71875q-1.546875 3.0625 -4.453125 4.875q-2.90625 1.796875 -6.890625 1.796875zm0 -5.265625q2.375 0 3.984375 -1.078125q1.609375 -1.09375 2.46875 -2.953125q0.859375 -1.859375 0.859375 -4.09375q0 -2.28125 -0.859375 -4.109375q-0.859375 -1.8437424 -2.46875 -2.9218674q-1.609375 -1.09375 -3.984375 -1.09375q-2.34375 0 -3.96875 1.09375q-1.625 1.078125 -2.484375 2.9218674q-0.84375 1.828125 -0.84375 4.109375q0 2.234375 0.859375 4.09375q0.859375 1.859375 2.46875 2.953125q1.625 1.078125 3.96875 1.078125zm20.107681 4.875l-8.171875 -25.999992l5.953125 0l5.046875 17.093742l5.328125 -17.093742l5.40625 0l5.3281174 17.093742l5.046875 -17.093742l5.9375 0l-8.15625 25.999992l-5.59375 0l-5.2656174 -16.8125l-5.265625 16.8125l-5.59375 0zm52.422707 0.390625q-3.875 0 -6.765625 -1.796875q-2.875 -1.8125 -4.46875 -4.875q-1.578125 -3.0625 -1.578125 -6.71875q0 -3.703125 1.578125 -6.7343674q1.59375 -3.046875 4.46875 -4.84375q2.890625 -1.8125 6.765625 -1.8125q4.609375 0 7.875 2.40625q3.265625 2.40625 4.796875 7.5156174l-5.921875 0q-0.953125 -2.4218674 -2.5 -3.5312424q-1.546875 -1.125 -3.765625 -1.125q-2.34375 0 -4.078125 1.109375q-1.734375 1.09375 -2.671875 2.9218674q-0.9375 1.828125 -0.9375 4.09375q0 2.21875 0.9375 4.078125q0.9375 1.84375 2.671875 2.953125q1.734375 1.09375 4.078125 1.09375q2.21875 0 3.765625 -1.109375q1.546875 -1.125 2.5 -3.546875l5.921875 0q-1.53125 5.109375 -4.796875 7.515625q-3.265625 2.40625 -7.875 2.40625zm25.92456 0q-3.796875 0 -6.65625 -1.796875q-2.84375 -1.8125 -4.40625 -4.875q-1.5625 -3.078125 -1.5625 -6.71875q0 -3.6875 1.5625 -6.7343674q1.5625 -3.046875 4.40625 -4.84375q2.859375 -1.8125 6.65625 -1.8125q3.21875 0 5.578125 1.28125q2.359375 1.265625 2.28125 1.609375l-0.265625 -2.5l5.59375 0l0 25.999992l-5.59375 0l0.265625 -2.5q0.078125 0.34375 -2.28125 1.625q-2.359375 1.265625 -5.578125 1.265625zm0.484375 -5.265625q2.375 0 3.96875 -1.078125q1.609375 -1.09375 2.46875 -2.953125q0.859375 -1.859375 0.859375 -4.09375q0 -2.28125 -0.859375 -4.109375q-0.859375 -1.8437424 -2.46875 -2.9218674q-1.59375 -1.09375 -3.96875 -1.09375q-2.34375 0 -4.03125 1.09375q-1.671875 1.09375 -2.578125 2.9374924q-0.890625 1.828125 -0.890625 4.09375q0 2.21875 0.890625 4.078125q0.90625 1.859375 2.578125 2.953125q1.6875 1.09375 4.03125 1.09375zm16.950684 4.875l0 -25.999992l5.59375 0l-0.28125 2.578125q-0.109375 -0.3125 1.953125 -1.640625q2.078125 -1.328125 5.296875 -1.328125q2.75 0 5.15625 1.3125q2.421875 1.296875 3.921875 3.875q1.515625 2.5625 1.515625 6.2343674l0 14.96875l-5.59375 0l0 -14.875q0 -2.875 -1.59375 -4.5624924q-1.59375 -1.6875 -4.125 -1.6875q-1.75 0 -3.15625 0.78125q-1.40625 0.78125 -2.25 2.2187424q-0.84375 1.421875 -0.84375 3.296875l0 14.828125l-5.59375 0zm42.31395 0l-8.171875 -25.999992l5.953125 0l5.046875 17.093742l5.328125 -17.093742l5.40625 0l5.328125 17.093742l5.046875 -17.093742l5.9375 0l-8.15625 25.999992l-5.59375 0l-5.265625 -16.8125l-5.265625 16.8125l-5.59375 0zm42.06244 0.390625q-3.9374695 0 -6.9062195 -1.796875q-2.96875 -1.796875 -4.609375 -4.859375q-1.640625 -3.078125 -1.640625 -6.734375q0 -3.6875 1.5625 -6.7343674q1.5625 -3.046875 4.484375 -4.84375q2.9375 -1.8125 6.8593445 -1.8125q3.984375 0 6.890625 1.8125q2.90625 1.796875 4.453125 4.84375q1.5625 3.0468674 1.5625 6.7343674l0 2.4375l-19.96872 0q0.109375 0.765625 1.0625 2.328125q0.96875 1.546875 2.5625 2.453125q1.59375 0.90625 3.7343445 0.90625q2.25 0 3.734375 -0.984375q1.5 -0.984375 2.625 -3.046875l6.0 0q-1.890625 4.828125 -4.859375 7.0625q-2.953125 2.234375 -7.546875 2.234375zm-7.2187195 -16.3125l13.9687195 0q-0.25 -1.578125 -2.109375 -3.3906174q-1.84375 -1.8125 -4.890625 -1.8125q-3.0468445 0 -4.8749695 1.8125q-1.8125 1.8124924 -2.09375 3.3906174zm32.522552 15.921875l0 -35.593742l5.59375 0l-0.28125 12.171875q-0.109375 -0.3125 1.953125 -1.640625q2.078125 -1.328125 5.296875 -1.328125q2.75 0 5.15625 1.3125q2.421875 1.296875 3.921875 3.875q1.515625 2.5625 1.515625 6.2343674l0 14.96875l-5.59375 0l0 -14.875q0 -2.875 -1.59375 -4.5624924q-1.59375 -1.6875 -4.125 -1.6875q-1.75 0 -3.15625 0.78125q-1.40625 0.78125 -2.25 2.2187424q-0.84375 1.421875 -0.84375 3.296875l0 14.828125l-5.59375 0zm38.82431 0.390625q-3.9375 0 -6.90625 -1.796875q-2.96875 -1.796875 -4.609375 -4.859375q-1.640625 -3.078125 -1.640625 -6.734375q0 -3.6875 1.5625 -6.7343674q1.5625 -3.046875 4.484375 -4.84375q2.9375 -1.8125 6.859375 -1.8125q3.984375 0 6.890625 1.8125q2.90625 1.796875 4.453125 4.84375q1.5625 3.0468674 1.5625 6.7343674l0 2.4375l-19.96875 0q0.109375 0.765625 1.0625 2.328125q0.96875 1.546875 2.5625 2.453125q1.59375 0.90625 3.734375 0.90625q2.25 0 3.734375 -0.984375q1.5 -0.984375 2.625 -3.046875l6.0 0q-1.890625 4.828125 -4.859375 7.0625q-2.953125 2.234375 -7.546875 2.234375zm-7.21875 -16.3125l13.96875 0q-0.25 -1.578125 -2.109375 -3.3906174q-1.84375 -1.8125 -4.890625 -1.8125q-3.046875 0 -4.875 1.8125q-1.8125 1.8124924 -2.09375 3.3906174zm22.298553 15.921875l0 -35.593742l5.59375 0l0 35.593742l-5.59375 0zm9.840027 9.500015l0 -35.500008l5.59375 0l-0.265625 2.453125q-0.078125 -0.34375 2.28125 -1.59375q2.359375 -1.25 5.578125 -1.25q3.796875 0 6.640625 1.8125q2.859375 1.796875 4.40625 4.84375q1.5625 3.0468674 1.5625 6.7343674q0 3.640625 -1.5625 6.71875q-1.546875 3.0625 -4.40625 4.875q-2.84375 1.796875 -6.640625 1.796875q-3.21875 0 -5.578125 -1.296875q-2.359375 -1.296875 -2.28125 -1.640625l0.265625 12.04689l-5.59375 0zm12.703125 -14.375015q2.390625 0 4.046875 -1.09375q1.65625 -1.09375 2.546875 -2.953125q0.90625 -1.859375 0.90625 -4.078125q0 -2.265625 -0.90625 -4.09375q-0.890625 -1.8437424 -2.546875 -2.9374924q-1.65625 -1.09375 -4.046875 -1.09375q-2.34375 0 -3.96875 1.09375q-1.625 1.078125 -2.484375 2.9218674q-0.84375 1.828125 -0.84375 4.109375q0 2.234375 0.859375 4.09375q0.859375 1.859375 2.46875 2.953125q1.625 1.078125 3.96875 1.078125z" fill-rule="nonzero"/><path fill="#ffffff" d="m59.34449 204.84596q-3.796875 0 -6.65625 -1.796875q-2.84375 -1.8125 -4.40625 -4.875q-1.5625 -3.078125 -1.5625 -6.71875q0 -3.6875 1.5625 -6.734375q1.5625 -3.046875 4.40625 -4.84375q2.859375 -1.8125 6.65625 -1.8125q3.21875 0 5.578125 1.28125q2.359375 1.265625 2.28125 1.609375l-0.265625 -12.09375l5.59375 0l0 35.59375l-5.59375 0l0.265625 -2.5q0.078125 0.34375 -2.28125 1.625q-2.359375 1.265625 -5.578125 1.265625zm0.484375 -5.265625q2.375 0 3.96875 -1.078125q1.609375 -1.09375 2.46875 -2.953125q0.859375 -1.859375 0.859375 -4.09375q0 -2.28125 -0.859375 -4.109375q-0.859375 -1.84375 -2.46875 -2.921875q-1.59375 -1.09375 -3.96875 -1.09375q-2.34375 0 -4.03125 1.09375q-1.671875 1.09375 -2.578125 2.9375q-0.890625 1.828125 -0.890625 4.09375q0 2.21875 0.890625 4.078125q0.90625 1.859375 2.578125 2.953125q1.6875 1.09375 4.03125 1.09375zm16.950684 4.875l0 -26.0l5.59375 0l-1.0 6.90625q-0.734375 -1.015625 -0.125 -2.15625q0.609375 -1.140625 1.78125 -2.296875q1.171875 -1.171875 2.953125 -2.0q1.796875 -0.84375 4.21875 -0.84375l1.25 0l0 5.609375l-1.4375 0q-2.359375 0 -4.0625 1.28125q-1.703125 1.28125 -2.640625 3.40625q-0.9375 2.109375 -0.9375 4.53125l0 11.5625l-5.59375 0zm16.403778 -28.03125l0 -6.703125l5.890625 0l0 6.703125l-5.890625 0zm0.15625 28.03125l0 -26.0l5.59375 0l0 26.0l-5.59375 0zm16.668152 0l-10.1875 -26.0l6.09375 0l6.90625 18.3125l6.84375 -18.3125l6.09375 0l-10.140625 26.0l-5.609375 0zm27.820168 0.390625q-3.9375 0 -6.90625 -1.796875q-2.9687424 -1.796875 -4.6093674 -4.859375q-1.640625 -3.078125 -1.640625 -6.734375q0 -3.6875 1.5625 -6.734375q1.5625 -3.046875 4.4843674 -4.84375q2.9375 -1.8125 6.859375 -1.8125q3.984375 0 6.890625 1.8125q2.90625 1.796875 4.453125 4.84375q1.5625 3.046875 1.5625 6.734375l0 2.4375l-19.96875 0q0.109375 0.765625 1.0625 2.328125q0.96875 1.546875 2.5625 2.453125q1.59375 0.90625 3.734375 0.90625q2.25 0 3.734375 -0.984375q1.5 -0.984375 2.625 -3.046875l6.0 0q-1.890625 4.828125 -4.859375 7.0625q-2.953125 2.234375 -7.546875 2.234375zm-7.21875 -16.3125l13.96875 0q-0.25 -1.578125 -2.109375 -3.390625q-1.84375 -1.8125 -4.890625 -1.8125q-3.046875 0 -4.875 1.8125q-1.8125 1.8125 -2.09375 3.390625zm22.298553 15.921875l0 -26.0l5.59375 0l-1.0 6.90625q-0.734375 -1.015625 -0.125 -2.15625q0.609375 -1.140625 1.78125 -2.296875q1.171875 -1.171875 2.953125 -2.0q1.796875 -0.84375 4.21875 -0.84375l1.25 0l0 5.609375l-1.4375 0q-2.359375 0 -4.0625 1.28125q-1.703125 1.28125 -2.640625 3.40625q-0.9375 2.109375 -0.9375 4.53125l0 11.5625l-5.59375 0zm26.294403 0.390625q-3.546875 0 -6.0625 -1.21875q-2.5 -1.21875 -3.859375 -3.234375q-1.34375 -2.03125 -1.5625 -5.46875l5.703125 0q0.21875 1.859375 0.78125 2.78125q0.5625 0.90625 1.765625 1.484375q1.203125 0.578125 3.28125 0.578125q0.65625 0 1.609375 -0.125q0.96875 -0.125 1.78125 -0.453125q0.8125 -0.328125 1.28125 -0.859375q0.46875 -0.53125 0.46875 -1.359375q0 -0.96875 -0.859375 -1.578125q-0.859375 -0.609375 -2.59375 -1.046875q-1.71875 -0.4375 -3.796875 -0.859375q-2.0625 -0.4375 -4.03125 -1.1875q-1.96875 -0.765625 -3.34375 -2.265625q-1.359375 -1.5 -1.359375 -4.09375q0 -3.765625 2.703125 -5.8125q2.703125 -2.0625 7.703125 -2.0625q3.40625 0 5.625 1.09375q2.21875 1.09375 3.390625 2.859375q1.171875 1.75 1.5 4.875l-5.640625 0q-0.234375 -2.03125 -1.265625 -2.890625q-1.03125 -0.859375 -3.703125 -0.859375q-4.71875 0 -4.71875 2.453125q0 0.90625 0.859375 1.484375q0.859375 0.578125 2.578125 1.015625q1.734375 0.421875 3.8125 0.828125q2.078125 0.40625 4.046875 1.1875q1.984375 0.78125 3.328125 2.34375q1.359375 1.546875 1.359375 4.1875q0 4.015625 -3.015625 6.109375q-3.0 2.09375 -7.765625 2.09375zm36.813187 0q-3.21875 0 -5.578125 -1.265625q-2.359375 -1.28125 -2.28125 -1.625l0.265625 2.5l-5.59375 0l0 -35.59375l5.59375 0l-0.265625 12.09375q-0.078125 -0.34375 2.28125 -1.609375q2.359375 -1.28125 5.578125 -1.28125q3.796875 0 6.640625 1.8125q2.859375 1.796875 4.40625 4.84375q1.5625 3.046875 1.5625 6.734375q0 3.640625 -1.5625 6.71875q-1.546875 3.0625 -4.40625 4.875q-2.84375 1.796875 -6.640625 1.796875zm-0.484375 -5.265625q2.390625 0 4.046875 -1.09375q1.65625 -1.09375 2.546875 -2.953125q0.90625 -1.859375 0.90625 -4.078125q0 -2.265625 -0.90625 -4.09375q-0.890625 -1.84375 -2.546875 -2.9375q-1.65625 -1.09375 -4.046875 -1.09375q-2.34375 0 -3.96875 1.09375q-1.625 1.078125 -2.484375 2.921875q-0.84375 1.828125 -0.84375 4.109375q0 2.234375 0.859375 4.09375q0.859375 1.859375 2.46875 2.953125q1.625 1.078125 3.96875 1.078125zm27.263184 5.265625q-3.921875 0 -6.859375 -1.796875q-2.921875 -1.8125 -4.484375 -4.875q-1.5625 -3.078125 -1.5625 -6.71875q0 -3.6875 1.5625 -6.734375q1.5625 -3.046875 4.484375 -4.84375q2.9375 -1.8125 6.859375 -1.8125q3.984375 0 6.890625 1.8125q2.90625 1.796875 4.453125 4.84375q1.5625 3.046875 1.5625 6.734375q0 3.640625 -1.5625 6.71875q-1.546875 3.0625 -4.453125 4.875q-2.90625 1.796875 -6.890625 1.796875zm0 -5.265625q2.375 0 3.984375 -1.078125q1.609375 -1.09375 2.46875 -2.953125q0.859375 -1.859375 0.859375 -4.09375q0 -2.28125 -0.859375 -4.109375q-0.859375 -1.84375 -2.46875 -2.921875q-1.609375 -1.09375 -3.984375 -1.09375q-2.34375 0 -3.96875 1.09375q-1.625 1.078125 -2.484375 2.921875q-0.84375 1.828125 -0.84375 4.109375q0 2.234375 0.859375 4.09375q0.859375 1.859375 2.46875 2.953125q1.625 1.078125 3.96875 1.078125zm27.072052 5.265625q-3.921875 0 -6.859375 -1.796875q-2.921875 -1.8125 -4.484375 -4.875q-1.5625 -3.078125 -1.5625 -6.71875q0 -3.6875 1.5625 -6.734375q1.5625 -3.046875 4.484375 -4.84375q2.9375 -1.8125 6.859375 -1.8125q3.984375 0 6.890625 1.8125q2.90625 1.796875 4.453125 4.84375q1.5625 3.046875 1.5625 6.734375q0 3.640625 -1.5625 6.71875q-1.546875 3.0625 -4.453125 4.875q-2.90625 1.796875 -6.890625 1.796875zm0 -5.265625q2.375 0 3.984375 -1.078125q1.609375 -1.09375 2.46875 -2.953125q0.859375 -1.859375 0.859375 -4.09375q0 -2.28125 -0.859375 -4.109375q-0.859375 -1.84375 -2.46875 -2.921875q-1.609375 -1.09375 -3.984375 -1.09375q-2.34375 0 -3.96875 1.09375q-1.625 1.078125 -2.484375 2.921875q-0.84375 1.828125 -0.84375 4.109375q0 2.234375 0.859375 4.09375q0.859375 1.859375 2.46875 2.953125q1.625 1.078125 3.96875 1.078125zm15.665802 4.875l0 -35.59375l5.59375 0l0 20.03125l10.140625 -10.4375l7.921875 0l-10.78125 10.5625l10.984375 15.4375l-6.875 0l-8.015625 -11.5l-3.375 3.34375l0 8.15625l-5.59375 0zm44.544037 0l0 -26.0l5.59375 0l-0.5625 2.984375q-0.390625 -0.46875 1.609375 -1.921875q2.0 -1.453125 5.25 -1.453125q2.6875 0 4.96875 1.421875q2.28125 1.421875 2.6875 3.359375q-0.359375 -0.34375 0.765625 -1.59375q1.125 -1.25 2.984375 -2.21875q1.875 -0.96875 4.484375 -0.96875q2.578125 0 4.8125 1.34375q2.25 1.34375 3.65625 3.8125q1.40625 2.453125 1.40625 5.734375l0 15.5l-5.59375 0l0 -15.40625q0 -2.625 -1.421875 -4.171875q-1.421875 -1.546875 -3.53125 -1.546875q-2.25 0 -3.875 1.5q-1.609375 1.5 -1.609375 4.265625l0 15.359375l-5.59375 0l0 -15.40625q0 -2.625 -1.421875 -4.171875q-1.421875 -1.546875 -3.53125 -1.546875q-2.25 0 -3.875 1.5q-1.609375 1.5 -1.609375 4.265625l0 15.359375l-5.59375 0zm53.070312 0.390625q-3.921875 0 -6.859375 -1.796875q-2.921875 -1.8125 -4.484375 -4.875q-1.5625 -3.078125 -1.5625 -6.71875q0 -3.6875 1.5625 -6.734375q1.5625 -3.046875 4.484375 -4.84375q2.9375 -1.8125 6.859375 -1.8125q3.984375 0 6.890625 1.8125q2.90625 1.796875 4.453125 4.84375q1.5625 3.046875 1.5625 6.734375q0 3.640625 -1.5625 6.71875q-1.546875 3.0625 -4.453125 4.875q-2.90625 1.796875 -6.890625 1.796875zm0 -5.265625q2.375 0 3.984375 -1.078125q1.609375 -1.09375 2.46875 -2.953125q0.859375 -1.859375 0.859375 -4.09375q0 -2.28125 -0.859375 -4.109375q-0.859375 -1.84375 -2.46875 -2.921875q-1.609375 -1.09375 -3.984375 -1.09375q-2.34375 0 -3.96875 1.09375q-1.625 1.078125 -2.484375 2.921875q-0.84375 1.828125 -0.84375 4.109375q0 2.234375 0.859375 4.09375q0.859375 1.859375 2.46875 2.953125q1.625 1.078125 3.96875 1.078125zm15.665802 4.875l0 -26.0l5.59375 0l-1.0 6.90625q-0.734375 -1.015625 -0.125 -2.15625q0.609375 -1.140625 1.78125 -2.296875q1.171875 -1.171875 2.953125 -2.0q1.796875 -0.84375 4.21875 -0.84375l1.25 0l0 5.609375l-1.4375 0q-2.359375 0 -4.0625 1.28125q-1.703125 1.28125 -2.640625 3.40625q-0.9375 2.109375 -0.9375 4.53125l0 11.5625l-5.59375 0zm27.592285 0.390625q-3.9375 0 -6.90625 -1.796875q-2.96875 -1.796875 -4.609375 -4.859375q-1.640625 -3.078125 -1.640625 -6.734375q0 -3.6875 1.5625 -6.734375q1.5625 -3.046875 4.484375 -4.84375q2.9375 -1.8125 6.859375 -1.8125q3.984375 0 6.890625 1.8125q2.90625 1.796875 4.453125 4.84375q1.5625 3.046875 1.5625 6.734375l0 2.4375l-19.96875 0q0.109375 0.765625 1.0625 2.328125q0.96875 1.546875 2.5625 2.453125q1.59375 0.90625 3.734375 0.90625q2.25 0 3.734375 -0.984375q1.5 -0.984375 2.625 -3.046875l6.0 0q-1.890625 4.828125 -4.859375 7.0625q-2.953125 2.234375 -7.546875 2.234375zm-7.21875 -16.3125l13.96875 0q-0.25 -1.578125 -2.109375 -3.390625q-1.84375 -1.8125 -4.890625 -1.8125q-3.046875 0 -4.875 1.8125q-1.8125 1.8125 -2.09375 3.390625z" fill-rule="nonzero"/><path fill="#ffffff" d="m48.21949 262.45532l0 -35.593735l5.59375 0l0 35.593735l-5.59375 0zm21.246277 0.390625q-3.921875 0 -6.859375 -1.796875q-2.921875 -1.8125 -4.484375 -4.875q-1.5625 -3.0781097 -1.5625 -6.7187347q0 -3.6875 1.5625 -6.734375q1.5625 -3.046875 4.484375 -4.84375q2.9375 -1.8125 6.859375 -1.8125q3.984375 0 6.890625 1.8125q2.90625 1.796875 4.453125 4.84375q1.5625 3.046875 1.5625 6.734375q0 3.640625 -1.5625 6.7187347q-1.546875 3.0625 -4.453125 4.875q-2.90625 1.796875 -6.890625 1.796875zm0 -5.265625q2.375 0 3.984375 -1.078125q1.609375 -1.0937347 2.46875 -2.9531097q0.859375 -1.859375 0.859375 -4.09375q0 -2.28125 -0.859375 -4.109375q-0.859375 -1.84375 -2.46875 -2.921875q-1.609375 -1.09375 -3.984375 -1.09375q-2.34375 0 -3.96875 1.09375q-1.625 1.078125 -2.484375 2.921875q-0.84375 1.828125 -0.84375 4.109375q0 2.234375 0.859375 4.09375q0.859375 1.859375 2.46875 2.9531097q1.625 1.078125 3.96875 1.078125zm26.790802 5.265625q-3.796875 0 -6.65625 -1.796875q-2.84375 -1.8125 -4.40625 -4.875q-1.5625 -3.0781097 -1.5625 -6.7187347q0 -3.6875 1.5625 -6.734375q1.5625 -3.046875 4.40625 -4.84375q2.859375 -1.8125 6.65625 -1.8125q3.21875 0 5.578125 1.28125q2.359375 1.265625 2.28125 1.609375l-0.265625 -2.5l5.59375 0l0 25.999985l-5.59375 0l0.265625 -2.5q0.078125 0.34375 -2.28125 1.625q-2.359375 1.265625 -5.578125 1.265625zm0.484375 -5.265625q2.375 0 3.96875 -1.078125q1.609375 -1.0937347 2.46875 -2.9531097q0.859375 -1.859375 0.859375 -4.09375q0 -2.28125 -0.859375 -4.109375q-0.859375 -1.84375 -2.46875 -2.921875q-1.59375 -1.09375 -3.96875 -1.09375q-2.34375 0 -4.03125 1.09375q-1.671875 1.09375 -2.578125 2.9375q-0.890625 1.828125 -0.890625 4.09375q0 2.21875 0.890625 4.078125q0.90625 1.859375 2.578125 2.9531097q1.6875 1.09375 4.03125 1.09375zm28.075684 5.265625q-3.796875 0 -6.65625 -1.796875q-2.84375 -1.8125 -4.40625 -4.875q-1.5625 -3.0781097 -1.5625 -6.7187347q0 -3.6875 1.5625 -6.734375q1.5625 -3.046875 4.40625 -4.84375q2.859375 -1.8125 6.65625 -1.8125q3.2187424 0 5.5781174 1.28125q2.359375 1.265625 2.28125 1.609375l-0.265625 -12.09375l5.59375 0l0 35.593735l-5.59375 0l0.265625 -2.5q0.078125 0.34375 -2.28125 1.625q-2.359375 1.265625 -5.5781174 1.265625zm0.484375 -5.265625q2.375 0 3.9687424 -1.078125q1.609375 -1.0937347 2.46875 -2.9531097q0.859375 -1.859375 0.859375 -4.09375q0 -2.28125 -0.859375 -4.109375q-0.859375 -1.84375 -2.46875 -2.921875q-1.5937424 -1.09375 -3.9687424 -1.09375q-2.34375 0 -4.03125 1.09375q-1.671875 1.09375 -2.578125 2.9375q-0.890625 1.828125 -0.890625 4.09375q0 2.21875 0.890625 4.078125q0.90625 1.859375 2.578125 2.9531097q1.6875 1.09375 4.03125 1.09375zm26.685051 5.265625q-3.546875 0 -6.0625 -1.21875q-2.5 -1.21875 -3.859375 -3.234375q-1.34375 -2.03125 -1.5625 -5.4687347l5.703125 0q0.21875 1.859375 0.78125 2.78125q0.5625 0.90623474 1.765625 1.4843597q1.203125 0.578125 3.28125 0.578125q0.65625 0 1.609375 -0.125q0.96875 -0.125 1.78125 -0.453125q0.8125 -0.328125 1.28125 -0.859375q0.46875 -0.53123474 0.46875 -1.3593597q0 -0.96875 -0.859375 -1.578125q-0.859375 -0.609375 -2.59375 -1.046875q-1.71875 -0.4375 -3.796875 -0.859375q-2.0625 -0.4375 -4.03125 -1.1875q-1.96875 -0.765625 -3.34375 -2.265625q-1.359375 -1.5 -1.359375 -4.09375q0 -3.765625 2.703125 -5.8125q2.703125 -2.0625 7.703125 -2.0625q3.40625 0 5.625 1.09375q2.21875 1.09375 3.390625 2.859375q1.171875 1.75 1.5 4.875l-5.640625 0q-0.234375 -2.03125 -1.265625 -2.890625q-1.03125 -0.859375 -3.703125 -0.859375q-4.71875 0 -4.71875 2.453125q0 0.90625 0.859375 1.484375q0.859375 0.578125 2.578125 1.015625q1.734375 0.421875 3.8125 0.828125q2.078125 0.40625 4.046875 1.1875q1.984375 0.78125 3.328125 2.34375q1.359375 1.546875 1.359375 4.1875q0 4.0156097 -3.015625 6.1093597q-3.0 2.09375 -7.765625 2.09375zm34.750687 0q-3.796875 0 -6.65625 -1.796875q-2.84375 -1.8125 -4.40625 -4.875q-1.5625 -3.0781097 -1.5625 -6.7187347q0 -3.6875 1.5625 -6.734375q1.5625 -3.046875 4.40625 -4.84375q2.859375 -1.8125 6.65625 -1.8125q3.21875 0 5.578125 1.28125q2.359375 1.265625 2.28125 1.609375l-0.265625 -2.5l5.59375 0l0 25.999985l-5.59375 0l0.265625 -2.5q0.078125 0.34375 -2.28125 1.625q-2.359375 1.265625 -5.578125 1.265625zm0.484375 -5.265625q2.375 0 3.96875 -1.078125q1.609375 -1.0937347 2.46875 -2.9531097q0.859375 -1.859375 0.859375 -4.09375q0 -2.28125 -0.859375 -4.109375q-0.859375 -1.84375 -2.46875 -2.921875q-1.59375 -1.09375 -3.96875 -1.09375q-2.34375 0 -4.03125 1.09375q-1.671875 1.09375 -2.578125 2.9375q-0.890625 1.828125 -0.890625 4.09375q0 2.21875 0.890625 4.078125q0.90625 1.859375 2.578125 2.9531097q1.6875 1.09375 4.03125 1.09375zm16.950684 4.875l0 -25.999985l5.59375 0l-0.28125 2.578125q-0.109375 -0.3125 1.953125 -1.640625q2.078125 -1.328125 5.296875 -1.328125q2.75 0 5.15625 1.3125q2.421875 1.296875 3.921875 3.875q1.515625 2.5625 1.515625 6.234375l0 14.968735l-5.59375 0l0 -14.874985q0 -2.875 -1.59375 -4.5625q-1.59375 -1.6875 -4.125 -1.6875q-1.75 0 -3.15625 0.78125q-1.40625 0.78125 -2.25 2.21875q-0.84375 1.421875 -0.84375 3.296875l0 14.82811l-5.59375 0zm38.29306 0.390625q-3.796875 0 -6.65625 -1.796875q-2.84375 -1.8125 -4.40625 -4.875q-1.5625 -3.0781097 -1.5625 -6.7187347q0 -3.6875 1.5625 -6.734375q1.5625 -3.046875 4.40625 -4.84375q2.859375 -1.8125 6.65625 -1.8125q3.21875 0 5.578125 1.28125q2.359375 1.265625 2.28125 1.609375l-0.265625 -12.09375l5.59375 0l0 35.593735l-5.59375 0l0.265625 -2.5q0.078125 0.34375 -2.28125 1.625q-2.359375 1.265625 -5.578125 1.265625zm0.484375 -5.265625q2.375 0 3.96875 -1.078125q1.609375 -1.0937347 2.46875 -2.9531097q0.859375 -1.859375 0.859375 -4.09375q0 -2.28125 -0.859375 -4.109375q-0.859375 -1.84375 -2.46875 -2.921875q-1.59375 -1.09375 -3.96875 -1.09375q-2.34375 0 -4.03125 1.09375q-1.671875 1.09375 -2.578125 2.9375q-0.890625 1.828125 -0.890625 4.09375q0 2.21875 0.890625 4.078125q0.90625 1.859375 2.578125 2.9531097q1.6875 1.09375 4.03125 1.09375zm36.909073 5.265625q-3.546875 0 -6.0625 -1.21875q-2.5 -1.21875 -3.859375 -3.234375q-1.34375 -2.03125 -1.5625 -5.4687347l5.703125 0q0.21875 1.859375 0.78125 2.78125q0.5625 0.90623474 1.765625 1.4843597q1.203125 0.578125 3.28125 0.578125q0.65625 0 1.609375 -0.125q0.96875 -0.125 1.78125 -0.453125q0.8125 -0.328125 1.28125 -0.859375q0.46875 -0.53123474 0.46875 -1.3593597q0 -0.96875 -0.859375 -1.578125q-0.859375 -0.609375 -2.59375 -1.046875q-1.71875 -0.4375 -3.796875 -0.859375q-2.0625 -0.4375 -4.03125 -1.1875q-1.96875 -0.765625 -3.34375 -2.265625q-1.359375 -1.5 -1.359375 -4.09375q0 -3.765625 2.703125 -5.8125q2.703125 -2.0625 7.703125 -2.0625q3.40625 0 5.625 1.09375q2.21875 1.09375 3.390625 2.859375q1.171875 1.75 1.5 4.875l-5.640625 0q-0.234375 -2.03125 -1.265625 -2.890625q-1.03125 -0.859375 -3.703125 -0.859375q-4.71875 0 -4.71875 2.453125q0 0.90625 0.859375 1.484375q0.859375 0.578125 2.578125 1.015625q1.734375 0.421875 3.8125 0.828125q2.078125 0.40625 4.046875 1.1875q1.984375 0.78125 3.328125 2.34375q1.359375 1.546875 1.359375 4.1875q0 4.0156097 -3.015625 6.1093597q-3.0 2.09375 -7.765625 2.09375zm13.401672 9.109375l0 -35.499985l5.59375 0l-0.265625 2.453125q-0.078125 -0.34375 2.28125 -1.59375q2.359375 -1.25 5.578125 -1.25q3.796875 0 6.640625 1.8125q2.859375 1.796875 4.40625 4.84375q1.5625 3.046875 1.5625 6.734375q0 3.640625 -1.5625 6.7187347q-1.546875 3.0625 -4.40625 4.875q-2.84375 1.796875 -6.640625 1.796875q-3.21875 0 -5.578125 -1.296875q-2.359375 -1.296875 -2.28125 -1.640625l0.265625 12.046875l-5.59375 0zm12.703125 -14.375q2.390625 0 4.046875 -1.09375q1.65625 -1.0937347 2.546875 -2.9531097q0.90625 -1.859375 0.90625 -4.078125q0 -2.265625 -0.90625 -4.09375q-0.890625 -1.84375 -2.546875 -2.9375q-1.65625 -1.09375 -4.046875 -1.09375q-2.34375 0 -3.96875 1.09375q-1.625 1.078125 -2.484375 2.921875q-0.84375 1.828125 -0.84375 4.109375q0 2.234375 0.859375 4.09375q0.859375 1.859375 2.46875 2.9531097q1.625 1.078125 3.96875 1.078125zm27.513184 5.265625q-3.9375 0 -6.90625 -1.796875q-2.96875 -1.796875 -4.609375 -4.859375q-1.640625 -3.0781097 -1.640625 -6.7343597q0 -3.6875 1.5625 -6.734375q1.5625 -3.046875 4.484375 -4.84375q2.9375 -1.8125 6.859375 -1.8125q3.984375 0 6.890625 1.8125q2.90625 1.796875 4.453125 4.84375q1.5625 3.046875 1.5625 6.734375l0 2.4375l-19.96875 0q0.109375 0.765625 1.0625 2.328125q0.96875 1.546875 2.5625 2.4531097q1.59375 0.90625 3.734375 0.90625q2.25 0 3.734375 -0.984375q1.5 -0.98435974 2.625 -3.0468597l6.0 0q-1.890625 4.8281097 -4.859375 7.0624847q-2.953125 2.234375 -7.546875 2.234375zm-7.21875 -16.312485l13.96875 0q-0.25 -1.578125 -2.109375 -3.390625q-1.84375 -1.8125 -4.890625 -1.8125q-3.046875 0 -4.875 1.8125q-1.8125 1.8125 -2.09375 3.390625zm22.298553 15.92186l0 -25.999985l5.59375 0l-0.28125 2.578125q-0.109375 -0.3125 1.953125 -1.640625q2.078125 -1.328125 5.296875 -1.328125q2.75 0 5.15625 1.3125q2.421875 1.296875 3.921875 3.875q1.515625 2.5625 1.515625 6.234375l0 14.968735l-5.59375 0l0 -14.874985q0 -2.875 -1.59375 -4.5625q-1.59375 -1.6875 -4.125 -1.6875q-1.75 0 -3.15625 0.78125q-1.40625 0.78125 -2.25 2.21875q-0.84375 1.421875 -0.84375 3.296875l0 14.82811l-5.59375 0zm38.29306 0.390625q-3.796875 0 -6.65625 -1.796875q-2.84375 -1.8125 -4.40625 -4.875q-1.5625 -3.0781097 -1.5625 -6.7187347q0 -3.6875 1.5625 -6.734375q1.5625 -3.046875 4.40625 -4.84375q2.859375 -1.8125 6.65625 -1.8125q3.21875 0 5.578125 1.28125q2.359375 1.265625 2.28125 1.609375l-0.265625 -12.09375l5.59375 0l0 35.593735l-5.59375 0l0.265625 -2.5q0.078125 0.34375 -2.28125 1.625q-2.359375 1.265625 -5.578125 1.265625zm0.484375 -5.265625q2.375 0 3.96875 -1.078125q1.609375 -1.0937347 2.46875 -2.9531097q0.859375 -1.859375 0.859375 -4.09375q0 -2.28125 -0.859375 -4.109375q-0.859375 -1.84375 -2.46875 -2.921875q-1.59375 -1.09375 -3.96875 -1.09375q-2.34375 0 -4.03125 1.09375q-1.671875 1.09375 -2.578125 2.9375q-0.890625 1.828125 -0.890625 4.09375q0 2.21875 0.890625 4.078125q0.90625 1.859375 2.578125 2.9531097q1.6875 1.09375 4.03125 1.09375z" fill-rule="nonzero"/><path fill="#ffffff" d="m48.21949 320.45532l0 -35.59375l5.59375 0l0 35.59375l-5.59375 0zm21.496277 0.390625q-3.9375 0 -6.90625 -1.796875q-2.96875 -1.796875 -4.609375 -4.859375q-1.640625 -3.078125 -1.640625 -6.734375q0 -3.6875 1.5625 -6.734375q1.5625 -3.046875 4.484375 -4.84375q2.9375 -1.8125 6.859375 -1.8125q3.984375 0 6.890625 1.8125q2.90625 1.796875 4.453125 4.84375q1.5625 3.046875 1.5625 6.734375l0 2.4375l-19.96875 0q0.109375 0.765625 1.0625 2.328125q0.96875 1.546875 2.5625 2.453125q1.59375 0.90625 3.734375 0.90625q2.25 0 3.734375 -0.984375q1.5 -0.984375 2.625 -3.046875l6.0 0q-1.890625 4.828125 -4.859375 7.0625q-2.953125 2.234375 -7.546875 2.234375zm-7.21875 -16.3125l13.96875 0q-0.25 -1.578125 -2.109375 -3.390625q-1.84375 -1.8125 -4.890625 -1.8125q-3.046875 0 -4.875 1.8125q-1.8125 1.8125 -2.09375 3.390625zm32.03293 16.3125q-3.546875 0 -6.0625 -1.21875q-2.5 -1.21875 -3.859375 -3.234375q-1.34375 -2.03125 -1.5625 -5.46875l5.703125 0q0.21875 1.859375 0.78125 2.78125q0.5625 0.90625 1.765625 1.484375q1.203125 0.578125 3.28125 0.578125q0.65625 0 1.609375 -0.125q0.96875 -0.125 1.78125 -0.453125q0.8125 -0.328125 1.28125 -0.859375q0.46875 -0.53125 0.46875 -1.359375q0 -0.96875 -0.859375 -1.578125q-0.859375 -0.609375 -2.59375 -1.046875q-1.71875 -0.4375 -3.796875 -0.859375q-2.0625 -0.4375 -4.03125 -1.1875q-1.96875 -0.765625 -3.34375 -2.265625q-1.359375 -1.5 -1.359375 -4.09375q0 -3.765625 2.703125 -5.8125q2.703125 -2.0625 7.703125 -2.0625q3.40625 0 5.625 1.09375q2.21875 1.09375 3.390625 2.859375q1.171875 1.75 1.5 4.875l-5.640625 0q-0.234375 -2.03125 -1.265625 -2.890625q-1.03125 -0.859375 -3.703125 -0.859375q-4.71875 0 -4.71875 2.453125q0 0.90625 0.859375 1.484375q0.859375 0.578125 2.578125 1.015625q1.734375 0.421875 3.8125 0.828125q2.078125 0.40625 4.046875 1.1875q1.984375 0.78125 3.328125 2.34375q1.359375 1.546875 1.359375 4.1875q0 4.015625 -3.015625 6.109375q-3.0 2.09375 -7.765625 2.09375zm23.136047 0q-3.546875 0 -6.0625 -1.21875q-2.5 -1.21875 -3.859375 -3.234375q-1.34375 -2.03125 -1.5625 -5.46875l5.703125 0q0.21875 1.859375 0.78125 2.78125q0.5625 0.90625 1.765625 1.484375q1.203125 0.578125 3.28125 0.578125q0.65625 0 1.609375 -0.125q0.96875 -0.125 1.78125 -0.453125q0.8125 -0.328125 1.28125 -0.859375q0.46875 -0.53125 0.46875 -1.359375q0 -0.96875 -0.859375 -1.578125q-0.859375 -0.609375 -2.59375 -1.046875q-1.71875 -0.4375 -3.796875 -0.859375q-2.0625 -0.4375 -4.03125 -1.1875q-1.96875 -0.765625 -3.34375 -2.265625q-1.359375 -1.5 -1.359375 -4.09375q0 -3.765625 2.703125 -5.8125q2.703125 -2.0625 7.703125 -2.0625q3.40625 0 5.625 1.09375q2.21875 1.09375 3.390625 2.859375q1.171875 1.75 1.5 4.875l-5.640625 0q-0.234375 -2.03125 -1.265625 -2.890625q-1.03125 -0.859375 -3.703125 -0.859375q-4.71875 0 -4.71875 2.453125q0 0.90625 0.859375 1.484375q0.859375 0.578125 2.578125 1.015625q1.734375 0.421875 3.8125 0.828125q2.078125 0.40625 4.046875 1.1875q1.984375 0.78125 3.328125 2.34375q1.3593674 1.546875 1.3593674 4.1875q0 4.015625 -3.0156174 6.109375q-3.0 2.09375 -7.765625 2.09375zm26.219429 -0.390625l0 -20.828125l-4.90625 0l0 -5.171875l4.90625 0l0 -8.59375l5.59375 0l0 8.59375l5.515625 0l0 5.171875l-5.515625 0l0 20.828125l-5.59375 0zm12.8980255 -28.03125l0 -6.703125l5.890625 0l0 6.703125l-5.890625 0zm0.15625 28.03125l0 -26.0l5.59375 0l0 26.0l-5.59375 0zm9.840027 0l0 -26.0l5.59375 0l-0.5625 2.984375q-0.390625 -0.46875 1.609375 -1.921875q2.0 -1.453125 5.25 -1.453125q2.6875 0 4.96875 1.421875q2.28125 1.421875 2.6875 3.359375q-0.359375 -0.34375 0.765625 -1.59375q1.125 -1.25 2.984375 -2.21875q1.875 -0.96875 4.484375 -0.96875q2.578125 0 4.8125 1.34375q2.25 1.34375 3.65625 3.8125q1.40625 2.453125 1.40625 5.734375l0 15.5l-5.59375 0l0 -15.40625q0 -2.625 -1.421875 -4.171875q-1.421875 -1.546875 -3.53125 -1.546875q-2.25 0 -3.875 1.5q-1.609375 1.5 -1.609375 4.265625l0 15.359375l-5.59375 0l0 -15.40625q0 -2.625 -1.421875 -4.171875q-1.421875 -1.546875 -3.53125 -1.546875q-2.25 0 -3.875 1.5q-1.609375 1.5 -1.609375 4.265625l0 15.359375l-5.59375 0zm53.320328 0.390625q-3.9375 0 -6.90625 -1.796875q-2.96875 -1.796875 -4.609375 -4.859375q-1.640625 -3.078125 -1.640625 -6.734375q0 -3.6875 1.5625 -6.734375q1.5625 -3.046875 4.484375 -4.84375q2.9375 -1.8125 6.859375 -1.8125q3.984375 0 6.890625 1.8125q2.90625 1.796875 4.453125 4.84375q1.5625 3.046875 1.5625 6.734375l0 2.4375l-19.96875 0q0.109375 0.765625 1.0625 2.328125q0.96875 1.546875 2.5625 2.453125q1.59375 0.90625 3.734375 0.90625q2.25 0 3.734375 -0.984375q1.5 -0.984375 2.625 -3.046875l6.0 0q-1.890625 4.828125 -4.859375 7.0625q-2.953125 2.234375 -7.546875 2.234375zm-7.21875 -16.3125l13.96875 0q-0.25 -1.578125 -2.109375 -3.390625q-1.84375 -1.8125 -4.890625 -1.8125q-3.046875 0 -4.875 1.8125q-1.8125 1.8125 -2.09375 3.390625zm32.522568 15.921875l0 -35.59375l5.59375 0l0 35.59375l-5.59375 0zm21.246277 0.390625q-3.921875 0 -6.859375 -1.796875q-2.921875 -1.8125 -4.484375 -4.875q-1.5625 -3.078125 -1.5625 -6.71875q0 -3.6875 1.5625 -6.734375q1.5625 -3.046875 4.484375 -4.84375q2.9375 -1.8125 6.859375 -1.8125q3.984375 0 6.890625 1.8125q2.90625 1.796875 4.453125 4.84375q1.5625 3.046875 1.5625 6.734375q0 3.640625 -1.5625 6.71875q-1.546875 3.0625 -4.453125 4.875q-2.90625 1.796875 -6.890625 1.796875zm0 -5.265625q2.375 0 3.984375 -1.078125q1.609375 -1.09375 2.46875 -2.953125q0.859375 -1.859375 0.859375 -4.09375q0 -2.28125 -0.859375 -4.109375q-0.859375 -1.84375 -2.46875 -2.921875q-1.609375 -1.09375 -3.984375 -1.09375q-2.34375 0 -3.96875 1.09375q-1.625 1.078125 -2.484375 2.921875q-0.84375 1.828125 -0.84375 4.109375q0 2.234375 0.859375 4.09375q0.859375 1.859375 2.46875 2.953125q1.625 1.078125 3.96875 1.078125zm27.072052 5.265625q-3.921875 0 -6.859375 -1.796875q-2.921875 -1.8125 -4.484375 -4.875q-1.5625 -3.078125 -1.5625 -6.71875q0 -3.6875 1.5625 -6.734375q1.5625 -3.046875 4.484375 -4.84375q2.9375 -1.8125 6.859375 -1.8125q3.984375 0 6.890625 1.8125q2.90625 1.796875 4.453125 4.84375q1.5625 3.046875 1.5625 6.734375q0 3.640625 -1.5625 6.71875q-1.546875 3.0625 -4.453125 4.875q-2.90625 1.796875 -6.890625 1.796875zm0 -5.265625q2.375 0 3.984375 -1.078125q1.609375 -1.09375 2.46875 -2.953125q0.859375 -1.859375 0.859375 -4.09375q0 -2.28125 -0.859375 -4.109375q-0.859375 -1.84375 -2.46875 -2.921875q-1.609375 -1.09375 -3.984375 -1.09375q-2.34375 0 -3.96875 1.09375q-1.625 1.078125 -2.484375 2.921875q-0.84375 1.828125 -0.84375 4.109375q0 2.234375 0.859375 4.09375q0.859375 1.859375 2.46875 2.953125q1.625 1.078125 3.96875 1.078125zm15.665802 4.875l0 -35.59375l5.59375 0l0 20.03125l10.140625 -10.4375l7.921875 0l-10.78125 10.5625l10.984375 15.4375l-6.875 0l-8.015625 -11.5l-3.375 3.34375l0 8.15625l-5.59375 0zm23.93982 -28.03125l0 -6.703125l5.890625 0l0 6.703125l-5.890625 0zm0.15625 28.03125l0 -26.0l5.59375 0l0 26.0l-5.59375 0zm9.840027 0l0 -26.0l5.59375 0l-0.28125 2.578125q-0.109375 -0.3125 1.953125 -1.640625q2.078125 -1.328125 5.296875 -1.328125q2.75 0 5.15625 1.3125q2.421875 1.296875 3.921875 3.875q1.515625 2.5625 1.515625 6.234375l0 14.96875l-5.59375 0l0 -14.875q0 -2.875 -1.59375 -4.5625q-1.59375 -1.6875 -4.125 -1.6875q-1.75 0 -3.15625 0.78125q-1.40625 0.78125 -2.25 2.21875q-0.84375 1.421875 -0.84375 3.296875l0 14.828125l-5.59375 0zm39.152435 9.890625q-4.828125 0 -7.921875 -2.140625q-3.09375 -2.125 -4.640625 -6.875l6.03125 0q0.84375 2.078125 2.359375 2.90625q1.515625 0.84375 3.984375 0.84375q3.703125 0 5.3125 -1.65625q1.609375 -1.640625 1.609375 -4.921875l0.265625 -0.984375q0.078125 0.34375 -2.28125 1.640625q-2.359375 1.296875 -5.578125 1.296875q-3.78125 0 -6.640625 -1.75q-2.859375 -1.765625 -4.421875 -4.765625q-1.5625 -3.015625 -1.5625 -6.671875q0 -3.703125 1.5625 -6.6875q1.5625 -3.0 4.421875 -4.75q2.859375 -1.765625 6.640625 -1.765625q3.21875 0 5.578125 1.25q2.359375 1.25 2.28125 1.59375l-0.265625 -2.453125l5.59375 0l0 24.28125q0 5.578125 -3.265625 8.59375q-3.25 3.015625 -9.0625 3.015625zm-0.375 -15.15625q2.34375 0 3.9375 -1.03125q1.609375 -1.046875 2.484375 -2.859375q0.875 -1.828125 0.875 -4.03125q0 -2.265625 -0.875 -4.046875q-0.875 -1.796875 -2.484375 -2.84375q-1.59375 -1.046875 -3.9375 -1.046875q-2.359375 0 -4.046875 1.0625q-1.671875 1.046875 -2.5625 2.828125q-0.890625 1.78125 -0.890625 4.046875q0 2.203125 0.890625 4.015625q0.890625 1.8125 2.5625 2.859375q1.6875 1.046875 4.046875 1.046875zm24.716309 -3.515625q0 -3.59375 0.90625 -5.421875q0.90625 -1.84375 2.15625 -3.109375q1.265625 -1.28125 2.40625 -2.375q1.140625 -1.109375 1.84375 -2.203125q0.703125 -1.109375 0.703125 -2.578125q0 -1.0 -0.453125 -2.0q-0.4375 -1.015625 -1.53125 -1.6875q-1.078125 -0.6875 -3.15625 -0.6875q-2.078125 0 -3.46875 0.78125q-1.375 0.765625 -2.140625 2.046875q-0.75 1.28125 -0.953125 3.640625l-5.375 0q0.203125 -3.9375 1.640625 -6.375q1.453125 -2.453125 4.015625 -3.921875q2.5625 -1.484375 6.0 -1.484375q3.71875 0 6.140625 1.421875q2.4375 1.40625 3.5625 3.640625q1.125 2.234375 1.125 4.625q0 2.5 -0.890625 4.1875q-0.875 1.6875 -2.109375 2.921875q-1.234375 1.234375 -2.390625 2.296875q-1.140625 1.0625 -1.828125 2.296875q-0.6875 1.234375 -0.6875 3.984375l-5.515625 0zm-0.578125 8.78125l0 -6.890625l6.65625 0l0 6.890625l-6.65625 0z" fill-rule="nonzero"/></g></svg>