<svg version="1.1" viewBox="0.0 0.0 960.0 540.0" fill="none" stroke="none" stroke-linecap="square" stroke-miterlimit="10" xmlns:xlink="http://www.w3.org/1999/xlink" xmlns="http://www.w3.org/2000/svg"><clipPath id="g6c07738f61_0_1187.0"><path d="m0 0l960.0 0l0 540.0l-960.0 0l0 -540.0z" clip-rule="nonzero"/></clipPath><g clip-path="url(#g6c07738f61_0_1187.0)"><path fill="#1329fe" d="m0 0l960.0 0l0 540.0l-960.0 0z" fill-rule="evenodd"/><path fill="#ffffff" d="m430.69818 193.68088l0 0c0 -1.8525543 1.5018005 -3.3543243 3.3543396 -3.3543243l0 0c0.8896179 0 1.7427979 0.35339355 2.3718567 0.9824524c0.62905884 0.62905884 0.9824829 1.482254 0.9824829 2.371872l0 0c0 1.8525391 -1.5018005 3.3543243 -3.3543396 3.3543243l0 0c-1.8525391 0 -3.3543396 -1.5017853 -3.3543396 -3.3543243z" fill-rule="evenodd"/><path fill="#eeeeee" d="m336.2848 275.18088l0 0c0 -1.8525391 1.5018005 -3.3543396 3.3543396 -3.3543396l0 0c0.8896179 0 1.7427979 0.35339355 2.3718567 0.9824524c0.62905884 0.62905884 0.9824829 1.4822693 0.9824829 2.3718872l0 0c0 1.8525391 -1.5018005 3.354309 -3.3543396 3.354309l0 0c-1.8525391 0 -3.3543396 -1.50177 -3.3543396 -3.354309z" fill-rule="evenodd"/><path fill="#ffffff" d="m604.36176 333.0748l0 0c0 -1.8525696 1.501831 -3.3543396 3.35437 -3.3543396l0 0c0.8895874 0 1.7427979 0.35339355 2.3718262 0.9824524c0.62908936 0.62905884 0.9824829 1.4822388 0.9824829 2.3718872l0 0c0 1.8525391 -1.50177 3.354309 -3.354309 3.354309l0 0c-1.8525391 0 -3.35437 -1.50177 -3.35437 -3.354309z" fill-rule="evenodd"/><path fill="#000000" fill-opacity="0.0" d="m275.7874 459.65353l179.18109 0l0 30.897644l-179.18109 0z" fill-rule="evenodd"/><path fill="#ffffff" d="m293.45218 484.9557l0 -8.4375l1.40625 0l0 7.078125l4.328125 0l0 1.359375l-5.734375 0zm8.935913 0.09375q-1.0 0 -1.734375 -0.453125q-0.71875 -0.453125 -1.109375 -1.203125q-0.390625 -0.765625 -0.390625 -1.6875q0 -0.921875 0.390625 -1.671875q0.390625 -0.765625 1.109375 -1.21875q0.734375 -0.453125 1.734375 -0.453125q1.0 0 1.71875 0.453125q0.71875 0.453125 1.109375 1.21875q0.390625 0.75 0.390625 1.671875q0 0.921875 -0.390625 1.6875q-0.390625 0.75 -1.109375 1.203125q-0.71875 0.453125 -1.71875 0.453125zm0 -1.3125q0.59375 0 0.984375 -0.265625q0.40625 -0.28125 0.609375 -0.734375q0.21875 -0.46875 0.21875 -1.03125q0 -0.578125 -0.21875 -1.03125q-0.203125 -0.453125 -0.609375 -0.71875q-0.390625 -0.28125 -0.984375 -0.28125q-0.59375 0 -1.0 0.28125q-0.40625 0.265625 -0.625 0.71875q-0.203125 0.453125 -0.203125 1.03125q0 0.5625 0.203125 1.03125q0.21875 0.453125 0.625 0.734375q0.40625 0.265625 1.0 0.265625zm6.6899414 1.3125q-0.953125 0 -1.671875 -0.453125q-0.703125 -0.453125 -1.09375 -1.203125q-0.390625 -0.765625 -0.390625 -1.6875q0 -0.921875 0.390625 -1.671875q0.390625 -0.765625 1.09375 -1.21875q0.71875 -0.453125 1.671875 -0.453125q0.8125 0 1.390625 0.328125q0.59375 0.3125 0.578125 0.40625l-0.078125 -0.640625l1.40625 0l0 6.5l-1.40625 0l0.0625 -0.625q0.03125 0.078125 -0.5625 0.40625q-0.578125 0.3125 -1.390625 0.3125zm0.125 -1.3125q0.59375 0 0.984375 -0.265625q0.40625 -0.28125 0.625 -0.75q0.21875 -0.46875 0.21875 -1.015625q0 -0.5625 -0.21875 -1.015625q-0.21875 -0.46875 -0.625 -0.734375q-0.390625 -0.28125 -0.984375 -0.28125q-0.59375 0 -1.015625 0.28125q-0.421875 0.265625 -0.640625 0.734375q-0.21875 0.453125 -0.21875 1.015625q0 0.546875 0.21875 1.015625q0.234375 0.46875 0.640625 0.75q0.421875 0.265625 1.015625 0.265625zm7.015045 1.3125q-0.953125 0 -1.671875 -0.453125q-0.703125 -0.453125 -1.09375 -1.203125q-0.390625 -0.765625 -0.390625 -1.6875q0 -0.921875 0.390625 -1.671875q0.390625 -0.765625 1.09375 -1.21875q0.71875 -0.453125 1.671875 -0.453125q0.8125 0 1.390625 0.328125q0.59375 0.3125 0.578125 0.40625l-0.078125 -3.046875l1.40625 0l0 8.90625l-1.40625 0l0.0625 -0.625q0.03125 0.078125 -0.5625 0.40625q-0.578125 0.3125 -1.390625 0.3125zm0.125 -1.3125q0.59375 0 0.984375 -0.265625q0.40625 -0.28125 0.625 -0.75q0.21875 -0.46875 0.21875 -1.015625q0 -0.5625 -0.21875 -1.015625q-0.21875 -0.46875 -0.625 -0.734375q-0.390625 -0.28125 -0.984375 -0.28125q-0.59375 0 -1.015625 0.28125q-0.421875 0.265625 -0.640625 0.734375q-0.21875 0.453125 -0.21875 1.015625q0 0.546875 0.21875 1.015625q0.234375 0.46875 0.640625 0.75q0.421875 0.265625 1.015625 0.265625zm6.671295 1.3125q-0.890625 0 -1.515625 -0.296875q-0.625 -0.296875 -0.96875 -0.8125q-0.34375 -0.515625 -0.390625 -1.375l1.421875 0q0.0625 0.484375 0.203125 0.71875q0.140625 0.21875 0.4375 0.359375q0.3125 0.140625 0.8125 0.140625q0.171875 0 0.40625 -0.03125q0.25 -0.046875 0.453125 -0.125q0.203125 -0.078125 0.3125 -0.203125q0.125 -0.125 0.125 -0.34375q0 -0.234375 -0.21875 -0.390625q-0.21875 -0.15625 -0.65625 -0.25q-0.421875 -0.109375 -0.953125 -0.21875q-0.515625 -0.125 -1.0 -0.296875q-0.484375 -0.1875 -0.828125 -0.5625q-0.34375 -0.390625 -0.34375 -1.03125q0 -0.953125 0.671875 -1.453125q0.6875 -0.515625 1.9375 -0.515625q0.84375 0 1.390625 0.265625q0.5625 0.265625 0.859375 0.703125q0.296875 0.4375 0.375 1.234375l-1.40625 0q-0.0625 -0.515625 -0.328125 -0.71875q-0.265625 -0.21875 -0.921875 -0.21875q-1.171875 0 -1.171875 0.609375q0 0.234375 0.203125 0.375q0.21875 0.140625 0.65625 0.25q0.4375 0.109375 0.953125 0.21875q0.515625 0.109375 1.015625 0.3125q0.5 0.1875 0.828125 0.578125q0.328125 0.375 0.328125 1.03125q0 1.0 -0.75 1.53125q-0.75 0.515625 -1.9375 0.515625zm8.683807 0q-0.953125 0 -1.671875 -0.453125q-0.703125 -0.453125 -1.09375 -1.203125q-0.390625 -0.765625 -0.390625 -1.6875q0 -0.921875 0.390625 -1.671875q0.390625 -0.765625 1.09375 -1.21875q0.71875 -0.453125 1.671875 -0.453125q0.8125 0 1.390625 0.328125q0.59375 0.3125 0.578125 0.40625l-0.078125 -3.046875l1.40625 0l0 8.90625l-1.40625 0l0.0625 -0.625q0.03125 0.078125 -0.5625 0.40625q-0.578125 0.3125 -1.390625 0.3125zm0.125 -1.3125q0.59375 0 0.984375 -0.265625q0.40625 -0.28125 0.625 -0.75q0.21875 -0.46875 0.21875 -1.015625q0 -0.5625 -0.21875 -1.015625q-0.21875 -0.46875 -0.625 -0.734375q-0.390625 -0.28125 -0.984375 -0.28125q-0.59375 0 -1.015625 0.28125q-0.421875 0.265625 -0.640625 0.734375q-0.21875 0.453125 -0.21875 1.015625q0 0.546875 0.21875 1.015625q0.234375 0.46875 0.640625 0.75q0.421875 0.265625 1.015625 0.265625zm4.233795 1.21875l0 -6.5l1.40625 0l-0.25 1.71875q-0.1875 -0.25 -0.046875 -0.53125q0.15625 -0.296875 0.453125 -0.578125q0.296875 -0.28125 0.734375 -0.484375q0.453125 -0.21875 1.0625 -0.21875l0.3125 0l0 1.390625l-0.359375 0q-0.59375 0 -1.015625 0.328125q-0.421875 0.3125 -0.65625 0.84375q-0.234375 0.53125 -0.234375 1.140625l0 2.890625l-1.40625 0zm4.1087646 -7.015625l0 -1.671875l1.46875 0l0 1.671875l-1.46875 0zm0.03125 7.015625l0 -6.5l1.40625 0l0 6.5l-1.40625 0zm4.163147 0l-2.53125 -6.5l1.515625 0l1.71875 4.578125l1.71875 -4.578125l1.515625 0l-2.53125 6.5l-1.40625 0zm6.951172 0.09375q-0.96875 0 -1.71875 -0.453125q-0.75 -0.453125 -1.15625 -1.203125q-0.40625 -0.765625 -0.40625 -1.6875q0 -0.921875 0.390625 -1.671875q0.390625 -0.765625 1.109375 -1.21875q0.734375 -0.453125 1.734375 -0.453125q1.0 0 1.71875 0.453125q0.71875 0.453125 1.109375 1.21875q0.390625 0.75 0.390625 1.671875l0 0.609375l-4.984375 0q0.015625 0.1875 0.25 0.578125q0.234375 0.390625 0.640625 0.625q0.40625 0.21875 0.9375 0.21875q0.5625 0 0.9375 -0.234375q0.375 -0.25 0.671875 -0.78125l1.484375 0q-0.46875 1.21875 -1.21875 1.78125q-0.734375 0.546875 -1.890625 0.546875zm-1.796875 -4.078125l3.484375 0q-0.0625 -0.390625 -0.53125 -0.84375q-0.453125 -0.453125 -1.203125 -0.453125q-0.765625 0 -1.234375 0.453125q-0.453125 0.453125 -0.515625 0.84375zm5.5746765 3.984375l0 -6.5l1.40625 0l-0.25 1.71875q-0.1875 -0.25 -0.046875 -0.53125q0.15625 -0.296875 0.453125 -0.578125q0.296875 -0.28125 0.734375 -0.484375q0.453125 -0.21875 1.0625 -0.21875l0.3125 0l0 1.390625l-0.359375 0q-0.59375 0 -1.015625 0.328125q-0.421875 0.3125 -0.65625 0.84375q-0.234375 0.53125 -0.234375 1.140625l0 2.890625l-1.40625 0zm6.577545 0.09375q-0.890625 0 -1.515625 -0.296875q-0.625 -0.296875 -0.96875 -0.8125q-0.34375 -0.515625 -0.390625 -1.375l1.421875 0q0.0625 0.484375 0.203125 0.71875q0.140625 0.21875 0.4375 0.359375q0.3125 0.140625 0.8125 0.140625q0.171875 0 0.40625 -0.03125q0.25 -0.046875 0.453125 -0.125q0.203125 -0.078125 0.3125 -0.203125q0.125 -0.125 0.125 -0.34375q0 -0.234375 -0.21875 -0.390625q-0.21875 -0.15625 -0.65625 -0.25q-0.421875 -0.109375 -0.953125 -0.21875q-0.515625 -0.125 -1.0 -0.296875q-0.484375 -0.1875 -0.828125 -0.5625q-0.34375 -0.390625 -0.34375 -1.03125q0 -0.953125 0.671875 -1.453125q0.6875 -0.515625 1.9375 -0.515625q0.84375 0 1.390625 0.265625q0.5625 0.265625 0.859375 0.703125q0.296875 0.4375 0.375 1.234375l-1.40625 0q-0.0625 -0.515625 -0.328125 -0.71875q-0.265625 -0.21875 -0.921875 -0.21875q-1.171875 0 -1.171875 0.609375q0 0.234375 0.203125 0.375q0.21875 0.140625 0.65625 0.25q0.4375 0.109375 0.953125 0.21875q0.515625 0.109375 1.015625 0.3125q0.5 0.1875 0.828125 0.578125q0.328125 0.375 0.328125 1.03125q0 1.0 -0.75 1.53125q-0.75 0.515625 -1.9375 0.515625zm8.683807 0q-0.953125 0 -1.671875 -0.453125q-0.703125 -0.453125 -1.09375 -1.203125q-0.390625 -0.765625 -0.390625 -1.6875q0 -0.921875 0.390625 -1.671875q0.390625 -0.765625 1.09375 -1.21875q0.71875 -0.453125 1.671875 -0.453125q0.8125 0 1.390625 0.328125q0.59375 0.3125 0.578125 0.40625l-0.078125 -0.640625l1.40625 0l0 6.5l-1.40625 0l0.0625 -0.625q0.03125 0.078125 -0.5625 0.40625q-0.578125 0.3125 -1.390625 0.3125zm0.125 -1.3125q0.59375 0 0.984375 -0.265625q0.40625 -0.28125 0.625 -0.75q0.21875 -0.46875 0.21875 -1.015625q0 -0.5625 -0.21875 -1.015625q-0.21875 -0.46875 -0.625 -0.734375q-0.390625 -0.28125 -0.984375 -0.28125q-0.59375 0 -1.015625 0.28125q-0.421875 0.265625 -0.640625 0.734375q-0.21875 0.453125 -0.21875 1.015625q0 0.546875 0.21875 1.015625q0.234375 0.46875 0.640625 0.75q0.421875 0.265625 1.015625 0.265625zm7.06192 1.3125q-0.984375 0 -1.703125 -0.453125q-0.703125 -0.453125 -1.109375 -1.203125q-0.390625 -0.765625 -0.390625 -1.6875q0 -0.921875 0.390625 -1.671875q0.40625 -0.765625 1.109375 -1.21875q0.71875 -0.453125 1.703125 -0.453125q1.140625 0 1.953125 0.609375q0.828125 0.59375 1.21875 1.875l-1.484375 0q-0.234375 -0.609375 -0.625 -0.890625q-0.390625 -0.28125 -0.9375 -0.28125q-0.59375 0 -1.03125 0.28125q-0.421875 0.265625 -0.65625 0.734375q-0.234375 0.453125 -0.234375 1.015625q0 0.546875 0.234375 1.015625q0.234375 0.46875 0.65625 0.75q0.4375 0.265625 1.03125 0.265625q0.546875 0 0.9375 -0.28125q0.390625 -0.28125 0.625 -0.890625l1.484375 0q-0.390625 1.28125 -1.21875 1.890625q-0.8125 0.59375 -1.953125 0.59375zm4.3405457 -0.09375l0 -5.203125l-1.21875 0l0 -1.296875l1.21875 0l0 -2.140625l1.40625 0l0 2.140625l1.375 0l0 1.296875l-1.375 0l0 5.203125l-1.40625 0zm5.865143 0.09375q-0.671875 0 -1.28125 -0.3125q-0.609375 -0.328125 -1.0 -0.96875q-0.375 -0.65625 -0.375 -1.578125l0 -3.734375l1.40625 0l0 3.71875q0 0.71875 0.390625 1.140625q0.40625 0.421875 1.03125 0.421875q0.4375 0 0.78125 -0.203125q0.359375 -0.203125 0.5625 -0.546875q0.21875 -0.34375 0.21875 -0.828125l0 -3.703125l1.40625 0l0 6.5l-1.40625 0l0.0625 -0.640625q0.03125 0.078125 -0.484375 0.40625q-0.5 0.328125 -1.3125 0.328125zm6.979553 0q-0.953125 0 -1.671875 -0.453125q-0.703125 -0.453125 -1.09375 -1.203125q-0.390625 -0.765625 -0.390625 -1.6875q0 -0.921875 0.390625 -1.671875q0.390625 -0.765625 1.09375 -1.21875q0.71875 -0.453125 1.671875 -0.453125q0.8125 0 1.390625 0.328125q0.59375 0.3125 0.578125 0.40625l-0.078125 -0.640625l1.40625 0l0 6.5l-1.40625 0l0.0625 -0.625q0.03125 0.078125 -0.5625 0.40625q-0.578125 0.3125 -1.390625 0.3125zm0.125 -1.3125q0.59375 0 0.984375 -0.265625q0.40625 -0.28125 0.625 -0.75q0.21875 -0.46875 0.21875 -1.015625q0 -0.5625 -0.21875 -1.015625q-0.21875 -0.46875 -0.625 -0.734375q-0.390625 -0.28125 -0.984375 -0.28125q-0.59375 0 -1.015625 0.28125q-0.421875 0.265625 -0.640625 0.734375q-0.21875 0.453125 -0.21875 1.015625q0 0.546875 0.21875 1.015625q0.234375 0.46875 0.640625 0.75q0.421875 0.265625 1.015625 0.265625zm4.233795 1.21875l0 -8.90625l1.40625 0l0 8.90625l-1.40625 0zm2.460022 0l0 -8.90625l1.40625 0l0 8.90625l-1.40625 0zm2.9444275 2.375l1.21875 -2.703125l-2.5625305 -6.171875l1.5469055 0l1.75 4.484375l1.796875 -4.484375l1.53125 0l-3.75 8.875l-1.53125 0zm9.254425 -2.375l-2.03125 -6.5l1.484375 0l1.25 4.28125l1.34375 -4.28125l1.359375 0l1.328125 4.28125l1.265625 -4.28125l1.484375 0l-2.03125 6.5l-1.421875 0l-1.3125 -4.203125l-1.3125 4.203125l-1.40625 0zm10.394562 0.09375q-0.953125 0 -1.671875 -0.453125q-0.703125 -0.453125 -1.09375 -1.203125q-0.390625 -0.765625 -0.390625 -1.6875q0 -0.921875 0.390625 -1.671875q0.390625 -0.765625 1.09375 -1.21875q0.71875 -0.453125 1.671875 -0.453125q0.8125 0 1.390625 0.328125q0.59375 0.3125 0.578125 0.40625l-0.078125 -0.640625l1.40625 0l0 6.5l-1.40625 0l0.0625 -0.625q0.03125 0.078125 -0.5625 0.40625q-0.578125 0.3125 -1.390625 0.3125zm0.125 -1.3125q0.59375 0 0.984375 -0.265625q0.40625 -0.28125 0.625 -0.75q0.21875 -0.46875 0.21875 -1.015625q0 -0.5625 -0.21875 -1.015625q-0.21875 -0.46875 -0.625 -0.734375q-0.390625 -0.28125 -0.984375 -0.28125q-0.59375 0 -1.015625 0.28125q-0.421875 0.265625 -0.640625 0.734375q-0.21875 0.453125 -0.21875 1.015625q0 0.546875 0.21875 1.015625q0.234375 0.46875 0.640625 0.75q0.421875 0.265625 1.015625 0.265625zm4.233795 1.21875l0 -6.5l1.40625 0l-0.078125 0.65625q-0.03125 -0.09375 0.484375 -0.421875q0.515625 -0.328125 1.328125 -0.328125q0.6875 0 1.28125 0.328125q0.609375 0.3125 0.984375 0.96875q0.390625 0.640625 0.390625 1.5625l0 3.734375l-1.40625 0l0 -3.71875q0 -0.71875 -0.40625 -1.140625q-0.390625 -0.421875 -1.03125 -0.421875q-0.4375 0 -0.78125 0.203125q-0.34375 0.1875 -0.5625 0.546875q-0.203125 0.34375 -0.203125 0.828125l0 3.703125l-1.40625 0zm7.288666 0l0 -5.203125l-1.21875 0l0 -1.296875l1.21875 0l0 -2.140625l1.40625 0l0 2.140625l1.375 0l0 1.296875l-1.375 0l0 5.203125l-1.40625 0z" fill-rule="nonzero"/><path fill="#000000" fill-opacity="0.0" d="m465.25723 460.5328l179.18106 0l0 30.897644l-179.18106 0z" fill-rule="evenodd"/><path fill="#ffffff" d="m514.4337 485.83496l3.578125 -8.4375l1.46875 0l3.578125 8.4375l-1.546875 0l-0.96875 -2.296875l-3.59375 0l-0.96875 2.296875l-1.546875 0zm3.078125 -3.625l2.484375 0l-1.25 -2.984375l-1.234375 2.984375zm7.0600586 3.625l-2.53125 -6.5l1.515625 0l1.71875 4.578125l1.71875 -4.578125l1.515625 0l-2.53125 6.5l-1.40625 0zm6.826172 0.09375q-0.953125 0 -1.671875 -0.453125q-0.703125 -0.453125 -1.09375 -1.203125q-0.390625 -0.765625 -0.390625 -1.6875q0 -0.921875 0.390625 -1.671875q0.390625 -0.765625 1.09375 -1.21875q0.71875 -0.453125 1.671875 -0.453125q0.8125 0 1.390625 0.328125q0.59375 0.3125 0.578125 0.40625l-0.078125 -0.640625l1.40625 0l0 6.5l-1.40625 0l0.0625 -0.625q0.03125 0.078125 -0.5625 0.40625q-0.578125 0.3125 -1.390625 0.3125zm0.125 -1.3125q0.59375 0 0.984375 -0.265625q0.40625 -0.28125 0.625 -0.75q0.21875 -0.46875 0.21875 -1.015625q0 -0.5625 -0.21875 -1.015625q-0.21875 -0.46875 -0.625 -0.734375q-0.390625 -0.28125 -0.984375 -0.28125q-0.59375 0 -1.015625 0.28125q-0.421875 0.265625 -0.640625 0.734375q-0.21875 0.453125 -0.21875 1.015625q0 0.546875 0.21875 1.015625q0.234375 0.46875 0.640625 0.75q0.421875 0.265625 1.015625 0.265625zm4.2025757 -5.796875l0 -1.671875l1.46875 0l0 1.671875l-1.46875 0zm0.03125 7.015625l0 -6.5l1.40625 0l0 6.5l-1.40625 0zm2.460022 0l0 -8.90625l1.40625 0l0 8.90625l-1.40625 0zm5.241272 0.09375q-0.953125 0 -1.671875 -0.453125q-0.703125 -0.453125 -1.09375 -1.203125q-0.390625 -0.765625 -0.390625 -1.6875q0 -0.921875 0.390625 -1.671875q0.390625 -0.765625 1.09375 -1.21875q0.71875 -0.453125 1.671875 -0.453125q0.8125 0 1.390625 0.328125q0.59375 0.3125 0.578125 0.40625l-0.078125 -0.640625l1.40625 0l0 6.5l-1.40625 0l0.0625 -0.625q0.03125 0.078125 -0.5625 0.40625q-0.578125 0.3125 -1.390625 0.3125zm0.125 -1.3125q0.59375 0 0.984375 -0.265625q0.40625 -0.28125 0.625 -0.75q0.21875 -0.46875 0.21875 -1.015625q0 -0.5625 -0.21875 -1.015625q-0.21875 -0.46875 -0.625 -0.734375q-0.390625 -0.28125 -0.984375 -0.28125q-0.59375 0 -1.015625 0.28125q-0.421875 0.265625 -0.640625 0.734375q-0.21875 0.453125 -0.21875 1.015625q0 0.546875 0.21875 1.015625q0.234375 0.46875 0.640625 0.75q0.421875 0.265625 1.015625 0.265625zm7.5306396 1.3125q-0.8125 0 -1.40625 -0.3125q-0.578125 -0.328125 -0.546875 -0.40625l0.0625 0.625l-1.40625 0l0 -8.90625l1.40625 0l-0.078125 3.046875q-0.015625 -0.09375 0.5625 -0.40625q0.59375 -0.328125 1.40625 -0.328125q0.953125 0 1.65625 0.453125q0.71875 0.453125 1.109375 1.21875q0.390625 0.75 0.390625 1.671875q0 0.921875 -0.390625 1.6875q-0.390625 0.75 -1.109375 1.203125q-0.703125 0.453125 -1.65625 0.453125zm-0.125 -1.3125q0.59375 0 1.0 -0.265625q0.421875 -0.28125 0.640625 -0.75q0.234375 -0.46875 0.234375 -1.015625q0 -0.5625 -0.21875 -1.015625q-0.21875 -0.46875 -0.640625 -0.734375q-0.421875 -0.28125 -1.015625 -0.28125q-0.578125 0 -0.984375 0.28125q-0.40625 0.265625 -0.625 0.734375q-0.21875 0.453125 -0.21875 1.015625q0 0.546875 0.21875 1.015625q0.21875 0.46875 0.625 0.75q0.40625 0.265625 0.984375 0.265625zm3.9682007 1.21875l0 -8.90625l1.40625 0l0 8.90625l-1.40625 0zm5.366272 0.09375q-0.96875 0 -1.71875 -0.453125q-0.75 -0.453125 -1.15625 -1.203125q-0.40625 -0.765625 -0.40625 -1.6875q0 -0.921875 0.390625 -1.671875q0.390625 -0.765625 1.109375 -1.21875q0.734375 -0.453125 1.734375 -0.453125q1.0 0 1.71875 0.453125q0.71875 0.453125 1.109375 1.21875q0.390625 0.75 0.390625 1.671875l0 0.609375l-4.984375 0q0.015625 0.1875 0.25 0.578125q0.234375 0.390625 0.640625 0.625q0.40625 0.21875 0.9375 0.21875q0.5625 0 0.9375 -0.234375q0.375 -0.25 0.671875 -0.78125l1.484375 0q-0.46875 1.21875 -1.21875 1.78125q-0.734375 0.546875 -1.890625 0.546875zm-1.796875 -4.078125l3.484375 0q-0.0625 -0.390625 -0.53125 -0.84375q-0.453125 -0.453125 -1.203125 -0.453125q-0.765625 0 -1.234375 0.453125q-0.453125 0.453125 -0.515625 0.84375zm8.130676 3.984375l0 -8.90625l1.40625 0l0 8.90625l-1.40625 0zm5.319397 0.09375q-1.0 0 -1.734375 -0.453125q-0.71875 -0.453125 -1.109375 -1.203125q-0.390625 -0.765625 -0.390625 -1.6875q0 -0.921875 0.390625 -1.671875q0.390625 -0.765625 1.109375 -1.21875q0.734375 -0.453125 1.734375 -0.453125q1.0 0 1.71875 0.453125q0.71875 0.453125 1.109375 1.21875q0.390625 0.75 0.390625 1.671875q0 0.921875 -0.390625 1.6875q-0.390625 0.75 -1.109375 1.203125q-0.71875 0.453125 -1.71875 0.453125zm0 -1.3125q0.59375 0 0.984375 -0.265625q0.40625 -0.28125 0.609375 -0.734375q0.21875 -0.46875 0.21875 -1.03125q0 -0.578125 -0.21875 -1.03125q-0.203125 -0.453125 -0.609375 -0.71875q-0.390625 -0.28125 -0.984375 -0.28125q-0.59375 0 -1.0 0.28125q-0.40625 0.265625 -0.625 0.71875q-0.203125 0.453125 -0.203125 1.03125q0 0.5625 0.203125 1.03125q0.21875 0.453125 0.625 0.734375q0.40625 0.265625 1.0 0.265625zm6.6899414 1.3125q-0.953125 0 -1.671875 -0.453125q-0.703125 -0.453125 -1.09375 -1.203125q-0.390625 -0.765625 -0.390625 -1.6875q0 -0.921875 0.390625 -1.671875q0.390625 -0.765625 1.09375 -1.21875q0.71875 -0.453125 1.671875 -0.453125q0.8125 0 1.390625 0.328125q0.59375 0.3125 0.578125 0.40625l-0.078125 -0.640625l1.40625 0l0 6.5l-1.40625 0l0.0625 -0.625q0.03125 0.078125 -0.5625 0.40625q-0.578125 0.3125 -1.390625 0.3125zm0.125 -1.3125q0.59375 0 0.984375 -0.265625q0.40625 -0.28125 0.625 -0.75q0.21875 -0.46875 0.21875 -1.015625q0 -0.5625 -0.21875 -1.015625q-0.21875 -0.46875 -0.625 -0.734375q-0.390625 -0.28125 -0.984375 -0.28125q-0.59375 0 -1.015625 0.28125q-0.421875 0.265625 -0.640625 0.734375q-0.21875 0.453125 -0.21875 1.015625q0 0.546875 0.21875 1.015625q0.234375 0.46875 0.640625 0.75q0.421875 0.265625 1.015625 0.265625zm7.0150146 1.3125q-0.953125 0 -1.671875 -0.453125q-0.703125 -0.453125 -1.09375 -1.203125q-0.390625 -0.765625 -0.390625 -1.6875q0 -0.921875 0.390625 -1.671875q0.390625 -0.765625 1.09375 -1.21875q0.71875 -0.453125 1.671875 -0.453125q0.8125 0 1.390625 0.328125q0.59375 0.3125 0.578125 0.40625l-0.078125 -3.046875l1.40625 0l0 8.90625l-1.40625 0l0.0625 -0.625q0.03125 0.078125 -0.5625 0.40625q-0.578125 0.3125 -1.390625 0.3125zm0.125 -1.3125q0.59375 0 0.984375 -0.265625q0.40625 -0.28125 0.625 -0.75q0.21875 -0.46875 0.21875 -1.015625q0 -0.5625 -0.21875 -1.015625q-0.21875 -0.46875 -0.625 -0.734375q-0.390625 -0.28125 -0.984375 -0.28125q-0.59375 0 -1.015625 0.28125q-0.421875 0.265625 -0.640625 0.734375q-0.21875 0.453125 -0.21875 1.015625q0 0.546875 0.21875 1.015625q0.234375 0.46875 0.640625 0.75q0.421875 0.265625 1.015625 0.265625zm6.6713257 1.3125q-0.890625 0 -1.515625 -0.296875q-0.625 -0.296875 -0.96875 -0.8125q-0.34375 -0.515625 -0.390625 -1.375l1.421875 0q0.0625 0.484375 0.203125 0.71875q0.140625 0.21875 0.4375 0.359375q0.3125 0.140625 0.8125 0.140625q0.171875 0 0.40625 -0.03125q0.25 -0.046875 0.453125 -0.125q0.203125 -0.078125 0.3125 -0.203125q0.125 -0.125 0.125 -0.34375q0 -0.234375 -0.21875 -0.390625q-0.21875 -0.15625 -0.65625 -0.25q-0.421875 -0.109375 -0.953125 -0.21875q-0.515625 -0.125 -1.0 -0.296875q-0.484375 -0.1875 -0.828125 -0.5625q-0.34375 -0.390625 -0.34375 -1.03125q0 -0.953125 0.671875 -1.453125q0.6875 -0.515625 1.9375 -0.515625q0.84375 0 1.390625 0.265625q0.5625 0.265625 0.859375 0.703125q0.296875 0.4375 0.375 1.234375l-1.40625 0q-0.0625 -0.515625 -0.328125 -0.71875q-0.265625 -0.21875 -0.921875 -0.21875q-1.171875 0 -1.171875 0.609375q0 0.234375 0.203125 0.375q0.21875 0.140625 0.65625 0.25q0.4375 0.109375 0.953125 0.21875q0.515625 0.109375 1.015625 0.3125q0.5 0.1875 0.828125 0.578125q0.328125 0.375 0.328125 1.03125q0 1.0 -0.75 1.53125q-0.75 0.515625 -1.9375 0.515625z" fill-rule="nonzero"/><path fill="#000000" fill-opacity="0.0" d="m320.2126 459.65353l93.7323 0" fill-rule="evenodd"/><path stroke="#ffffff" stroke-width="3.0" stroke-linejoin="round" stroke-linecap="butt" d="m320.2126 459.65353l93.7323 0" fill-rule="evenodd"/><path fill="#000000" fill-opacity="0.0" d="m507.98163 459.65353l93.7323 0" fill-rule="evenodd"/><path stroke="#ffffff" stroke-width="1.0" stroke-linejoin="round" stroke-linecap="butt" d="m507.98163 459.65353l93.7323 0" fill-rule="evenodd"/><path fill="#000000" fill-opacity="0.0" d="m561.7008 348.90552l92.031494 0l0 30.897644l-92.031494 0z" fill-rule="evenodd"/><path fill="#ffffff" d="m572.187 374.20767l0 -8.4375l3.59375 0q0.765625 0 1.46875 0.28125q0.703125 0.28125 1.25 0.84375q0.5625 0.546875 0.875 1.328125q0.3125 0.78125 0.3125 1.765625q0 0.984375 -0.3125 1.765625q-0.3125 0.765625 -0.875 1.328125q-0.546875 0.546875 -1.25 0.84375q-0.703125 0.28125 -1.46875 0.28125l-3.59375 0zm1.40625 -1.359375l2.15625 0q0.78125 0 1.34375 -0.390625q0.5625 -0.390625 0.875 -1.03125q0.3125 -0.65625 0.3125 -1.4375q0 -0.796875 -0.3125 -1.4375q-0.3125 -0.65625 -0.875 -1.046875q-0.5625 -0.390625 -1.34375 -0.390625l-2.15625 0l0 5.734375zm6.842285 1.359375l0 -6.5l1.40625 0l-0.25 1.71875q-0.1875 -0.25 -0.046875 -0.53125q0.15625 -0.296875 0.453125 -0.578125q0.296875 -0.28125 0.734375 -0.484375q0.453125 -0.21875 1.0625 -0.21875l0.3125 0l0 1.390625l-0.359375 0q-0.59375 0 -1.015625 0.328125q-0.421875 0.3125 -0.65625 0.84375q-0.234375 0.53125 -0.234375 1.140625l0 2.890625l-1.40625 0zm4.1088257 -7.015625l0 -1.671875l1.46875 0l0 1.671875l-1.46875 0zm0.03125 7.015625l0 -6.5l1.40625 0l0 6.5l-1.40625 0zm4.163147 0l-2.53125 -6.5l1.515625 0l1.71875 4.578125l1.71875 -4.578125l1.515625 0l-2.53125 6.5l-1.40625 0zm6.951172 0.09375q-0.96875 0 -1.71875 -0.453125q-0.75 -0.453125 -1.15625 -1.203125q-0.40625 -0.765625 -0.40625 -1.6875q0 -0.921875 0.390625 -1.671875q0.390625 -0.765625 1.109375 -1.21875q0.734375 -0.453125 1.734375 -0.453125q1.0 0 1.71875 0.453125q0.71875 0.453125 1.109375 1.21875q0.390625 0.75 0.390625 1.671875l0 0.609375l-4.984375 0q0.015625 0.1875 0.25 0.578125q0.234375 0.390625 0.640625 0.625q0.40625 0.21875 0.9375 0.21875q0.5625 0 0.9375 -0.234375q0.375 -0.25 0.671875 -0.78125l1.484375 0q-0.46875 1.21875 -1.21875 1.78125q-0.734375 0.546875 -1.890625 0.546875zm-1.796875 -4.078125l3.484375 0q-0.0625 -0.390625 -0.53125 -0.84375q-0.453125 -0.453125 -1.203125 -0.453125q-0.765625 0 -1.234375 0.453125q-0.453125 0.453125 -0.515625 0.84375zm5.574646 3.984375l0 -6.5l1.40625 0l-0.25 1.71875q-0.1875 -0.25 -0.046875 -0.53125q0.15625 -0.296875 0.453125 -0.578125q0.296875 -0.28125 0.734375 -0.484375q0.453125 -0.21875 1.0625 -0.21875l0.3125 0l0 1.390625l-0.359375 0q-0.59375 0 -1.015625 0.328125q-0.421875 0.3125 -0.65625 0.84375q-0.234375 0.53125 -0.234375 1.140625l0 2.890625l-1.40625 0zm6.3275146 -8.75l-1.25 3.046875l-1.3125 0l0.828125 -3.046875l1.734375 0zm2.6380615 8.84375q-0.890625 0 -1.515625 -0.296875q-0.625 -0.296875 -0.96875 -0.8125q-0.34375 -0.515625 -0.390625 -1.375l1.421875 0q0.0625 0.484375 0.203125 0.71875q0.140625 0.21875 0.4375 0.359375q0.3125 0.140625 0.8125 0.140625q0.171875 0 0.40625 -0.03125q0.25 -0.046875 0.453125 -0.125q0.203125 -0.078125 0.3125 -0.203125q0.125 -0.125 0.125 -0.34375q0 -0.234375 -0.21875 -0.390625q-0.21875 -0.15625 -0.65625 -0.25q-0.421875 -0.109375 -0.953125 -0.21875q-0.515625 -0.125 -1.0 -0.296875q-0.484375 -0.1875 -0.828125 -0.5625q-0.34375 -0.390625 -0.34375 -1.03125q0 -0.953125 0.671875 -1.453125q0.6875 -0.515625 1.9375 -0.515625q0.84375 0 1.390625 0.265625q0.5625 0.265625 0.859375 0.703125q0.296875 0.4375 0.375 1.234375l-1.40625 0q-0.0625 -0.515625 -0.328125 -0.71875q-0.265625 -0.21875 -0.921875 -0.21875q-1.171875 0 -1.171875 0.609375q0 0.234375 0.203125 0.375q0.21875 0.140625 0.65625 0.25q0.4375 0.109375 0.953125 0.21875q0.515625 0.109375 1.015625 0.3125q0.5 0.1875 0.828125 0.578125q0.328125 0.375 0.328125 1.03125q0 1.0 -0.75 1.53125q-0.75 0.515625 -1.9375 0.515625zm5.902527 -0.09375l0 -8.90625l1.40625 0l-0.078125 3.0625q-0.03125 -0.09375 0.484375 -0.421875q0.515625 -0.328125 1.328125 -0.328125q0.6875 0 1.28125 0.328125q0.609375 0.3125 0.984375 0.96875q0.390625 0.640625 0.390625 1.5625l0 3.734375l-1.40625 0l0 -3.71875q0 -0.71875 -0.40625 -1.140625q-0.390625 -0.421875 -1.03125 -0.421875q-0.4375 0 -0.78125 0.203125q-0.34375 0.1875 -0.5625 0.546875q-0.203125 0.34375 -0.203125 0.828125l0 3.703125l-1.40625 0zm9.651428 0.09375q-1.0 0 -1.734375 -0.453125q-0.71875 -0.453125 -1.109375 -1.203125q-0.390625 -0.765625 -0.390625 -1.6875q0 -0.921875 0.390625 -1.671875q0.390625 -0.765625 1.109375 -1.21875q0.734375 -0.453125 1.734375 -0.453125q1.0 0 1.71875 0.453125q0.71875 0.453125 1.109375 1.21875q0.390625 0.75 0.390625 1.671875q0 0.921875 -0.390625 1.6875q-0.390625 0.75 -1.109375 1.203125q-0.71875 0.453125 -1.71875 0.453125zm0 -1.3125q0.59375 0 0.984375 -0.265625q0.40625 -0.28125 0.609375 -0.734375q0.21875 -0.46875 0.21875 -1.03125q0 -0.578125 -0.21875 -1.03125q-0.203125 -0.453125 -0.609375 -0.71875q-0.390625 -0.28125 -0.984375 -0.28125q-0.59375 0 -1.0 0.28125q-0.40625 0.265625 -0.625 0.71875q-0.203125 0.453125 -0.203125 1.03125q0 0.5625 0.203125 1.03125q0.21875 0.453125 0.625 0.734375q0.40625 0.265625 1.0 0.265625zm3.9086914 1.21875l0 -6.5l1.40625 0l-0.140625 0.75q-0.09375 -0.125 0.390625 -0.484375q0.5 -0.359375 1.3125 -0.359375q0.6875 0 1.25 0.359375q0.5625 0.359375 0.671875 0.828125q-0.09375 -0.09375 0.1875 -0.390625q0.28125 -0.3125 0.75 -0.546875q0.46875 -0.25 1.109375 -0.25q0.640625 0 1.203125 0.328125q0.578125 0.328125 0.921875 0.953125q0.359375 0.625 0.359375 1.4375l0 3.875l-1.40625 0l0 -3.84375q0 -0.671875 -0.359375 -1.046875q-0.359375 -0.390625 -0.875 -0.390625q-0.578125 0 -0.984375 0.375q-0.390625 0.375 -0.390625 1.0625l0 3.84375l-1.40625 0l0 -3.84375q0 -0.671875 -0.359375 -1.046875q-0.34375 -0.390625 -0.875 -0.390625q-0.5625 0 -0.96875 0.375q-0.390625 0.375 -0.390625 1.0625l0 3.84375l-1.40625 0zm13.322327 0.09375q-0.96875 0 -1.71875 -0.453125q-0.75 -0.453125 -1.15625 -1.203125q-0.40625 -0.765625 -0.40625 -1.6875q0 -0.921875 0.390625 -1.671875q0.390625 -0.765625 1.109375 -1.21875q0.734375 -0.453125 1.734375 -0.453125q1.0 0 1.71875 0.453125q0.71875 0.453125 1.109375 1.21875q0.390625 0.75 0.390625 1.671875l0 0.609375l-4.984375 0q0.015625 0.1875 0.25 0.578125q0.234375 0.390625 0.640625 0.625q0.40625 0.21875 0.9375 0.21875q0.5625 0 0.9375 -0.234375q0.375 -0.25 0.671875 -0.78125l1.484375 0q-0.46875 1.21875 -1.21875 1.78125q-0.734375 0.546875 -1.890625 0.546875zm-1.796875 -4.078125l3.484375 0q-0.0625 -0.390625 -0.53125 -0.84375q-0.453125 -0.453125 -1.203125 -0.453125q-0.765625 0 -1.234375 0.453125q-0.453125 0.453125 -0.515625 0.84375z" fill-rule="nonzero"/><path fill="#ffffff" d="m552.24176 106.17679l0 0c0 -1.8525467 1.50177 -3.354332 3.354309 -3.354332l0 0c0.88964844 0 1.7428589 0.35340118 2.3718872 0.98246c0.62908936 0.62905884 0.9824829 1.4822464 0.9824829 2.371872l0 0c0 1.8525467 -1.50177 3.354332 -3.35437 3.354332l0 0c-1.8525391 0 -3.354309 -1.5017853 -3.354309 -3.354332z" fill-rule="evenodd"/><path fill="#ffffff" d="m626.60065 70.7238l0 0c0 -1.8525467 1.501831 -3.354332 3.35437 -3.354332l0 0c0.8895874 0 1.7427979 0.35340118 2.3718872 0.98246c0.6290283 0.62905884 0.9824219 1.4822464 0.9824219 2.371872l0 0c0 1.8525467 -1.50177 3.354332 -3.354309 3.354332l0 0c-1.8525391 0 -3.35437 -1.5017853 -3.35437 -3.354332z" fill-rule="evenodd"/><path fill="#000000" fill-opacity="0.0" d="m555.59607 102.82246c0 -30.22644 18.0 -56.1458 36.0 -60.45289c18.0 -4.307083 36.0 12.9981 36.0 25.9962" fill-rule="evenodd"/><path stroke="#ffffff" stroke-width="1.0" stroke-linejoin="round" stroke-linecap="butt" d="m555.59607 102.82246c0 -30.22644 18.0 -56.1458 36.0 -60.45289c18.0 -4.307083 36.0 12.9981 36.0 25.9962" fill-rule="evenodd"/><path fill="#ffffff" d="m269.46628 312.71353l0 0c0 -1.8525391 1.5018005 -3.3543396 3.3543396 -3.3543396l0 0c0.8896179 0 1.7427979 0.35339355 2.3718567 0.9824524c0.62905884 0.62905884 0.9824829 1.4822693 0.9824829 2.3718872l0 0c0 1.8525391 -1.5018005 3.3543396 -3.3543396 3.3543396l0 0c-1.8525391 0 -3.3543396 -1.5018005 -3.3543396 -3.3543396z" fill-rule="evenodd"/><path fill="#ffffff" d="m344.1791 370.55493l0 0c0 -1.8525391 1.50177 -3.3543396 3.3543396 -3.3543396l0 0c0.8896179 0 1.7427979 0.35342407 2.3718567 0.9824829c0.62905884 0.62905884 0.9824524 1.4822388 0.9824524 2.3718567l0 0c0 1.8525391 -1.50177 3.3543396 -3.354309 3.3543396l0 0c-1.8525696 0 -3.3543396 -1.5018005 -3.3543396 -3.3543396z" fill-rule="evenodd"/><path fill="#000000" fill-opacity="0.0" d="m272.82062 309.3592c0 -12.500122 18.677155 -32.228607 37.35434 -25.000244c18.677155 7.2283325 37.35431 41.413513 37.35431 82.82703" fill-rule="evenodd"/><path stroke="#ffffff" stroke-width="1.0" stroke-linejoin="round" stroke-linecap="butt" d="m272.82062 309.3592c0 -12.500122 18.677155 -32.228607 37.35434 -25.000244c18.677155 7.2283325 37.35431 41.413513 37.35431 82.82703" fill-rule="evenodd"/><path fill="#ffffff" d="m321.0188 147.99559l0 0c0 -1.8525391 1.5018005 -3.3543243 3.3543396 -3.3543243l0 0c0.8896179 0 1.7428284 0.35339355 2.3718872 0.9824524c0.62905884 0.62905884 0.9824524 1.482254 0.9824524 2.371872l0 0c0 1.8525543 -1.5018005 3.3543396 -3.3543396 3.3543396l0 0c-1.8525391 0 -3.3543396 -1.5017853 -3.3543396 -3.3543396z" fill-rule="evenodd"/><path fill="#000000" fill-opacity="0.0" d="m324.37314 144.64127c0 -12.500076 27.417328 -30.71276 54.834656 -25.00016c27.417328 5.7126007 54.834656 35.35047 54.834656 70.70095" fill-rule="evenodd"/><path stroke="#ffffff" stroke-width="3.0" stroke-linejoin="round" stroke-linecap="butt" d="m324.37314 144.64127c0 -12.500076 27.417328 -30.71276 54.834656 -25.00016c27.417328 5.7126007 54.834656 35.35047 54.834656 70.70095" fill-rule="evenodd"/><path fill="#000000" fill-opacity="0.0" d="m604.36176 333.0748c-65.34247 0 -98.015686 -14.472443 -130.685 -28.944885c-32.66928 -14.472443 -65.334656 -28.944885 -130.66931 -28.944885" fill-rule="evenodd"/><path stroke="#ffffff" stroke-width="3.0" stroke-linejoin="round" stroke-linecap="butt" d="m604.36176 333.0748c-65.34247 0 -98.015686 -14.472443 -130.685 -28.944885c-32.66928 -14.472443 -65.334656 -28.944885 -130.66931 -28.944885" fill-rule="evenodd"/><path fill="#000000" fill-opacity="0.0" d="m326.74503 145.62372c0 -12.991547 70.24408 -48.994904 140.48819 -25.983093c70.24408 23.01181 140.48816 105.03879 140.48816 210.07758" fill-rule="evenodd"/><path stroke="#ffffff" stroke-width="3.0" stroke-linejoin="round" stroke-linecap="butt" d="m326.74503 145.62372c0 -12.991547 70.24408 -48.994904 140.48819 -25.983093c70.24408 23.01181 140.48816 105.03879 140.48816 210.07758" fill-rule="evenodd"/><path fill="#000000" fill-opacity="0.0" d="m607.7218 271.82678l76.0 0l0 30.897614l-76.0 0z" fill-rule="evenodd"/><path fill="#ffffff" d="m622.8657 297.12894l-2.46875 -7.9375l0.953125 0l2.03125 6.671875l2.140625 -6.671875l1.03125 0l2.140625 6.671875l2.03125 -6.671875l0.953125 0l-2.46875 7.9375l-1.03125 0l-2.140625 -6.671875l-2.15625 6.671875l-1.015625 0zm11.834473 0.09375q-0.875 0 -1.53125 -0.40625q-0.65625 -0.421875 -1.015625 -1.125q-0.359375 -0.703125 -0.359375 -1.5625q0 -0.859375 0.359375 -1.5625q0.359375 -0.703125 1.015625 -1.109375q0.65625 -0.421875 1.53125 -0.421875q0.75 0 1.28125 0.296875q0.53125 0.28125 0.859375 0.765625l0 -0.96875l0.90625 0l0 6.0l-0.90625 0l0 -0.953125q-0.328125 0.46875 -0.859375 0.765625q-0.53125 0.28125 -1.28125 0.28125zm0.125 -0.8125q0.671875 0 1.125 -0.3125q0.46875 -0.3125 0.703125 -0.828125q0.25 -0.53125 0.25 -1.140625q0 -0.625 -0.25 -1.140625q-0.234375 -0.515625 -0.703125 -0.828125q-0.453125 -0.3125 -1.125 -0.3125q-0.671875 0 -1.15625 0.3125q-0.46875 0.3125 -0.71875 0.828125q-0.25 0.515625 -0.25 1.140625q0 0.609375 0.25 1.140625q0.25 0.515625 0.71875 0.828125q0.484375 0.3125 1.15625 0.3125zm7.0618896 0.8125q-0.90625 0 -1.5625 -0.40625q-0.65625 -0.421875 -1.03125 -1.125q-0.359375 -0.703125 -0.359375 -1.5625q0 -0.859375 0.359375 -1.5625q0.375 -0.703125 1.03125 -1.109375q0.65625 -0.421875 1.5625 -0.421875q1.0625 0 1.8125 0.5625q0.75 0.546875 1.015625 1.421875l-0.96875 0q-0.203125 -0.515625 -0.65625 -0.84375q-0.453125 -0.328125 -1.078125 -0.328125q-0.671875 0 -1.15625 0.3125q-0.484375 0.3125 -0.75 0.828125q-0.265625 0.515625 -0.265625 1.140625q0 0.609375 0.265625 1.140625q0.265625 0.515625 0.75 0.828125q0.484375 0.3125 1.15625 0.3125q0.625 0 1.078125 -0.328125q0.453125 -0.328125 0.65625 -0.84375l0.96875 0q-0.265625 0.875 -1.015625 1.4375q-0.75 0.546875 -1.8125 0.546875zm6.559326 0q-0.921875 0 -1.59375 -0.40625q-0.671875 -0.421875 -1.03125 -1.125q-0.359375 -0.703125 -0.359375 -1.5625q0 -0.859375 0.359375 -1.5625q0.359375 -0.703125 1.03125 -1.109375q0.671875 -0.421875 1.59375 -0.421875q0.921875 0 1.578125 0.421875q0.671875 0.40625 1.03125 1.109375q0.359375 0.703125 0.359375 1.5625q0 0.859375 -0.359375 1.5625q-0.359375 0.703125 -1.03125 1.125q-0.65625 0.40625 -1.578125 0.40625zm0 -0.8125q0.671875 0 1.125 -0.3125q0.46875 -0.3125 0.703125 -0.828125q0.234375 -0.53125 0.234375 -1.140625q0 -0.625 -0.234375 -1.140625q-0.234375 -0.515625 -0.703125 -0.828125q-0.453125 -0.3125 -1.125 -0.3125q-0.671875 0 -1.140625 0.3125q-0.46875 0.3125 -0.703125 0.828125q-0.234375 0.515625 -0.234375 1.140625q0 0.609375 0.234375 1.140625q0.234375 0.515625 0.703125 0.828125q0.46875 0.3125 1.140625 0.3125zm3.5024414 2.046875l0.703125 -2.546875l1.171875 0l-1.046875 2.546875l-0.828125 0zm8.008484 -1.328125l0 -7.09375l-2.765625 0l0 -0.84375l6.4375 0l0 0.84375l-2.765625 0l0 7.09375l-0.90625 0zm3.8113403 0l3.15625 -4.109375l-2.9375 -3.828125l1.125 0l2.359375 3.109375l2.359375 -3.109375l1.140625 0l-2.953125 3.828125l3.171875 4.109375l-1.140625 0l-2.578125 -3.40625l-2.5625 3.40625l-1.140625 0z" fill-rule="nonzero"/><path fill="#000000" fill-opacity="0.0" d="m292.2861 159.42783l76.0 0l0 30.897629l-76.0 0z" fill-rule="evenodd"/><path fill="#ffffff" d="m307.40466 176.22997l0 -7.9375l0.90625 0l0 3.515625l4.609375 0l0 -3.515625l0.90625 0l0 7.9375l-0.90625 0l0 -3.546875l-4.609375 0l0 3.546875l-0.90625 0zm10.785919 0.09375q-0.921875 0 -1.59375 -0.40625q-0.671875 -0.421875 -1.03125 -1.125q-0.359375 -0.703125 -0.359375 -1.5625q0 -0.859375 0.359375 -1.5625q0.359375 -0.703125 1.03125 -1.109375q0.671875 -0.421875 1.59375 -0.421875q0.921875 0 1.578125 0.421875q0.671875 0.40625 1.03125 1.109375q0.359375 0.703125 0.359375 1.5625q0 0.859375 -0.359375 1.5625q-0.359375 0.703125 -1.03125 1.125q-0.65625 0.40625 -1.578125 0.40625zm0 -0.8125q0.671875 0 1.125 -0.3125q0.46875 -0.3125 0.703125 -0.828125q0.234375 -0.53125 0.234375 -1.140625q0 -0.625 -0.234375 -1.140625q-0.234375 -0.515625 -0.703125 -0.828125q-0.453125 -0.3125 -1.125 -0.3125q-0.671875 0 -1.140625 0.3125q-0.46875 0.3125 -0.703125 0.828125q-0.234375 0.515625 -0.234375 1.140625q0 0.609375 0.234375 1.140625q0.234375 0.515625 0.703125 0.828125q0.46875 0.3125 1.140625 0.3125zm6.5024414 0.8125q-0.609375 0 -1.171875 -0.28125q-0.546875 -0.296875 -0.890625 -0.875q-0.34375 -0.59375 -0.34375 -1.453125l0 -3.484375l0.90625 0l0 3.46875q0 0.8125 0.46875 1.3125q0.46875 0.5 1.203125 0.5q0.5 0 0.90625 -0.234375q0.421875 -0.234375 0.65625 -0.640625q0.25 -0.40625 0.25 -0.953125l0 -3.453125l0.90625 0l0 6.0l-0.90625 0l0 -0.9375q-0.328125 0.4375 -0.796875 0.734375q-0.453125 0.296875 -1.1875 0.296875zm6.635803 0q-0.828125 0 -1.40625 -0.265625q-0.5625 -0.28125 -0.875 -0.734375q-0.296875 -0.453125 -0.328125 -0.984375l0.9375 0q0.03125 0.3125 0.203125 0.59375q0.1875 0.28125 0.546875 0.453125q0.359375 0.171875 0.921875 0.171875q0.1875 0 0.453125 -0.03125q0.265625 -0.046875 0.5 -0.140625q0.25 -0.09375 0.421875 -0.28125q0.171875 -0.1875 0.171875 -0.5q0 -0.359375 -0.296875 -0.5625q-0.28125 -0.21875 -0.734375 -0.328125q-0.453125 -0.109375 -0.96875 -0.21875q-0.515625 -0.109375 -0.96875 -0.28125q-0.453125 -0.171875 -0.75 -0.484375q-0.28125 -0.328125 -0.28125 -0.875q0 -0.828125 0.59375 -1.265625q0.59375 -0.453125 1.765625 -0.453125q0.78125 0 1.28125 0.25q0.5 0.234375 0.75 0.625q0.265625 0.375 0.3125 0.828125l-0.90625 0q-0.046875 -0.390625 -0.390625 -0.65625q-0.328125 -0.28125 -1.078125 -0.28125q-1.421875 0 -1.421875 0.859375q0 0.359375 0.28125 0.5625q0.28125 0.1875 0.734375 0.3125q0.46875 0.109375 0.96875 0.21875q0.515625 0.09375 0.96875 0.28125q0.46875 0.171875 0.75 0.5q0.28125 0.328125 0.28125 0.890625q0 0.875 -0.671875 1.34375q-0.65625 0.453125 -1.765625 0.453125zm4.237152 -0.09375l0 -5.203125l-1.21875 0l0 -0.796875l1.21875 0l0 -2.140625l0.90625 0l0 2.140625l1.375 0l0 0.796875l-1.375 0l0 5.203125l-0.90625 0zm5.760803 0.09375q-0.921875 0 -1.59375 -0.40625q-0.671875 -0.421875 -1.03125 -1.125q-0.359375 -0.703125 -0.359375 -1.5625q0 -0.859375 0.359375 -1.5625q0.359375 -0.703125 1.03125 -1.109375q0.671875 -0.421875 1.59375 -0.421875q0.921875 0 1.578125 0.421875q0.671875 0.40625 1.03125 1.109375q0.359375 0.703125 0.359375 1.5625q0 0.859375 -0.359375 1.5625q-0.359375 0.703125 -1.03125 1.125q-0.65625 0.40625 -1.578125 0.40625zm0 -0.8125q0.671875 0 1.125 -0.3125q0.46875 -0.3125 0.703125 -0.828125q0.234375 -0.53125 0.234375 -1.140625q0 -0.625 -0.234375 -1.140625q-0.234375 -0.515625 -0.703125 -0.828125q-0.453125 -0.3125 -1.125 -0.3125q-0.671875 0 -1.140625 0.3125q-0.46875 0.3125 -0.703125 0.828125q-0.234375 0.515625 -0.234375 1.140625q0 0.609375 0.234375 1.140625q0.234375 0.515625 0.703125 0.828125q0.46875 0.3125 1.140625 0.3125zm4.158661 0.71875l0 -6.0l0.90625 0l0 0.9375q0.3125 -0.4375 0.78125 -0.734375q0.46875 -0.296875 1.203125 -0.296875q0.625 0 1.171875 0.296875q0.546875 0.28125 0.890625 0.875q0.34375 0.578125 0.34375 1.4375l0 3.484375l-0.90625 0l0 -3.46875q0 -0.8125 -0.46875 -1.3125q-0.46875 -0.5 -1.21875 -0.5q-0.5 0 -0.90625 0.234375q-0.40625 0.21875 -0.65625 0.640625q-0.234375 0.40625 -0.234375 0.953125l0 3.453125l-0.90625 0zm6.135803 1.328125l0.703125 -2.546875l1.171875 0l-1.046875 2.546875l-0.828125 0z" fill-rule="nonzero"/><path fill="#ffffff" d="m326.15555 192.89664l0 -7.09375l-2.765625 0l0 -0.84375l6.4375 0l0 0.84375l-2.765625 0l0 7.09375l-0.90625 0zm3.8112793 0l3.15625 -4.109375l-2.9375 -3.828125l1.125 0l2.359375 3.109375l2.359375 -3.109375l1.140625 0l-2.953125 3.828125l3.171875 4.109375l-1.140625 0l-2.578125 -3.40625l-2.5625 3.40625l-1.140625 0z" fill-rule="nonzero"/><path fill="#000000" fill-opacity="0.0" d="m437.40683 192.35432l75.99997 0l0 30.897644l-75.99997 0z" fill-rule="evenodd"/><path fill="#ffffff" d="m449.9994 217.65648l0 -7.9375l3.34375 0q0.71875 0 1.375 0.265625q0.65625 0.265625 1.171875 0.78125q0.515625 0.515625 0.8125 1.25q0.296875 0.734375 0.296875 1.671875q0 0.9375 -0.296875 1.671875q-0.296875 0.71875 -0.8125 1.234375q-0.515625 0.515625 -1.171875 0.796875q-0.65625 0.265625 -1.375 0.265625l-3.34375 0zm0.90625 -0.859375l2.40625 0q0.859375 0 1.484375 -0.421875q0.625 -0.4375 0.953125 -1.140625q0.34375 -0.703125 0.34375 -1.546875q0 -0.859375 -0.34375 -1.5625q-0.328125 -0.703125 -0.953125 -1.125q-0.625 -0.4375 -1.484375 -0.4375l-2.40625 0l0 6.234375zm9.873566 0.953125q-0.875 0 -1.53125 -0.40625q-0.65625 -0.421875 -1.015625 -1.125q-0.359375 -0.703125 -0.359375 -1.5625q0 -0.859375 0.359375 -1.5625q0.359375 -0.703125 1.015625 -1.109375q0.65625 -0.421875 1.53125 -0.421875q0.75 0 1.28125 0.296875q0.53125 0.28125 0.859375 0.765625l0 -0.96875l0.90625 0l0 6.0l-0.90625 0l0 -0.953125q-0.328125 0.46875 -0.859375 0.765625q-0.53125 0.28125 -1.28125 0.28125zm0.125 -0.8125q0.671875 0 1.125 -0.3125q0.46875 -0.3125 0.703125 -0.828125q0.25 -0.53125 0.25 -1.140625q0 -0.625 -0.25 -1.140625q-0.234375 -0.515625 -0.703125 -0.828125q-0.453125 -0.3125 -1.125 -0.3125q-0.671875 0 -1.15625 0.3125q-0.46875 0.3125 -0.71875 0.828125q-0.25 0.515625 -0.25 1.140625q0 0.609375 0.25 1.140625q0.25 0.515625 0.71875 0.828125q0.484375 0.3125 1.15625 0.3125zm4.483795 0.71875l0 -8.40625l0.90625 0l0 8.40625l-0.90625 0zm2.460022 0l0 -8.40625l0.90625 0l0 8.40625l-0.90625 0zm4.991272 0.09375q-0.875 0 -1.53125 -0.40625q-0.65625 -0.421875 -1.015625 -1.125q-0.359375 -0.703125 -0.359375 -1.5625q0 -0.859375 0.359375 -1.5625q0.359375 -0.703125 1.015625 -1.109375q0.65625 -0.421875 1.53125 -0.421875q0.75 0 1.28125 0.296875q0.53125 0.28125 0.859375 0.765625l0 -0.96875l0.90625 0l0 6.0l-0.90625 0l0 -0.953125q-0.328125 0.46875 -0.859375 0.765625q-0.53125 0.28125 -1.28125 0.28125zm0.125 -0.8125q0.671875 0 1.125 -0.3125q0.46875 -0.3125 0.703125 -0.828125q0.25 -0.53125 0.25 -1.140625q0 -0.625 -0.25 -1.140625q-0.234375 -0.515625 -0.703125 -0.828125q-0.453125 -0.3125 -1.125 -0.3125q-0.671875 0 -1.15625 0.3125q-0.46875 0.3125 -0.71875 0.828125q-0.25 0.515625 -0.25 1.140625q0 0.609375 0.25 1.140625q0.25 0.515625 0.71875 0.828125q0.484375 0.3125 1.15625 0.3125zm6.671295 0.8125q-0.828125 0 -1.40625 -0.265625q-0.5625 -0.28125 -0.875 -0.734375q-0.296875 -0.453125 -0.328125 -0.984375l0.9375 0q0.03125 0.3125 0.203125 0.59375q0.1875 0.28125 0.546875 0.453125q0.359375 0.171875 0.921875 0.171875q0.1875 0 0.453125 -0.03125q0.265625 -0.046875 0.5 -0.140625q0.25 -0.09375 0.421875 -0.28125q0.171875 -0.1875 0.171875 -0.5q0 -0.359375 -0.296875 -0.5625q-0.28125 -0.21875 -0.734375 -0.328125q-0.453125 -0.109375 -0.96875 -0.21875q-0.515625 -0.109375 -0.96875 -0.28125q-0.453125 -0.171875 -0.75 -0.484375q-0.28125 -0.328125 -0.28125 -0.875q0 -0.828125 0.59375 -1.265625q0.59375 -0.453125 1.765625 -0.453125q0.78125 0 1.28125 0.25q0.5 0.234375 0.75 0.625q0.265625 0.375 0.3125 0.828125l-0.90625 0q-0.046875 -0.390625 -0.390625 -0.65625q-0.328125 -0.28125 -1.078125 -0.28125q-1.421875 0 -1.421875 0.859375q0 0.359375 0.28125 0.5625q0.28125 0.1875 0.734375 0.3125q0.46875 0.109375 0.96875 0.21875q0.515625 0.09375 0.96875 0.28125q0.46875 0.171875 0.75 0.5q0.28125 0.328125 0.28125 0.890625q0 0.875 -0.671875 1.34375q-0.65625 0.453125 -1.765625 0.453125zm2.9403076 1.234375l0.703125 -2.546875l1.171875 0l-1.046875 2.546875l-0.828125 0zm8.008514 -1.328125l0 -7.09375l-2.765625 0l0 -0.84375l6.4375 0l0 0.84375l-2.765625 0l0 7.09375l-0.90625 0zm3.8113098 0l3.15625 -4.109375l-2.9375 -3.828125l1.125 0l2.359375 3.109375l2.359375 -3.109375l1.140625 0l-2.953125 3.828125l3.171875 4.109375l-1.140625 0l-2.578125 -3.40625l-2.5625 3.40625l-1.140625 0z" fill-rule="nonzero"/><path fill="#000000" fill-opacity="0.0" d="m239.7874 240.92914l76.000015 0l0 30.897644l-76.000015 0z" fill-rule="evenodd"/><path fill="#ffffff" d="m251.40646 266.2313l3.375 -7.9375l1.125 0l3.375 7.9375l-1.0 0l-0.96875 -2.296875l-3.9375 0l-0.96875 2.296875l-1.0 0zm2.328125 -3.125l3.234375 0l-1.625 -3.890625l-1.609375 3.890625zm8.51767 3.21875q-0.609375 0 -1.171875 -0.28125q-0.546875 -0.296875 -0.890625 -0.875q-0.34375 -0.59375 -0.34375 -1.453125l0 -3.484375l0.90625 0l0 3.46875q0 0.8125 0.46875 1.3125q0.46875 0.5 1.203125 0.5q0.5 0 0.90625 -0.234375q0.421875 -0.234375 0.65625 -0.640625q0.25 -0.40625 0.25 -0.953125l0 -3.453125l0.90625 0l0 6.0l-0.90625 0l0 -0.9375q-0.328125 0.4375 -0.796875 0.734375q-0.453125 0.296875 -1.1875 0.296875zm6.635803 0q-0.828125 0 -1.40625 -0.265625q-0.5625 -0.28125 -0.875 -0.734375q-0.296875 -0.453125 -0.328125 -0.984375l0.9375 0q0.03125 0.3125 0.203125 0.59375q0.1875 0.28125 0.546875 0.453125q0.359375 0.171875 0.921875 0.171875q0.1875 0 0.453125 -0.03125q0.265625 -0.046875 0.5 -0.140625q0.25 -0.09375 0.421875 -0.28125q0.171875 -0.1875 0.171875 -0.5q0 -0.359375 -0.296875 -0.5625q-0.28125 -0.21875 -0.734375 -0.328125q-0.453125 -0.109375 -0.96875 -0.21875q-0.515625 -0.109375 -0.96875 -0.28125q-0.453125 -0.171875 -0.75 -0.484375q-0.28125 -0.328125 -0.28125 -0.875q0 -0.828125 0.59375 -1.265625q0.59375 -0.453125 1.765625 -0.453125q0.78125 0 1.28125 0.25q0.5 0.234375 0.75 0.625q0.265625 0.375 0.3125 0.828125l-0.90625 0q-0.046875 -0.390625 -0.390625 -0.65625q-0.328125 -0.28125 -1.078125 -0.28125q-1.421875 0 -1.421875 0.859375q0 0.359375 0.28125 0.5625q0.28125 0.1875 0.734375 0.3125q0.46875 0.109375 0.96875 0.21875q0.515625 0.09375 0.96875 0.28125q0.46875 0.171875 0.75 0.5q0.28125 0.328125 0.28125 0.890625q0 0.875 -0.671875 1.34375q-0.65625 0.453125 -1.765625 0.453125zm4.2371826 -0.09375l0 -5.203125l-1.21875 0l0 -0.796875l1.21875 0l0 -2.140625l0.90625 0l0 2.140625l1.375 0l0 0.796875l-1.375 0l0 5.203125l-0.90625 0zm3.2401428 -7.015625l0 -1.171875l0.96875 0l0 1.171875l-0.96875 0zm0.03125 7.015625l0 -6.0l0.90625 0l0 6.0l-0.90625 0zm2.460022 0l0 -6.0l0.90625 0l0 0.9375q0.3125 -0.4375 0.78125 -0.734375q0.46875 -0.296875 1.203125 -0.296875q0.625 0 1.171875 0.296875q0.546875 0.28125 0.890625 0.875q0.34375 0.578125 0.34375 1.4375l0 3.484375l-0.90625 0l0 -3.46875q0 -0.8125 -0.46875 -1.3125q-0.46875 -0.5 -1.21875 -0.5q-0.5 0 -0.90625 0.234375q-0.40625 0.21875 -0.65625 0.640625q-0.234375 0.40625 -0.234375 0.953125l0 3.453125l-0.90625 0zm6.135803 1.328125l0.703125 -2.546875l1.171875 0l-1.046875 2.546875l-0.828125 0zm8.008545 -1.328125l0 -7.09375l-2.765625 0l0 -0.84375l6.4375 0l0 0.84375l-2.765625 0l0 7.09375l-0.90625 0zm3.8112793 0l3.15625 -4.109375l-2.9375 -3.828125l1.125 0l2.359375 3.109375l2.359375 -3.109375l1.140625 0l-2.953125 3.828125l3.171875 4.109375l-1.140625 0l-2.578125 -3.40625l-2.5625 3.40625l-1.140625 0z" fill-rule="nonzero"/><path fill="#000000" fill-opacity="0.0" d="m337.26727 272.809c0 -39.55905 46.724396 -79.1181 93.44879 -79.1181" fill-rule="evenodd"/><path stroke="#ffffff" stroke-width="3.0" stroke-linejoin="round" stroke-linecap="butt" d="m337.26727 272.809c0 -39.55905 46.724396 -79.1181 93.44879 -79.1181" fill-rule="evenodd"/></g></svg>